<mxfile host="app.diagrams.net" modified="2022-06-13T17:27:54.836Z" agent="5.0 (Macintosh)" etag="_eRMSm2CyGufKQMQIQIH" version="19.0.0" type="github">
  <diagram id="7W6MC5fbRLsB4xXZ25xV" name="Page-1">
    <mxGraphModel dx="1082" dy="1713" grid="1" gridSize="10" guides="1" tooltips="1" connect="1" arrows="1" fold="1" page="1" pageScale="1" pageWidth="850" pageHeight="1100" math="0" shadow="0">
      <root>
        <mxCell id="0" />
        <mxCell id="1" parent="0" />
        <mxCell id="f-IwnxBNQnKeJ6FMDn0c-1" value="" style="shape=image;verticalLabelPosition=bottom;labelBackgroundColor=default;verticalAlign=top;aspect=fixed;imageAspect=0;image=data:image/png,iVBORw0KGgoAAAANSUhEUgAAAzEAAANSCAYAAABV9kB0AAAAAXNSR0IArs4c6QAAAFBlWElmTU0AKgAAAAgAAgESAAMAAAABAAEAAIdpAAQAAAABAAAAJgAAAAAAA6ABAAMAAAABAAEAAKACAAQAAAABAAADMaADAAQAAAABAAADUgAAAADBrAKwAAABWWlUWHRYTUw6Y29tLmFkb2JlLnhtcAAAAAAAPHg6eG1wbWV0YSB4bWxuczp4PSJhZG9iZTpuczptZXRhLyIgeDp4bXB0az0iWE1QIENvcmUgNi4wLjAiPgogICA8cmRmOlJERiB4bWxuczpyZGY9Imh0dHA6Ly93d3cudzMub3JnLzE5OTkvMDIvMjItcmRmLXN5bnRheC1ucyMiPgogICAgICA8cmRmOkRlc2NyaXB0aW9uIHJkZjphYm91dD0iIgogICAgICAgICAgICB4bWxuczp0aWZmPSJodHRwOi8vbnMuYWRvYmUuY29tL3RpZmYvMS4wLyI+CiAgICAgICAgIDx0aWZmOk9yaWVudGF0aW9uPjE8L3RpZmY6T3JpZW50YXRpb24+CiAgICAgIDwvcmRmOkRlc2NyaXB0aW9uPgogICA8L3JkZjpSREY+CjwveDp4bXBtZXRhPgoZXuEHAABAAElEQVR4AeydCbyVc/7Hv9la1G1He4pKoVRMkSkZFUqEkCXDUJaRUsZMtPk3liT7VJZRpIWsGWVJDRHTakllpNKG0kYLTf2f9+/6Hs99Oufec84999zz3Pv9vl7PeZ7nt35/n3Pl9znf5VdinydiYggYAoaAIWAIGAKGgCFgCBgChkBIEDgoJHqamoaAIRAiBJb1qhIibU3VoohAwzEbi+KyivWatm/fIwsW/CDLlm/PWBwaNignzZtXknLlbHuVsV9SASm28ptt8sr0r2TLtt0FNEPBDVshq6T0vKixcA+ThPK/sq07f5YHZ36S8ThXKF1Sbmp/XMbraQoaAmFEoHLnW6VKl1vDqLrpXMAIGIkuYIALYfixj38lEyeuEohMpgsE5pJL6si119TPdFVNvxQhAHE54YwJsmVr+AiMQvD05CWy8O1L9TUU99CRGAhM+/tflcVrMvtXNgjMO/26hOKPwJQ0BAwBQ8AQMAQyFYGhQz+T16atc+o1OLqctGhR0bN0HJxx6m7f/ovMn79Zln+5XcaO/UrWr9spgwcfm3F6mkKpRwACEGYCAyKLPv9eZn2wRtqdXDP1ABXQiKEiMZ+s2eQIzJadmc10lcA0rVlFdv2yR8Z9uFx6/b5xAX2FNqwhYAgYAoaAIVA0EYAMQGDKlj1IhniEoF27wzJ+obNmfSdDfiVe1aqVlmuvNYtMxn9p+VQw7AQmn8svtO4HFNrMCU4cVgLTZMhk+Xb7jgRXa80NgaKNQPnWF7sF6r1Mg5Pl4Mq13MUzonXuxT4MAUOg2CGA69jESavcusNCYFAWooW+iOrvXuzDEDAEUopAKCwx4+cuk6vGvZvShRfEYEELDARm1Q+ZG4BYEBjYmIZAPAhknXyJbP1wkui9dIM2Isvfd1153rH8g0hdPONZG0PAECh6CMyf/4OLgcGFLAwWGP83gL7ojWsZlpmw6e9fiz0XDAJtW9eUl5/uknAwPQkE2nV7QVat2VYwioVo1Iy3xDw081MjMCH6gzJVDYHcEDh61FdS65ZXvSYlctzLNGwjlbvc5i6e/W3oY2IIGAJFD4Fbb71V/vvf/8Zc2PJfs5ARAxOUdet3igv2n7Q6WJUx76q3riNjFDNFMgIBYk+SyQZWt1aWnHumuSjyJWa0JYbYl6Y1K8s7fc/JiD+43JSoU7mc1PUuYmDMApMbUlZXnBHYteYz+WZk14QgqHXLKwm1t8aGgCEQDgTGjBkj999/v1x55ZVy2223yVFHHRVV8WhB/BOfW+W5amUTmM5nV8/IlMbR9I66QCs0BBJEIBnyk+AUoWie0SQG96y2DaqHAkiUNAITmq/KFE0zAmUanCJlGp6S9KykU965fI7nZjYn6TGsoyFgCGQWAiNHjpQ///nPMmHCBBk/frxcccUVuZIZv/bzF2wWgubXexaZWbO/ky6ds/cKC7zyI6qVck0XeJnCmpPJrOzB7nwZkgO0aFHJ1WHJ+dKz9Kxbv0vatq0q1b2xiMH50nP/8kvz5tlWINozXgPvHBguhLINXn/aMO86LxtZ51/18I9hz4aAIVAwCGQsien3/AcFs+ICGLVTk1rSoXEteejdTy0GpgDwtSHDjwDkgytZq8qmaffGDcLeXdtlzUPZiQNq3jRJDihVTjZNGyEbX7tHStf/nfjLfnj7H1Kj9zjZ+Ordbnyti3ey7Qtek3Vj/ijVe/1TyjVPX0r1XV/Pl28evFAq/eE6qfiH3vutVzHY+dVHbin+dUdbm65D69K9Hp03VffvduyVcuuyU/Kmasx4xvn222/l8MMPj6eptfEQOOuss+T2228XcEOUzFx++eXy17/+1Ssp4cqDH5ANXLT69WvoWXKWeWmNf4iQmGt7/cdZZfQ8Gc5sgcRAOJD7RjRz8SnnnPNeZNiRI5fKcxNaeyTmF+nVe16knId5/+ngYlqGDvssckbNJRfXlltuaSTTXlvnXNqYQ+eDyFg2shwQ2kseCBDjMm7KkjxaZVf37N5YcCczyUYgY0nMQyE4zFL/iCqUOcSRmF2//E+L7G4IGAI+BMg45oL3fWWJPGZbYt53Af959YO0HFSxuuxa8R/Zu+tHR2J2r1/uuu1e94X87D2XOrKFUHZg6Sw55IijpPatr+c1bKjqN789WvZsXiv17/lUdq6Y54gWZZU7D9hvHXu2rJfvn7/DOzj0LxFCxHvpei3loArV9msfhoIpX+ySF088Me2q1qxZU9asWZP2ecM84bZtvwUn79q1yy0FMrNjxw457bT/i7o0LC9IQ6wiXvA8FhK/QCjendnepTme7bUdPOhY2f7jHuG8GcgPQfaQFiwqBN33H7DI3Tmgcszols46Q1u1whB7s2+fuDFv6b/QubFd0qNOZErGb9CwnECM5nmE6lqxeIUIOPaQJwKQmCH3zc2zHQ1IBmAk5jeoMpbE/KaiPRkChkDYESDbGFeZhsnFtyRiiQGrktUayPZ5L7kNPJtxCA2yd+c2+WXzugjJKVXvRI/klJXV957t6rHEbHimn2tfpslpsvW9Z+QAj+jU6vO8Iz40UqsOz+Vanscth6x7/Bo3N4VqAflpyawcFhttoxYP3tGx9l/ekK3vP+usRvQ/uFJNV5YomYCg/fLDGrd+LEQNx8Q+HHiPh8f/PFzQEatOkND5rTR+fVTngyrWECw+lc64QX5469GIVcpvLYI8xTsOmBzskVAsTXxfiOLkXuL4uLFFGXl4zNo4WlqTwkRg586dUrVq1YgKpUuXlqysLO+AyMFy3XXXuQMjI5W+BywvCK5hBM8TGwM5UTcv6rCOQHIgMc4a4737paz3DjnhQEoV2jHmWM8a486lGZKdJpmxITTUt/TqcR0L9sMdzcQQSAYBAvz3rb85ma7Fvk/O/6ozGI7LftdAbu14gjSuVtGLPUm/xaPUwQfK5+t+kHtnLJQJH3+ZwUiZaoZA5iGgZ8AkqxmWnF82feOueMY4tEl7wVXs53VLXXM29Id1Hy6bvbLt8191m2Q27pCdaEL7Qxu3lypeLM7qe870xhot1a95XNiYMy7khXc28n7RjT0WEIS+kKLDLhzmCAlzH9q4nWclyXZ1Qr+9v75DqChnfKwi5dtc5vp/9/wgN5d/nnifcXVjrGgWmOAYEJGVQ0/NQZpY74bxfXJYadaN/ZNzyaM/OFW98E5HfLDobJ//SjbmHnH66fOZbgq+i0TGUVe4ktWPcfOAX9gtQ0Gs7T0bgVGjRsnevXslSF7ywgdigrQ88c1IUywgfhITqYjygKXm0ks/lGpHlHYWFH+T5yaucu5puKoZMfEjY8+GQOYhkPEploHsznNOkqevbO8IDO8QinRfzNukeiUZ98fTZUiX9LspML+JIRBeBPBtj+7fHv+a4u+POxmuYlgkIApYEA5tfJpnganhiMLu9cvcr/yHVG8UdXqsL1gDsNJoHzbXujGv5FkskHItfsucyCYeawpkBMsJV/lTLvX6vOPmVJKyZ/N67z3bSoD1Y6dHFHBz849F/A4WmXp3LUqKwChpQkfGWvHXZoJ+0QTXOmJrEEjJV385zlmbeNf1QkRw08smYGudmx714IqlC2G9rJE1MRd3iMghHlFMZBw3mPcBqSK26YjL73c4JGqN0nHsnpkIYIUZMmSIlClTRgjw37Bhg7O+5KUtVhFICAH0uH4R44LMD7iU5TbO8uXb3Bi4lWlCANoTN/O4Z53B6tLDcy1TIYEAAfyIxtZY5jFFx+6GQOEhkPEkplr5MvLXM5sXHkJRZr79rBZyeJaZjqNAY0WGQFQEftm0Ol+ZxXBFY4x4RckHBAbrB0TkoIrV3CYcwuCsMb4NeHBcCBBEKBFRt6xY1h3KmXvrnGed+1alM653ZAbrBQJpglAc2uR09w75WNarSoRQuMI4P9jwQ4DU3Q1ygkUnlmCpqXPbDOc6RxusQVhPIIG4dK26u6PTBZ2wYKklKTgeREzx5Q7pgfwkMg7tcWtDIDJf9jnSuftBIk2KDgJYX55++mnZuHFjXORFV47FBcl2Javk4ltw/VLrjLbL7V6tevb/v6dNW+fFyXweaUqgPgQJdzGsPFy4rt3iWWUgLz086w19IDnxWn0ig9uDIWAIpByBjHcn69SkdsoXnYoBOzauLePnLkvFUDaGIVDkEUh3imW1GrDpRnCpogzLC5vynz5728WrQHYSFY2rgXD4xW/98Zfrs7q4YZXAQlHGs25s8awtxN0QO4PFAsFNTbxLY0ggFPQNzqfj5nZnrD2eKxtubRAPiAA4RBPGP/qBFZGYH2KHIF4/BWKCovXVMqwyEMCt7z/jitAbSXQcjePBooPukJlYiQncBPYRSgR69OiRsN5YQK69pr6LhdHOZAojRgWiQZ0K8TIE2Stp0X64iWHFwXpDG73TLxiUT98WvvZYgNRKE218nUt1sLshYAgUHAIZT2JKH5I/FRev2Sizl68XDs70CwdTcpBm05pV/MVxP+dXr7gnsoaGQBFAIJ0plhUuv6uYPrPJxgUKywSkgw19Ir/wKxHBksNGm7uKulPhUqauW1vnTHCWFQgC80Be2JBjISntlem7WiyUuGggO+0YLxGrkG78sT6RqEBF16vvetdEBTon5epOh3UIEgXxgmT5U1drf/9dMSCpgp+YKW7xjKP645oGCSPmhtge/Q7989lz8UPA7/6lq/eX+dMbq7VG28Wqo52K/1nLuAfHilbmH9/f154NAUOgYBDIH0MoGJ1SMirkhbNmZi/P/awAyMwVrRvKoLOz/bpTMrkNYggYAjkQSLclhsldTItnFcAyoHEb6mYGifHHoORQNpcXyMgRVzzoNtXLvI26umtpFw32J64Eod5ZVrxntQ45EuO5XfGu5EQ36BAjrEZs2lUgF4nEg9C2+rVPuuxeuGIhEApiS6IJrmS4ewXnVMuPrherlmYni2XNYXxwhcQoMaPMj1te4/j1x50OAUewMTEEDAFDwBAwBBSB0JOYlZu2y6uLV8ori792a9qy42fh3JZVXjl1eQlthk2bJ+M/XCZ1PEKDQGzaNqguV7RqmFd3qzcEDIE4ECgMSwwbZ9yj/MLmO5hCOFimpEP7Bdurq5PW4/rlF9c/UKb1EAZ/prBobYNttK//HlxbUMdgvb9vtOdoemi7/db7a0UQp7zaJzJOovrr3HY3BAwBQ8AQKD4IhJrEjPOIxy2etSXoKpbM1weZUdIz2xuAsSE3U3t3TNrlLBk9rI8hUJQRKFXzWKl1S2JnxdDHxBAwBAwBRYDzXfxCnIqmQ86tjj4E5r/mXQjnyJBK2cQQCAsCHIy5as02Wfz592FRuUD1DC2JwU3s6vHvFig4kJrT739N/ju8h1QoXbJA57LBDYHigMCXfbODbiEy34zs6ggN98reeSw7l7/vICjdoI0XXH5vpK444GJrNAQMgfgRGDv2K3cYJRnCSLk80Tvb5dVXfu8Oo/TXkWWMujGjT3TZxKiD5JAyuVq1UvLurO+SIjEkENCUy2h9hDeWkqj4V2EtDYHYCChZmfXBGuGZi+doUj6rpDRrUlUqlM++162VJVxPT14i46YsidYlZtm4ceNk/BM5fySI2TiJih9//FE6dOggf/rTn5LovX+X0JIYLCXpEKw8i7/Z5NzL0jGfzWEIFAcEtn2YHXCu953L53gplH/9B9p7RrSuOOBhazQEiiMCL774onTr1i2ppUNgxo450VlVhg79zJEVDazXOggOaZFH3r/MZSPT9MzPTWjtCE88E5NymfTNs7xr+bLtkXNiovWFyJCxjCQAbdse5p7JdkZZbnLrrbfKvffem1sTqytmCFzZ502Z/WH2/xOVpHTtVN+RlS3bdsuWrbvlyosaS7uTa8ZEJhbpidnBqzjssMOkUb3EjhfIbbxg3erVq+Wuu+4yEqOuX0GAUv1evvQhkViZVI9t4xkCxRWBrR9MdEvXOzEzKnoejNZpud0NAUOg6CCwfft2ueSSS+Twww+XO++8U3r27JnU4qp7VpBYAplpcHQ5d9YLbfSASgiJP6NZrP5YbbDkQGT8opYcLfvRq1/+ZTbBWTdtpyNW5cod5K2vjiix0rb++zXXXCP//Oc/5X//+5/cfPPNUr16wW0e/fPaczgQaOpZVxa9fel+ykJOuHIjMPt1irPgzDPPLJBxdfqFCxfKK68k5lKufaPdQ2eJwY3soZmfyr+/zD3rWLTFJlO2defPLu7myZ7tzKUsGQCtjyFgCBgChoAhEECgXDniUfrJfffdJ3379pVhw4bJoEGD4iYzP/6YfSjlxEnZh+BCWKJJWY9MIBCRXtfWd4QGyw2xMRxiGatf/wGLZJbnboZAhDp3qS4tPQtLrPa0w82MM2foh/UG9zWsQfeNaEZ1RCAvHPQJedm3b593YGc7IzARdOxBEajguYmZ5I7AAblXZ1YtBOb0Ua9GMpGlSzsynxEbY2IIGAKGgCFgCBgCqUHgb3/7mxx44IGyefNmWbFihSMz9evXF/zy8xLIwbW9/uMIA4H97dodlmsXLCMQkOeeay20nz//B+nV+z9R3cMgIVxlyx7kCAh9OOAyNwLD5LiTYeEZeV8zwWUN8qNjUQ95Ofjgg+XJJ5+UPXv2OAJD+XPPPcfNxBAwBBJEIFSWmAdnfpLg8lLXnHNnMlWWLVsmF110kSxevDii4rPPPiuXXrq/GTLSIMGHnTt3ul/Mrr/+eqlcuXKCvbObb9q0SR577DHp37+/lC5dOscYuBPwKxzStGlTmTx5sjRsmHvWmFGjRslZZ52VZ7scE9lL2hAgWL8gpUzDUwpyeBvbEMhIBPh3fe7cuXLAAaH6DTImlgcddJDs3p19GDVkhuu6666TN954Q9q3Hx6zX/PmFZ1lpVfvebkG1ROADxlRgWgMGXys64O72LTX1u3n8gVBQqpXL50nOdJxg3cID7EwuJkxXs+eJ8o333wTIS7avkSJElKnTh19LfZ3LFNly5aVKlWSO4g8PwCyt2GfkozUbPQnr5tZTpLBLj99fvsvOz+jFIO+xMZksuBPjEkegXDwXLduXTnllMzf6EFgEP7xQiBlN910kzz00ENGUBwi4fyo0qVgSUw4UTGtDYH8IYA/+Zw5c+TQQw/N30AZ0rt9+/by008/RbQpWbKknH322YKVxuNquQoB9JCZiZNWufgTrC1+IZUyLl5YXhCeg1nE1N3M30+fIR+4lZGGOdhP20S747qGTurqRht1m1u7dm2OLpBRCJtJNgL//e9/HVaFgcmqVauSJpQPPbVcZs1bbl9jmhHI+V98midPdLquTY90B1sm2i+/7SEwT/U8Lb/DpK0/Vo7LL79cZs6c6UjMhAkT5LLLLnPz43eMNWXgwIEyfPhwWbp0qbRp00bef/99adSokSs/55xzZPz48c4aQiesOv4MMvxSwa+BM2bMyGE18VtTevXqJVhKEAjVmDFjhLIaNWq4Mv3QXz2wzqhggcEqM2XKFO+XuPby8MMPO13QceXKlW4tHTt2lOOPP951UdLGHGrFqV27tgwePNhZp4488kjp3r27nH766a49fcEkWYuS6ml3Q8AQMATSjQCb3nr16nlB6tFjQNKtT37mw22MAH8E8tKlSxf3b/9xxx3nyubOzTvVK3EuWGMIwNcgelIrtzzxTTcGQfhaPmTIZ0IdVhIIChaaLp1z/j/JdfJ9qDsYfYiJwbqiCQKO9tzFvvQsLSpkPyMmBle1oFx44YXCRUY2fqRTMrN3716ZNGmSPP7448EuxfK9UqVK7m/7qKOOSvv68zNnpUqp99bZ6mUh0wxlfjDsjJjf0AgVienZuqHg1kV6ZQLu0yUVy5QUCFSYBFMsJlmsGtOmTZONGze6TTtEA+ICmeAOKcAVjTtCefny5aVChQqyY8cOIR0e/rtkrFDBJQySNH36dDc+9X369HHj3HHHHc4SBIGg77x58+TUU0+V0aNHu18Pn3nmGR3G3dELPYPuZao/jZo0aeKsNKyFXyHRi+vGG290Y/A/BZ0DUgRBQw9ErTkQKtabl4ua62QfhoAhYAgYAgWOAIH9WGEuuOCCHOQlr4mvvaa+VPNcvRCsMbyrRYVnBNKBZYZ6lf63NHIxKlhk2nkpkMkeFrTeaFvuxLQQa/OcR5AgPVw8xyNYf9Dhfi+9s1/4QZDLT2b4f6iRGD9KxeuZlMlBYgKB+do7G2bwiP3NkZpiOa8UypwtU9QlVCSGL+P+C0+RRd65LenKTsacm3dk++vyHBaBHHCoEHLSSSdFrA78ggdhwcKBpQYCQZpLgiq5KEcgBRALyETwFz/6tGzZ0rWjftu2bVKqVCk3rpIELCJXX311jjGx9AQtMfRHT6wpfiLj1x+dEcrQhXZcrAtBbyw3am1ibm3L+AixMxo3ZJYYB4l9GAKGgCFQqAj06NHDs5JcK2p5iVcZtaxoe/+7/1nr9Q6p4IpXIEaMxwWBwSqzzLtv3/6LaFplf7plzV4GcYIcRbPI6Nx+MjN06FAttnsxRGDRZ9/Laee/sN/K27auKbNevGC/ck2xPKR/q/3q/AVD7psrQ0fuT4L8bcL+HDoSA+Bdm9VNK4kJmxUGQoDFA2sJ8vHHH7tgNdynlKhAKGizdetW53+MjzVCORaL3ATSgYUFwgJZyMrKkjVr1rh5iGthfiwxiJImYnNoq64DOr66dOEvrNYTLC64vWFFoY8KhIT+jI+sX7/e3ZkjmMhA27gG3ge6Llq0yL3iSoYVKZWJD3QeuxsChoAhYAjEhwCuwmGRRAlQvOtSMhNve2tX9BBodmxVeXdqTrJy86DZRW+hBbCiUJIY3MpwKftkTXJZJBLBsU4lzxzc/eREusRsu2HDhsjGO2ajJCrKlCnjUlJimlchfkSD+jt37hzJ9AE5oFw3+biOQSSwpmAlUVKh40S7E1MDAcDyoTEoEAxiZNCBsg4dOjgCwj/QxMTQljLqggJ5wc2NLC2IjqkkSdvzTh3r5Q7hQvxz8I6lBfO8X/zxOmqJ4dCldMoJJ5yQzulsLkPAEDAEDAFDwBDIcAS2bN0/9gV3MjsnJu8vLpQkpkLpkjKz3znSb8oHMn5uTn/Tm9ofl7KYmStaNXQEhvlSIcRzEHyealmwYEHEyhBtbAhH0OqAOxZxKir+Z0iOEiBIjVpI9E4fLBlBiVZGG8b2jx/sxztj+8fXNn5dKIu2FsqjzeEfL9r4Z5xxBl0LXCCMWKs++uijAp/LJjAEDAFDwBDIDATWeemdTQyBvBAgdgXXr6DUqZkVLLL3AAKhJDGsAWJBxjCsJIu9GBmkTuVyUte7sNT09QhOInEzZCCjH+M2rVVZ2jao7p7dwCn6IDsXl0lmIAD5S4dg8SE+yMQQMAQMAUMgPAiQyYzA/Gu8ZAG5JQCItiLSK48d+99oVVZmCORAoN3JNWXf+ptzlnXbP0YmRwN7cQiElsTo9wfpgHD4pWnNKs5SQyazWcvXyWzv2rLjZ5fZTLOaQVpoV6HMIS7zGGNAgApCUmXJKQjdbExDwBAwBAwBQ8AQiI4A2ci4yFJGwH5DLzHAEdVK5Tg3hnNhSLW8bt1OF8w/a/Z3XvzmnugDWqkhECcCi5dkB/xDcurWynIXwf4mvyGQ8SRm58/J/0MASeHq0z77PJHflp3/px1x6oV1Bxc3E0PAEDAEDAFDwBAIDwKkWG7QsJx3TME6l5mM7GTxCodwQnj8B17G29faGQJkHiMLGa5m787Jvq9a81vKZEiNi5spX1IgObieUVbcJONJzNyvv83I7+SjOPSCwDx5xWkZqb8pZQgYAoaAIWAIGAKxESDF8pDBx8ot/bzzZTzrCimTsbbgZhYUCA9n13AYJlab6t4hm7TPi8RwQv3YsWPl3nvvDQ5p70UcAdIfJ5sCGXLzwOP7Jydq1qSqVPiV2EQ7KLOoQZrxJOaL9Zvl4Xc/lT+fljnWjAfe+USWf7sl178FP4HBhQ33tXQIqZI5B8YfyE9mLs5/0WB9vx4EnZPemIxj8WQm8/fVZ1Ii/+tf/3JZyLSMNMZ6bouW+bOOaVm8d8arW7dujjVEK4t3PGtnCBgChoAhYAjEgwDxMF28wyu5UiWQl7vuukvGjx/vMm4aiUkVssV7nEWff+8AyOsgzKKCUsaTGIDuO2WOzF/1vXc+zJEubmXP//amHf+DDjxAVm7aLi8v+lomfLQ81/n9BIbsafQbdHb24ZC5dixClZpFbNOmTfLYY49J//79cxxmmYql+olaKsazMQwBQ8AQMAQMgYJEQMkL57QdeOCBctBBB8nIkSMLckob2xAosgiEgsSA/rMeceDKdAkSmKvGvSuDOmcGgcFKQ5rnN998UxYvXuwOiOSMFRUIB8SA8178VhP/GStkVxs1apTs2LEj0nbAgAFSrVo1HSbXOzpwwNnkyZOFs2xmzpwpgwYNcn2ija1nuuigqqMe5Il1BtExedaDL5mrTZs2bi2cUdO1a9cclhzamhgChoAhYAgYAgWBgD/FcpC8/PLLL8J1+OGHy1lnneW5qa0rCBXSNmb16qmzUqVN6RROhAuXSfoRCA2JST80ic/YtWldl0iAnlhgIDCZJhxq+eGHHzoSMnDgQM93t11ERSwmkAPOe8FFjAMj+/TpIxdddJE7wwXXs8GDB8vq1atlypQproy2uHWtWLEiMk5eD02aNJF9+/YJhKRq1apRx1Y9GFvPn9m4caOgM2W4vnFXqVChglsTuqE36+KXLvpwOCYHbpoYAskgsMU7dGzc5CXCPaxCwGfP7o3Dqr7pbQgUCgKpTLHMWWUvvfSSIy6QF5WtW7fKiSeeqK+hu7OW5s2bR/4/HboFpEjhKy9q7M56Idg+rNLUi6chSUCYxEhMCr8tMqEhmUpg0O3UU091bl0cdtmwYUO3yaccKVu2rLRsmW01qlKlikB4SpUq5WJsaItgocFas337dqENQp/vvos/a0u9evVcP4jI0qVLnR4UMDbnqfj1UJcxCMu5554rWGaiia4LncqVK+fWhc4a50O9iSGQKAIQlyNPeko4UTnsQoabpx/sEPZlmP6GQFoRSFWK5YkTJ7pDmYcMGeL+38qPggguZVhp+H9yGMXOQcv+1ipklZRFb18qT3s/eIVRsCRBxMImGUti9vyjd9iwdPoWNoFhE//II49Ip06d3AYea8fatWulUaNGjjC89957ggsZ7mBYW7p37x7B+ccff5R58+ZFyA2nzK9Zs0Y+/vhjZzlRSwzExk8UsHbQN1Fh/uDYjMFYjAkJwSUMlzOID+5nCBYjftXKTcCB8Vk/lhjWra5nufWzOkPAj8DLb3xVJAgMa3plxlf+pdmzIWAI5IFAflMst/TOlRn7+G//3fXu3Vu4Ro8eLUpm9u7d6x2oeb/zMshDHavOcASweJMa2SR9CByQvqmK/kyvLl5Z6C5kbPw7d+7srCQlSpRwd1yz1CIBMWndunWkvFKlSpEvhgxluGDRDxcyrCI1a9Z0MTKU0Q+BYNCWWBnKhw0b5qwnkYHifIBoEH+T29jMwVwqmmHN70qmdf4762LdzIHerNvEEEgUAdJYFhXBmlSi2gPOshTWXwuLyndh6wgHAppi+d2Z7eW+Ec3kkotre65TFaMqD+Hp7GUvG+ylZH711VNl7JgTXbrlaI0hMhs2bHDkhR/Zhg4dKmqZidbeygwBQyA6Ahlpifn3l+uk/f2vRtc4A0sJ3Cf72KI1GzNCO1yw1A0rqBAuW8FUjn6rhsaf+PtFK6M+Vrm/L+TJPz4kRIkIdbHGCJb71+MfT+fyj0k9Fhh/TAyxPBAaE0OgOCOwb/3NQgrOdt1ecL7PxfFwtOL8/Yd17du3/xZDUhhrIMUyZ79wpVLUMoOrWVjdyVKJh41lCCSKQEaSmEQXkcntK5QuKQT8m6QXAQgScTBKXLAWaVxPejWx2YojAqOGtRUOHUtUsPz88eY3E+2WUHv0Injz5elfyc3XnJBQX2tsCKQTgQbeiffI/CiHS6ZTj2Tn2r59T1xdL7nkkrjaWSNDwBDIiYCRmJx4pPSNQP+pvTu6s21SOnCSg/mtIEkOEapuuVmkQrUQUzZUCNSpmZUvcoCrV0GftAyRWexZZEhcQECqiSGQiQi08GJKypY9SJYv3y6zZn2XcktIrDUrefryy+TnRWeNh9HxYs1n5YaAIZAcAhYTkxxuefZq26C6vNOvS8YQmDwVtgaGgCGQEgTC4qIFWarY8B/ywOMLU7JuG8QQSDUCuHH1uKSOG3bosM8ckUn1HNHGw22sbdvDvCyce6T/gEXS49IPZeKk1ULK5dwE4jJt2jrp1Xue68M746TaDS03HazOEChOCGSkJWbW8nAf+uQ/8LI4/THZWg0BQyA8CAy+pZWce2Z9OeEPXvryTvUlLOQrPAibpqlA4Npr68u69TsdOYBQYNUg6xdB9wUlLbzg/ZH3NZOxY78SUixDRkaOXBqZDnLVoMFvyWLWr9vpdIw08B6wIEHA0N/EEDAECgaBgvtXoGD0zfhRR154svRpf3zG62kKGgKGgCGAW1nb1jVl1gdrQnlGgH2DxQOBIV7Gr+rVSkcIBaSiIOXaa+p7mcUqOQJyiUdEZs3+TubP/8G7Nst6j1BhoeE9KNU8HVu0qOj6tvMsMJAdE0PAECg4BOy/sBRie1P744RAfhNDwBAwBECALGDxxreQOawwBAtMUUolXRgY2pwFjwAWDQgF5KGgSQxERAUi0sVLncylgmUI64tKteqlHcnSd7uHGwHSXfft29ctYtSoUS5zHMc6XHbZZdKrVy/xl40YMUImT54cM3EQ59VxZMXixYtd3+uuu0569uwZeT/ssMPceXmMr0dhxEKPrKvE+nI0hQrn52l2Vi2LdY+2rlhtw1KekSSm7dHV5Q4vZXFYBH0RIzBh+cZMT0MgPQhwAjKZwDJZzI0sk78d082PAISiIFId++eI5xmrEJdJ0USAdNc1atRwh21zMDjvK1ascIudO3eurF692pEWyo444ohIFtRoaHCAOARGyQZkxf/OWXjxiJKh888/P3I0BYeBt2nTRp599tmYx2rEM3aY22QmifGC4gmMNzEEDAFDIMwIQGJMDAFDwBAwBMKFQL169WTQoEGydOlSadSokSM0rAACwoHfHN8AicAKggVFLTW04Tw+rDO0w3qDQDYYj+Me9B3yERQlJpR37NjRjcv4U6ZMcYQpePg343EmXqdOndx8WH06dOggb775prRq1cqd08fB5VhvLr74Yjdd+fLlI9PGmg9yRV3dunVlzJgxjoSxZrUqMYASs8hghfBg2ckKAXSb0hAwBAwBQ8AQMAQMAUMgMxFo2bKlIyMrV650RAYS8PLLLztiMXPmTEcYNmzYIJAdrCTTpk1zZRAXrDO4nDVv3txZSVghG/6hQ4fmePcf4k0bxrnhhhtcGyxAEIiBAwfK2rVrI4SiTJkyNI0I86MH86ps27ZNPvzwQxk9erQ89dRTrh4yNmTIEPniiy+0Wcz5cDtDWPPll18u+/btc2thTRAjdIM8QXRwcStMyShLzEMzP5UtO3cXJh4pmZvsZHUqZR/SlZIBbRBDwBAwBAwBQ8AQMAQMgbQggNUBMqJuZFhFWrRo4YgFpAKXMqwyEA0O0p44cWIOawyxM4kKrmcIBAoXNg7sxsoCaUBwcaPcL8zvtw5RRz/aQTCwpuCCho6QE0iISl7zsWasUH7BKoNAaO644w5/VaE8ZwyJgcD0e35OoYCQyklxgxsUonieVK7dxjIEDAFDwBAwBAwBQyDsCGDxgCAsWbLEXTzj1gVBIJg/KyvLWWXU1Qx3MYgLFhGsJ8kIhAlC4icOuKb98EN2JjzIE0TET2SwFNEG0pWoxJrPb9XRMZkTqwwkRi9/kgNtl+57RriT/fvLdUWCwBDY/+QVp6X7O7T5DAFDwBAwBAwBQ8AQMARShACbdgjLpEmT3KXWDbV8QGR4huzgXobVYvjw4e49WRVwDYOQ4PqFCxfXokWL5He/+52LvYGwqFVG54gnuYCSH+2j91jzYbWJJsT/oBMkh/VCZl588cVoTdNWVugkZuvOn6XbP35LF5e2lRfARE/2bCd1K5cTSBmXiSFgCBgChoAhYAgYAoZA+BCApKjoM1YSNvCIunf541IWLFjgNvfaL5E7bmQIbl5YXHr37u0unrt37+5iW7Dy8I6QTIBkAVhIoqVnpgzioRnVcIHjWSW3+bSN3nFNI3kAcTCMq65kiou2S/e90N3Juo2eXiTiYLo2PVK4IGV9p3wgU3tn/5Gn+wu1+QwBQ8AQMAQMAUPAEDAE8ocALlpYRoiNURcvdTNj5Pbt27sJ2NwTu0Ib2pMdLJrVJC9tsIA8+uijLpMZbSFLEBWsQtS98847LpWyP7g/rwxh/fv3d4kB0I3sZMccc0xEjdzmizT69QHi8uCDD7rsZBAnhOD+eM+o+XWYlN8KlcQMe32ezF4efouFcyPzrDDIgzM/kad+tci4AvswBAwBQ8AQMATShMDOXbtk4NARbrbhgwdI6VKl5PmX/yV/HXKPnHPmH8Rf9siYp+Wpx0ZI/SPrRNXuq69XyVXXD5C16791fa/ueZFc3/f2yHuVKpVk/qLP5ImH75aKFX5L2xp1sF8LN2/ZKn/6822y+NMlOZrdNeQvcuG5Z7ky1TdHA+/F3yZYR58PP5rv1rfO09evdzJ6BsfnnTkQ1ZPnaHhTHk1GPDhG5s5blBBe0cYJlimmrVo2kwF9egWrk3rXdbX+XYsc601qsJB2YpOPO5dfIBRk/eJSYYM/ffp0fc1xJwOZPwtZ8F0tGtpJXbb03X/PbR7axauvf8xY8wX1ijW+f6zCeC40ErNy03aZtWyd/P7XgyILY/GpmnNw55buoMtP1mzyrDF1pWnNxAOsUqWLjWMIGALhQmDLtt2y+PPvZeU329y1eMn34VqAaZtRCEBaqh1xmNss79q125GYlau+cTrOX/SpsMGHtFBWpUplqVSxQkz9Fyz+3BGW5558UE5q0cxt4iE0+s6mPFnp9ccekQ33x/MXSY+r+7ihlCDUqHZ4DoIFgYB0NW/aZD/SxSZ+0tTX5OLzu7j1BvXOj57+9YFZ2za/8xcV2Wf+jiAw4PqHdqfETVKLLCC2sIxEoNBIDLEjM/udk5GgJKtUVulDXExMsv2tnyEQFgQ6d+7s8uKHRd9M0RPCMm7yEkdWFnnEhWvL1uhp5Zs2qSoVskpKu5NrOvW5VyhfUpp55bM+WCOnnf9CpizL9MgwBOrWqSVj/vmcfPnV13J0/SMdoUFFCMimHzY74oJFgF/usaD4LR9KHmiH9QaBYFx7ZQ8Z+/RzkXesIkHxk5GmxzWO2+IAQYLU6IY5OC7vdWpVj+gftBy9PWuOF2y8yREcdPDr7dfzznseklffeNsNDxE7rkmjHFYrteC0aHZcDovOjb2udBv59Ru+c3iq5QNrUrs22Slrs8qVjagdDc+gzpHGvgfIFt8b4reaqQWnTs3qTn90r1ypYg5rk2+YiHVI16oWLLWubNv+o2vO3weWOEifYub/3iCMEEfwVXLpn8eeDYHCRqBQSMyqH7bLKs8SUxSkjkfG9EwYiJmJIVDUEeDE4Ndff10OPPBA6dGjh/MFLuprTtX6Fn32vdw8aHZkuLatcxIU6s89s76c26l+pI09GAKJIsDmEzKy6ptsd2022w+PGCpPjJ8ss9//yG2A2fRDdnAZm/H2bPnPrFfdNLh6PTp2vNvEs/llc6uWlyPr1srx7rdwMM6A2//uXL46d2rvyAGkQd3X8loDukyb/o78sHlL1KbozZrYvAcFCwnEo7pXD1kI6o2eYPCXm3s5fXC3u+eBMY5kYW1gow6BgbhB9LBQYcXiHQFP9CpX7lApVaqk136cI00zXhrv6nFdY34kNzxdgxgfSlT83wPzqHuY6n//XXdESAp6vjzxcUdWIZqQUoR+q9asc98pRIU6SCCkDVHyAlboy/rBDIsL3/8T4ya5ecGTdYGviSGQiQgUColZudFzJSsCsTB8oe28c2GUxGTiF2w6GQKpRuCxxx6TJ598Un7++Wd3svBzzz1nZCZBkN+dekHEwuLvOuS+uc764i+zZ0MgUQRwEWODq5tPfl1vetwxwi/5WBO+WbvebdbZ2LKRfeKRe3JYY2iXqPBrPsKG3++KpC5tiY4Hmeh43hU5urHRDlo0sC6wprwEDLBKodvFF3RxG3s28+iLQFj8pI86iJOSo08/XyplDz3UkRusWJ07ne50YX4lMIyTDJ5YdvyWMcbBNQ5y0e2cTrx631+2/jxDuHANxEKEJY11UY8Ex9I61qYkRtfkOvz64SwxHr5Tn/mHv9g9gy/rBDsTQyCTECgUEsOBkFwmhoAhEE4E+vXrJ3fffbdTfu/evUZmwvk1mtZFFAGsBRCRZV+ucBfPbHbV6oBFQTfF6gKG+xJWAKwnyQiEKUg8sJxgwYg36N8/r7q1KWlRPZlHrRO0hyRhdUiGeNFfCd/rM2bK9u0/yaXdu7r7/IWfRYgFm3cITTzxMKpnIniCkVrG0Ck/omPhlqauaYynVprg2OALIaMtRIYLsuh3HwPfZMlocL7i8k5WscsuuyzHcjXbGAH6JqlBoNDPiUnNMmwUQyBzEZgxY4bLcHLAAQdIUbnuuSfbV96PupKZ448/3l9sz4aAIZBmBNQSMuv9ucIFeaFM40omTHnFbfohO2zOITR3/OUm5yqVrKq4g0E8cLH676LZ7pr9xpT9LCexxoec5JZoQC0Kwf5K2ILl8b5DsNjgf7ZkubNunN2xvUuMMPKRx50LGsQFK8SPP/2Uw5VNrRPBeZLBU4kUGCQi0drrWMQY6ffA3U/8gnNQRxvcBhEsQLiZqUAQwdkkMQT8B1dySCVnqpCdjDNXTFKDQKFYYlKjuo1iCIQDAf7hOvjgg+WJJ54Ih8JxaPn5559LNCJDXv0HHnhAZHL3OEaxJoaAIVBQCEBYVPRZiQDxFWQwg9j4Y1FwqSIYHCtCoqJuWbiVEUsRTPOc23hsmImHUfeoaG1x70Jv3Kz8whqC2dj89fpMXwLUideZ9MJrEUsU9RAVLBEac6Pvaq3CfWvtum+d1UZJD/pSjuDapS5lyeCpY+JShjsYQpIDdVlzBb4PjVXR9oqNJmrg7q8jJkYTGfiGcY9qOdK4J8gPfSFDKvq3ou92TxwBUjP37dvXnbNCOmbIjN9aA+GZPHmyS5PM6P66Xr16yahRo9ykjIFkZWXJiBEj3Lk0Q4cOlcGDB8vixYvd2S3+9MgcTqnnuug46EL5nDlz3Fk0eFYE53eThODDSEwIviRTMfwIEATPqbpFRapWrZpjKZAX/gHWw7+WTc5RbS+GgCGQZgQIgGdTjnUD8oKo1YINvbpGEczNhpn4E9o3PfYY556F+1AiglvSiP/7m4s1wSUJAsD5MZCMaBJ0dwq6MAVd0xiDDbbfzUnH9ROHWK5r6MM5MujGOsnKpW2V3GFxgCAgtFELBOSu4dH1Iu1v7NXTxeGAGdnJFF/6JYsn1hCC+09sl521lbXGsp6AKZYzgvBpD+lkfSqqn44FtmSAw6IUFMqph+ioQGjABnKpsTdaZ/fkEeD/kxycuWKF5+a5bJnL8Llx40Y3IKQGosK1YMEC54rGQZYcUkndfffdJxxcicydO9f9//bqq692pOgf//iHOwgTcoQLG/8f5vwXJSr+ORhHSQ5eIjxTzxxTpkyJ1LmJQvBhJCYEX5KpaAhkEgKc0qv/KPKPMv/wnXbaaZmkouliCBR7BCAVuHP5hc0v2a24VNisRgvmph7C4CcNwffgJpsNMW5JuUlu82m/4DxaHuuuxAGywbqD/f16+teu4wV1CmLHurhUouHor4uFp18Pbe+/Ux+tTbSyoM7+cWLpp+X+tjwH8dJ68IQEg69JahHgYMqJEyfuZ3FhlpkzZzoLCQSG+BkIydq1a2Xnzp1OiVatWknt2rUFFzVIEfW0w+tDBZc1LC1aRzk/pGK96d4921MC6wv/Dy9Tpozrq3NgqQmLGIkJyzdlehoCGYIApum77rpL3njjDWnXrl2GaJWZanAOzFbvbBgVDrVESLPMGTBB4cDLl6d/FbXO35bzZkwMAUMgGwE29LiZ4SZGBi426yb5QwCrDXiCK/iapBYBCEabNm0EFy9+FBw4cKCbAKICmcBKAsFQISmAkhgty+3OmBs2bJB69erFbAYB8s8Rs2EGVxiJyeAvx1QzBDIVgUT+Mc3UNaRDr5vvmC2zP1yz31QPDGsbM8Uyh1rqAZf7dfy1wA67jIWMlRdXBGJZE4orHvlddyyrTX7HLc79/cRCrS3Dhw93lhDFBStIjRo1nCWGuBh/JrNE/r8LOVHXNR27KN4tO1lR/FZtTYaAIZARCDxwZ1vhTBi9RnnkxcQQMAQMAUOg+CGA6zXEolOnTs5CgqUEYkMMzJgxYyKAENOCJWbp0qUukxntiW9JRNQNDYsPrmVczzzzjJx//vmR5AGJjJepbY3EZOo3Y3oZAoZAkUCgRAmRyFUkVmSLMAQMAUPAEMgLAbKFEddSwvsfABeEQq0rEBMIDfU33HCDdOjQQVauXOniXIhjefbZZ527GRaVul6siwb15zWnv56gfcZiDC6eNajf3y7Mz+ZOFuZvz3Q3BAyBjEYgljtZRittyhkCcSJA9qqrrh/g0gsPHzwgEotCPAUplslsRRYwAuW1LVnHEDJq+fsEpyRTl/+wRk0BrO1IRUx2LjKtIZoNTeM3nn/5Xy4bWW5z6Fi0JWuZij9TWrBO22j2sFj1qm8sPbS8f59r5c8DhkTWoeNrBjVSHfvXqfV54aft7F44CJDtiyuWYCkhm1gsidV/9OjRkS64nvnHgKTs27cvUs8DpCUacQmW+cfNMUCGvxyAiQlGqExR77DFdAssVdlqcG7S0TVr1syx2GBdbu8FsT500Zzduc0daz1gy1oYB9G1RSvL7XvQfrm1yU0/qzMEDIGCRcDcyQoWXxu98BGoUrmSbNm2PXJmChpxfgpl1CFKYEjBrAcwcvYIRCda2l8IDIdJfjp3hmvPAZoDbv+7cKaJjnfuJde4oHMdjwB0ypgrEYFMkGL6P7NedXNx551yFQiD6qLz+TOGBeshMPc8MMad+cL5Oau+WZsDH9ZMumc9hJR56KNjcw8eFOqvRxdk2vSZ7m4fhkBxRSDiTkbaVBgcF7mpyTWdSZtj0tEtWrQoV2ab25foXx/PpJlTEpFbv2AdpKhPnz7y448/Bqvifsc0iJkRX0iEO+9c8+bNy1FGWxNDwBAIJwLNmlR1QfoarM87Mm7KEnnFy0IWLeg/nCs1rYsrAlg+TjzheOGQSxWeKVOriKbq9Z+n0u2cTvtt7unPBh8C49/gY8nh4MfZ73/kpnjx1enunWB+FZ5pQ10iwqn3ekgk/dAZQgTJiEaw4hmbdVYsnyU/bN7izp2pU6tGDnwgeRAbPSA0njH9bQi6Bx90NzEEijMCERLjBwGTFBt9goDYtKtFgcAiLCUaYKTvlPXu3TuS/i3Y3t+HeSBHlHFhBWIOv5C1QeuVSPmtDmRoYL5LLrnEXbT1WzH8Y0V71hzZShiC1hqdMzjP8ccf73wXCbgizayu2b+eePTAN5H83KwT0TvPHIKEaOYK/CVVjyAmrqH3AflhXupVJ62zuyFgCGQOAnVrZUnb1jVl4Wffy7l/fE3adXtBSlR7QI486Sk57fwXHKmB2HBZGuXM+d5Mk9wRqFunZmTTz8b/syVLpcUJx0Y6KXnxW0ogJlOfHe1czSINvQfdoOPehUVGRc9QUZKjh3VqPXfK9KR6f3luz/TBba3fX++MkBYIEefJJJuq+cuvvpbNW7e5U+91PX5SBMlrdeIJ+609Nz39dWDAeBzyaWIIFGcEYsbEkFt66tSpEWuBgqT+dhAYyIpaE/Df858E6m/PJl9PEWUDjxWEoCUIDP0ee+yx/Xz2mIc5IFK0iyZffPGFO7X0kUcecePoaaeJHNQDgUEHiBu+hayJ3N11PQtI8+bN3bQ6D9Yg2m/ZsiUSIAW5mjZtWg4cVI9oOlPGIUUcVkQu8DVr1rg5IY0I81NGHTpwCBG4EvAF1mSrUP3AEtm2bZt8+OGHLsMFdaeeemrSFis3oH0YAoZA0gisWrNNho6cG7P/aafUdHXnnVlfOBeGi/NkSJuM6J3nCuVLCtYbyA8Xz3W8u4khkEkINDjK2y+88kYOl6maNapFVMS6wQGQuGhxyj2iMR+QmaBAIjhgkViQo5plZ/TTGJRdu3bLqjXrgl3ce+VKFZ0FJGpljEIOscQ9C9e241p1dK2C8SavvvG2cPlFY14oC9br2tQShcVlxtuzBd0RCMjFF3Rxz/rR4+o++ujuqoMWBuvBw2+J0nZ2NwSKEwIxSUw0EEj7hrCRZ7PNxl9zWAdPAqWdtoeEcFAP1gW1gkBqIDL+oCT6IHo4Tywild1KHBGAEEBadP7Vq1fnmT6ONHdIy5YtHSnAsqJBThAXDh+CPB1zzDGunZ6O6l4CH7mduhpoGnnVPOBguGrVKncgEVhBVCCOlPEMvpzI6scaywxYUq8kBtLCmKr7e++9J926dXNlkUntwRAwBNKCAKRkyH2xSUwiSmzZujsHqUmkr7U1BNKFQKWK5aXh0fUEt7FV36yTsoceGtWKwaZbN97Et9w66G554uG7I25nfn2V+FCG5QGSAQnq3Km91KlZ3d808sz8WEASFawlWF64ECxAj4wZJxr3ooQilmXGX6/WIz85q17tcMkqV1aw0CCQMLVOuQLvw0+KtIy7Eh+tJ+bn1jvuEtzxTAyB4o5AVHeyvEDBIpDXSaCxxmDTT55qBCKDC5S6b2kfLBCpFty/1B2L50cffdSRHcgArl1KCBKdF4LBuBAHcIEAxSMQNDB85ZVXXHPmh1QhlFEHsVGsVX/aQbrU7cx1sA9DwBAwBAwBQ6AQEcAt6/UZM52VIejqBfnwB8qjpj9uxK82Wcdw7eKuoi5ZxIDwTFIAjY+hzRtvzXJEhzJ/fIv2j3WHHA3++/37JQNAf+JyqE9U/tTzYufS5l+vX2d0JOZGrTSJjg85uviCcxwB9GOU6DjW3hAoCgjEJDFskslhHW1zT1l+TgLF6qEJBAAx2SD7RL4Af2A/c2PlQCBM/iD7RMakrcauBE9dzWscJSysXS09iitlCO9aFtRfLUd5zWP1hoAhYAiAQJ2a5oZmfwkFhwCuXLPemxvVyoA71aQXXs1BFt6eNScSN+LXis09JOWJcZMixWzWyRimMSBYIaZNf8cRIyUauIIRDwOJiFcgF8c2biSPjh0fISyMN+mF15wO1Ccq6P+Xm3s5ff0kQ2Nv0DvZgH7VRa1RYGhiCBRnBKKSGOI8cGvCRUvdxfwgxXsSKC5ZBKXjMob1AMuCWi7URYrNeSyy5J8z2jMnnHLSKe5tzKVkIFrbWGXqnqXB9XpyKmuPJ7ZGLSpYTLRvrLn85UpOKKtRo4abS3GlTDHRMvBSNz4sP7yrsHbqdH51L9N6uxsChkByCJBVrKhIUVpLUflOitI6cJlq0ey4qJYQrAf33vlXd6YMMS5ckJJYrmTqxqVtT2x3jrNeqCsa47088XE3BuTlzwMGy6Xduzo3M3/yAGJVqNdx/MH7ij1jkulL23GHRKkOtAuOw3jRxtIxj2vSyOniJ2JYnjjLBozAKijEvKieeteU0sG2kCtiah4Z83QOYhhsZ++GQFFHIBITg7sSlwrxKgS8xxIsAQTesxlHICNB6wAxGq1bt3aWDsZT6wfPBKCrkNI5GlnS+lh3XLdwvWIs4kSwhsRDPPzjMS/ubKwVcoCgD7pCwIKipAKsIBIPP/ywIxyQIdzS/KeuBvv63wnYxwqEaOwQzxoPxPyKCSe1EuivWCuWkE2ErGmnn366w5nvIbfvzXWwD0PAEIgLATb+fa45QR58fGFc7TO1UVMvKiwqTAAAQABJREFUIQBn1pgYAqlEADLxxCO/HRKpMSXMgUXCX0dbzj6JVzQbWaz2jE+ygFjCfEp6YrXRctrFaptbHf2j1UMy/FjQLpa+scrpoxJtnSQkSARPHcvuhkBRQqCE51q1L9ULYnMPsVAykOrxIRd9+/Z1w5IJLFHikmp9bDxDIDcEJk2aJFdddZVL0pBbu6JUt6xXFWk4JvscpKKyLlIh71t/c5FYjiYeGNK/VSQJAc9FRYri359+N1lZWe5HrXLlymmR3Q2BQkNg4cKFcvXVVztPkFQokerxUqGTjZE6BFL9/UZ1J0udujaSIWAIGAJFAwFiSvzpj8O8Kg7bNPeyMH+DprshYAgYAoZAxJ0slVDgClUABp6IilheRo8eHXm3B0PAEDAEChoB3LHOu+o1udlzLwuzPD15iQvyNxIT5m/RdDcEDAFDwBAoEBJjsBoChoAhUNQQOLdTfZEHOsgDYxe6wyk5eDKMQozPlRc1DqPqprMhYAgYAoaAIRBBwEhMBAp7MAQMAUMgdwQgMlgwTvjDBJn14gW5Nw5JLYdz1q1l6ZdD8nWZmoaAIWAIGAK/IlDgMTGk/u3UqZPL5KXPeuik3ps1ayZk2iIhAGVkPVPhmTJSIPfu3ds9az+9Mz5ja1st17sephmrXtMVq346HjpomV8nyhmT8dEpmMWMtv4xaI/QjvaqT3apfRoChkCYEKiQVdI732J3kYiP2bJtt7wy4ys590zPymRiCBgChoAhYAiECIECt8RwRgxCCmKVaOmYqWvYsKFL1Uz6Yk07zDPteeciFkazn0VLA02qZUiCpifWOfUerIdwcPmJBWfaoHesVMWQkffee88NOXfuXFm9erXTXeeIdSeWhzNcONcFkhNLx1j9rdwQMAQyA4GnH+zg4mOwzITVioEFhkQFXTvWl7C6xmXGX4NpYQgYAoaAIVAYCBSoJQYrBht2/5kneS2ye/fu7ryVRx55RLg4e4WyghL/YZX+OUaMGOGsQ/4yfYa0QF4GDBjgiubNm6dVed5btmwpGzZscCQpz8bWwBAwBDISAcjLwrcudQHyJKkP40W2tVHD2gqEzMQQMAQMAUPAEAgbAgVqieEUezbsalWJBxysMZCDyy67zDXH2kJZQcmKFSvcYZV6kCTzcGDlt99+K1OmTJHrr79+v6mVtPTo0UO2bdvmrDLdunWL67ya2rVrS6tWrYR5TQwBQyC8CGCBKUpnq4T3mzDNDQFDwBAwBIojAgVqiYHELF68eD9ccRHTeJVocSVYK7DAcPGciOAKBiHR8TXeRscI1uOaFnQ/46DO888/X6ZOnSpLly7Vru6urmQQEcgV7mHqUpajYR4va9eu3S+WJo8uVm0IGAKGgCFgCBgChoAhYAgYAh4CBUpiVq5cGRVkYlw4R0Yv4lyIF0EgCaNGjXLkBwLEM2XxCjEvkCcde9GiRTksOVr//vvvuyHr1q0rZcqU2W94LDBHHHGEi8fBmqSirmSQF3RWkqXWGW2X1x1sduzYkVczqzcEDAFDwBAwBAwBQ8AQMAQMgQACBUpiIAiJyoIFC2TMmDGOPOBKxjNlqRbidCBTjP/iiy/uNzxB95dffrm8+eabOaxJuJhBrnB3w9pDwgLeif0hBiheiUWe4u1v7QwBQ8AQMAQMAUPAEDAEDIHiikCBkhjcunAJi2WRCYIOCSBTGNYSLCFk8OKZskQIQnDcWO+aRCAWAdH5tT864H7Wq1cvZ0VRaw9kCze1oOuZ9ot2r1GjRsT6FK3eygwBQ8AQMAQMAUPAEDAEDAFDIDoCBU5icMkKBrEHY2KwaEAOHnvsMUcG7rjjDpd+GGsIzxAE6uKRYMwLY0OCookmEYg1vs6vfSEptFVXMi3XGB7OslEJ6qGxOeqORlY0E0PAEDAEDAFDwBAwBAwBQ8AQSByBEp41wUsQWnBC0DxnqhDbonEvBTdb5o8MWdNzaeycmMz/vlKh4aRJk+Sqq64qVjFQy3pVkYZjNqYCPhvDEEgYgaL895eVlSUkhilXrlzCuFgHQyDVCCxcuFCuvvrqlLn9p3q8VK/XxssfAqn+fgvUEsNSccnCnawg4lryB2X6e5OgANc1Ym2MwKQff5vREDAEDAFDwBAwBAwBQ6BoIFDgJIbN+vTp092Bl0UDsuRXgSWKTGyXXnpp8oNYT0MgAQTWrVsnhXF9t2Nv3FoSa8aPHZoWXe+x3ED9A2PZVHdUyumj/SdOnCi4cWIN5geE3r17u4vnYD//mAX1zJzoEktUJ9Wf91TKsmXLInjkd9wgnozH2tAdnKnXMnWldQVRPnTdqV5vlKmsyBAwBAwBQ6AIIVCgh10WIZxsKYZA6BDAbHveeefJL7/8knbdu1XbJacmOCvZAomBS1b8iTfUffWSSy5xw+mmOtmx89sPAnHDDTe4g3yjjYXuEDCShHBwbt++fVPudkoMICnnUyH8IENyEogHqeJ519hHPTeL+aIdJpyK+W0MQ8AQMAQMAUOgwC0xBrEhYAgUHgKVKlVy/vP40KfzurHF/mcvJYNC8Bd/tdoErTS7d++WgQMHusQbpE2HvH300UdxWR7UEjB27FjXHmsC46tVJ2hJUIuD3+rg1/PWW291FgmsS+jL1adPn0hq9qDu4MLZVpxHRfwggsUWC7a6naqOzKnj0k7LVddrrrkmh2XKb33xP9NXdWZMXTPliI4bnC+7NvuT5CQkMCHhCWukD0LKedajZaSzZx28+y1u2j57NBESo0TTRevtbggYAoaAIWAI+BEwEuNHw54NAUMglAiULFlShg8f7lKykwL9pZdekgoVKiS0lm+//dZZKrAIkUGRTTqbcTIs6qG7bLw5I4rDcqkj3u++++6LzIMVgiBXNvaQEiUiDz74oEs3j6UlN2uTEjA2/CpqxaEvVo+63vlbELagdYkcLXfffbfDAL0QPYRXD+V1hb9+qN6MyXpYM+uLdz7Nyshcmrnx5ZdfdvNDSJSYgSO6ojO6Mx9rwTLFXH5hDdSpLv46ezYEDAFDwBAwBPwIGInxo2HPhoAhUGgI+FOvB60f6VCqffv2bho23ZxvxSa9TJkybuOt87M55+wqDrnFuoCVAQuXEgoID+djcUVLL6/jBO+a7p1yTc+u8TN+IoLbFineIQ6QARXVXXXCogMR4t6qVSupXbu2NnV3tZJounjWAYHgHs98DOJfI/qAS4sWLRxeYEI6eawyEBdNLa/zKamC6KjoGrDWMJY/Zb22sbshYAgYAoaAIaAIGIlRJOxuCBgChYoAFhA20lzEbrCxzySBqLA5V5KB6xPEiw28khg27BCfZISEH1g0IFDIiBEjnKWCuBLIAMSJObEEYeXxEwD/fJABLEJYV7grcfC3USuJv0yf451PCd6SJUtk2rRpwtohUczHvG+99VaE8DEfa0B31sBaeAc7E0PAEDAEDAFDIBkEjMQkg5r1MQQMgWKHgAazYyVgU66EC5cxYo9SIRp8j0sVm3zmUcsQBEfnzI3kQRCwApGdDVGrh18/vxXFX85zvPOpVYhzkLiULEFm0B0SxjNkh/kgZ6xL18DdMjUG0bd3Q8AQMAQMgXgRMBITL1LWzhAwBNKOgBIHfrHHfUpjL9KuyK8TYuXwB7Pj+hQtUD9R/TRZgD/YnU0/m38lIbh5YfHxp4qONo+6lE2ePDmqKxl9tA3z4VrmD/pPZD5Iioo+Q6IgeggZzPgOcWfDrQ33NtbAeoMug5yhRR2kEIzVvUzHt7shYAgYAoaAIeBHwFIs+9GwZ0PAEMg4BLp37y5Tp051G3qC9nWDXBiKEjOCNaFNmzZuevTp379/nqroJh53KjbymgJaO2KRwI1Lx6UcdzB1qXv00UcjdawfEgA5iCUQAFzd1DoSrR164x4HUUJw51PLSLzzqYUFyw/kBVE3M56ViKAriRcYX93tdH1YmxAIj9aBMVibGAKGgCFgCBgCsRAo4Zn098WqtHJDwBDIPwK42lx11VU5ArHzP2reI3BODJmyFixYkHfjFLdY1quKNBzzW9B2ioe34QyBXBEoyn9/WVlZjnyWK1cuVwys0hBIBwKp/v9MqsdLBwY2R/wIpPr7NXey+LG3loaAIWAIGAKGgCFgCBgChoAhkAEImDtZBnwJpoIhYAgYAoaAIWAIGAKGQHgR6Dtotjw9ZYls2bo7dIuoUL6kjBraVq68qHGodDdLTKi+LlPWEDAEDAFDwBAwBAwBQyCTEJj1wRp54PGFoSQw4Ajx+uPNb8rKb7ZlEqx56mIkJk+IrIEhYAgYAoaAIWAIGAKGgCEQHQFITFEQIzFF4Vu0NRgChoAhYAgYAoaAIWAIGAKGQMYiYDExGfvVmGKGQPFG4JVXXpFPP/1UDjoo5z9Te/fudeeOkK7YxBAwBAwBQ8AQCCMC5bNKuhiUCt49EcFaMs6LvTERybk7MEQMAUPAEMgQBObOnStNmjSRY489NodGnG3ywgsvSCIk5vHHH3dk6I9//GOOsXJ7+eyzz9x5Lk8++WRuzTKibvTo0e7cmJ49e2aEPqaEIWAIGAKGQO4IEET/wLC2uTeKUbtl2255ZfpXMWqLT7GRmOLzXdtKDYFQIcDp7RCJ3btzZnr59ttv5aeffkpoLSeffLIccEBiIYDMwfxhkHXr1kUOigyDvqajIWAIGALFHYFELTB+vJo1qWokxgMksf+r+xG0Z0PAEDAEChiB7777TtasWZPjWr9+fY5Z//KXv8hXX2X/IrV48WJ3sCguZ8jEiRNlxowZ8sknnzjXtJUrV8rdd98tnEjfqVMn15YylQ8++ECuvPJKueCCC+S9997TYuFM4Ndee80dHtq1a1fhRHnKXn75ZTcHDXnncNFFixa5fug0bNgwQZcRI0ZIhw4d3LhTpkyJjKsP8YxDW9zrsCYx1qBBg2Tbtt8yyaxevVquueYaOeusswTLU7RzjCE7vXv3lvbt28uf/vQnWbp0qVOBts8995yce+65wvrATfvffPPNMnnyZOnSpYt8+OGHcu+996rajmBykCuEE13QCd3Q8fPPP3ftVqxY4frcdtttcumll8quXbsi/e3BEDAEDAFDwBBIFgEjMckiZ/0MAUOgQBG46KKL5JxzzpETTzwxx3XGGWe4jbhOjsVkzpw57vXdd991m/Gvv/7avT/zzDNSuXJlYSMNWWGjDaHYvHmz/O1vf5MDDzxQHnzwQdcWC0+/fv2kTZs2bhP++uuv6xSOwDz88MNug89GHPctyBGnprPhRyAtEyZMkNmzZ7t37r/88osjQ7NmzZKhQ4c64sBGHzLhl3jGQXeIR/PmzWXgwIFuDMiUCjFEp5xyilx33XXy9NNPy1tvvaVVkTtrOOywwxwG9evXl8GDB7s6cBszZowjdbikPfHEE7J8+XJX969//UsYm++ievXq8sgjj8iOHTtc3UcffeT0KFmypAwfPtw933777XL88cfLgAEDXJutW7fKfffd59z5Tj/9dDnkkENcuX0YAoaAIWAIGAL5QcDcyfKDnvU1BAyBlCOwZMkSGTt2rPvFHhIQTQj2f/XVV53l4fe//71Mnz5drrjiCmEz/oc//EHmzZsnVatWlS+++MLF1UBISpQo4awLbMCxWFSqVEl+/PFHZy1hDqwMuJxdeOGFwqYciwpzIJAh5mFsLBRYfCh77LHHhI08lgju1P/73/+WPn36OBKBZQbysWrVKkeYGAOiU6VKFTeufrRs2TLPcSBCyMUXXyxly5aVrKws6du3r1x//fWunNihbt26OZIAqXv++eedVcRV/vpBPBF9mR9ChKULYS0QjNNOO82tb9myZfLOO+9Iw4YN3feAFebss892LmvHHHOMEK+ENQd8IDdgCrF7++23XQxTo0aNHPGBOILXli1b5MYbb3T9E3Xr+1V1uxkChoAhUCQRID3zaee/ENfa3p16gbQ7uWZcbYtDIyMxxeFbtjUaAiFCoFq1atK9e3cX98ImmOD++fPny4IFCxz58C+FtlhacFWCSGBxwb0MtzBIDJaJ0qVL+7tIzZo15fDDD3dl9IfIIJCnk046ScqXL+/eTz311AiJYe6bbropEnfSrl07ueWWWxyROOGEE1zsDOQFVy0uNvWQGsjYnj17pG3btnLDDTc4nXDZatasmZtDPyAkeY0DSYCUQWIQCB7uZZs2bXLv6Ms4COvGbS4orOHOO+90bmPogCsYwvrATK1IGzZscGRECRLfgY7Nd4Nlhvlwg4M44uIHWYNUQQARdAWDo48+2mWTO+KII1y5fRgC6USATE4EQBMIHTYhZqKnF/ydn9iJsK25OOpbt1aWDL6lVVxLp63JbwiEksRs3fmzPDjzk99WkaFPFUqXlJvaH5eh2plahkBmIgCJwDLx0ksvuV/wecYlCUsEG2UVrAYHH3ywe61Ro4ZMmzZNjjvuOEcYcBljHOJeguJ3Z8IqoLEftNc4DvooueH50EMPlR9++IFHJxs3bnRECOtOx44d5f3333eWHOatV6+eTJ06VZo2beqsHozfv39/twaIAmSkVq1acuaZZ+pwzkqU1ziQA1zrcAlTgbgpufDHmqCflmtb7lhI7r//fvnmm2+cpQhrDASxTJkycvnll7t4GtpBkFizSqlSpfTRWWQgSMQNNWjQwLmYEbcEFiNHjnQudjRGnzp16jgrFOObGALpRgDicsIZE0J7ijp4PT15iSx8+9J0Q2fzpREBiMmQ/vGRmDSqFYqpQkdiIDDt739VFq/ZmNEAQ2De6dclo3U05QyBTEQAYgE5wcWpcePGzj0K9zEsDrg5qRAbo65JPLOBJp4D6wrWD9IwR4sL0f7Be4sWLZz1AgJQsWLFHH2xpOCSBvH43//+J8SJYLVBcMMikJ1YE2JbaEvwO5YXNva4umGtuOeee+TII4904xB/E5S8xmE+4moqVKjgiAMuYyQoACeERAQ///yzSyTAnFiLgkIMDGQJAgjBQCeyv+HmhvscLl8QFqw1xL8cddRRbgjWocI6cV276667HJEhrggrS926dYVYJCxFEEAsNg899NB+/XUcuxsCBY0ABGDL1vBZYPy4LPr8e8HdyFyI/KjYsyGQjUCoSMwnazY5ArNlZ2b/o6QEpmnNKrLrlz0y7sPl0uv3je1vzhAwBOJEgMB0NvxsqNmks3Fn43zJJZdERlACQwGxKGzwCU6H8OBORXrkRFyYsJwQK9OjRw9nxfC7oeGGdeuttzo3LOYlnkZdrbBuEPPRuXNnR1pIDECQO6QEwZL0z3/+051rg1UGSxDxJEHJaxzcv5iTmB0sIFilOCtHccDyAonDagWZwrISFDKHQXzINoYLGC5xWKBwgSMQn/gWMIMMxTpzhvmwwvTq1UueeuopNwVWogceeMAF8ONqRkY2EhBgIfNbz4L62LshUJAIhJ3AFCQ2NrYhUBQQCA2JCSuBaTJksvQ8uWFR+FuxNRgCaUGAeAwsCVhWICRYQF588UX3K//f//535/7FJhmLCCmMCVInngRLApt7ZMiQIc6dCSsBwoYbawIbfdzUVGiv75AWrCcEx2PJgaiwmUdwERs1apSzBqETdVgqEEgJlhmsNwgkhsB/LBMI+uFmhnUCNy0IGZv7oOQ1DoSOhAFYOBiHtaAD64LcYFEhFodsbVhLsEgFBYsLWcnQBWsX7VgPVhnwxtpFOWMTO4S8+eabLqbFPxaB/pAq+qtgDYOIQaIgRuABppRhFTMxBAwBQ8AQMARSiUAoSMz4ucvkqnHvpnLdBTJW0AIDgVn1w/YCmcsGNQSKKgIQhP/7v/9zG3026Oedd56zXEAs2HAjPENk2CwjbJaJh1FRgqHvfouMEh3q6Od/J0kA82MxUQsH7SBDkJLatWvzmqOOd7J4qRBL4teFNUASGDM4rvbRe27j0AZChI6sXQka5bo+xg/WUa/CenERgwCyPnRDeEZHYnX03T14H5CQoEByCPb3i2Lp/56oJx6G4H4TQyAMCLRtXVNefrpLwsH0JBBo1+0FWbXmt7i9MKzXdDQEwoxAxpOYh2Z+Kv2en5PxGBuByfivyBQMCQJYJNho6wYbUsHlFzbriLbx1+X3mTFjjesnNonOk9u4iYzFOH4C4++bW52/Xaz++Vmfjq9EU9/tbgiECQFiT5LJBkZw9rln1pcHH18YpuWaroZAqBHIaBJD7EvTmpXlnb7nZDzIdSqXk7reRQyMWWAy/usyBTMcgVgkQtXOq17b2d0QMAQMgXQhkAz5SZduNo8hUBQRyGgSg3WjbYNsv/MwgG8EJgzfkuloCBgChoAhYAgYAoaAIRB2BDKWxPR7/oPQYNupSS3p0LiWPPTupxYDE5pvzRQ1BAwBQ8AQMASiI0CMy7gpS6JXBkp7dm8sdghhAJR8vJK4ZN26dfkYIf1dt28vuPhn/haJtSLVNs9cpN6OJXVqZrm/R+0Xq1208k2bNnrYHxCtKiVl33//vUtMk5LBvEEylsQ8FILDLPVLqFDmEEdidv3yPy2yuyFQ7BFY1qtKsccgFQA8Mn+HnHN0SamdlZ1pLRVj2hiGgCGQOwJsAIfcNzf3Rr/WkgzASExcUMXViLg6DvYNkzRofpOnbsmUqczf3uwP1zjiEhy0fFZJF7fVtHFVd35QhfIlpVmTqqJ3bc8YQ0fG9zesfaZNe11u6v2Yvqb8zgHNJH9JlWQsiUnVAm0cQ8AQSD8CDcdk9mG06Uck+Rmne5m9+tz5RuTgyeRHsp6GgCEQLwIE+O9bf3O8za1dihAgXf7CheFLjgBhmDUvMcKQG2RYXbC2DL6lVYScKEmhjmtI/1a5DZFUHeeD/XPMwKT6xtNp0qRJctVVV8XTNK42oSExl/2ugdza8QRpXK2iFzyffotHqYMPlM/X/SD3zlgoEz7+Mi5wrZEhYAgYAoaAIWAIGAKGgCGQKAJYVwqCqCSqRya3DwWJufOck+SvZzaP4AihKAxpUr2SjPvj6XL04RVkyGv/KQwVbE5DwBAwBAwBQ8AQMAQMAUOg2CNQcNE7KYK2WvkyOQhMiobN1zC3n9VCDs8qna8xrLMhYAgYAoaAIWAIGAKGgCFgCCSHQMaTmE5Nsk/ITm55BderY+PM1KvgVmwjGwKGgCFgCBgChoAhYAgYApmBQMa7k5U+JH8qLl6zUWYvXy8cnOkXDqbkIM2mNZPLoJRfvfy62LMhYAgYAoaAIWAIGAKGgCFgCMSPQP4YQvzzpL0l5IWzZmYvzz3XOGTmitYNZdDZLdOuY7QJST83ePBgufrqq6Vhw4aRJhMmTJCff/5Z1qxZI9dff71Urlw5UpfIw6hRo6R9+/byj3/8Q8aMGRPp2rRpU5k8eXKOOSOV3sOcOXNk5cqVcumll/qLc33etGmTLFiwQM4444wc7e68804ZNGhQpKxjx47C+ljTsmXL5KKLLpLFixe7+mHDhskdd9wRaasPjI0uM2bMcEW9evUS1la6dO5ufrQ566yzYq5Tx7e7IWAIGAKGgCFgCBgChYXA4iXfy2nnv7Df9Fu27nYZy/JKn0yK5qIuoScxKzdtl1cXr5RXFn/tvqstO34Wzm1Z5ZVTl5fQZti0eTL+w2VSxyM0CMSmbYPqckWr30hEXuOkqp5NeNeuXWXevHmRjTbEZsWKFfkiL+jHOIceeqjUqlVLatSoIRs3boyQIUjKlClTohIG+p5yyinu4jleWbp0qXz33Xf7NS9btqxQpySNuQcOHCh///vf5cknn8xBpiA81DO/ihIYyM306dNdMSSob9++cREZHcfuhoAhYAgYAoaAIWAIFCYCpFLuO2h2DhUgMBxaSYrloNB+0WffC+cT5SZfr96WW3WRqMv4mJjcUB7nEY+Ww1/wLC5znMUFq0u2+9i6uAiMf2zIDP25GPeqce/KUbdPcOP526XjuVGjRvLee+8Jm3Vk9erVwsa/TJkywqaecq5OnTpJiRIl3J13NvJckJXevXu7i2ctZ5zDDz88T2sFpIFxuZgPoYxxEO5ar2VBfb788kvX97LLLnN9XccYH82bN5esrCzhJNdy5co5cqVNISp+AkM5BOjyyy/PUY5VBmKG5QedLr74YmnWrJmz7Ki+4LV+/Xo3dFBf3rnAjX5KnnSd9KXexBAwBAwBQ8AQ8CPAwZj86r04l1PU/e3t2RAIIrBvn0jwquAdasl5RcGL1MscrhosD74XhwNYQ2uJgWxcPf7d4N9BSt8hNqff/5r8d3gPqVC6ZErHzm0w3KrYkLNZZwOPhQQXML889thjzmqCJQIXrHvuuce5V7Fhb9u2rWu6detWt/HGNQv3NMaDICFr166VKlV+iwdSly426s8880zESsN4XHXr1nX9mIvxduzY4ciQbvZnzpzpiAX60P7jjz92+gXJhhsk8IH1qVq1aq4U0sKYbdq0ce/R3Mlwa1N9/EPVq1cv8tqlSxfhUCW/vuh84403ujbR8OvTp4+re+edd5yFCtczv8UoMrg9GAJpRID/NvgB4qijjkrjrDaVIWAIBBGArKxas80dNMgzF4cORhNOVfefos6GkuvpyUtk3JQl0brELBs3bpyMf+KrmPWFWcGegb2GSfII8Hcy68ULcgzQrtv+bmQ5GtiLQyC0JAZrSTqEhACLv9nk3MvSMZ/O0b17d/nXv/7lSAeEQ8kH9bt27XIkRDf6lEFCdBM+f/78iKsWz0jVqlUdGdI+fncySAMkSWNS5s6dm4PgQCSUNOCCNmLECHe5gb0PyAOWopYts+OKNG4G6008grVILSS0h8hwIUqidEzK0AUiE7TQ4HKneuodfbHuQJS4TjrppJj4QXLABYsXQuyMxucoyUs2FskNaB+GQBIIQGDq16+fRE/rYggYAqlE4Mo+bzqLC2MqSenaqb4jK1u27RZiFa68qLH7hTzWvLFIT6z2lB922GHSqF713JoUal0qT2Av1IUU0uT8TUSLfcnLXayQ1M2oaUNLYuKJd0kF0uVLHxKJlUnFePGOUbt2bfnxxx/l/fffl1NPPdURDDb7SKlSpdxmm7rgRp4A/YkTJwqWCOSTTz4RyvZ5dsojjjgixziugffRv39/l0wAywxXq1atRK0R2kYJCfUDBgyQoUOH5nBLgwhBGIhzoS2WmaD1SMcK3nEB27ZtmyNCuHMNHz7c6Uk7yAiExS8QOuajTtcP2YHs4Zrmb4++27dvdy52jAFZioVf0F2MtSxatMhNzfhYmfxkyq+TPRsCBYXAnj175KCDQvtPdUHBYuMaAoWCQFPvV/NFb++f4IaNKBcuPamWM888s0DGTbWeNl5yCGChC8a+YLEzyRuB0MXE4EZ2/ugZ8u8vc886lvfS42uxdefPcouX5SyYojm+3sm3wmqAhYNMZWrh8I9GhjI28hqzweYfksPGnixj3LmmTp3q+uMW1bhxY/8QkWfmwt1syJAhrgwXMDb/OjYbeBU29pAirBVaD2nx64NevCPExPj7UwY5g4hof9zXcN3CCkJw/umnn56jrlu3bnSLCNYQxvSvnxiiaNnJ/Pq2bt3aueUwkF9f9AA/LFx+8Y+PjsTFmBgC6UbASEy6Ebf5DIHYCBCnYGIIpBIBSMyQ/q1yXJRt9ax7xSHDWH6wDNXPexCY00e9mp/1JtWXzGcr798u8wfm9FlMarAEOvGrv/+Xf8iGulkxjGbm8g+JZQKri4paEtjMqwTHoZx6LDhIcAzK1BLDc1AvypCgPtHGoZ3fXYx3v6CH6uwvDz5DZILzaRs/ZpTFqy9t/fjmpidtTQyBdCBgJCYdKNschoAhYAhkDgKQGGKnNDaGdy4sfcRiIbgwFndSHSoS8+DMTwrtL4ysZ8VVIDDE0uC+ZmIIGALpRcBITHrxttkMAUPAEEgHAlhZYp31cmTtbOuMJpDQJBL+mCp1OYPYKMnRZBLFJZ4mVCQmHX9UseYgNqa4SiyLSnHFw9ZtCKQTASMx6UTb5jIEDAFDID0IaBxVfmfzE5v8jhW2/qEiMV2bHukOtkw3yBCYp3qelu5pbT5DwBAwBMRIjP0RGAKZg0CsOAU7IyZzviPTpPggECoS07N1Q3f4JOmVCbhPl1QsU1IgUCaGgCFgCKQbASMx6Ubc5jMEsuMNgsQEAvO1F48weMTc/SDSFMt5/Squ8Qz7DWAFhoAhkDACoSIxrO7+C0+RRd65LenKTsacm3fs5lYoQhYuzj/xB5z7FaGeLGS4fKmQKpjDHEmdTBA/ohnC/EHvHAT55JNP7pcuWcfJ6x5t7rz6BOvRgfNwyEqG5LXeYP9Uv7/11lsuTbOdB5NqZG28ZBAgScfevXvlwAMPTKa79TEEDIEkEVj02fcxz+4IHkzIFOoaRJap3GTIfXNjxkHE6vfll19K+dLfx6rOiPITTjghI/QoLCWISxk6srBmT928xNaESUJHYgC3a7O6aSUxhWWFgYyQOjgrK8udPO/PMJboHxnpgSE2pGFWYjNv3jzp2rVr5D3RMVPRnrNlOIASSeV6k9ENbDjok7NmTAyBTEDArDCZ8C2YDsURgWbHVpV3p+bMSHrzoNmFAgX/7/50/kuFMndek/JDS8WKFd05cXm1Lcr1kJg+15wgDz6+MJTL5PDWB4a1dQkCwrSAUJIY3MpwKftkzaYCx7pOpXJyf/eTUzLPhg0bcpxMH2tQ/UWDs1046BJLC4RDSYxmC+O8lg4dOrh6NuBYM8aMGSO9evVyZ674x1fLAgdLYrWhPRYeyI2OR/thw4Y5qw9lDz/8sDtzhvJnn33WpSrWtrHmpq0ewolV5bXXXhPWcffdd8ttt90mixcvdufMcJYN61myZInoOTB5rZex/fqRMS1WGRhwbgzr5fBLLFBqobrhhhucPujy5ptvSseOHZ0FiJTNgwYNcodmXnfdddKzZ8/99F24MPF/oJjfn/baKW0fhkAcCPzyyy920GUcOFkTQyDVCGzZuv8ZHbiTFUZKW/5f1u7k51O9xJSMN2nSJLnqqqtSMlbYB4EEcJmkD4FQkpgKpUvKzH7nSL8pH8j4uctyoHVT++McwUlFzMwVrRo6AsN8qZBXXnnFkYy8xmLjDcmgPYdQ1q5dW2bOnOk24fTl4EUsGBw4qW5YL774oiM8o0ePdqSENkFp3769GwcSwxwqOp4eIqluYhUqVJAdO3a4AyJxO2vXrl3MuTmoko06RGHgwIHuMEvG79Kli/CPHGM++uij+7m90YZ5c1vvI4884ogQOHD450cffSS5lUGOmA9MIIDRZNu2bY6wzJgxwx2aCYGCTEGSOAgTQhPUl3H4PhKVzZs3C1iaGAKJIoAl5uCDD060m7U3BAyBfCJA7AquX0GpUzNc7jZB/e3dEChKCISSxPAFQCzIGIaVZLEXI4PUqVxO6noXlpq+HsFJJG6GDGT0Y9ymtSpL2wbV3bMbOEUfWAe44pHVq1c7K8GIESMizSEhVapUce5lEBjcwrDUIFhVqEcaNWq0nyWGctyklAxxpz1kCBcqxlVhI8/mn7GZg7py5cq5tri2Beemn85NHW0YF1ESgcUHawikASsOlhglYrSLtV7W0rhxY0fk0OXee+91RCm3Mp2XNer8lPkF0sXYSL169fxV7jmavpAjP/nbr1OMAqw3yZCfGMNZcTFCwNzJitGXbUvNKARwD9q3/uYcOunBgzkK7cUQMAQKDYHQkhhFDNIB4fBL05pVnKWGAypnLV8ns71ry46fXWYztdBAWmhXocwhLvMYY0CACkKSseRMmTIlhyVAg/D79OkjWBGwkLCph7ywUWcjjtsSVhbIwfbt2/dbCu1pp4dWQmoYp1WrVvLOO+84i4h2wm0sKJCZaHPTDsLA3IxHGz8poh5rC9YNhLFZ3/HHHy8tW7Z0ZbHWy9rWrl0bWe+dd94pLVq0iFqGaxpkCLIBFkpOwAiJhYurDHxE0zdWcoVAV3s1BFKGgJGYlEFpAxkCKUFg8ZLsgH//AYPF5WDBlABogxgCKUQg40nMzp/3JL1cSApXn/bHJz1GrI474tQL6w4ubokILlls3NVSQF825lhD2JxffvnlEZJw0UUXOSsIrlC4ll122WUuTgZrRzSBNNBnwIABjgRBbPzj0Yf4F8hDUCpVqpSjbXDuEiVKuC6QJEiAX3DvQjcE3caNG+fcwojpSWS9WInOOussKV++fAQDf5lipjExkCqID7oxVyxcVFdwx2J03nnnSe/evSP6YjkyMQTSjYCRmHQjbvMZArERIPMYWchwNXt3TvZ91ZptkQ5kdnJxM+VLejEsNQXXs7Ble4osxh4MgRAgUMKLY9iXiXoedN1op9Yx1SrKp4MuyjgVGw+ZJMu/3eL0GtS5pQw6u6UMe32eDJs2L6IrBObJK06LvNtD8URA3cmScUXLD2KFNW9+dLa+ORHAsohb56pVq3JW2FuxRQB3XX5s4Uctk9wRSCadce4jJlfbrElVqfArsdFUzImMRJY0SFEmigb284OhiSGQFwKp/nvJeEvMF+s3y8Pvfip/Pi0xa0ZeQOan/oF3PokQmFjj+AkMLmy4r5kYAoaAIZAIAmaJSQQta2sIZCYCiz7PPuMlr4MwM1N708oQyFwEMp7EAF3fKXNk/qrvvfNhjnRxK3v+tzftiB504AGyctN2eXnR1zLho+W5zu8nMGRPox+WGhNDwBAwBBJBwEhMImhZW0PAEDAEDIHihEAoSAxfyLMeceDKdAkSmKvGvSu4m5kYAoaAIZAoAkZiEkXM2hsCvyGAC5eJIWAIFF0EDii6S0v/yro2rRuJgcECA4ExMQQMAUMgWQSMxCSLnPUzBESuvKixcBJ5mKWpF0+TqfEwYcY1qDtn1ZHM5//ZOw94qapr/y+kXgREVJoKqBGMSnmAik8UgvlENIAtz4D1xQJYon9RbIiAxiii+GIFjOZZQY0NiIIvKlgiKh1NBKKCBbHQkUtR+O/vHtZw7uHM3Jl7505jLT/nnnP22fU3M7h/ZzUOrhECEhEUKFzWoUMHIWJsIuEZdbQtibWD9yTVJo0DQY2SiY5PP8GD8mwLmBAkqbw5Z3teBaOJyTYwFRmPSGhIVREYvkQkeyTnCNHKVPhCb968Wb788kufqDEcGUzrlXcmKzCRv+ibL+pll10mw4cPLzOW9sHzBx54QK6++mof5UzLmUsrF9mMcMsqhFTu2rWr3vozEdCIApaq0AeR2dJpk2rfVs8QyCcECEU+ceJE//sKkphly5b53yRJXE0MAUOgfAQaOgIz9+9nyf8+/c/yK+dhDTRJEDGTqkeASK3kj2OvQZACTWHByOTS0/QNpGxo2rRpPDpq1MxmzpwpEBcitbIXYl8UvIcMpCqaV0/3fPRF/kAizWpZqn1Vpt6dd97psSEZeD5J3pKYHx+MhbfNJ7BSmUtVERjG5kd18sknCz8Q/fJCbPhR8cWqKHmhb/rZfffdfVJJ7tlI7b///vLyyy/Hx6K8ohIkLRCgIUOG+DcRlZlzRedi7QyBfEZg+vTp8sgjj8izzz4r559/vkBkCBn+0EMP+bdxH3zwgRxxxBH5vASbmyGQNwgQ4pjQyCaGQHkIkFsOLcnHH3/sU1xAaBAICHnmyH9HGcSEvQuEIpg6QpN4axkvb+mPNBAI9+yFwkKf+qL3hBNO8P0m2hvxkljnoy+cNZE4/SpxQhtEGgxSS7z66qu+jaaeYC+JQKaYHxJ8RjlzYqyxY8eWWcPxxx/vk5XThv6ZC6Lj+pss/jFzsgyCPXHekio3ISMPyltvvRVX6fF2oF69elK3bt24qg+SgKoS9aOqLPmxcUBWgipTLaefJk2aeKKkxOjyyy+X9evXx8fStvQLCVHhy04Z6lL9Quuz8s6Mr2pSnWtwnLDaVp+pWlPXSR/0hQTnc8011/h7yoNjhevSXsenrokhkCsEbrvtNv+b5n+a99xzjyxevFgee+wxqVmzpgwaNMgITK4+GBvXEDAEihoBtBtoPrD6gMhMnTpVXnzxRYFYkNCbf5OXL1/uE2lDEiZPnuzLKEc7gzULScSVqLCxHzFiRJn7sDUJ/Vx66aW+DhqgVo44sL9irxMlzI05QqioQ13a0JZx6Ys+VUg+/u6773qSASFRTb4SFebOQb9oW1RYOzkEycLCGiBi4EBi9BYtWvi1kiidcXmmezJtn61zXmpi3ly8THqMnpgtDCo9juaJmfvl95Xuq7wOYOeoPPmB8TaATPc9evQo0wwzL7LLo03hyzxy5EhvhsXGvVu3br7umjVrPDmBdGCepm8eeKj5TPbbbz/fN/3ww+PLT86KMWPGeGLw+OOPy8qVK4UzPwKIFAk3o4Q3E/p2guf8uKl/2GGH+R8JZfwImAc/JtbIjwdComv84YcfvDkdY/AGYtGiRfE3Fqzz4Ycflu7du0fOh+esVdXE+gN+//33/Ziq2WIeJoZArhG44YYb/NsvvvMq/F70rZmW2dkQMAQMAUMgMwhADCAjWLcgbNo7derkSQK5mXjZyz4C0sCeYfz48X4PonsbtBnpCpY1CAQKDQl7LPZU7FUQxtMk3twHzcvY12DqpsnL6QNhP8ZaEPqjX8gV8+MlOPsk9laqUaIehAUztTPOOINbv/bguL4w9AdShEDe2HPmQkwTU8WoNyypLTj8Z1L4krH5RuPCDyv4Rdu4caMvQzWJdoFn8+fPj3+hZ82a5X98Rx55pHCN7LPPPmXq8MaBzRLt6YcvPYyfHzY/XoR+IRr8WEi+xgZLf4C+QugPbwggJXrw46E+hzq8BTdoSsyopz8OfoCoRVVat27t/QZ0nbxxYD784wLZC86Hcn6gzJP6jAVZwgcIlShlpolRZO2cawSuuOIK2W23Hf88Y+p54403WoLDXH8wNr4hYAgULQLsD9jj/POf//RaFq7ZS0AEIAv/93//F9/cq8UH+yP2FxUhMADJvkqJCvsQCBHaHvpEIC283OXgOuiPQx3a0kb3Qdyzt0kmtFONUrJ6iZ6xt4L0IBAZcAsGP0jUrirKd/xfsip638X7xNF/5pDfiDr8ZwoOVHmYeaHN4McVtJ2sU6eOJxc8U8KAJgXCwQ+ANweNGzf2B+SGMurxw6AfmP26dev8WwBtT1u0M9iL6o+DHwH1YPuQB31roG8wUlkrJAwtC6pOxlK7UdrqOMwHk7BNmzZ5VSk2p2hcIFVoliA7tOUHDpliPrShb+rwDwxCOW8rmKeuC+0ShGfu3Lm+jB8lWJkYArlGoHr16nLttdd6szLmgikZvwMTQ8AQMAQMgapBQF98klWeQ7UYkBnIAS9CuWbTzsteNDW33nqrv6/ojNhXKVHRvQl7krB1CPfsYTDzwtoGYV9D2/BL4rDJWnhutAtqnMLPU7nnBTPzZS8IDkFTtVTaZ6qOkZhMIRnqp1vr5vLaoN4+OWfoUaVv+aHxxSdSmaoPg53i5I+5FMycQxkyPz5IAGeO5557zreHABx6aCwCCqpNfhSMoYLm56WXXpITTzzRkwL6xF8GadSokWfk/Cgo/+ijj7RZuWf+IUCTxJm2COTltNNOi4+DlgRzt9q1a/vn/JCZH7abrdwaVONEFDUEEgcZYT5HH320JzaUazsdi/F4kxLECRUu2hgTQyAfEOA3RtRBfot8vyE2JoaAIWAIGAJVhwD7ChW9xvKEjTrCS13dg6nGhJe8alqlbVM96x6OvRcvXoM+y+E+2J8wD/ZuvKzlhTZ+KWotw4vdsB8x+xpe6uocIWasARLCHohnHNQ7/fTTdyJP4TlwT33mwv6Jl99qLaN4RbWpqrK89ImZtmhZVa03K/0GE15W1YAw7SDb5kelXyTGjNIoKHPWOcH2kSDjD/ap9Xh+xx13+Fv8YTiCEu43+IxrnnOEhTlH9Ue9cDlz0D6Cc+RNQFD0x8jbAQgLRA9Cg4Qxo4w+g7hRZmII5AMC9evXl1NOOcWbNWBeZmIIGAKGgCFQtQiwX+BFKZoKNdVnL6EbdDV1ZxPPxp861CcKGC9h1Sol1Vmyt7n//vt3ik7G/igsShh4eYsfCgeaIPY2zBHBCoc+ITkIpIfnaHCwdtH9E/seSIjuj3iWbC/EujHDpz5j/OlPf/Km+OoGQHvdo/mBs/SnmtsElt0FZmngZMPc/LeZcvPkmLNTsnr58kwd+5n3HiW15Ioe7fJlarvkPHgboY525f0wswHQnDlzvDZJAyZkY0zGyNW42VrfrjDOt99+6/1gov6Htius39a4MwKYzaLBhuSaGAK5RgCzK0LBp7t5z/W8i318SAyWLJigKXHJhzVn+vuSl5qYfAC6InO4vEdbwZHfJLcI8IPNpx9tbtGw0XOBwLp1Pzr1/UpZuGhdBobPRB87T6NN6/ouYk0jtxm2/w3sjI6VZBqB4Msl+sYRmjfJqRJ0TF94082/7VzzNpo3wrl4+8v8o+aAJQDz4603oi/RMBPSyJ1Ra47qy3eQoz9sgMkRp3PO0TRsWEOgXATy8v9e3Q5uLkN/HQsVV+4K8qAC80WMwOTBh2FTMARyjMC4hz5xATSWusAXP+Z4JuUPD4Hp16+l9L/ooPIrWw1DoIIIYLaCHT/+l5i66Kb+1FNPjYfJT9Y1m2ryX/BWOZ8Fh2vMjtBKkJIAiwDMcAhvm0wgYvliFAMRw3w1V+QwGU72LHUE+J2py0DqrQqvZn6SGOcUj2O8iSFgCBgChYTAiBEfyqTJMZ++1gfXdzkG9nSajpp5t4R167a4EOurZNHidTJu3Cfy9bJS5z92eN7N0yZU+AhAQCAwEBA2VgjaF97yY+6C/ybBXPStP5oKSAAaDTbSBKphU62hZImAqX4JRIhCI4Oo1oPrsEaE6E30p+SJOuFx8AdQjQhO2hASxtS2tAlqkxgvKPSNmR+heMknwngcCM8Q8rNheoVJDb4K9Iefg46LZgmfA3CJyrSuuLRr185HBWWe9HPxxRd7/znGCM5X+6U8arzwOvkcSJ6IJomD9URpjujPxBDIBwTyksTkAzA2B0PAEDAE0kEAMgCBqVevhgx3hKB798bpNM9J3WnTvpXh24lXs2Yl0r+/aWRy8kEU8aBEXYIMqGO0LpXNeiphXtnkqxOx2vezOVdBg6HkAnKDo7USIAiSbuQZvzyNiPb5zTff+LfYaJA0aiXBYgixq2SJZ1HCWplDlKnbv/71Lx8hlGiDSuCU6IT70kzr+FJC1IgqpdEzSY/AmonEyTPWBsEhaidz1IhXmgleSSIEBVKiErVOHMUx24NAJnP01j7sbAjkEoG8IjH3vL5AVpduyiUeGRmb6GQtG5nTZUbAtE4MgQJAANOx8ROW+pkWCoFhshCt4XK4XD14rp+/kZgC+LIV4BSJ3qRRkHT6GvGJt/2qqdBnqZ5VI6OhZ9HMIGgRdAOumcohIz//+c9T6poUBghntEgQGM2srhnNGVsjM1FXtUtoYiAykAv1++E5AmlTHMojcJqjROdPGN3u3bv7fiAYkDv6Alutq/Omks4XQsPcqAMGkB0VrR9cp85P69i5YggosQ62DmrDguV2XXEE8obEQGAGPbvj7UrFl5TblpjB3VRA/jy5RctGNwSKA4FZs1Z6HxhMyApBAxNEnfkyb0zL0MwU2vyDa7Hr/ESATT1EQM3JmCWbaX3jn6pzfyqro88o0pRKW60T1hppeXln1kfyZkzjMNXigDygCUHoF/IWJBLl9VnR58FM8NoHuPA5qFR0ndrezskRAG9y8/G9UFNGNG9qRpi8tT1NBYG8SHb55uJlRUFgcOx/+NxfpIK71TEEDIEiQmDR9ihk+MCEZdnXpeKd/Sd8Hn6UN/c6b11H3kzMJlLwCKAJYDMHuQgKm2mSBao2IPisMtdszJU0VaafqLap9AshI88ZQQxYN2QiFwKujM88MLnjiMoEn4u57YpjqqaO77zm8YPMkHibI5ykMvhME5ZDhDQZ5jXXXBNvRzJy2tNP0MwR3zC0lDoGfapQj2eYF0aNr/Xy/ZxzErOmdLOc9mAsHGG+g1Xe/B4+r7u02qu+QMo4TAwBQ2DXQiDKiX/8U0u98/xdd32ctxHLoua9a31yttqqQoC30GQCJ1KX+rJoBCxMqthIscEjizhEBy0FG28NU5xsXphHsbFjU0h99YnBbEdNyzRTOf4jjRo1qtA4zEHJmParZ50fAQzYSAY3kTyrKEljbeCk80ejU6dOHR2u3LP6xaSSCb7czqxCRhDAVE/NCPm+TJ482WvGIPSUQyj4PvM74feCXxXP+F3g76SCyeIFF1zgfyeUPfjgg/Laa6/5oA6YONJeg1tgegiBpa/gb5B2/GaOPPJIPwbjP/PMMxQXlOScxJw2ZkpR+MGc3P4A4YCUXfnMP6SF+cQU1A/BJmsIVBUCs2avEpzmkWnTv40PM9uVo6XhmOwCAnDGt2a6q4N5mgrllI13mhyukVgemlVug7PjCNanv6BWhXbURTjz3MQQyBYC+KcQNQs/Ed76splr5TQmL7zwgvftYB74mvCWmmds4CEiKi1atJAuXbr4TRhvojdtivnOQnwwz2JzRv/qK8IbZzZyjMWYQSf7ZOPoeFFnyBiZ1dkk0m9Yws9x7oe8JXLcD7cP37N+2jJ/ggmk24/OB2zAiI0wTvvlme7hawOOrBOCyWbYJPMI8PmMHz/eE3C+80HSDkHm8+c7pJ9H0HeM3wK/CSVF+r3nN6WiLwLUb0x9q5T4Uw9NHX1kwj9Nx832Oac+MWS4n76o8P9n6s3InBYG+dPr8+WR7RoZX2B/DAFDYJdFALIBmRg0qI2MHr3Qk5PevWLh4/sP+MAnmqQOQs6W+vVqxonKnaM6eP+UPn3eiuOHNuepJ492JGaLDBg4M17OxcwPfuV9Wkbc/GFc49Ovbwu56qpDZPKkZd6kjTF0vGUurLI58peB0G6qEAE24ck24mzqEuW1UBMtzLRUeLuMqAO/lnNm46cmO8FyrpONo2+ttU14zuHn4bHDz7UfnX/wPji/YDve0CONGzfeaQ3hdYXXUt58dfzgeJSF27Gu8Nq0rZ0zgwAkW4M/oG0hchyCJgbCAqmBYKhAaniWqkBalaQkaoP2JThGonr5XJ4zErNkhXMiXbhMjtueKDKfQSpvbsN6dfaJLud/ucJpY1pJ+/12fPHKa2vPDQFDoHgRUM1Lm9b1vfP8bJebJSgQijde7+HDHKNtGXbT4bJu/Y9CvhnID072kJbWrj1O90QR40yCyrFjOjvCs9HX7dgx5ouD7w17O/q86uo5XnvT78yW8SHpv3Wb+gIxmum0Pf3FQirHwbELQ8AQMASqEIGgH5hqW9COoQlRUdNKSAsaRYirSjokBq2M+nBBdotVckZi8B15fVCfosK1QUkt7xNTVIuyxRgChkCFEVCzsE6dGvnEl5iEQU4gJSpoRyA5kBivjXH3Qann7iEnJKRUoR59jnPaGJ+XZngsUSV9Q2h43tk9x3Qs3K75dtM27cvOhoAhkD8IhLUr+TMzm0llEcDnBO0HZnpo4jR8N+SGSHaE5EY0fDcmYcG8R1dffXXKU6AdRAiyhOZNfaswrSzPpDDlQfKgYtn/W2ZpQktXrpOlThNTDNLSkTHNCQMxMzEEDAFDQBGAmCCdj3hVi7wGJEhi4g8iLtDUnHXWu9KsaYnXoASrPDV+qTdPw1TNiEkQGbs2BAwBQyD3CKAJgUyoBLUrEBn8U3iO2devfvUr77dEYAtIh/qQ0RZykw6BoQ0aHDQ5mAqqD1fQN4w6xSA5ITFLvnemZEXgC8MXoLvLC6Mkphi+ELYGQ8AQyAwCaEUgIb2cDwx+MFxjDjbLmZSd6czBUpFFi9b6dv36NvaaHHXIx1H/IaedQesS7IsAAsudiRmiQQAs8lgqSFsdQ8AQMAQyh0DYzyjcc9i/Kfw8UfugXxgalUS+VfSXbIywz1Ow3/Bc8vk+JySGhJAcJoaAIWAIFCsC+JwgMVOyRv4a0y/VzviCcv40ax6LagZ5UQJDExz1IUWYi6mWBx+Zq5xWBqJ0ptPeqCvvkokAAEAASURBVGmZ+tOUM5Q9NgSKFgHCHhNtKyi83SakbTGZ1gTXZ9eGwK6AQE5IzK4ArK3REDAEdm0E0ID0v+ggr0FRJIgUho8KWhKeqZBsEid7JS3aDjMxyAnaG+romXZhp3zadgrURwOkWpqo/nUsnYOdDYFiRiBoyqM5NK688kojMsX8odvaih4BIzFF/xHbAg0BQyAXCGgo5eDYwbJgeOOgtob6iZ5RTyV4rWWcw31FlQX7D7a1a0NgV0AAMxvMaQhxSxJMfBDwHyCnCoKPwtNPP+3DMXMffKYaHHwXMPlp166drF271jtmQ5QuvvhiOeWUU2jm/Rqogyhx0nwg+DzwjIhTkCmkQYMGMmrUKO+QHY5M5SvYH0PAECiDQM6TXZaZjd0YAoaAIWAIGAKGgCFQxQiQHwOyQj6NymRPnz9/vk8iidM0BOWVV14RCA4JKiEk9K0ERvOzUDecPT2YhZ2kn0FfhyqGwro3BAoWASMxBfvR2cQNAUPAEDAEDAFDoLIIENY43ezpGzfGAmhATNDsKCk69thjvZ/NgQceGJ9WKtnTNfEg/XD96aefxtvbhSFgCEQjYOZk0bhYqSFgCBgClUaA/C5BwU9FwyEne0YbHPknuQMhjwyhlE0MAUMg8whUJHs62pZUJZXs6SQnJOlhOv2mOr7VMwSKFQEjMcX6ydq6DAFDIOcIjBv3iU9GSYQwooWNd7ldJr50nE9GGXxGlDGejR1zhE+EyTNIDiGTmzWrI29M+7ZCJIYAAhpyGTCaur6UROUcHJuAIZBDBEgwSB4PyENFsqdjIpaq7CrZ01PFw+oZAplCwEhMppC0fgwBQ6BoEXj++efltNNOq9D6IDDjxh7htSojRnzoyYo61uszCA5hke8avdBHI9PwzE89ebQnPKkMTMhlwjdPc8eihevieWKi2kJkiFhGEIBu3WI5aIh2RlkyqQwOyfq1Z4ZANhHAmZ5Egzjpd+zY0fvFpJs9/ZJLLkl5yrtK9vSUAbGKhkCGEDASkyEgrRtDwBAoTgTWrVsn/fr1kyZNmgj5Js4777wKLbS504IkEshM64PruxDKsdwymqASQhKMaJaoPVobNDkQmaCoJkfL1rvnixbHCM6yyaWeWNWvX8Otr2WZiGhaX8+PPvqoj+b07bffynfffeeIVX19ZGdDoCAQwOkefxMVjTJGnpiKZE9Px+wLn5lE2dMhVCaGgCFQMQSMxFQMN2tlCBgCuwgCbNgHDRokd955pw+FStQhEuelSmbWr48lpRw/4XOPGIQlSuo5MoFARAb0P8gTGjQ3+MaQxDJRO5JbTnPmZghEqFfv5tLZaVgS1aceZmbknKEd2hvM19AG3TmqA4/jAnlhvatWrRIcma+//nojMHF07KJQECCccjhDeXDuyTKbUy8qe3o4WzrBAebOnRvvNtwm0Rj0E8yWHu433qFdGAKGwE4I5CQ6GW8kqlWrJgMHDvQx0nea1fYCnO2oxzkdIaRhhw4d/JuPVNvxNoT5BOcUNU/K6JsxEklFxk/Ul5UbAoZA7hG44YYbpHr16n4zT9Qg8jocdNBBwia/PIEc9B/wgScMOPZ37944aRM0IxCQp546WqiPdmbAwA8izcMgIRz16tXwBIQ2JLhMRmAYHHMyNDx33dlBMFmD/GhfPGddrI91sl5IDAKZMzEEDAFDwBAwBPIBgaxrYiALb731ll87cdE///zzeEKpTAESfiOSSr+8/dh33309YUJNzL2GOAzOkzINhZhKv1bHENjVEJgzZ45ceOGFPgFcMa29Ro0asmnTJr8kNvUcJLYjL0SPHrcmXGrHjnt6zcqAgTOTOtXjgA8ZUYFoDB92uG+DudjkSct2MvmCICHNm5eUS4603/AZwoMvDGZm9DdmzOUyceLEMi+YatWqJbvttpv3Hwi3t/sYAnw3fvOb38jo0aMNEkPAEDAEDIEsILDj/5hZGIwhIC2QgsGDB8urr74qM2fOLENi0HRo1lzMGFQgP+GstiSqGjFihAwbNsxHGaE+KmM0Ib/97W/9GKh0sWNHm0M2Xd4khrPx6hjEdcdMhJjuOOKpBogIJkQywZ6WMo0LrwmsNAMvCax4pkI7kl1xDtrf6nM7GwLFigCmR2zui0l69OghP/zwQ3xJtWvXll//+teClsb9k5ZUcKCHzIyfsNT7n6BtCQqhlDHxQvOCcB2OIqbmZsF2eg35wKyMMMzhdlon6ozpGnNSUzfqYDL2008/yaRJk+KkbfPmzd4nqNg+0yhMKlr2z3/+02NX0fbWzhAwBAwBQyA9BMr+nzS9thWqDWlBzjzzTP+mFq0MUX/QfEA+2PQrGYF8hAUC9PTTT8sFF1zgicqDDz4or732ms9uC/lhoxF03tP2EA0IDmQEYvPMM8/sZCPbuXPneAZf2tHmxRdfFMYgBCP9kkkXsgOpGjJkiBA6Ec0NUXsuvfRSPzcdc+3atfLuu+/K7NmzpWvXrkISLMY2MQSKHQE2+D/72c+KZpmYV+Hgj7C23r17+xcebdu29WUzZpTNB+MLQ3/wc0EbgwO+RicjtHLnI171NXHC1/Lhwz90/26s8mZhEBQ0NL177RvqseytmoOhWcEnBu2KBgg42JmLLXaaFhWin+ETo4EEtJwzL3meffZZWbBggX9JNHnyZE9mWD8vcVL1BQr2uStcgw/fDRNDwBAwBAyB7CCQVRKjpmRdunTx2hc29ZAWNSlTgnPGGWf41UNI0IwEhbYtWrTwxAGzLtWKQCaSCf9jhoSQTIq6X331lScikCcVngcz5aK56dSpU7w+89S48kGNEn1AgBDV2HCtmXsJ4YgmJkjYeG5iCBgChYEAGly0MJgL8W+SkpfyZt//ooOkmTP1QtDGcK8aFa4RSAeaGZ6rXH3VId5HBY1MdxcCmehhYe2N1uWMTwu+Nk85ggTp4eA6FUH7wxxGu/DOQWGNf/3rX+NkBhMzcDASE0TJrg0BQ8AQMARyhUBWSUyijX/YpKwqwEjFj0UJDmYBHJAdIooo2WrQoIE3ScPUDJMzCA3aHzV/Y95LliyJ1ARVxZqsT0PAEMgOAmiO+/fvnzJ50VmpZiXqPvxM63CGVHCkKhAj+uOAwKCVWejO69ZtEQ2rHAy3rNHLIE6QoyiNjI4dJDPjxo3TYjsbAoaAIWAIGAI5RSCrJAYTrqiNP0mniNOO8BxtBs752RY0KhAWJSVPPPGEN3ODzDAvDjQqkB20Nmh38O0Jm4gli1yW7TXZeIaAIVB5BO69997Kd5KlHtIlQKlOCzJTSDikui6rZwgYAoaAIVCYCGQtxDJO8NhTQwLwIdm2bZs/IAr4nqDZUJ8U/E8QPWcTWgiLil5rtl3KiWAG2cGkDdM2TMQwk4sKvQw5Y934xIwdOzZuXqb929kQMAQMAUPAEDAEDAFDwBAwBNJHIGskBpICWVE/EZ1qkLigfbn//vu9zTn5YXIhqmHBHwbygqiZGdf46SAQmVtvvdWbj/Ec7Q1zD2qQ2rVrJ8cff7x36idYQVhj4zuyP4aAIWAI5BiBZS68s4khYAgYAoaAIVBICGTNnAwHfLQvYQnndAnXC2bZTZbVNtwumDk32AfjB/spbz48h7DQJtwuUQbe4JruuOOO8BB2bwgYAoZARhEgkhmO+Re5YAHJAgBEDUp45XHj/h31yMoMAUPAEDAEDIG8RSBrJCZvEbCJGQKGgCFQBAgQjYyDKGU47LdxgQGaNqtTJm8MeWEItbxsWal35p82/Vvn/P9jEazelmAIGAKGgCGwqyFgJGZX+8RtvYaAIVB0CBBiuXWb+jLZJc3UfDGpLpIknBCeYMLLVNtaPUPAEDAEDAFDIFcIGInJFfI2riFgCBgCGUKAEMvDhx0uVw1y+WWcdoWQyWhbMDMLC4SH3DUkw0Rr09wl2aS+kZgwUnZvCBgChoAhkM8IGInJ50/H5mYIGAKGQBoI4A/T2yWv5DAxBAwBQ8AQMASKGYGsRScj1DC5YAizTB6VDh06+LDEgHvLLbcI0ch4pkIZ9b/66isZOHCgf06d4MFz+tX2wWdcE/YYSfRcx9O5aX+00TLaBkXnzvzD+WB0zrQNC3NhHYRjNjEEDAFDwBAwBAwBQ8AQMAQMgYojkDUSM2XKFD9LDVscNWXyqoQ3+XXq1PFRwYhs9vbbb/tm5Jbhnj6JEIYQEpkkmZp/hnMwpHH4OSGPIR1BwkEIaJ2n7zTiz8yZM+OJL7lOVQglPWPGDJ8zJtU2Vs8QMAQMgWwgYCGWs4GyjWEIGAKGgCGQSQSyQmIgChAUwiAr6YhaBAkhn3/++ahHGS878MADZfny5Z74BDsfNWrUThoWfQ7BIrll3759/aGJLvV5srMmx4wiasna2TNDwBAwBMpDQEMsVyTSGL4wo0d/XN4Q9twQMAQMAUPAEMgrBLLiE4OGBMKgiSKjEGjfvr00adLEkx3MuqpaPv30U2natKmQ3FLlV7/6lXzzzTfyzDPPyCWXXKLF8fPnn3/utSmDBw/2ZRAeyoIJLuOVQxfkmiHRJyRmw4YNPvdMqIrdGgKGgCFQYQQsxHKFobOGhoAhYAgYAgWIQNZIzLx585LCA6G4+OKL5ZRTTinXpCuqI0zBgoQEUvT000/HCUb4OeZl+KmgGVKTsq5du/qun3vuuUjCpeZjmIapUJYKidH6qv1JppHSunY2BAwBQyAVBCobYrmzyysz7qFPUhnK6hgChoAhYAgYAnmBQFbMyZYsWZLSYiER+Kqg4VD/l5Qaukphn5e5c+eWIRf6XPtt1aqV1K1bd6fu0cBAqJgHhENFTcm6dOkimIapeVg6JmX0BZlDM2ViCBgChkCmENAQy2+83kPuHNVB+vVtIeR/iRIITy8XvWyYC8k8ceKxMm7sET7cclRdKzMEDAFDwBAwBPIVgaxoYiAMqcoZZ5whaEJeffVVT0xSbZdqPfxyICg33XSTN+8KOv/TBxqSc845R84++2zf5emnn+7Ps2fPFnx2ED37G/eH+vSbiqAhCmqMUmljdQwBQ6AwEFi3bktOJ0qIZXK/cJgYAoaAIWAIGALFjEBWNDFs2tm8p6KRwTRLiUNVAQ9RYj74p6gpWXAsfHLQ3ATl9ddf920+/vjjeAQ0rumHZ6lK2A8n1XZWzxAwBPIXgdYu4z0yKyK5ZP7OesfMKhIQYEdruzIEDAFDwBAwBLKPQFY0MZAYNu8406cimHRpDpdU6lMn7PNCGRqXoUOHcllGIEo456NteeCBB3Zy4kcbQzv6RCA6zEdNybQzNSnjmZKh8DwgOfjmUBfTs0RmbNqnnQ0BQ6DwEOjkfErq1ashixatk2nTvs2aJkTJ0+LFFR+XOas/jPZXeJ+AzdgQiEagdHRNcRnmZJv7T9xZ3LnQ7ksG5VbDG42slRoCuUegmsunwi+7ygUnejbxd9999y4ZmQuSg+ka5ChV07Mq/1BsgKwgMGfOHLnggguyniNoVxs3Kx9mkkHGjfvEkwFMuobddHjWiMxVV8+V6dO/9TODhPTuva+0cedEPjFUhLhwTJq8TGbNWunbduvWWO66s4O/tj/pI5Ct31uDBg18Euj69WPav/Rnumu1KB1dy1tPxIiLozGOx7DtKaT7kkGb8/ZDmzBhgpx//vk+6mreTtImljcIZPr7khVNDOhhooX5Fr4lu+ImniSaaGE6duyYN18mm4ghYAhkDoH+/Q+SZV+XymRHDK4ePFcgFET9wum+qqSTc96HeECgCLEMMbnrrh05XyBUrVs3iA//9bJSP8d4gbtAg3Rmv5bC/E0MgWJDYNtWVoQmJiax17aFdr998nYyBAyBMghU3f9dywwTc5hnI7+rClqYcBCBXRULW7chUKwIDHcRv5o3K4kTCkhFVUr/iw5ykcUaeQLSzxGRaU4jg2Zl1qxV8rUjVPi6qKYlOI9mbo6dOu3p23Z3GhjIjokhUIwIbNsWMyHbroJxSyzE+2L8ZGxNhkDlEbD/c1UeQ+vBEDAEDIE4Amg0IBSQh6omMRARFYhIbxc6mUMFzRDaF5VmzUs8ydJ7OxsCxY6Aal5iqhgIDOLOXjWT/fsaB/eW3Rq3l20bV8tPX7wlW78lh1558/GTtj+GgCEQQsBITAgQuzUEDAFDoLIIQCjyIdQxWiEOE0Ng10XAmY7FfWCcL4xzisnFfY0W3aT2SQ/Jbnu0LPNR/Lh4omz820Uim9Y4XhU9vzIN7MYQMATiCBiJiUNhF4aAIWAIGAKGgCFQTAiU9YmBwLA69YnJzv1uTTpISb9XZZsjKqXPnyFbv5kn1RyZqdG6j9TqfJmUnNZQNjz1q9i8IudXTJ+IrcUQyBwCRmIyh6X1ZAgYAoaAIWAIGAJ5hECMtLgJxTUw2yeXxfvax4/yBGb9w0fKtjVLYxNY87lsWfqmNyur3fVGqdH2XNk8/zHvseMrhOe3fdp2MgQMgR0IZCXZ5Y7h7MoQMAQMAUPAEDAEDIHsIACJwbnfa2Q4Z/leajeUGi2OcwTlcdm6+vOdxt/45h88ENVdHUkwv+wgZaMYAoWHgJGYwvvMbMaGgCFgCBgChoAhkBIC203GPHmhQXbvqzdpH5vlRufzoqZinAPz2eq0M/jKJHoe68D+GgKGQBgBMycLI2L3hoAhYAgYAoaAIVAUCGx1eWKIQUa6GH925CGb95s/e1N2B8nae3jisjU0/jZXDoH5celbkc+pb1L4CBApcvnXG2Wmi1pZv37NchMSF/6Ks7MCIzHZwdlGMQQMAUPAEDAEDIFsI+BMtLZuj/q11ak6qrn/sn0PQanV7hwpfe8+EWdSFhx/9+OGekQ2zXtCYgRn5/llGzIbL3MIQF4ecsmIJ7kkyGEhiiXh+Mn3ZVIxBIzEVAw3a2UIGAKGgCFgCBgCeY5AGRMtR2Biio3tJmUJ7qvVaSjVm7STmq2cn8p22bLEOeG76GI/LZ/vSpK3Dz6XOntINadtqebOe1z0nmyYOlh+Wh1z7q9z1GVS65DeAoHZ4jQ2vp0fL9z/9knYqaAQgLiMGPGhnzMJhrt328drYShY6BIhT3fJicc5gkM+sTtHdSioteXLZI3E5MsnYfMwBAyBOALvz5orZ15wRfz+qYf/JEd26iCffLZUzr9ksFw24L/lv045Kf6ci9KNG2XIiFG+7NZhg6WkTp0yz3NxwzqWfrFsp7muWr1GLvz9dTJvwT/LTOu24dfG6+pav/r6mzJ1+pz4S0m0PtpcM/Q2ueOW6+WgA1qWaVfZm3zBV7G79v8N8N+Jyq7L2hc7AhCCmAYmUR4WfV7zkF5S56hLy5AXRaek2xB/udURkNIZ98nmeU/KVpewMlnemepN20q9k8dJ9abtpHT6H6WmIyy7u/ugbHzvfvlhymBHi9w8t2uMdD56H6xv14WBAORk3EOf+MkOGtRGznQal7BAXoYP/1CmTfvWa2qCiYrDde0+GgEjMdG4WKkhYAjkCAE2qSP/Z6ywoe/Vs4cnJtz/+d7bk84I0jL6tphpRtKKWXoIoRh84x894Uo05IDfnSmDrxjgHweJW5CgRRGbyVNej5OdYN/PT5wiLfff1yW4bBIsLqrrPRvuIV06d5AJf50kbQ87JC/IalEBXGSLifnEYKKFnsOdnSomZlK2475m0/ZSt+dIT16IILZxxv2yeclbss0Rli1O87Kb06JARGq4erU7nC279xwldbvfKOtfHCCbPp60U3/0v5ur3+C8KX7UdRP6xuq9cavUaHWsVG8Y29BucWOglQnPJ3xfZB9J0S9nlvN7UQIzbNjhouQE0lLPmZBpAuLWres7EnO4nHnWuzJ69MdOU9PYaWpsW57OF8Sik6WDltU1BAyBKkdg5arV8v33K+Td92b5sSAmzz3+oLB5Vfnwnx9LtxPPkJ916Caj/jTWF6MpGHT9Lf7gGlKgzznrNZX12aNPPVemH/qiHn1DQlSeffFlX84zxqD/4HjD/jjaPz/9nIsFEsZxzU23C1qU64ePjM9R+4s6o2mC1Ex4bpJvH1Wn0Z4NZe+995IlS7/Y6THznTzlNTn6qE5+Y69r1DUF10/j4JrC69W2UVjowNovdcvrT+syDlgFxwuOpfiFxwjizrNuXY+Sia/8XRZ89LFWtbMhEI2AIy0QFyiLP4fua7Y8Vhr89xRHUDrIhml/lJV3/1zWvXKNbP54smz+2pmOufo/la6RLUvelg3v3ierH+wiq//SU35cvkDq953gNC1jd+q/liM6DQe+6zQ1a2TNX06Qjf+aFB9/y2dvSemcJ2Tj3Cflx1Xu35jQfKLuoxdmpfmKwIgRH/mp4esCgVm37kcZMHCmJyt9+rzlTcw6H/GqXHX1XIHIdHPkhTqLFq3N1yXl7byMxOTtR2MTMwR2bQTYpJ590ZWRG/p1636QKS885rU1bNyDhCMKtX/Pne7rjv3LU57AaJ1vv/tepr/yjCcPPGvVcn/5YNpETxTuH/eYJypssiEimLTxbOmXy+S+sY9qFzJr7gI5t9/pMtXNB/L192nveMJ1x83Xyb5OI4ImRbUt8UYJLhifPiByUbL4k8+8CRr1wrJi5Spf1LH9YeFHEl4/eE39+3S/nvB6eYYGifUumDFVOnVoK2CxceOmeL/vzZwr4MXa1MwvUX/gp3X5zPjsVHQs+mGslvs1l1tG3hPHnXbMA2zBGQ0UcvBBB0j7tod6Uz3ty86GQBQC3icmlCfG52NxqpkaLvzxHr+b4rQhn8vqR3rKD6//MRbmOEF9zeOy5bO3fX2ISJ3/OFvqnzI2nodmd6fR4R6Ss+qBo2WLJ0LOVAxV0PY8MDp+yvdRC7OyvEQALQzO/PXqxZz2meSImz8UylsfXN878b/hzMeQNo7ABM+zZsX+DfeF9iclBIzEpASTVTIEDIFsIYAvBz4vCD4jR3Tv47UGvmD7n2ZNG3ttQ8v9m3tth27gg3X0mrf2yC+7H+M3vtPffk8f+Tf63EAKIBwQgDp1avvNtFaiPhtmNs5qyvT18m/jm3o0I2hIkmlJtK+KnCFQaCI48BPCJwYzu7DgexMlUesH4z/fN9ITLvAN+ubMnveRJ3GsV0300IaBCwK5vPCyaz3xU7O3ZP2Bn2JLf2iKVBgLAXd9BkkMEibWzOcL2dTxtH2URkqf2dkQAAG8YSAy8WP7PWGNG57/iicwqx7u6cmGr5Ogfrg992ufG+C0Mw94IlNy9KXSoN94KTn6Mtk450mhz61Og5No/Kj+Eo1vn2ThIKBRyLp3j5mGYUKGzwty510dpH//g7z2hXu0MEinTnv6M+GXTdJDwEhMenhZbUPAEMgCAmxWefvO5he5b+z/ltG2RGkiqmJabKYhLEqmIBJoB4IbbbQHusGvijmgpUCTwqGaoCgNVTobejXhwmSPPiFGKqn2E9SAJeuPfpXo6Rh6ZixM7k449VxP0iBsqonC30XnBZEBe8YJCp8NZn0mhkAiBNCAxAnDdg0L93V73OAjhq1+sm+MbHiiE9OYRNWPle38fN3frpFN/5os9U4cKbV/3ttrc9Y4cuMJTGC8RO0TzS9YP9HarDz/EIC0IJ06NfLnSZO+8me0MOoLM3t2TOOi/i+YkiGdt7fxN/YnJQTMgyglmKySIWAIZBsB3u7z9h3fDTa3vI3fq1HsjVW25gI5QeuDJobAAkG/nKrYPLOp1w1/lEmZaoJmOHOusKRD7FS7NPTay3ciYPQDQWH84Hp1PLAgMhgmZwQSwFQuWX+0U2IS7k81YI88MCoymhoaIA79DoQDPKhGTudmZ0NgJwQgEuhDqqGRiUUpq3lAVyn5j7NkvTMf+3HZAvfUecwEnofrl3e/9m/Xyj4/7+XJzPrXbiu3v932bCE1m7V1fjjt5EdnbrbRkaBk4++0JivIWwSUxDRvFouOSShlpHWbmNYFUzMVJTraRss5a2CAYFk2rvv1bVlQwQWMxGTjW2FjGAKGQMoI6IZVwyrTEI1MRQmMRrHCVwWNChvwdARzLLQv+KNgYkVoZKJjXTbgvHS6Kbcu/iGQB0zp2OxHkRgCBkBgorQ/QdM6CKBK1PoxPVOiAjnEREy1HupTg6kX/eCUz5j3jRrhu2RstCS9eh7v+zitT09vjpeoP8WP/jC5I3CBSnAsIqoFQ2Tj/4IGDoKD+ZwGeoBYqrlZOsRNx7TzroUAGg2c+uNnd1fS8WwPwoa3H9hRrvX8k7L1w+3D9z+t/FxKZz8ptQ/t5XPCbHMO/cHxgvV3P/56qXvMpT7imR/K/SEAwNq/DpSN/5zsCVCwvp+WVow4//vf/3a5RsbJHXfcEfHUinKNgGpdVAvz9bIYicFnRiVOdLabl1FOiOaciPvCYfJWKLIDxUKZsc3TEDAEihoBTMnQSITzxLChZqOfrqA56OnMlTBbUkf0sFlSsj5xXKedzofNfioEhk05TvFokdiAR+V2gRxxqDBO2O+D9hwqrAcNCj4kQYHkQfYgKMxZJWr9kDHIBGZctGl/+M/jJnKeuPzhBr9exuU5RKJhwwbapT9feF5fT27QxnCdqD+NukZf97m+uh/bRaa9tcL3ER6LuaLxYm36PWCOiM6DZ0Qlqwgh9R3Zn10KAXQvMUbhzlAEp3GpdcCxjjD8zUcd4z78vCL3Gz/6myNHZ0nNA4+TjR9B1HeMp/3V/+X1Us+RGMb+4R1HoEpXS/VGLaVBr9ul4dnjZcVDJ8lmFzRA6+t8oz4wyMttt90mjz32mNStW9dITBRIeVAGWVm/PmYuFpyO+sOgmSHpJfVUM0M9IptlQ/DDUaKVjfEyPYaRmEwjav0ZAoZApRHARCkqohebXkzMVNgg4yuigulRWH7e5qAybXgebseGOUgewv2En+sYwXpsrgkFrcI9z4N19BmalmBdLQ+ew2sNPou6pj7aEQhgUKLWX974YXy0v+BawutNtB4II0RNNWtodtRkjn4TjcWzRN8DiBpkEo2QiSGQDAEfFcwTCmpVczlaWkh1Z861YdaTjitAYGLlsT4qfl/60WTB2LWGS3C57cPJse48gYr1z5hKYFY+1m/7c3dy5mybPnlLGl/7kTT8zRj5ZuThrhAChOh8Ynf8VfLy+OOPS/Xq1aVGjRpy11137ahgV3mFAMQEkjJ58jJp40zK1Ml/+dcbPXm4865YmHi0H+ojwwKyoQ0hCMHsh2L+Oc2alcjXAVO3vAIxyWSMxCQBxx4ZAoaAIVBICGDadc3Q2yqksaqqdaqDvmqyGAdCE/aPSXV8TOrQ+mAWCJEyMQSSIhDyiamhiSa//tArPEgsWZ7PS6rPmUetA491mp63HP+AgMCQICTbpOSwXjyWNROvi40b8MH5acMa+cGZttX/5XXOV6adbF42v4yPDO3C5GXLli3C0aRJEznppJNk2bLo6IS0rUpZtWqVW49nglU5TMH03bHjnp6cYCIGgTmzXwtPYtC4+LwwzsEfJ/9Fi9dJ/wEf+HX1crlkzuzXMqtrHDHiQ9FIaiTkxMwtV344lVm4kZjKoGdtDQFDIG8RSPaGP28nXcmJoY157okxvheug1qqSnZd4ebJNFIV6bQ8LVJF+rQ2xYvAVrfB9kRlu8aFdC3I1g0uF5MjOFsdwSj7vOL3W5xWpfaBXaX2gJdjg0T83bJyaeR4aGMgMVJnDz8v9alhfsjQoUPlhRde8MQF8qKyZs0aOeKII/Q26+fSUnKi1Mv6uPk6YO/e+3oSM2H8556YQGTGjuns8sSskmbNS+LJLydN/krWu6hkhFcOmpFV9bqIhHb14Lk+bw0mbOPGHuFDPefMB6eSCy5IErOmdLP86XWXSTfPpWFJbbm8R9s8n6VNzxAwBAwBQ8AQKFYEHFFxPCCmD9mxxmp1GsbKnUYk+JwoYRW9r9m8rWz69G1Z8+pt8fFUIVPXaWLqHXux1NizpWxxgQB0PjoeGhyE0Mzh8SkfP368jBkzRoYPHy5r164VyAOCSRlampKSEn+f7T9z5syRCy64INvD5u14vZ1W5S5nIobmBW0HWg5ISpCoYDaWbc0LgBEFbbibE2e0QeSt0YADeQtoORMrOBIDgekxeqLM+/L7cpaW28cQmNcG9c7tJGx0Q8AQMAQMAUNgF0Yg5hODQRdSTTZ/ucBfEeJYFvwtbgqlz9U0Kt37aiVOg+Jk07/f9oe/iVMVESKYQWL26H2bfP+/Z8Xnw3i7ubb1ul4sP676Ij6/8Pj0N3DgQH8EyczWrVtl9OjRMmTIkNiQ9jfnCNx1ZwcZMHCmN9da5nxfIDbNnRYGWebMttau25J1EjPLOfCjgUET061bYxnuyFXQByfnoFVwAgWV7HL+lyvkoCFPFgyBab/f3rJxy48y9s1/VvDjsWaGgCGQDwjgh3H6ORf7hIskXdQDJ/WKCpHWyHxP35kU5qTzi0oQGV4L6wrOgXmdfvbAvPKrySQ+1tcuhgA+MZ4RcN7mzMjWerJQ+6BjYwQm9BwTs2D9VO/pD9n8lcs7ExhP2/+48gtZ99aDUnJ4L9n7v1045oO6Ss3mhztfmV9Lkyvf9kRm1YvOnCxi/PAnBplZvny5Jy9EJhsxYkRcMxOua/fZR0BNyHCWhzyg/cD/hYNrde7P1szwfYFUQWD69W0hkKyKEBh+P/fff3+2pp3SOAWjiYHAoIFZXboppYXlqpJqYJTAHDb8aTnvP9vkajo2riFgCGQQAY2wRZckuySvCdG38L/JB4HAkMV+wYyp3ukdQnL+JYNllAuZzBz1nlw0Gk2MvDyn9LvIh1HGj8bEECgmBGKmWWoi5s5ucaVOA1P/uIEuV0tDH2YZn5h4Pfe8Ivd1nLnY1o1r5QfXd6L2q1643pGoNbLHCdd5MqM40+67v5zl5wX/CbfXeuGzamYwNcuVOVl4TnYfQwAiM2nisV4bo7lheEJo5aBpWVXjFXbgRyuUrqDtGzlypCfLmzdvltNOO02aNWuWbjdVUr8gNDGPzVgoHW99tiAJzNKVsWytVfLpWaeGgCGQMwRwWCdjPOF+EQhCtxPP8FqQoHYDsjPo+lvi2hFIA5qPa266Xaa9PcMnz+QeMqQaFMgIbWhLOZoR+g6WaV0toy4E5uijOsWjdmnY5elvv+fnSE4XwjAHw0lzTRnPTAyB4kMgRlDQcEBUoAhrpj/gl9nwlNv9vS8PPE/3vobzhal3RD/Z6EzJ6D9Z+9VTR8qXt7ST7x45W1ZPvd2Rl7Ply5vbyob5L8fnF27vJ5vkT79+gZDNSerZo+wjAGkgXLIe3bs3jmtBnhq/NK4hyfTM0LqoSRsO/E89ebQ3a0tnHMgLuYh23313ueGGG2TTpk3SqlWrvCEwrCXvScw9ry+Q8x99Ix3cc1I3SgNjBCYnH4UNaghkBQGIB5nsW+7fPE5K0HAQEaxL5w5yy8h7PAkh8zxkh/IPpk2MZ56/4+brpHvXLj65IxMe+T9jfehhtCiQkaB8v2Kl15SQp2WZS9o58u4xMvWFx7zGhXr3jX3UExcIDEklg2ZummtFSU63rkcFu/bXlLGWoFnZTpWswBAoQAS8T4yaaHF2qpgfV3wh698f74mH940JPY+bdG2vX959o1Nu88jUPfwkqX/swB0mYQnaM/4P8/8mq18ZKT/M+5s3cfMmaAnqFyDsu+SUifDV+YhXJdVIX5MnLfPmZgMGfuCd7TMFGo779IkpGw78Tz11tNcApdp/mLxsdC/IEIJQkJ8onySvzckwHWu/317y2pV98gmzyLm03Ku+tHIHPjCYkBmBiYTJCg2BgkYgmOuEhdw2/Nq4mdaeezSQX3Y/xq9P87VAOIJCeGBNGLlylQvxul0Wf/KZtNyvuU/eiIan7296y4S/kvU7JsHkkLPnfeSI074uqkwTT1y0LiQFrQpzuPD313mtDq0H/O5MnzRy48ZNsvTL6FwSezXaU5i/iSFQbAj4hJaEUXYbsJjTfiwu2MoXbpC6bX8tTS+bJF+MaC/bnElX8Hm4fqL7fc68X+r8rKusfGGI6+8kaXTqbVLLaWa+H39ZhfpDk0MYgrLjFdunYusBgbEuvDE+MiTDhHTcOapDpU3NMuHAf+ihh8rChQsjP6Tjjz8+sjzVwp9++klq1aqVavVy6+U1iUG70a11+vZ75a66iioYgakiYK1bQyBPEAj6xASntGLlKlm1Zm28qNGeDePJHCEW6mxPhag+1CQt3kHoAoJTp07teOnEV/4uHCrt2x4qkBQIUDCPCsQGvx1M2Hr17OGJkrYJnsPzDz6za0OgkBGAmKiPSZwguJIff1gjy+7pLc0vnyT7XvOmLH/oHO+U7wmEe+5NupRQJLjf56z7pd5RZ8raaWNk9RsP+mOfs++X+q6s1n5tXf99XMjk1a51av0F5xccv5Dxt7knRgDnepzsCck8fsLn3vyLkMwV8VthFBz48YFBcOC/6qpD/HW6f9q3by+LFy8WNDJBgVj//ve/DxalfU2fHTt2TLtdogZ5S2IGPfuPRHPOu/Keh+0vvzp0f7nnjQWmgcm7T8cmZAhUPQJhTQZalqBplpp0UTb4xj8K9YOCSdq7780KFiW9Vu1KsBJ94x8z9NrL4wQKUoOJ2ZKlX3iCg1kb/jEaiOCV/5sm3Y/t4sswgYMABTVEwf7t2hAoTARiBCKcl4X7TS7cshKZ5pe7wEFvjJG108fIT875Pqq+d7p3G7naTvOy92m3eqKyxhGY75+7IV7/uyculdJF70jjs++TZr+fKN89eZkfJ1l/EJZkzwsTd5t1qghANlq3aeAJCCRktjMDg8ykI+rAj/8L/VWUCDHm008/LStXrvRhu8eNGxcnMxAQ8hLdfju+ZPkheUti7imAZJb6ETasW8uTmI1bftIiOxsChsAuhACaFzQxf5/2jjfpwkleTb7QwrRquX/cmb5B/XpC/SBZOPigA7yp14KPPvYmZUFTsjCMHdsf5kzNJvpAAjju0z8+NLcOG+x9b/786ARvPkY7iM2E5yZJ39NjOaswcyNaGfNBM4O07XKCoMn587358z8mPzH7YwhkAAHvE+MowjafmWWHSZneb/pigXxxezdPOhqddK00/MVA56fysvdZ2Vq61hOQWnu1dCGQ60udg7vK7u1OktpOy8KzZX/qI6WL33azLNv/uhnjnd/N59K0/xNO0zNRlo87J16vzs/+U2o0auFXVvrvf7h6S3dqH+4vAzBYF3mOAKSjjYtcRhhmNCrr1v8ow24qP5cLDvzkf8GMDAIzzpmoEQGtstKoUSN58MEH5dZbby1DZu68804jMZUF19obAoaAIZBPCKDBwFEfgoBjvZICNCEXntfX+6hQjmBORn0E4oP/CgTi2v83QPC52df5upx/zm9l3oLo/FIQl2uvHCgnnHqu7yM4FhqfoOkaFfDb0WhktH1x/ENl5nPWGSe7/AE/xMMs04ZAAto/98zpkQdGCe1NDIFCQiDmE+NoQRmfmLL3W77/3BOSOj87Rhr2uFjqd+nnj6h1bvrqQ/n28cscyXnZaWzwa0OHUrY/7ksXvyNf/U9vaTbAEZkrJsrKl0fGCRDPVdD+fP/XIUnnp3XtXNwIQD5wwr/6qrk+l8yyZc5PxpmbNXf5ZqIEB358ajjjwI+PTUXyv0T1rWVBMkOEsmeeeUaWLFkirVq10io5PeetJiaMytlHtZZrTvgPObTZns55Pvsajzo1q8tHy1bKHVPnyJPvLw5Pz+4NAUOgiBEI+pkkWiYb/OmvPLPT40Rtw+WYeBHBDIGIYPoFCaJczb+082BdLdOzmq7pffgcHjf8nPuodUTVszJDIN8RiCWedJ4u2IJtJxxcRd1vcGZgHEhJ62OkptOY1NyrhWxxWpUtKz/3Uc243iExAsN9VH8bv/hQlt7aTfa7cqKg5UF7881jl/m+aLOnI0xofnYr2cOXJ5sf9U2KHwEIC2TkrLPe9eSE89gxO2tXgg78HTvu6Xxr/iPjBCaINmRmzJgxPuTynnuWNYcO1sv2dUGQmFv6HCnXn7jDEQhCkQs5rHkjefR3x8vBTRrK8Ekf5GIKNqYhYAgUIQKahPKr7dHM+pz4S28eVoRLtSUZAllGIGZChnM9JmSqkSnvvnThP2SDvJNy/UT9QVzwseEMoflx5Rc+ahn1Nyx0vjNn/NERmQGy9t0JjkC9HTlelgGz4XKMwOjRH7tQ+qXePAxzsTMdkQk6/Acd+Jnq7NmrhDbp+tFUZJn5RGCYf96TmGZ71C1DYCoCeqbb3HhSJ3lw+ofyzdrSTHdt/RkChsAuiEAiLc4uCIUt2RDIKAI7fGLoFkKz/exHyc59XafVWfX6WNny/Rd+VD+P7eN/P+kOT2IaOBM2SE30/LY3s1NRIxBLUBnLGaP+LQudqRhO+xyL3fW6dVu8zwxAQFqCfjTLvt7owzRn2qQsn0HP+2SXPQ+LOcDlG4gnHJqf88o3nGw+hoAhYAgYAoZArhDAJwZiQKBlooBl+77EBQNANjnTsqjxf/phrTdXq+HM1qKeq09PrvCzcbODAH4takKGf8ukicd5B30c/p968mivlXlq/FJPYCA4lPFM/Whog4lZphNnZmf1FR8l7zUxJbUqN8V5X34v0xd9LSTODAqJKUmk2X6/vYPFKV9Xdl4pD2QVDQFDwBAwBAwBQ6BCCMQTWMY1MFw4X5Ys3W92QQMQIprJtgnepC08Pn43Gxa5tBIQLj+x8Px8F/anSBGYNu1bGXHzh07L8qP0csTkqkGHlPFvgagQdWz48FgOmDvvKuvsr340mU6cWQhwV44h5PEKIS/kmpm+KDpDtU4dMnPu0W3kpl931iI7GwKGgCFgCBgChkBRIBDTxOCC7+mLj1LmaURW7res+MITlAZH/1ZW/N+Y7T4xO8Zv2vePHuU17ziC4yYY89nZ8Zx7k+JFgCSXJLtE+l90kPTvf1DkYlXjEvnQFWrizHHjPpFxD31S6cSZicbJt/KCJzFLVqyTifOWyEvzPvPYrt6wWcjbstSV86w8oc7Nk2fKY+8ulJaO0CAQm26tm8u5XdqU19yeGwKGgCFgCBgChkCeIkDScZzotzrK4s+OKWT7/pvxN8oBw16Xlle/JMsnDHG5Zz6SGnvtJw06nCR7Ht9f1s2dIus/dkEEmGfE/PIUWptWJRHIZIJKnQokqFnzEk+M6L8iiTO1r0I4FzSJedQRj6uctiVsKlYR4CEzSnqmuw7oG3Lz3ECXCK6CJmcVmYe1MQQMAUPAEDAEDIEMIeBNtFxfTqOhBCFmSZa9+9LPXajlUadK8/Pvkf0ve6zMwlb+fZx899IoJphwfmUa2E3BIxDlwI+mJVMSTpxZzA7/BUtiMBO74LE3MvWZR/YDqTl+9CT5961nSsOS2pF1rNAQMAQMAUPAEDAE8hMBTLS8xJiLNyHLxf36f70jiwZ3kvodT5SS/Q93YZfXyto5LwciljErfGK2S3i+Wm7ngkYAB/6rr57rQyhXVYJKAIIUERxgwIAPvMM/QQNInJlJspQPH0TeRydLBBKakmwIWp55X6zIxlA2hiFgCBgChoAhYAhkFIGYT4x3mldiwHl71DJPHLJ4v272FPnmxVGy4tVxsvk7Qi6XP7+MwmGd5QwBHPiJHkYOGBz4SWpZleGQ6ZsxGIsxGZs5FJMULIlR06+q/jD2KKkV95Wp6rGsf0PAEDAEDAFDwBDIHAL4xEBYCF/sz4V4nzk4rKccIYAD/9WD5/oIZDjwD3c5XqqSwOgyGYOxGBMzNubAXIpFCo7EYEZ2+pip8ubi5FHHMvUBrSndnDG/m0zNyfoxBAwBQ8AQMAQMgRQQUALjfU5c/QK8T2GVViWPEcDBnghk5HchQWWiCGRVuQTGZGzmwFyYUzFIQfnEQGCOv3ti1nEn8tmS0etk1pDfZH1sG9AQMAQMAUPAEDAEKoZAzCdmu8lW3Oek0O4rtnZrlVsEqtqBP93VhR3+Fzr/nLFjqtakLd05plu/oEjMn16fn+76MlafvDMmhoAhYAgYAoaAIVA4CLR7bHnhTNZmWjQIZMuBP13Agg7/zFEd/tPtJ1/qF5w5Wa6AwzfGxBAwBAwBQ8AQMAQMAUPAEEiEwKzZq7LqwJ9oHonKoxz+mXMhSkGRmJPbH5ATjCEwj5z3i5yMbYMaAoaAIWAIGAKGgCFgCBQGArNmrfRO9IMGtcmaA3+6yIQd/plzIUpBmZOdd3QbwayL8Mo43GdL9qxbW3JFoLK1RhvHEDAEDAFDwBAwBAwBQyAzCIwevVA4TKoOgYIiMcAw+r+Okbkub0u2opMx5qoNmzhVuZSWlrroEcPkggsukDZt2sTHe/LJJ2Xz5s3y5ZdfyiWXXCJ77bVX/Fk6F3fffbecdNJJ8v3330vXrl3jTZ944glnF3mWvPPOO7JkyRJ/rQ+Z05133pnSuAsXLpTf/va3Mm/ePG0uN998s0vsdLVceeWVLl752J3Kg32vWLHCj33MMcfI0KFDfd1bbrlFevToIZSpaL2pU6f6ogEDBghrKykp0SqRZ11/ENvIilZoCBgChoAhYAgYAoZAGgh0795YZhaoRkOXyRoKSQqOxADuyR1aZZXEZEsLwyb85JNPlpkzZ8ZJDCTi008/TYlEJPvi0c/uu+/uwuvV8xt+iAxkSIlT586dI5szJyUUkRVCheedd54nLMFixth33309eQqO+fnnsVjlH3/8sScpnFu1aiVfffWVQFTq1q3rVLLrZO+99453pwSGOU2ZMsWXQ/IgSakQmXhHdmEIGAKGgCFgCBgChkCGEMBpfpxLLmmSPQQKksRgVoZJ2fwvV1Q5Ui0b1ZfRZ/xnRsZZvny5fP3110n7OuSQQ+Txxx+Xnj17epLBRh/iwYYerQSaGATNCZqIE044QdjE64b+tNNOi5MINvXPP/+8rw9JadKkiTRq1EgaNGgQJxSQlDvuuMPXgdigRRk1apQ/o6GhP9WWMAaE6qabbvL133777TIaEl+Y4p+f/exn0qJFC69lQfuDpoXzOeecI++//76fn3ZFPRWIDnWCmhmwYF6zZ8/2fUyaNEmo9/TTT3tCePbZZ3uc2rVr57tRIhTEjwdDhgyRGTNmyOmnn+7r6TrRJkGa5syZ48vT/YOGasOGDek2s/qGgCFgCBgChoAhYAgYAgkQKEgS07Cktrw+qI8MeuYf8tiMsvaGl/domzGfmXO7tPEEhvEyIS+99FIZk6qoPtmIo7VQ7cQzzzzjN/rBug888IDfVEMq2CCPHDnSkxrITLdu3XzVNWvWeG0GpATzNPqDIEFaRowYUca8S83JaLh27Vp59913BfL08MMPy4knnhgc2l9vc4H3GZfnHTt2LGPG9eijj8qgQYN8PSVYEDC0K0GNCs8gC8zp9ddfj88VstW4sVPJOm0UWpn27duX6R+iQ3lYDjzwwHhR7969ZcKECX6OrB8CwXHZZZf5OlH4XXHFFf7Za6+9Fq9DG/BSAceKCJooJUYVaW9tDAFDwBAwBAwBQ8AQMATKIlCQJIYlQCyIGIaWZJ7zkUFa7lVfWrkDTc2VjuCk4zdDBDLa0W/7/feSbq2b+2vfcYb+4LvBUZ6cccYZ8vLLL/sNPpt/NvoqGzdu9IQg6NMCIdBN+KxZs+KmaFwj++yzj0CGtA0b8zFjxviD52h48IdBjj32WL9xh3DUr1/flwX/4J+CoB3heXijn4o5Ge1Ve4SmB4FkIap1gSBBQDCvCwoEBiIT1MTwHE2Mkhs9o1lijqyX48gjj5RE+LEOyCOEi7qQIq4R1cRAME0MAUPAEDAEDAFDwBAwBHKPQEGFWI6CC9IB4eCAwCDt99vba2pmDfmN3PVf/yl92reS4w5uLsFcL1xTxrOHz/2FzBryXz5owE29OvtIZJnSvjCfdPtiI79+/XrBXAtSEXTkr1Onjt9s8wyNCAcaGTbgaC3Gjx/vNRloM+bPn+/LqNO0aVPfDxqUa665xvvCMDckqMWIlST+i9YEQVODv4pu9BO3SPwEsqGE4d57741rXZTIoBUKEjh64h5zOyVdlEGIIHtohYICEWOOaEI4MOVLhB9mdkHBRA3cIDf0AW4mhoAhYAgYAsWDwLMvvizdTjxDPvlsqV8UZ+6jyqhbGaHvB//8RGW6sLaGgCEQQiDvSUzp5h9DU079FjJzRY928vzAnp7UrBh9vvz44EB/cI1JGs/QwCgBSrX3DSnOi74xcUtHdGNPpLIoh3v8YtCeVKtWzR8DBw70m3RIAX4gnDmee+453x4tx6GHHuqnQGQutBuQD22PFiOs2Ug2X9oRhQzzKuaaiqg5WdSYrJE5MmeEPtGgQMyCBI5n3ENagut/6623Ip36WSvEjrUeffTRnnjRRxR+aGhU8JnBJ4m50pa5WEQzRcfOhoAhYAgUBwIt928uX339jaxYGUv0x5l7jtnzPvKL1DLqVlRWrV4j19x0u6z/4YeKdmHtDAFDIAKBau5t87aI8pwX1bh4jJ/Dz5vtKQtu+m3O5xOewKHDJ8iib1b7YrQ3N/26s9z8t5ly8+SZ8aoQGLQ8xSKQB4hGOoSnWNZeiOsgEAFEM9tmcLkatxA/I5tz8SCQre89gVl4KcTLFZPKIYB25PxLBkuvnsfL4CsGyKg/jZWxf3nKdzrgd2fGy2bMnCt/vvd22bPhHmXq9Dnxl3LrsMFS4iwkELQ11w8f6a/btz3Ut6lTp7YMGTFKJr7yd18ebuMLC/hPtr73BQyRTb0KEch7Tcy/vl4l976xoAohSL/r/3ltfpzAJGodJDDZTMyZaD5WbggYAoaAIWAIGAI7EGjerIl06tBWvl7+rSxb/o1AViAvHFxTxrOW+zV3psi1PYGh/INpE/2x9Mtlct/YR32HEJj7xv6vTH3hMVkwY6pvc8vIe/yzoddeLpAa+h1929A46dkxE7syBAyBiiBQEI79Vz7zjsxa+p3LD3OAN/v68aetFVlrpdrUqL6bLFmxTl6c+5k8+d6ipH0FCQzR02iHpqbQBT8RE0PAEDAEDAFDoBgQQIPSrGljT1i+/OprF9p/hXTrepQs/WKZTJ7ymlAGUenSuYMLCrPJ1+MajQzS9/Tenrj8+oQe8u57szwhghjRb9/f9JYzL7jCnw8+6IBigMvWYAjkHQIFQWJA7QlHHDjyXcIE5vxH3xDMzUwMAUPAEDAEDAFDIL8QaNVyf09Y/jY1FrRmr0Z7CgdCmRKblatW+2vqh2Xjpk1xsqOmZeE6dm8IGAKZRyDvzckyv+Sq6/Hk7ZHOGAENDATGxBAwBAyBZAh89tlnwpGOfPvtt2m3Sad/q2sI7CoIdGx/mF/qk8+8FNekNNqzoctr5oLIuDIEUqNlS5Z+4cuCf+rUru3NxzA9Kw0EiQnWsWtDwBDIPAJGYjKIKdHQECMwGQTVujIEihSBN954wyeGJTksx4cffpjSSiEw2oYz/fxgUY9Sws4qGQJhBJScUI5pGZoUzMUwG0MgM9TRMnxiiDbGMeG5ST4owKGHHCxHH9VJZs1dIMtcZDOIzIS/ThKc+NsetiPPm+/Q/hQlAlHhufmOnH7Oxd6XShdN8Iifdei2Uxn1qI+8P2uur0M9Du4TiY6hdelfRcfSZ3oOhgtP1l77yedz3pqTEQq5EMUITCF+ajZnQyA7CEA2CINOvqUw8aDs8MMPL3ciwbZocO655x7ZfffdhUS0vXr18nmiyu3EKhgChoBHAId9HPfnLfin94dRWNRsLOgDoxHMjujex1fTCGbc/NcpJ/myE04915+DUcggRvRD5DNIkEY68xXtT1EgQEhuQnMjXB90QEsfDILvVlBDxzWiZJjvXzB4BKRi5P+MlduGX+sIcg8f2Y77RN+ZPz86wX9/n3jobmcW+bqPjodf15GdYiRco+SpH5cfPPCnvPaBqnl5mbckJi/RKmdSE+ctMROycjCyx4bArowAhOP999+PhACNCiGxISTJhHphgRBNmjRJ3nvvPRk7dsebuHA9uzcEDIGyCEAwiBjGERRIiRKTYDlEhiPR9qtCAABAAElEQVRKErWhbrJ2UX1ZWeEggOaNwA7du3bxk+YaAsJ3C+0eQSLQ0CFo6xB8rfCzQii7bMB/+/rU45n2Ef5e+gbb/zAuBEg1gMm+f8F2el3Z9tpPLs95SWLeXLxMeoyemEtc0hpb88TM/fL7tNpZZUPAENi1ECiPoKBl6d27d0JQICmYkyUSkrOaGAKGgCFgCGQPAYiHEhFGJdQ2ZWhj0IqggSNpKlHvkHtHjZDbRz/gNTaacDWcTJW8QkTGS6SB8R1t/4MGCA3gUw//Ka6BCT4v77qy7cvrvyqfm09MVaLr+m5YUltw+DcxBAwBQwCTr2QyefLkZI+9GVqyCskIULJ29swQMAQMAUOgYghgPoYQJEIDRWgZQSH2dWG3ITAEhSAvUfu2P/e+VtxTznONiAfxQSuDYOKI6WLQh8U/2P4HTc+l/c/17SkipPeg628pE1xC+1B/mG4nniH47yCptPcV8/hPXmpi8hivtKaGo/9zA0/wuW3SamiVDQFDoCgRwOdln332ke+++y5yfWhZhg4d6v1lghHLaNe4ceOEpmh0hhbmqKOOiuzXCg0BQ8AQMAQyj4CakkFOyBGEcK3mYBo4gnvNOdS8aRPvI4VfDOZgwba0xywMMnT+JYO9nw2aHe4hOGGhbIpLsDpkxChBe8NBkAk1hSzPJ6a89uHx8u3eNDFV9Il0a91cXhvU2whMFeFr3RoChYpA3759k06dKGVBAkNlyjA1SyYQmPLM1ZK1t2eGgCFgCBgC6SGw4KOP4+ShbZcThEPJBM80qh1lweARBI7gnnKNihccGXIx/ZVnvIM/5l6YoyUS9eua6sgMWh00POlIZdunM1am6+YliZm2KGY3mOnFZqs/El6+dmUfb0qWrTFtHEPAECgMBCAbVeG7YqZkhfH52ywrhwCmNWoawzlsPlNe7xq+NlnY2vL6CM4haJ5TXrtUn2dijqmOZfUqh8D0t9/zxAEC8e+50/2hZIJniEa6C5qNoVnhPvica/1uBb+fwXa+wfY/GtY5GFaZRzpesG7UdWXbR/WZ7TIzJ8sw4nf913/KFT3aZbhX684QMASKCYF69erJhg0bimlJthZDoMoRYLNGpCc2ibypxpQHM5qzL7oyJQfoTEyQjR/mPThRH3zQAXLh76+T+8c9JrcOG+x9DDIxBuFx2RCb5DcChEPGJCxsDoZZGWUaRlmd9oP11MyMFaofDdeYgaFJwb9Fhe8a3/ewUDbqDzf4ugQPQAj7raZk3KtPDNcqGho8lfbaJl/PRmIy+Mlc3qOtaV8yiKd1ZQgUGwKYianPS6bXRr+33HKLHHDAAZnu2vozBHKOAOQBAoPTs27o1DEZ34G/T3snnldj7br1fr6LP/lMHnlglI8Cdf3wkb6MDVxQ2IhCRNjsIRrhifHot/uxXWTaWzP8phSiglkP5j28ZYdsPPf4g8Hu/Jt0HUtzxVABshWc1zFHHyELF38aJ1+8gYccMV/GYBMbngvjIlrONe3C44GLSdUjgKlY+PNnVDXP0hlEkdJEbWmTTjjuqL513FT6SdZe+8nnc16SmG4HN5ehv+6cz7iVmRvzRYhEZmIIGAK7LgKQlEQkIh0Cg/M/jvwq5IFZsmSJ3kaeqVMekSFwQLDfyI6s0BDIQwQ0maC+1dYp6hvtoB+AkhfIjmpO9O1z0PQGTc4tI+8pkyxw8I1/9ERC+1+37gfvOB0mBrz5xik7qIHBBAhCAclQLc19Yx91xOs8311wXtRlLHKFkPAQx299Ux/0f4BkXXPT7Z688Yad+WvyQ/qLGi9RHhtdk50NgWJBID9JjHOKxzHexBAwBAyBQkFg0KBB3iEfkoDz/pFHHhl3tA9GHUu0nsMOO0wIwZzIQR+SQp4YHPw/+igW0jPcVyIiQ4JNkmESIADnfxJiWhCAMHp2n+8IRPkGQAA0K/rGjZv8EpQMcKOhbk/r09M/07wd3ATze0BS1KwHEqEhb4n0FCQwvLmGEEFi1IFbNSNoZ4gGBYFRh26ITtS8qLP33nvF56d5RoJjMUeICskPdW5BgpJoPMhZuB/6MjEEig2BvCQxxQayrccQMASKG4FgRDEIyz333ONJAoSkV69ecu+99/qwyVEooHW5/PLLhTDKyQTSAcnhYLyHH344UjujROa6667zzyEvzEmF5+Ul1dS6djYE8gkBjdKk5mTMDYKgoWshNOmImoahzVCTLNqTu0NJTFR/EAnIkPotoBm5zyUwhLCEfRAgNUpign0pyUEDs2FDqX+kRCVYTxMkBsu4hqgkG89ITBgxuy9GBPKKxNzz+gJZXRp7k1LIYBOdrGWj+oW8BJu7IWAIpIFAVPhjJQtRz7RrtDUQmHS1IhCeu+++25OlN954Q7uLn5XIxAtCFyTVtGhmIVDsNq8RYIOPJoZNPdoQFcyx0FQki8gURX5or4kI8bMJOkPzDDO0ZKK+BBpsYENpqQ+VG5WXA8IRJRAhTMqWfvFV3JQsXE8zukO4guQNkkJo3qjxwn3YvSFQrAjkDYmBwAx69p2CxxkzuJsKyJ+n4AG3BRgCOUYALUcUkShvWr/4xS88gSmvXrLnSoAgJekIc0abU572J50+ra4hUJUIsIHv1fN4rzFhYw+JUH8RzLJ+2f2YyOGV/KgjPmcVjSKliQknT3k97lyvdcJnJS044CupYHx8c9RUDRMw9Ynp0rlD3Ccm3JealKG96fubPpEmYNSBqOj8gwEAEo0XNDkLj2n3MYJK0IYo8hqFD/5LkOcw0Y2qm4kyDSoRNT99pkEedDwNIpFNDRzkHJ+vC8/r680ndS7ZPOdFnpg3Fy8rCgKDY//D5/4im5+fjWUIGAI5RiCZpiXR1Fq1alVpAqN9X3DBBQIhSlcwMzMxBAoJATbntw2/1ptxkSPmiO594k75mGdFCUSDMLT4sNAmKGz4hl57uTdHI0khJmXUVXISrKvXOOnjc3PCqef6/oiYdsfN1/lNHMRK56dzU6d+bR88q0kZGqYoUzLqUof+GYf5B+eY7njBse06NQQgDWjL8k34ngXz0uBTBQnPpkBgCCOdS8m5JmZN6WY57cGpucQgY2M/fF53abVXfYGUIcdtj1qWsQGsI0PAEMg7BNBopCvXX399uk2S1ofI4PSfTu4ZnP1NDIFCQ4C34YneiENKRt82dKclqemXPghqKiAJUWFyITJkTA+LjhE1DnUTzS9RfeYSnA99hOebaC7JxuOZSfkIoE0g/DVSv/7u8uQzL8VN9CgjMhxaD8jjEpe/hc8qKqw1dcNhtIffcKUM/+Pd0vf0PvL36e94fymNkkf9sFYFYpLou039RBKO0Jdq2HDWFdbgoGnUnDPBZ2ij8AHToBZoAVWreUq/i+IR/dBwqZZIA14kmncmynOuiTltzJSi8IM5uf0BwgEpu/KZf0gL84nJxPfT+jAE8h4BHO3Tkd/+9rcZD3OMTw1EJh2piPYmnf6triFgCBgChYIAmoxz+53uE6niY0XeIdWCoSmDYEBggmG0P5g20Wvx0Eio+LDXV13iCXCL/WJRdil74qG7fR9o1CAvkCeSpKL5Q6MCOSBPEM/SlaBfGP1q2PAFM6bG5u00ScF+NWw4JIMIe6rBgcCgWWFdUWvTeTHfh++7w88ZU8cXxz8kmGayHrSUjMt6CHgBoapKyakm5ua/zZTpi2Jai6pcZFX37c3InBYG+dPr8+WR7RoZX2B/DAFDoKgRgMTgW4JZGcd3332XdL1V5VDPPCZMmJB0/Lp16/roZszB8sUk/ZjsoSFgCOxCCKhfE0vmGq1LlKB9YOOOr5KaAyYKo63tCcCABi8cpAHtHOSi24lneO0FZClVQTPEoaJaHPoLhutWM8WosOFtDzvEa2LwCTumSydPYPDhYl1I39N7e2Kl4ckpQwOTTCBFCPmTwhrGZO0q+ixnJGbJinUybeGyojC5Gtars090Of/LFU4b00ra77d3RT8Pa2cIGAIFiIDmhiE/DGZd+JtE5XIhF0y6kcjSgQMyFRVkAB8ciEu6WqN0xra6hoAhYAgUKgLkGiJEd1Q4bF0TWo5kYa21XvgcFTlPTb7Q+hAkgnxGaGJSFUhLr549vAkbxEGTwFY0bDjzKS/KX7K5QdL6/qZ3PHcScwqaoyVrW5lnOSMx+I68PqhPZeaed20blNTyPjF5NzGbkCFgCGQNAXLDQGpIfhmWqo4GxthRJAbyYgQm/GnYvSFgCBgCqSPARj1RWGsITjqCiRlR6TDpwudJk7Km0wfzubT/uV7zgunWn++9vcJhw9G+JNNApTIv9eVSggaRIVlsRfx8UhmPOjkhMUtXrpOlThNTDNLSkTHNCQMxMzEEDAFDgDwtUVLVJCaRiVii+UTN0coMAUPAEDAEohFIFNY6WRS6qJ40RxGhmzFNm/BcxaJFQoAIPY4zPn48aGfwS0kWNpyxCEkOkYJooNVp3rSJYEqGT4z6sVCPvhkDDU8yUeJCH5iRXfv/BvhAAKohSta2Ms9yQmKWfO9MyYrAFwbgu7u8MEpiKvNBWFtDwBDITwQeeeQROf/889OaHHlYciEHHHBAlQ/7l7/8RX73u99V+Tg2gCFgCBgCuUZAcwnhfwIxwNeDTT+RuhBMptIlMLRT8uF9W9z9cccc5TUzQd8V6qUi5GmBfGCOhg8MYcMv/P11QthwRLU96tz/y27H+OdognDAV00J5APnfsKDIzxL5teihI76jEEocKKTaXQz2qOdqUqpts1JVQ5gfRsChkBuEJgzZ46PWDV79uysTiBX41bFIvv16yfPP/+8N8W68cYb5ZhjohPqhcfGwf7pp58OF8stt9xS5QkmTz311J3GJSIa/jqVkX/84x9+/gQvOO2002T8+PGV6a7o2mbre9+gQQP56quvXDhY0/wX3ZeoABeUre99AUKTd1OGxKST5DPvFhAxoZyHWI6YkxUZAoaAIZAXCDzxxBNSUlIiU6ZMkZ49e8qJJ54o77zzTrlzq2qzsXInkMEKrJd1n3DCCR4H8AAXE0PAEDAEDAFDIJcI5MScLJcLtrENAUPAEEgVgerVq8uQIUNkxIgRsn79er+Jf/vtt6Vr166SjmZGx6tqM7PPPvtMiIAWlkS+MuF6wXvIyx/+8AdhvawdIbIaeICLiSFgCBgChkDhIIAJW1QC18JZwc4zNRKzMyZWYggYAgWIAGYN55xzjnz++ecZn/3WrVvjfSqZee2112Tz5s3x8uBFVHhlnn/44YdVGiUMnxiIRyaEZJhbtmwp0xU4YBLHkW356aefBLM4fJRMDAFDwBAwBAwBIzH2HTAEDIGiQaBGjRreXyCTC/rzn//stQ/aJz4JLVq08NoZLeOMloXwxuSISRQN7P333w82yetr/HqGDRvmSeHatWvjc0UrdeGFF8bvs3Uxf/58ufTSS7M1nI1jCBgChoAhkOcIGInJ8w/IpmcIGAKpI7Dbbrtl3OH59ttvl9LSUgmSFxzbVTDhwomfJJflCeQGx/jK5GyhPdqIRESpvDkke06emd///vfebIw1chDYIEhmwOPKK69M1k2VPKtbt67w+ZoYAoaAIWAIGAIgYCTGvgeGgCFgCCRAAI3D6tWrfUQxNBBB8qJNHn74YUlkPqZ1gmcIT0VJDNqee++9N9hdRq8hYgSsvP766+P9hsnMokWLvCYGDZWJIZDvCJSOrummWM0dBGItzHPJoLJmnfmOuc3PEMgWAvZaK1tI2ziGgCFQcAiwUR86dKgsWLAgksCwIJzd0xGICMSnIpKKtqci/QbbJDJ5g8yAA3gYgQkiZtd5jcC2ao6YM0PO7qIA7/MaX5ucIZBDBIzE5BB8G9oQMATyHwGikCWT3r17J3sc+Wzy5MnerCzyYZLCqjAhSzJc5KPy8IhsZIWGQI4Q8AQG7kJsDiUwhXafI+xsWEMg3xEwEpPvn5DNzxAwBPIaAXLC7LPPPmnPEbMw/FtMDAFDoOoQ2OY1MI6/bCcwhXhfdehYz4ZAYSOQVRLz5JNPSocOHWThwoUeNc7cR5VRN5kQ4rNatWr+IJ9B8J5M0vRZXh/B/jM1N11TOmMH52HXhoAhUHgIJNLG4Izeq1evhAuCyFSVk37CQe2BIbALIYAGJk5gIDI5vq9+UG+p+Z9DpUbHy6TaPh1Sms8u9HHZUg2BtBDIKolp1aqVzJs3T77//ns/Sc7cc8ycObNMGXUTyYoVK3zW7AEDBsiGDRvkkEMOKXPfsWPHRE0TlmdqbgkHsAeGgCFQtAjgqA9hUeHfE6J8jRs3Ti644AJ/rc/CZ0Iy828ZJmaVMRdjzCOPPNLnUiHHS3A+4THt3hDYZRBQE7LtGpm4SVmW76u36CZ1ByySOqf+VWodM1RqH3+X1P3v9939syK1GrqPY7vvTsR8d5nPyhZqCKSJQFajk+29997Svn17b0JxzDHHlDGl+PTTT/3UMa844YQTPDFBq0FyM0gO8sQTT3jnWjJGT5061Zd98sknsu+++8bvlyxZslP+BkjPWWedFa9DBmrGD0q6cyuvT+Y8atQoP3c2KHfffbeUlJQEh7RrQ8AQKBIEcO6//PLLhXDLhCk+4IADyqxMo5EliiwGecHZnwPzNA6EM88gJFpWpuPtN9ddd50fN/hM+yR3TSI5//zzLXlkInCsvCgQ2Or8X5zNRty53ylisn5fvUkHKen7qmzbtEY2PH+GbPtmnlTbo6XUaN1HanW+TEpOaygbnvqVn1nU/Irig7BFGAJVgEBWSQwJ4rp06eKT0X355Zdee3LzzTf7ZWESRtlXX30lvFHEVIyN//333+8JB+ZikILOnTvLrbfeKpAV6lEHbczy5cvj98GM3eR3gPRQl3rkPCBhGmFO27RpE4c03bndcMMNkX1qhySHe/fdd2X27NnStWtXOfbYYz2R0ud2NgQMgeJCAPLCkUjKIzLa7sMPPxSOoPAyJxmJgURBWvh3EcIDiVJiRV/fffddsLu4loZ6JoZAcSNQTbY6736IjDMscwwm+/e1jx/lCcwPDx8pW9d+7qOkVVv9ufy49E3ZtnGN1O46RGq0PVe2zH8scn7F/fnY6gyBiiOQVXMyNBFoTfgf7dKlSz3x4H/sBx54oL+mjGfUadSokYwZM0bQkODfctNNN1VolRCaGTNmeBLB+JAgRE3atNN05saGoLw+IS30iWkbmpi33nrLJ8zT8exsCBgCux4C/HuHmVmmhZcyZ599thA5bNCgQWW03EqseBGE5gWTM/LAYOZmYggUOwLbUMV4E61tMd+YLN9LrT2kRovjZPP8x+UnR1zC89n45i3+I6ju6njfnaj5FfuHZOszBCqIQFZJDHNUwvLSSy/5KUNSlFhQhkaF/9FjrtWzZ09vTsb/oDElq4io3w3/g0e7g/8Mpl6QpbCkOrd0+gyPYfeGgCGwayPAv2+Z1oCENTfBfDLkpVEhiABjT5gwoUqTZup4djYEco5AGR8TJTTMKjt5Y6o3bh+DwGlcEuWp2bpmqezmzMsSPc85hjYBQyBPEcg6iVHCgmkYpmWYcUFkmjZt6s3FwIn7jz/+2PuwYE4WNPtKF0f6wg8HEsQ/EHrgIxOWVOeWTp/hMezeEDAEdm0EIBz4zmRaCPN82GGHeU2LalkYJ5y88qOPPvJmb8mipmV6btafIZArBFBseE0MziaO0GT7fvOSN2NLr71H5PjbXDkEZuvqpZHP/XxzBZ6NawjkOQJZJzFKWMAFszFMrvbaa6+4oz1khjpKFNCYoJV5/PHHKwSl+rqoOVc4lHKw01TnlkqfzJd54xMzduzYuDlbcDy7NgQMgV0PgarKDUNggT/84Q/eVKxx48aCNmbo0KFxgNHCIJAonP0hN1oWr2QXhkDRIRDzgcFUK0YIsn//49K3pFa7c0QcWUEDhI+OzqfkuNhvdNPcJxLOr7yPBF9fE0NgV0Qgq479AIzTaSvnZI9gVqGCKRdC1DBIDcfpp5/u7bwpx7GViGSYckE2UhVIEoEA0LxoyFGik0Vpd1KdG2Mn6lNz4LRr106OP/54b7pG8IIozU+qa7B6hoAhUBwI4HyfLFoYq0RrjAkYdVUgJekKvjD0o0QlqP0JXqfbr9U3BAoJAfLCeNMxP+kdUcpQ0MRMyrafA/fV6jSU6k3aSc1Wx/lS/mxxGhWii/20fL67c/34J+X3J07TUo2jzh6yx0XvyYapg51vjNO6OKlz1GVS65DesmneE77/RPPxlSP+PProo/5FBb9zfHXr168fUcuKDIHiRaCaM6+K/RaLd422sgwisOzrUln+9UaZOWul+wezprRpXd8FL9gzgyNYV5lCYM6cOd55G21gNmVXGzcdbPFFwccvkZDfBY1KIimvPe0gPDjwq0N/Km3C473wwgvhopzf5+p7lerCszW/Bg0a+CietmFN7ZNZMWJ3V9FFJ3M+sbHtTixKWdR9zTa9HLG4tAx5CY+C2VfpjPuco/6TsrV0tXucuL/qTdrK7iePkxpN20np9D9KTUdYariyoGx87375YcrgpPPba9iOFxq0hbzwcnTVqlWyceNGufbaa2XYsGHBbrN2na3vfdYWZAMVFAJZ18QUFDo22TgCkJeHxn0ikyYvi5fpRf36NaRfv5bS/6KDtMjOhoAhEIFA2AE/XCWonQ4/S/Wet7K33367KBEhNHMy4pRqv1bPEChEBHhN+//ZOxM4vab7/x8RWWWlSKIELVHSWNv4SRqltbT4t6hdtdWKotQSSxVJVEujaC1NUm1RJJYoEhV+KD9BVNaGiC0kkU1kHVlJ8j/v8+Q7uXPnPtvMM88y8zl53bn37N/zuTcz93O/yyG8spmSsYZ4fqsderk2R94YyMsGH0Fszfg73LoPXwp+Kp97zUszr0XZ0hOR5r5dy31Od22PHOLaHPJrV/VYf7duxuha4zF+M6/JaX/m2DBb1ciT3Vrfzv37ej9HX7dlx50DlJ/5OdDKxOWJ50Nj/yNKXiAwJKxNiEioJASaIgIiMU3xrue5ZojLoEGpfSu6dGntDun3haCFYZi336lyL774sd+Z/H33jr++acg+eY6u5kKg6SAAScGUiz2r4gnH/Ex7wcTbR/M49OOwb4m8khAQAiCQ8kGBGHhPlKDxsH1jyLfY5Ruu/ckjQ7tVL/zWcaCxibZfv3q52/DBOLfuA79Vgic4zXfu49p+89eh3xrvy1L1z/412rfY5zTX7nvDQkhlCMxn8/3mlpvm/+xDP87Gl6rzaISi8iTlWcXJJ5/snnjiiRpbNbRo0cI1a9YsbOVAm1KktWvXut120wfMUmCvOZ0TidFTkBEByMnwv7wf2lx88R7uVK9xiSfIy8CBb7gXXvg4aGqOObprvInyQkAIeAQgMRw4948ePbpGqPdjjjmmzhjh0A85Ml8aMyVjwIYKJFBnYdVRCBQRgbAvyyYCAaExkzIIDJqVDj96yn2+YJqrevTscMb0LLSzc7C4TxEg6/+ZJzTLPjjCtTtuuGvlNTM0hchQ3/bIG1zrg84PYy3725F+M8uUyRnzWf9s49eudyFgx/r168PvDYgDad26dW777bd3Tz31VMjrhxBoagiIxDS1O57Heid6vxcjMNdeu7czcgJp2dqbkHX1WhnS7t4vZuDAvd2pp73qbr55htfUbOc1NXq08oBaTZsYAkZmIB6QmbZt27r6kBjg22WXXcIRhXLMmDFZAwlE2+taCDQ2BIgCRqrpA+O/4Hbq7jr+5KmgLVn61yOd8077RnCS2sf7k18x6mzvF7PctTno3EBaturex7Xc8xi3ZvL97tOnLov4zNSeP2m8TPOzVcTDDz/spk2b5i0jBjn+b0Nmqqqq3Msvv+zOPPPMsE79EAJNCYGihVi2zSv5z0YEr3322ccR7pjETtL8h6bOEmVsdjl37lx3zjnnhHraRA/qGdf6R+u4jo8fr7f5TDYbDxmsjLGjyWRHfotEZvUmM33jCVlYx+rVq+NVZZsfNChlnoKvCwSmqupz1/+cCYGsHHvsS8HE7IADn3GXXDolEJl+nrzQ5p13VpTtmiSYECgnBCAeOPLbvi51lY3NfPGDwfeFg4hk/fv3d3/961/rOqT6CYFGgUBQpBBe2Ucpg9BYvvU3fxUihi27/2S3cfWKWvXx9unyVU9e5ta+9aTb+qgbA4FZ+fxvPbk5x61fBSnaPF+6/iZPxvrInejZs6d75JFH3Ouvvx4iuBLFUD4xEYB02aQQKBqJGTsWBzfnevTokRZg9laJv+S3atXKDR06NHwhITQyyTauZExCMZOOOOKIEH6ZLxl2RMMax+uJ7AHpiBIOQjibnGHQhB8TJkwIYZOnTp3quM41sZHm+PHjw74xufYpZTu0MDjzb711ymkfWQYNfsNRvvuX2wUn/n978zESEcqi54kTUw6HoVA/hIAQaHAEeJFhXxgikXGg3cG0TEkICIGUz0nY8BKLLm/y1dxrTFrve5r71BOOz+dPCz4p0Xp8VPLJr/BEhrT2rTF+zN9lHW+Ljju5lj2O9n41v/LE5+is7cPgsR9GZiZOnOhOPfXUWK2yQqBpIFAUEgNRgKDYHjDpoGVTyGJt2sS+NAsWLAjEJyrPkCFDamlYrB6CxaaZONhx2AaaVp/pbBtkJhG1TP1KVWdRyA45JGUahgkZPi+km/6wjzv77N2C9oU85mSk/fdPhVom/LKSEBACQkAICIFSIxD2iYloRMi33s/7sfi0atydLqm+msDQj31mYv3j+fVLZrvVk+53W+3S123RokPG9m2/eaXb5vxXXMfTR7qtD/uV63jaSLfd1XMDmQnjJs0XpE3+AZm57bbbkitVKgQaOQJFITFsUAlhwA48XcLe8/DDDw9kJ6odSde+vuUzZ850O+ywQ42NM5mf9NBDDyUOP3v27KBNOfroox0HmhXKckmEQezbt29w5E2KTJTLGMVsA2kh7b9/53AePXpuOKOFMV+YSZNSGhfzf8GUjHTApj4hox9CQAgIASEgBEqEgJl0EW9sAwoWT0haeLKxZvqT7nPvz5JUHxQxkfa55BmPUMxb+Whn6dq39aQF4rJu5ji3+K7vukV/Otgt/cep3vl/uSc1IwIJSpKnRNBpWiFQ9ggUxfsaEoP5VaYEofj5z3/uvve972U16UoaB1OwbbfdtroKUoRt+B577BHK4vWYl+GngjmakaY+ffqEtqNGjUokXGY+hmmYJcpsDivLdDbtj5nBZWpbyjojMV27tApiEEqZtPseKa0LpmaWjOhYHyvnbIEBomXFuD7l5J0VXKAYQGuOoiKAD01DpzZt2jT0FBpfCBQNAQgFJmQhOJg/N+u0k9vSH6smep9cNCxBks31dc2vfmOMwxaheZeebuObY6rns/G29CZk7Q67MpCnJfeeEmblx2fzprm1M19y213+put4wlC38Ma9fWlcnurmuhACQiCCQFFIzIcffhiZMv0lJAJfFUy6CBuII36uKUpKkvpY/YwZMxzzdO/e3SX9sT733HNDgAHkWLhwYfVQZkrWu3dvh2kYiWtMyo477riw4VR14wwXkDlIXT7EJ8NwRasyrYtpYebPS5EYfGYsVROdTeZllBOiuSTJ/+XA5E1JCDQmBAidzO+uXH+n1mXt9Y2SVpc51UcINBwCONdv3veleaedw1SfzXsjaEx4z4jW1yfPwC127es1PS/5K95f/B8iPz4Ttd7raKrd8tFXpOb19YRdZj6CAKz0pm3tvnWF26rrV926uf/1tZvrQ0f9EAJCoBYCm99Aa1UVroA/urmmE0880aEJeeaZZ4Kzfq79cm2HXw4E5ZprrgnmXVHnf8ZAQ3LGGWc4ov2Qjj/++HCeNGmSw2eHZOeQ8T9oz7i5JDREUY1RLn3KoQ1k5dNPU+ZiUXnMHwbNDJte0s40M7QjslkxEn44RrSKMZ/mEAKlQoA9YXDibwjHfTbbrOuGm6XCQ/MKgUwIBJ8WTwg2QBggBinViFu/2u/fYr4uterj7XPLo1VpuasPs9z/X2lF+nwxJui1x1vz/kuBxGzRMuVTE5c37YCqEAJNGIGikBhe2nl55+thtpd9NBQQh2zmZ/W5Z0aUcLInrHI8UYbmBhM0S2wYFzdRI8TySSedFDaTy7YuGyfuh2Pl5X6GmEBSxoyZ57VI7aqd/BfMXxPIw01/mBGWgPbDfGQoKIY2hCAEk/6S8s/p4veumR8xdSt3XCWfEMgXAfaUyeRfmO94ai8EGjMCRlrQiKR8YlKrbdaqY8ijLwlpU3198lt17elNw8a5Fc/8LmURhiJm0/Ct9z7abd3n5w6zss+XeiITm6+l1+CQUqGZ/UWsPlTqhxAQAjUQaFYj10AZSAwv7zjT55Iw6YJE5JPM5wXVrB3xPV5sPIjSgAEDAkm58847rbj6jDbm6quvrs7jM8OeMlFTMiot4hh15lcTl8P2kzFztO5eK5VkxlY9WZlc7LdfKtKYmYidekrKhA6NC/vCvP12VQi1TP7s/q/7vWGqfLCDru7UU1Kq+mItY9CgN8J+NcwX3ZCzWPNrHiEgBISAEChfBCAxwVk+RP3yu9zPnRaE3cr7rmDtFa+vaz5oUPzIa98b59a897Jb8+64TdepfNX/pd41Ohz7uxryMN8WnlBBcD5fOifIF5WXeiUhIASSESiKJsZMtCwkMSRiypQp1RJFCQOFtE/arwVtB7ar8UT/+BjRNkl1mJFFTcni88XnitczPhHH2MPGUiY5IDloomhDv3JPxxzTLWhYRo6YHYgJmphhQw/w+8QsdV26tq7e/HL0mLnuUx+VjPDKUTOyhl4fkdAuHTAl7FuDCdvwYQeGUM8l88Fp6AVrfCEgBISAEKgDAjV9Xjb4jS0hCy136+vfJ34XPnoWwifGNCnrvElZ0nifL57jql76s2vX9+du2x/d56r+789ug49K1twHGej4/25wzVp3cItHnuvXV1NePsoqCQEhkIxAUUgMU2OihfkWviW5ml4li1yZpZAgtDD77bdfRSzgGK9V+YM3EUPTgrYDLQckJUpUMBsrtuYF8ND6DPQycSbkM/vWWMCBigBXQgoBISAEhEBRENjgNTD4wqCICWf/HXT1tCddu2+c40Mid/S+Mctr1cfb55Jv5c3FNqxZ4Vb+98m04y3955Vug3fi73DEFQ7zMkv0W/T304JcfKaNz2ftdBYCQqAmAkUjMem0KzXFaby5uOanElb6h5v2cf3PmeDwOZnnfV8gNl29FoY0z0cnW1H1WdFJzETvwI8GBk1Mv37buYGeXEV9cCoBV8koBISAEBACRULAO+8HJ3mv0djgLTkgCMtf9JHAPInp+L0b3OIHzq1VH2+fLd+8295u6wNPcave8A79CfNF+y8be6Or+s8DruWOX/WRyPZ2n819w61+7yW/V8wKr8ExApOKWmbyFgkpTSMEKg6BopGYikNGAgetCyZkAwe9Gcy2IBDRhN9MMTUxkCm0QqRTTt7JXXJJj6g4uhYCQkAICAEhUAOBlAW6RSXzZ1+Laden/xnhtv7aKW7FC3/e5IdCt1R9ONMwx3zn73lHfp/a7P2dQI5WvDg0EJJ0/Zmfw019MvTb/CPd/Jtb6EoICIHNCIjEbMZCVwkIYD42+om+QRtje8PQjNDKUdOyhK4FLYK8QGJIhXDgf/TRR8P+PgUVUoMJASEgBIRAmSEAgdkUXnnTvizklzz6K9em53fdDuePdnMG9XIbva+M7duS1B4NTlL9F067w7X6Uh+35J9X+fG+4zp//3euhY9S9skD5ye2x8cln/HlE1Nmj1MWcW7/4YpUtAh/n/0DAI+tuPz597bPssryqRaJKZ97UdaSYEqWLj0wYpYPv7zI3TRkn4KbdqVz4E8nS7bye+65JwRXYI+NRYsWeXnbZeuieiEgBISAEKhQBPCJMY1I8DXZpGH53PumzP/TMa7LBaNdt8v+zy34yxnetGtaCLuc1D71PpoK02z123kCs/XXTnXLXxjqlv37z265P7Y9/Q7X7uunuhY79vTjHxt8bqx9dP6k8dLXVyj4TVDsjcTxJqVUgCkiU4n5sIjy/1GUEMvlD4MkjCJAhK8DDnzG5Rrpa8zoecHcrP85qVDL0bHqc43jPmNixoYD/wMPHBQ0QHUZE/Ky2267uYsuush98skn7sorrxSBqQuQjbwPez8RFj1bmPZcYCCs+jnnnOPShXrPNAZh202G6JnyuiYiJBJgJT7G/fffH8otTHxdx1c/IVCWCPh3SjMpC++Xkfyaj6a5eZ7INGvd0XW94AnX4cjLvbN/h7TtrT+alx0vf9Ft7ckKBOaTUb/yS08RnEX/OM99fN/5rkW3nm6HXzwRzunmt/Gy1ZclrhIqEQG0dRv8DquVfE5cWJkWisSU6Y2pJLGG+fDGONlHSUd95Ye4GClibOaoSwSyKHlhn6KlS1ObYl588cX1FVH9GxkCvMRfeOGF7o477gjmHpBdXvh5ya9LshDsSSHes41nId5nzJjhDj/8cMcZE5SGiOxI0BGiJxJ8RUkINDYEAkHwzvbhC7kRmEh+7Zxpbs4N/dzaj95wnb9zudtp0BSHhqXN3ke51l862O/h0sG17PZV12q3/3GdjrrcdfPkBcLTvPPObt4fj3WfPOIJTGQ85qsaPyLUbbXNzqFta096bP5Wfsx23hdn6wNP9mPslCJMsf7x8RrbPWnM69kQVH+eyFT0uXLukMzJKudela2kRAcjkhkhmUeMnB0imtXHb6VQDvwnn3yye+KJJxxfxC21aNHCNWvWrKihrteuXetOOOEEd/PNN5sYOpchAvEw6NGIijxDaPGGDRsWJO/fv7+75ZZbHL5V9957r1u4cKE7/vjj3a677lqdP/bYYx1mi926dQsmjJCh008/PfS/7777wj5VkKTzzjvPbb/99m6XXXYJY2baRwqiBeno2LFjIDY33HCDu+KKK9zUqVNrjItG6aSTTgrlJmsUcmQZMmSIe/DBB92ECRNC+Pu//vWvQWvUvn1798wzz4S+UTn79OkThhg8eHA1uRPxiaKq63JEAG+YFFMIzgleYVI7/9kns9zcW491rb98sOt46M9du96nhCNpPWt9NLGP/3G++3Tqv9yG1csSx2O+Ve+87Mf05mr973NdL3zCLXnyRte213d8VDK/yWYkLfu31+RAhJATJ4oE+SLNdVn2CEBgUreRc4ftmrk9+7Z0b7201i3/eEO4vdF6bne55cse4oiAIjERMHRZPwSIFrb7Hu1DBDEc8Sd5bQpkJp9kDvxsYMl4mXxxso2Lydj69evd6NGjHUSCtG7duvDC+NRTT2XrXrD66dOnB/O1gg2ogYqOgGlV2NzWiMfs2bODHBAYyACb+EIOLL/TTjsF4kMjSAVkB43KtttuG4hI9+7dQ38IyLhx4/LSsuy1115u5MiRoT8mYiTM1thQ+KijjgpkaMCAASF4BeQLsmXtnn/+eTdq1KhqmSEx0bRixQr36quvhj7s7fW1r30tjG2Epi7mcdHxdS0EiomAt+zxCYJA8mfPE9LlIR4cpNa7H+y28pqSrbbZyX22eLb7bMnsEFGM680p83hr5rzhZl3fz+140ROu83cv96RnhVt47/lhLMbo5AlTx2/6/Wr8RpeUp5dv84y6Km8ECItN2nRy7bZt5g46oY376K3P3LKP11eXW325nssb5c3SicRsxkJXBUAA0rGHj1x2dv/XQzSxqk8/d9dek30vl0I78LOUXr16uYcffthNmzbNE6tBbsyYMYHMVFVVhRfRM888swArzj4E87Vs2TJ7Q7UoawSimhSeLUu9e/d2EBZL8TzlmKah3ejRY3NY8DPOOMNBZI444oga5TZOpvOhhx4aqpM0RJR9+OGHjvGNfNHYfF6uueaa0BeZIF7x1Ldv39AvXm6ki7njfjXxtsoLgbJBAFMt/w/fsnyigq1+5xW3aqP3TfP/6tLf5tuwaoVb74MIQGAgNIRWtvFWvf2y2+4Hv/Xan/5uxfiRbtXb4xLnKxssJUhWBHjGUkwZguvv9CaWwnmjqVz8E5AirP7sn8to+/LIZ11m2TSQT0zZ3IrGIwjhl4MTvnfGf+GFj4Nvy7z5m0264iuN+tLgwD/6iW/U2YE/Pjb5nj17ukceecS9/vrrweRn5cqVTj4xSUg17bIDDjjAjR8/PmggQIKXfrQXkBde2tFK8OKP1iTfhPYl6tvCHzTMwuqbbrrppmCuxniYeZEgLhAOiAwJzUlUe4L8aFVYT9TUMjTO8MPGQ5OjJAQqBYGU8zw+MV5iT2hKkW/jtTrLXx3hPvtkTq35F435fYCy/ddPSS9fpYAtOT1p8U79npuEM3SVjE+BxIR8vL788pV0G0ViKuluVZCsOOGbMz4k5bTTXg2O//ElRB342TyTPvjYNEQyMjNx4kR36qmnNsQUGrOCEUArgVkYviJ8RYV44EgP2TANCmVGFiA0uSbG/uEPfxjGYWyiluVDINLNg1YEzQpjvvnmm4G48McSEzJbBwTs3HPPrTHEcccdF/KYmWVLnTt3Dj49+PMwj5IQqCwE0MDwEpk68wW8mPk2u6d8ydZ607LU+2zN+dHUYKLW3JutJdWHL/aVBXiTlpZ7GKKT+QtMy1IUxj9//l/Ix+vLMF9JN7Bh3hYrCQHJ2mAI3HzzDIcGBv8WzMVO9UQm6vAfdeBHiEmTlnrn9xl5+9HkuwDIzG233ZZvN7VvAghANqZMmVJrpVEn/2ilkRwrg/BENSz40FiK11FOfwIKpEvI8/TTT1dXx+Wgv33pq27kL2iXtI7oXHHZ6B8vQ2bIFlobyBuR1kwzFZ1P10KgXBHIxycmZeLDSoys+3N4C617ft2i2QEaHPo3bvR+bAnj4XezypuvQbSS6ssVW8lVGwEIDE8Lij/OaGRIX/xKCzf7jbW+PISaqK4vx3wQuEJ+iMRUyI2qJDEhLBYeGQIz3GtX3vbaGJz2Od7111VVnwWfGdYFsYn60cybv6ZBNs6sJAwlqxAoFwQwT8O/huhk5k+DSZoik5XLHZIcGRHwpAHegBYRwh9eLIuYx4QMgtL+oJPc4v8dusknZrM8O5x8fRB/+SsPevk2vfjG5AsN9KNCEEhpXHje0LzMfjMVVKhlW/JEJ0uVl/O5QoAOYsqcrJLuVgXIGjUdi/q34PD/wP0HBa3MAyNmBQIDwaGMuqgfTdTErAKWLBGFQKNHwDQ+wa7b/2EmryQEKgGBzT4wKTZTivzCEb92W7bp4Ha+9HEfZvmoEPGs9ZcPctuf+BvX6bCzXdWUsW7lW97XzouYKF8lAC0ZAwLsDwNpDmfup8/Pnr7W7d2vtWvZplmqPFYfb1/qfCXdSpGYSrpbZS5r1In/aE9M4v4tEBW0MpAbjuD878ssmR9NoTfOtPF1FgJCQAgIgaaGQOrLN6ZaGzDX8rqYlG9C8fKrZk9zs37/fdQv7ovn3+u+dMNEt/OAx13nb/d3S54d7ub+9fxgSpZOvqZ2xyp5vRAQopCFs9e8cP7P6CrXqm0zd8B326bKY/Xx9qXOVxL+MierpLtVxrKyySWbXZLO/tlu7uyzd0uU1jQuiZW+0DbOHD78fTf8L+/Xe+PMdPOoXAgIASEgBBo/AimXBG9KtmmpmGxBZIqd/3TGy+6dAfu5dvsd5Vp/cW8fdnmFWzH5XyFiWfQuJMsXbaHrckYgFUbZS4hKLTjHbHRvv7YqmJX1Pam9m/XGGjfrzTU16q1d2ZzLGeCYbNLExABRNn8E8HOBwGAehn9LOgKTz8iMwViMab40+fRXWyFQKQhYKGdspHGat8Q1ZdGDMhztiW4WbWt9dBYCQiCGQCwqGWGWq4kCTKbI+aqJY93Cx4Z4/5jhbt2iOTnNH1uRsmWMQIhC5glM6owmxvvI+PxDv/vYrV21wZ1wxbbeyb9lrfp4+1LmyxjeWqKJxNSCRAW5ImARx4gyZg78+LcUKjEW5meMzRz9z5kQopwVanyNIwTKAYEZM2a4BQsWuAEDBoQoYLYpJbKxESahnPFFsb1dlixZUg5iSwYhUBEImI+Jt+DZZLLlxfbEpaLyFYG0hAQBnPf9AxZ+Z0fzqz9d7+69akEgMj/8zfbu2z/pFEzM0rW3qJOlqUfyykgiMZVxn8pOynQO/IUWFPOzsPml96HB4T/dfjOFnlfjCYFiIcDmkb179w57F0FmIDX5pKjGplD7z+Qzv9oKgfJGAN8XL2FE41Jp+fLGV9LVQMA/aymnfjQwG1z3vVq59ts2C6Rm3vtr3LAL53rzspXu68e0d78YvqPrd1LH6nrae/5Toz/1fU/q4L7hD87kW7T2zfyHraT28f51yddYT5ln5BNT5jeoHMXDgX/Q4DeCVgQH/ksu7tFgG1SyfvxkCBLwB7+HzJigkXndXXvN3u6QQ7YrR3gkkxDIGQG0LmxGSQhj9oSBzEBqLPoXe8SwwaYlQhuz+aQl+rOHC1qa6P40Vq+zEGjqCNT0iYmYkgVgKiXf1O9i5aw/pTlJkQyk3mnvVu6H13dxU56rci+MWOKWffy5G3H9Ate9Z2t3yCmdXL9Nx4KZa90MT24WzFzn1qzc4BZ8sNbtsGurUB9f/QdvrHYfTlsdik1jU+hzfM5yzYvElOudKVO5cnXgL7T4EJmB3keGCGY4/F86YIq75JIe7pSTdyr0VBpPCBQNAbQuEJXohpaYkJlJGddoWqJ7suATY4lyCNDpp58ejqT21lZnIdAUEfjqvQua4rK15hIhYGQitR/RRjf52RWu43bN3T6HtQvHjPErQxnamL//d2UgKvv6uh69t/akZvMHqrt/NddrWzBNc+7v/nqWJy0792zlfvzbHV2vQ7d2rVpv4T54Y5UnPKgZUzEE8KNJXdU/HwatgB8iMRVwk8pFRBzszf8FAlFI/5dc14jDf5eurUMgAYIJvPP2ihAAINf+aicEygkBtC79+/d3t9xyi2NTSbQybCqZj0kZGhgOiA9n+pomp5zWKlmEgBAQAo0dASMxKWrh3NKF69yjtyxwzz+w2B16audAVnr0bhu0LR9MW+XeenWle+XxZe5fwxcFH5kuu7Z0Hbffyi1Z+Jnr5MlPSJiOEY1i06D7HtbecZCW+XYfeILD8aHX0JAn2fx2lW8+DFIBP0RiKuAmlVpEHPj7n/O6ww/GHPjxVSlVgjzt4ec/u//rgVS97eUaNvTABjVpK9VaNW/jRSBqSgaBIfXo0SM480Nudt1116yLRytz0UUXeXPLYaEthGi//fbL2k8NhIAQEAJCoPAIoA2ByBBVMnqGzDxy8/xQDon5ykHt3J5e+8JhCVKDKdl87zvDOIG4+Mqwr1Ekf/9v5rq1XgODSdquX23j9v2WJzX+INH/g/+ucpOfW+Gmv1pVSw7k2mGXFq6LN1Wj/8IP1rmXH1tSo10YKMOPRx991B133HEZWhSvSiSmeFhX5EwQl0svneLmzV8dNqiMb2BZqkWZw39/T2QsyMBNN+1TKnE0rxDIGwFMwcaOHVujX7wsyc8FwjN06NDqflxH89UVuhACQkAICIGiIhD2ifEzQjwwKcOUjIRmJZiY+fK3Xqly0/1BfhdPQiAUO3gNTCevgUETA7GZ6QmNaVE4Byd+fyat8ZHOZnqiMnPqp+75UOKCWRqEhvFSR2s/x4oUwTmsQ2hFeTRBeD6cttAPnyJMJl+0TfT6nnvucVdffbX7+OOP3aJFi/yH49J9zDa5RGIMCZ1rITBx0lI3YuSsojnw1xIgS0GSw//uu6e+RmTpqmohIASEgBAQAkJACBQUgZQmxvukeI0HRGbfb3Vwh562rTcr82Zfnngs/XidJx+r3PJFn7slC/y194t5f+rKiCYkcIqQ38VrSkjVJmp+vGg+ECXPPCieP3ONm/f+aq9VWex+euPObpeebao1OIEt+Y5oZgggQLjn+T5wwMww7+b5bLwwSeQH5GXw4MFu6dKlbs2aNe7KK68sCwKDiCIxkRuly5oIENKYdPHFe7hTT9m5ZmWZ5OIO/yZzmYgnMYSAEBACQkAICIEmggAbW3r+4jUnnln484Rnlnr9yUZv9uVNyP6nXfB7Oey0zWBAYkjz3/fkYuX6cI1GZJw38UpRllCUCrucugw/g2YGAuN9/6PzbYoFENow75L5nwWyEh2rVdtmbs+vb+19dLZxk/53uZv07LJqeaP9o+QFAkPCEuDiiy8O1+XwQySmHO5Cmctw881vOw4lISAEhIAQEAJCQAgIgXQIYPoFgYHJbAyO/f97rzfZIu9VJrv12trt57Uz+x/eKQwAuSHZOWT8j/c9uak2TfP7xwQND/vI+ASBIc/4QeMTmc98cWhHf0zMDjv9C2QTE9qhFCFKyUt/0sknn+yeeOIJF42G2aJFC9esWbOi+F2uXbvWnXDCCf7d8+ZEua1QJMaQ0LkaAfZfmbBJC1NdWGEX2kOmwm6YxBUCQkAICAEhUOEI2D4xwcbLq2Lwidn/2x0DeYkTFZZqmhhMwfBRIWHuNe/9Vd4/ZpM5GZTFq0hMmxIITVCZEDwg1cfmq877cWj/3tQqejNsjYQ2puturb2vztpUfTBV2zweJmPr1693o0ePdhAK0rp169z222/vnnrqqRpjNURm+vTpwWwt29giMdkQaoL1OM0P95tLKgkBISAEhIAQEAJCQAjkhoD5r2BLBqGAwHz7jO2DTwymZUQpg7gsWfCZP9YGBU1qZItmZvOk8paDY2weOyh1wvibFCe+WWq+zfmUxoZgAfjHUA+tYW5I0ntT1rjH75wXm39Ddb5Xr17u4YcfdtOmTXODBg3yG42PCWSmqqoqbAVw5plnmmgNcmaeli1bZh1bJCYrRGogBISAEBACQkAINDYEHn7sX+72YXe7v905xO22y87u/Q9muZ+cOyAsM152fv8fuR987zt1hoCxn3nuJffzn55e5zHUsfwRsKhkKT2Ic68/vSQckBcSOpGUwVbIeoKxteu2WyvX9UutfXSyFq7TDi1cZ38eeun7m1pDWFKaGBtzcz5YlIX2mKl19eOkzq29Vgf/Gvr5+cKEG4PmhXpLkJkn/jzP++3g/4xkqfHCxaYfPXv2dI888kg1mcHEDJ+YhiYxURkyXYvEZEJHdUJACAgBISAEhECjRGDnL3Z1c+cvdIuXLA0khjN50qSpb9Yoo21d09Jly91l19zgeh+gbQDqimHF9POsAcOvLdCM+H9oWzhbnvNX/qe92/vgjv7o4FpvvWVYGqRjrjcpm++PCZ740I9NL0mYqEFczFSNcMyYpmEOBimxMWj7/n8/dS89usi98fLy0P71pxe7/zz9SY35ITvdvtTG7er7ttq6WWgXlY9x4ilKZoYPHx6vLlleJKZk0GtiISAEhIAQEAJCoFQIbNO5k+vWZXv34rjX3Nf23yecTZYPZ80Jl9T16vkV9+Xddgn5IX8c5ob9/YFwfexR33LXXzvAtW7VKuTR7Fw58MZwTZ+7brvBtWrV0l1345/c1GnTwzF/wcc1+oTG+tFoEEgRDQgMviqbz512aO6O+GHXauICaZnmicZ7U6p8iOVPA2lpvXXzoE3pvH3LFGFJKUeCkiSMuyn/vXN3DHih3aHve/6Y996qcE5pVFKmY9H5o/J89N5q95Fv/9rYxX4cBt0sZ6pdGD7xB2TmtttuS6wrRaFITClQ15xCQAgIASEgBIRASRHo6gnM/vv0dBCLeQsWuvETprj+Pz41yMQ1ZdTtvGPXQEYgMJS//sIToc1Pf3GFN0e7xw24sL8z07Sn/3mvY9yrBg0J5AWSc/XlF7hZH80LmhjaKjVeBALP8JqTVJSwDa5zl5buiDO6uK8duU1YNBoSNCOc0a50+3Ib1/e4L7ieXjPT2ZuSWbrz4neDBoc8mpzo+bE75rg3XlnuFs/3DvfYivlxqqOShfzm+VP1eebDbJXxQySmMu6TpBQCQkAICAEhIAQKiAAalC47bBeIyUdz57tPPlns+vX5XVF5OwAAQABJREFUups1Z54bM/Y5R5mRjzVr1oZ2mIR16pjaAf3k448JPjXfPeJQ9+prEwMhgsAw7sknHONOPevCcDYtTgFF11BlikAIiwyvIOyxTwce3jkQmBdHLXQvPvJx0Lh4xYf7Uq927sgzu7ov7ZPa9X6uj0Y29p5P3FyvIWG/mLnvrgomX4xx3s27c6pOH/m2n8xbk8p7AsN4Nl/KCaae+eqZyv9CJKb875EkFAJCQAgIASEgBBoAge47fzEQlieffj6MjokZB4kyIzZLli4L17SPpzU+BK2RHTMti7dRvmkggNYEQhH2W/H84t0pK9z4pxaFqGQoVFq329Kdevku7qt9OgWyMvaeeTXqAyHZpFl5d/IK98CNHwSHfxtv9crP3TuTllePbwTG6guRr6Q7JRJTSXdLsgoBISAEhIAQEAIFQ2C/XnuFse5/6HGHjwuaFLQu2267jaMMnxlITedOHUOZ+cpEBWjlQ8Ficobp2eo1a6p9ZKJtdN00EAgakaAZ8T4x3rTr3UkrgqYEDUm3L7d1P/vNl73ZWEv3wiML3FN3z3Wrq3wUMd8+pUHxFylXmrBRJf3H/2tRzXoUPJHx4+0Lkq+gW9WsgmSVqEJACAgBISAEhIAQKBgCRk4YENMyNCmYi1kkMcgMbawMnxiijXGMHDXaHX3kYe4rPb7sDvr6/m7ilGluno9uBpEZ+cjoQIp67tWjYLJqoPJHAE3Mhg2pjSlT51S+lY9CdsGtPbwmprn744XT3ajbZrmVKz5Db5PYHq4S7V/MfPmjvFlCkZjNWOhKCAgBISAEhIAQaEIIED0MLQoJfxhLZjYW9YHBKZ/8gYccGw6uzVGfPWTYS+aI7//Q9ex9RBjGIpcZASKq2fFn/DwQIJtH58aFQCo6mScmhEWGoPizV7N4DczuPhRyc3frBW+6dyenwh9H6+PtS5uvnHsic7LKuVeSVAgIASEgBISAECggAmhebv7d1eGIDgspSdrcEtJixCXanut0fajL1I96pUaCgDcbw6d/U9CwcO7Zp7P78r7t3ZN/m+M+eufTasux4JOPBVmsfanzlXQnpImppLtVJFnZWbjfUSeGg2sSqnO+IBFi0hLXX9qnX62y6Jem/0ycEtrQjoN8umRzWNukuazOzoS1tJSpv7XRWQgIASEgBISAEBACDYHABs9MUhqWzedvntjFrf50vXvuoXmesGwuj7crl3xD4NJQY4rENBSyFTwuOxWzazEH1yRTuZvjIja/XJPMRtjKLKY+pOLGW4e53w283E0b/3SwDyZPeVK6656RQa1PW/qgeo+SHjYPIz7/e1NerD6iX8qy9U+aU2VCQAgIASEgBISAECgEAuz9shFTMn8OJmH+vPu+Hdyr/1roVlatC+Xx+nLLFwKHYo0hc7JiIV0h80BEiHd/SJ/eQWKujz7y0ODsiNMjsfNxXCThxEgiBCXhJ0mUYReMip521NkYqOzTJSNA5hiZSS2fNEZ9+yeNqTIhIASEgBAQAkJACOSKAIQkFU6Ms3Nf3i+1p9An81eHCGRoW6L15ZkPolfED2liKuI2FU9IiAdE4ohv9QuHkQokwOkR7cziJUurNTS3DRkUhENjQzn1O38x5SRpUj/x1LPu9J9dlFYDY+040x/HyKgGJlqf7bq+/bONr3ohIASEgBAQAkJACCQhEKKIVTv1k0ulOe9+usmUDB8Yc/pPUZhyy5vMlXAWiamEu1REGc18jNj5Fj/fyoiVT8x8djMmVv7++/R0vXruWR07n3KLqY/Iu+2yc9DKcD112vQQzSXqw0K5JTQ35539w9CfMnY6vvjK60KoSmtjY5g/DH475rOTS38bR2chIASEgBBoGATivon2+zrqK5lpZrTq+EOmMzu2vua7yd8U+vD3Iv43w/w2TYZ0f39sTDsz9p/vus+yac/m81nXj27xgZHPZI3+fYu3q2u+0PLWVY7G3C+ERcaUDO/8cE5pZKL5YGoWqS+3fCXdH5GYSrpbDSwrfwgw/YKcsOEXB9eUUWfx9MnjB4N5Wdcdtg8hJ8lH+5qomIU9/c97q8nJ7cPuriYe1sbOkJ6xvi0bjpHQ4IwZ+7xVe8JU0yfmxaceCkTJGmTrb+10FgJCQAgIgYZFoP+PT632XcSXkYTfYrZ0+7B7wt+XbO34fc/fgKhfpPUxUsPfJfOj5O8Qf3+iAWOsffQMebrsmhvcpytXRosb/BrihHwP/PWPQWb2p7lj+L01PuTVV4iv7b9PuCeclRoKgZRPDGGV0bBwTqXN+ZTJWfnmGwqZhhhXJKYhUK3QMae9OSMQB8gDce45uOagzmLdk0crYjH1iadPnnLbLCwKgf2xwVnfzNGi9dFrC3dpxCdpd+Ro+/h1ffvHx1NeCAgBISAE6odAPDAMo0W1DqZBoYyALvw9+d4pPwsfvEzjYhoK06ZYueWjEtrfsst/2T/83aLO/g5ZeGTrHx0X8nPdjX8K8yNHVC5rl0lDEtdCRWWLzse48WifZo794rjXgsyj/vHnEPaZv2kkxjIZTC4jaz89/3LHgWy/Gjykxl409DOZ45qYqEyMHdUoJc0XBNGPjAjEN7pEy0LizL94fTnmMy6wzCpFYsrshpRSHH55Yg4GgbAIYEYmqCPZBmBRszHMzshH67m2X4LRX4zRfqHDph/2yzT+lczmi7ZNuq5v/6QxVSYEhIAQEAL1R2DNmrVu1kfzqj9y8TfhyoE3VmsdqEMDg1YFDQ5a98dG/CVYA6CNGPKbX4W/SdRl0uabpPy9Yowv77aLFdU48/KfNC4+oVdffkHoy1wEo6Hs6WdfDNoRtDrpNCQQmJ/+4opgmcDfTzQqrJG12nz0ZYyTTzgmEKUaQm3KRMmT1afDy+rfff8Dd+Ul5wbN1Pe+++3qYDvMm2QhQT/TOBGIB3lZr0UPzTafzatzbQSgLBs34PPCeaNbNG+1e/wvM8OZfLy+HPO1V1W+Jc3LVzRJVkwE+IWG6t1MyWxuMymjjjbmtB9tZ2Zm9DE/Gq75g4QmBf8WS/xi54tYPFHGHyra8kucxC/VqKmA+cRE+9KGL2u59I/207UQEAJCQAg0HAL8Hrff5cxiv6u5jpIM0/Bb+H7qLZlm3T5Socm3D2bWpi7nfMblb8tdt98YPspBSkhsIxBPEAn+RqH9IfXcq0cwjR75yGjXtm2bEDDn6CMPC1oWyBUkK5ow8QIjMDMLCP5eUp4OL8ghKfr3mLEhS+bLGo0YGp0PeYkean+zTUNFm3TzQYpMMxQdS9ebEUiZivn8Jg3Monmr3D+Hvx9tkLreVG/tyu68WeKyvhKJKevbUzzh+EOC+jqe7Je9lZtNreU5p+tLXT67FCeNzRikXMbJ1D81in4KASEgBIRAMRAw0oJ2nRdz06rzIgxhiX+U4qXeXspNPtNu8LL9tzuHhBdzNDH1TfmMi1aCj2v4aqJFwdwsKcUD2yS1MQyS6ijj7xxm2vbhD83I7T4CaK54MYaRQjQwq1b5sL4+GVEJmU0/kDcpZbs/IjFJqG0uS5mNpYIoc73FFlsE7csWvkml5DevpvyvRGLK/x5JQiEgBISAEBACFYnAT888OWj5IR+8TKPZwHcS0nLXbTeEl+50CzPthmnwTbuQrr2VQwQgTvTn41Y85TOuaSUwM8O3J13CSsF8PlljUsrFx9M+xkH+2Jdt1erVafGCcCQl1j/g1791s+bMraGlibZNJy8kJdf7Ex1P1ykEcObfwv9LxSSDuFRevpLupXxiKuluSVYhIASEgBAQAhWEAJqBk48/JrzgP/rE2CA5L9loYiATaEXiTu62vGhYf9qNHDXaqjKezZTLfDxobCZpkIN8xkV7Yhs6W8CApMnNRAzSQ7K2+L/s2n2nQCbMLPvZF16u5RODXOaAb+NjFoa5dq54WT8zKZv6xlvuoK/vn2gCFpc3GgAg3/lsXp09At7JJUQlw5Gf6GQVmK+k+yhNTCXdLckqBISAEBACQqDCEDj6yEODgznaEV6Q0TYQrdLMpjDVOr//mWFV1NPuwEOODc7x+JHgi3Klr/3GwSnyQyQviEi6ZGbQEAPGsWQmbuTTjYsWpfcB+wQZIB03eV9NyASbMOOP02vvPUOQgrjpG2QNzRLO/UT6IplPC9fsg/aTcwcEeVhv3CeG9WM2xjwk5sKEjnEz4RUax36YSVnU5yXWJIz7+8FXBJnAm2QaLzBId3/i4yhfE4F/TDqyZoFyDYrAFt5Gz/NEJSEgBBoKgcmTJ7uzzjrLTZo0qaGmSBxX8ybCosIKRaBUz3OucBVLvvbt27u5c+e6du3a5Sqa2pUYAcy+rho0JEhx/bUDQsQzCA2RwaLBa0ospqYXAmWDQK6/T2VOVja3LHdBTP1uMePtHFdFpxsRR0VUx8VKpsaPz2nrsJj3Jo+15ytaIRLrjcfAL8S4GkMICAEhIASEQDYE0AxhVkbUMfZfQ9tCRDE0VEpCQAjUHQGZk9Udu5L3jKrGcxUGgoDDH1+ASp1M5Y3zIrH4zRkS500cJDErUBICQkAICAEhUOkImMN+pa9D8guBckJAmphyuhsFksU0D2g+UGPb7sAf+D1bLrvmhkAQsDE2TQftTJtjWhHrF90J+N8vvRocD/98133BEZM+NgaimwbFxoprXpKWB1GBsESjzhDBBXthHA9tLYyJ8yfaG5KV3/PAqCAT9dH5omsyR8vo/Mhtctqao+NaPef4uphbSQgIASEgBISAEBACQqB0CIjElA77BpuZLz5oaQhpecPNdwYVNhtw7eKjrODIh8MgTnvEpOeFHEKDQx8x8G3nZBOO6DG2E/BOmzb4ouy+v9wSxkCLwks+pCdpB2TqMiWLkEJMe8aApOBMiWPlkqXLgtYIWaeNfzpsMEaMftpZ+njRJ2GXYtZL5Br6Mydrp4ydiOMJYsIcrDdpzdaevjhbsi5U/8jAmNGIN9ZWZyEgBISAEBACQkAICIHiISASUzysCz4TEUVMm8A5qlE47thUhIz7H3o8bNJFyMmkZDHwIRNm3kWEFIu8Et0J2PoTQx4b32iceYsGQ8QYfHMs2on1SXe2OdlVGJMyi9+Phsa0M+wtwPiEioRkmWyMaZuHRcNgWj/DIGqWFiVJzM1B+E8jYyZntA9l2DLjmAmpYVNQ+ikJASEgBISAEBACQkAIlAYB+cSUBveCzIpWAG1KUsK/hBCSkAkcCiEB8YRGI5+dgK2/EQfLc4YcEFqyLjsrQxiQk7CZUVLFNaZmFnKSedAioaGxBJHKJ9EXGZPWkDQOuJlDJkSGg/CYRJhJwjRpDJUJASEgBISAEBACQkAIFBYBkZjC4lk2o2EmZtoQzJ+SdkbmJTzdzrxRk61cFmUaFIszb9qQXPqaSdnIR0YHTQumZGg6IBoWK9+c/m08CE+mlG7nZDYOI+Z/Ljsn2/jmkGlEDSKDVkihMQ0hnYWAEBACQkAICAEhUFwEZE5WXLyLMhsv2xAXNAZ33X5j2Bn4rntGJs6NFiSXnZMTO0cK89kBOdItXEJYIC6QA2QxUy7MyEgQIkgV5nJRk7lQmfCDfpAfc+i3M01tLts5GazwpUFrFSdKtKfedpOmL75FpHw1QKGTfggBISAEhIAQEAIlR8CC96Qzyc8mIAGOsvn8EmAouvUF7cknlUUDE2WbO1N9Pu9KmcaplDqRmEq5UwlyommJ/gfkGg3Msy+8HMgAZlCH9OkdnNHN56Orf7nHzwVnfggBvjK2My87G+/snfdt5+SEKdMWmfka4zJOh/btgilYNo2JDWjExaKSUc6YQ/xuyYxJbH38Ya6+/IKsZlzWz/CxOeyMCR6kCTk5uE5nlgdxIRgC+IEvO0xjxod2RkkICAEhIASEgBCoTAR43yC4D0F8LMgPvq/ZLFEgHCNHPZF10VG/YRrzPoSVSDQiq5Xpw2hWOJMbbFQSAkKgQRGYNGnSxn333bdB50gaXPMmoaKySkWgVM9zrngVS7527dptXLFiRa5iqZ0QEAIJCPz+1qEbjzv9nI3eT7a69rUJkzfu1usbGzmTHvrnkyFP2TeO/MHG92Z+GOrI20FbxmAsK2NsEu3pZ3nO8TZROay9tWF+ksll/TmvWr1640VXDK4ez9pa+VnnXbaRg7Hi64yuK1pn80TXb+tGjrh81o666JjIhRz1Sbn+PpUmJpnbqVQICAEhIASEgBAQAkKgiSAQNYvH9OvpZ1MaGrQ0+NKy3YJZr2Cy/vQ/7w1WGZjrE+UUjQ6WLViBYBVjli8EUJq3YGHY2gFLDg5M2imjDgsYUi7bVDAHliO3D7snWKcgG77IWKwwpyXbHgMZCWaEhQ4JLRJbUFCebusKGyN6RjuVbrsJ5mX+dFt1RMcp9LVITKER1XhCQAgIASEgBISAEBACFYsAZun4FPPyj9k5/rrpEqTiW4ccHPxneZm3ZMGTMIX/aO78QCYwnSdoEcSCMuoIsITp+s2/u9pl2qbCzO7x1bX99OhnwZFmzZlnUwfSRSCjaDAjiAh78tnWGdHoq9PenFHdN9MFvsvx7SaiUWWRBxN9yFk2s7xM8+RaJxKTK1JqJwSEgBAQAkJACAgBIdDoEUC7gB8sL/1oOwiUlJR4Uce/GKJD4B+0EdFkhOXJp58PxZAUC1pEGWQGcmJBhH5y7gD3tzuHBI1OdJzotW0VYX6/RrKiUVfR7rRq1TLaLeyxZ6Qp3y0ijPAwIEQGP2XWjdzRrTrADLmYJ7qnXw1BCphRiOUCgqmhhIAQEAJCQAgIASEgBCoPgaiTvWkXCCYUJwPRlbFJN5t1Y0ZGwJ+oSRftjLDYxuOYmPFyj3kaZZilQWzy2abCtCtEVY0HJcqk/WAdkBvTkuRLZNJtN5Fuq44oTg11LU1MQyGrcYWAEBACQkAICAEhIATKHgFe/tmrDo0Lfi+mQUHrgakV2oekZIQCLYiNEW1n9ZTxsg9xMJMryiAztIn646DdYOuHdMn621YRpjWKE6h4f+ZmjztIF+TL5LU1R2WgDi2UJdMUEZqa+aPbTaBJKsRWHTZXPmdpYvJBS22FgBAQAkJACAgBISAEKh4BXrwxxbLEy/z11w4IRAMfF4jEEd//YdCW9Np7z2oTKdOuUIcGBqd+fGEwo6Id2hX8U9BcmPYjugce80GSSPiPQAo40KwwzpW+/BsHp4hBum0q2AoDjYrJb5ogyEemZJt0IzspuuboVhk4/x/St3f1UMjHdhOYu7FOUnS7CeZnCwoSY9Zlq47QOc8fWxACLc8+ai4EhEAeCEyePNmdddZZzocMzKNX/Ztq3vpjqBHKB4FSPc+5IlAs+dq3b+/mzp3rfKjlXEVTOyEgBIRARSGQ6+9TmZNV1G2VsEJACAgBISAEhIAQEAJCQAiIxOgZEAJCQAgIASEgBISAEBACQqCiEBCJqajbJWGFgBAQAkJACAgBISAEhIAQEInRMyAEhIAQEAJCQAgIASEgBIRARSEgElNRt0vCCgEhIASEgBAQAkJACNQFgWioYOv//gezXL+jTnTHn/HzsHljriGLrX++57qMb3KzmWT0IOQxEcnYeJIjW3SyuKy29ocf+1e8qiLyCrFcEbdJQgoBISAEhIAQEAJCQAgUEgFe4gkbTCKEMKGEbVPHQs4THas+4xPWOL7BJWPf/Luro1M0mWtpYprMrdZChYAQEAJCQAgIASEgBEAA7cZl19wQwPjbnUMc+6SQopoS01T8+a77gqYGLQjaD0txDUl0w0m0G6Y1MS1PfHzy6drZHNnOcU2MyY+cJm8mORn/jekzgjbK2kfntHGoi2t70tVlmy86fn2upYmpD3rqKwSEQNEQuOiaF93dD013y5avzTDnD90WXW7NUF+aqo4dWrpbBvVzPzrpK6URQLPWG4Gyef7aDnbtd/9rXuvR85cXXGrcBBD4dOVKd92Nfwo7zT/w1z9WE5h0S3/3/Q/cfX+5xY0Z+7xjI8jjjj3SdfWbWjLGzjt2ra4b8OvfOggRiXZsAsnGmT/9xRXurntG1tKiQJJyaZdOrmzl7015MZiYXTVoSFo5GaOqaqUb+897a6wPUgdJGT9hinv9hSfCVKzj9mH3hHVAltj4Evy26dwpaLTA5+gjD02LixHFbHLnWi9NTK5IqZ0QEAIlQ+CFVz5yt/5lchYCUzLxsk4M8frxL59xH85ZkbWtGpQfAnr+yu+eSCIhUB8E7n/ocffEU8+GIUY+MjqrL0mXHbZzrVu1cjt/saubO3+hW7xkqZvnzxOnTHMHfX3/ULdfr73CeNRZunLgje7ZF152o/7x51oExtpwzrUdpMG0O/jxQILSpX59vh6qcpEzaX1oUyAwvQ/YJ5jZYWp38vHHeKLzXI15Tz3rwoDHi0895H7wve/khEs6mfMtF4nJFzG1FwJCoOgI8BLZGJJITGXeRT1/lXnfJLUQyIQAGgQ0JZAZNAiZUvedv1irGrICoYGAQCyO+P4PQ37WnHlBs3P0kYeFPlaf5DyPZiKXdjY5PjFoVzggDbloNjLJaeMmrW/J0mXuk08Wu6Q6+vXcq4c79qhvhSEgMmCAdiaX+Wze+p5FYuqLoPoLASEgBISAEBACQkAIVAwCkAEc7DH16tXzK8GkK5NWI2lhmFB18yZlECEjFpzRRpBwwCcPWSJhNpY0R67twiB1+JFNznRDdu7U0W277Tbuw1lzEpugmSKgAGsEA9KNtw5zzZs3z4hL4mB1LJRPTB2Ba+zd+GL8+Nj33bIVmfwPyhOFju1bujO97wFnpaaLQAd///FByfc54Nm/x/veKAmB+iCg568+6KmvECgOAphIXf7L/g5NwqNPjM1o8hWXCJ+Y/ffp6V59bWLwAzF/GXxi0EYwJgQGsgRpwjQLYkCdJTQX6dpZm/qeM8mZaWywwZQMuTEtI40cNTpojtAAoVmCmLFe/GDAgbSL11qlwyUXzVEYJMcfIjE5AtWUmkFc9v32/RXrf8C9uvvB6W7ys6c1pdumtcYQgMDcOrhfrDS3LP8HIPFKQqCuCOj5qyty6icEiouAmUXhb2J+JLlIgCbi6ssvCE77PXsfEbpAWnhR50A7AUGxRB3EIJogOLm0i/bJ9zqTnEmaoej4aIlw7j/wkGNDcTTEMxontDSY0ZHQSkFoWGM6XELDAv7YYqNPBRxPQzUCBHCgJhJPpad/jzrBHfI/O5Z8GZMnT3ZnnXWWmzRpUlFlaUzzDrxpvBv0h/F54XftJb3dwEt759XHGtdlPuub6Vwuz2QmGcu1rlTPM3jU5XnQ81euT5LkEgJCoNwRyPX3vXxiyv1OlkC+zCFsSyCQphQCQkAICAEhIASEgBAQAhEERGIiYOhSCAgBISAEhIAQEAJCQAgIgfJHQD4x5X+PKkLCfgft6B67+5g6OVEfctwjbtZH2j+jIm50BQpJeNxvHv9ITpLL3CsnmNQoDwT0/OUBlpoKASEgBPJAQCQmD7DUND0C+J7kGwWK0bp/sb373lG7uT96PxwlIdAQCPCM4Z+QS6KtkhAoJAJ6/gqJpsYSAkJACGxGQCRmMxa6KhECdSE/JRJV01YgArxE1tXBvwKXK5HLDAE9f2V2QySOEBACjQYB+cQ0mluphQgBISAEhIAQEAJCQAgIgaaBgDQxTeM+F22V+WwUeOaJXwnmZEUTThMVDYHPPvvMzZs3r2DzVVVVFWwsDSQEhIAQEAJCQAhUPgIiMZV/D8tqBZAY9lTIJREMQD4IuSBVeW2aN2/uDjzwwIIJvvt+F/ixWhZsPA0kBISAEBACQkAIVDYCIjGVff/KTnoc/DfO/2XZySWBiofAvvvu69ioqpAJYvzChNzIcSHn1VhCQAgIASEgBIRAeSIgn5jyvC+SSggIASEgBISAEBACQkAICIE0CIjEpAFGxUJACAgBISAEhIAQEAJCQAiUJwIiMeV5XySVEBACQkAICAEhIASEgBAQAmkQkE9MGmBULASEQNNAgGAUsz5a4dhZnWuOKW8uSrv4nXdsHwJSWL+0DVUhBHJAwJ4jPX85gKUmQkAICIEIAiIxETB0KQSEQNNAgEABL776USAu8RV3aN/SsQFrr698wRGoomOHlm6fvb5Qfbb2jDHoD/kFG7jnnnvcaT+404Yoyplw1z/4wQ/cHXfcUZT5GnKSJUuWuG7dujXkFIljFzo6XlN6/hIBVWGjQaAx/X5pNDelCS1EJKYJ3WwtVQgIgRQCfPVG23LtJb2ryYmRFeo4Bl7au+BwHX30d9311/644ONmGvCNN95wl1xySaYmFVFH1LtXXnmlJLL+YdibPjremwWbuyk9fwUDTQOVJQKN5fdLWYIrobIiIBKTFSI1EAJCoDEigHalIYhKJqy22WZb17Vr10xNCl63cOFCt9VWWxV83FIMWGzsbI3t2s22y4Kdm8rzVzDANFBZItCYfr+UJcASKiMCIjEZ4VFlQyJgtuBTM/gfNOT8GlsICAEhIASEgBAQAkKgMhEQiYnct1mzZrkBAwa4rbfeOlLa9C4/WLSHX3Thdkc3soIJBdccXCcl/BGi/gfdv5hyor77wenunoemJ3VJW4b/wb13vZ+2vlgVixcvdsuXLy/WdJpHCAgBISAEhIAQEAKNHgGRmMgtxmn0tddecwMHDoyUNr3LJc+t8YteW7CF/+jCZ4ITNQMaSfl/R+4WyMqyFWvdsuVr3Y9O+kpwok43aTrSk6495dttt53rsWtxTXfSyfOTn/wkXZXKhYAQEAJCQAgIgQpH4KJrXnR3+4+tvNNUWsIn9JZB/cK7WCXJLhITu1vbbLON+/GPi+t4GxOh5NlZi8e7x5/LL+pSNqF7ef+DKc+eVqsZ5ISDKFCFTkcddVSDjFtoOTWeEBACQkAICAEhULkI8B5z618mV+wCIF4//uUz4Z0JC5hKSSIxlXKnKlxOQtYqCYFyQmDq9EXum8c/UkskfpnzVSpb+GRCNCsJgboioOevrsipnxAoPwTqYi1SfqtwwdxfJKYc74xkEgJCoEkiQChl1PzRxAskm1YSYjmeaD/ljUWu30GZtYMfzF4R76q8EKiFgJ6/WpCoQAgIASFQEASkiSkIjBpECAiBckZg48aa0pFHO5jOjBFtTLo6G6mxfHmz9ejccAjo+Ws4bDWyEKhUBPARxh84X0sVgiPlG+ioUjHKJrdITDaEVC8EhEBFI0C0uxcePaHGGg45rrYZWY0GygiBAiGg569AQGoYIdDIEIDA3Dq4X51WRVCkx8eWPvpqnYQvYCeRmAKCqaHSI7Dc/4dL8iHQHjHpMVNNYRBAY5Lk+5LNXKwws2uUpo6Anr+m/gRo/UIgGYF8NTDRUfg4IhLjnEhM9KnQdb0R4OtAnJhAYD7w6s9rh9SOeGYhlrOZ5qA+VRICdUEAJ8W47wv7DikJgWIgoOevGChrDiEgBJoiAiIxTfGuN+CacYhO99U7btKDGJAXjoGX1nawjoo58KbxWaNFRdvrWggYArxExp8vnjnTDkojY0gV/jxv3rzCD1qCEauqquo8azk9f4sXf+LmzWtW57WoY3EQ6Nq1PPY3K85qNYsQqDsCIjF1x049ExDYZ+8vuH+Pqul/8MtYZKiEbioSAkVFgBdLHCPNN4Y8B878pvVDS1gfdX9RF1SGk02ePNl9//vfd5999lkZSpefSLvvd4HvULgw8aV6/saMedJdcM6d+S1erYuKwLbbbuvGjRvn2rVrV9R5NVnpEOCjWtLH3ySJeL/KFnQmqV9jLROJaax3tkTrIqpT3PeFL956GSzRDWnC0/IcptvrZZedUtoZCIsdphU0yMzkjD8YRnKwQ2YPGWlvDKXM586dO7tJkyZlblQBtWiCX5hQ2xw2k+jl+PydeeaZ7u/DrsoktupKjED79pWz0WCJoWo00/P3JW7ynG5xtFXajIBIzGYsdFUABHgh5A9+PLEnh5IQKCYCcVJS17kZR0kI5IuAnr98EVN7IdA0EYCYxE2emyYS+a9aJCZ/zNQjAwJ8td44/5c1WpjJTo1CZYSAEBACQkAICAEhIASEQB0REImpI3Dqlh8C7JCOzWfUNEcmOflhqNZCQAgIASEgBISAEBACKQREYvQkNDgCqEkxrcDU7N8vp86zPtocMhlVavCb8b4GkBxMz2T32eC3paIm4LkY9IeKEjlRWD3XibCUfaGev7K/RRJQCAiBJoiASEwTvOkNsWQcqNM5UWebD3Jz618m12pmTtS8QMSDBdRqrIJGjQDPwIU/29f9MeE5qYSFd2jfMuzMLBJTCXertox6/mpjohIhIASEQKkREIkp9R3Q/GkRmPLmolAnx+q0EDWpilsH9wtEoEktWostGwT0/JXNrZAgQqDoCPziF79wZ599tuvZs2fR59aE6RHQrlfpsVGNEBACQkAICAEhIASEQBNH4IEHHnD777+/O+GEE9y0adOaOBrls3yRmPK5F2UjCftgKAkBISAEhIAQEAJCQAg4d/PNN7u2bdu6UaNGuQMPPFBkpkweCpmTlcmNKCcxfnTSV8JeLzjbV2rq5TclxI5dSQgIASEgBISAEGg4BNauXevee++9hpugDEY++OCDXbt27dyyZcsc64XMjBkzxh1zzDHu17/+dYNKiN8wwZAsQBJ5M7dPmtiCI1m/pDbpyubOnevv5Zp01UUrnzNnTsA524QiMdkQaoL1Hb0T8pRnT3O2Y3mlQYAmCSKmJASEgBAQAkJACDQsAq1atXJHHXVUw05SBqMvWbKkhhSQmSeffNJtueWWrscBNffHq9GwDhk2DSegUZJPMIFieE/r9ZXUx1reeSwQEmdLjJFvwKVnn33WDfzV3TZEyc5gi+letiQSkw2hJlpPFCXtINtEb76WLQSEgBAQAkIgBwT23XdfN3HixBxaVnaTqqoq94UvbCYInTp1chzXXHONO/PMM4P1SiFXCHlB23LtJb1dnKRQx9EQ72is5e/DrirkUhp0LJGYBoVXgwsBISAEhIAQEAJCQAhUMgK//e1v3fr16wNxiZKXhlwTWpWGICoNKXOxxxaJKTbimk8ICAEhIASEgBAQAkKgIhBAC4Njf5cuXdx1110XNC8VIXgTEFLRyZrATdYShUBDIbB48WJ35JFHui222KLGcf/99zfUlGnHffnll4MMnOPp7bffdvvss4/LJle69bC+c845x61evTo+dN55xmCspPFylTPvSRtpB8My/vyR57nkfhYipXu2bP6ke1mfee05iK8r6dmuzzzqKwSEQHYEcOgfMWKEmz17tghMdriK2kIkpqhwazIh0DgRGDx4sNu4cWM4xo0b504//fSshKGYSOyxxx5uypQp7rTTTss47TbbbOPGjh0b1nHfffeFtqyHtQ0dOtS1bt06Y//6VuYqZ33naSz9uR/cF+4P94nEfSPPfeR+NmSy+Rvq2bC1sB6u+/Tp40RkGvKOamwhkIzAcccdl1yh0pIiIBJTUvg1uRBofAgQihJS849//CN8Cbev2Kjh+bLMmWR5yqJfsuPto33ohzbFvlAnfW1//vnnq+tN82Jftsnb1/NTTjnFcTAWWhraZErxftYnKo+V2Ti2lkxzGA60TZITbC677LIgZ3y91pd5aROf3+RoqmfD33DibBjbM2TPCBjF6+gfT9aG+0K0Is72/Np8w4cPD/eCOaLjR58Vkylpjvic5HmJ6t+/f/h/xbNociStw+SgLvrMMD/PCPJZP66RP96WOU1G6myNlNv46dZJGyUhIASEQEMjIBLT0AhrfCHQBBHYdddd3YIFC9wnn3xSY/V8Ub766qvDyxEvQtRzfPjhh+6mm26q0ZaMfYEmAgzteXEbMmRI+CptY995552J/aJEqlYDX/DWW2+5gQMHhvl32GEHd8stt+RkLmb90OyQ2CvA1hEdB1nPO++8oCFYtWqV6927d6050B6wNr6yQ/6S0vjx491ZZ53lZsyYETBFw0ACD+v76quvuhUrViR1V9kmBHiWLr300nAP7rjjjvBs8YzwPHGvMD278MIL3YABA6rreImPmqRxH3lOuM/XX399Ws3cwoULg+Yv+gzas0sZsuSb0Pp069Yt/F+BPCFH0jrsueOZQt7u3bu7q666qvrZnjp1ati0jzpIEccZZ5xR/XzZ/yfWnu3/aNI6812X2gsBIZCMwNTpi9w3j3+k1nHRNS+G8MuET850EKK5safmjX2BWp8QEALlgcChhx4aBOGlkJcjXtrN3IeXKF4mTzzxxGphrT1fko844giHhsXqMVfjJc1e6Ks7+QsIFIkzG5IZ2QmFkR+Qip122im8iNr82Dxj0pUpWT/a0BZbab5wIxOJl0LShAkTwstujx49whyYHJH4ik4aNmxYOHipzWTmxgvztttuG/pwPXPmzHANHr169XIHHHBAGL9v374OwqNUGwF7lsz8ixd9NBK80IMhyUgieJIg2/F0+OGHh/YPPvhgeHbtXsbbJT2DPA/MB/EgIRMktC6JfTl4npLWwTyk6HOBVhTSQoo+M5Ai/m/xjJJ4vki5/h9NWqf9nw4D6YcQEAJZESCUMsQkmiAwbFpJiOV4ov2UNxa5fgdl3tD7g9mN/8OWNDHxp6OEef5w8MJman47R80RiiUeL5nMzzme7A9nLnJZ26gpgpXl0p+5kcHaxuWKmjvwMsmLibWNy51rPtN8uY6hdukRgFSgpbEXoPQta9dAGo4//vhQAWngGY3fb748FyvZ8/jSSy8FsmQEhvmNbGSTBaLF/4l0ifW0adMmsTpKcBIbqLAGAvY79qSTTnIQEYiwJbSBuSSIyEMPPZSxabpnEAJhhDTjAFkq0cTwtyJpHTx3yAgx4f8H/0+StKKZpsj1/2i6dWYaW3VCQAjURgDlbPxgQ8tD/mfHWgehl9nLL6kuWkabxp5EYsrwDpu5ASYHlewkHYWWr86TJk2KFuV0zcsdJjmW+HoPLpztayEvjnxlxL8hF+dtGyvpnGm+pPYqS0aAF6l0L9i8xEU1CskjpC/lC7n936CVmQOl79FwNWhD+JKNaVGcaEDSMr080s+c0bO9FKdbQabx0/VpyuVoW55++umgDYlr3Hgh5+U/neYO3CA9/H7ORjzTYZxt/HT9KEfrM3fuXIecc+bMSbsOnjvIEmvl/wkHvxfj6800V33/j2YaW3VCQAjURABS8sKjJ9Q4KFPKjoBITHaMStqCl3X+aDYGJ+m4fXkU2KhGxbQ2kBRs1PnDz9dEs9Hm6yIvj9h580ICQfr+97/vXnvttRqaGP7om8Mqfehvia/3lHGYM3Sm+fjiTrIvudbXtAA2F/Olc8K2uRv7GSLISx4mWkmmJZTxXIMpeHLwfKNhib5oUQaumIxxnzG/Mc0HZ/u/kY4sZcPZiLXNHzUTy9bX6qNEBZLOmJbMLMnMe3j++HrOV3RSd/8yut9++4V11+WlGDz4v8H4tgabW+dkBHg55wUfrUscMzQXZrZIb/5v2+8GG417ZiaN+RJPngfm5ncXzzXPdz7Jni/+X2EGlm4d0ecu+nuJ61xTrv9Hcx1P7YSAEEiPwAuvfOS26HJrjaMp+LOkRyT3GpGY3LEqWcvoi1JUCL6wVYqTNGYPvIgm+TAYOeELKAcvGDh584f0j3/8Y/hjzRfQqI16y5Ytw9dvXjrQxPzzn/90HTt2jMJT7SiOlsYcqHn55SU7yRmbL+np5mNgXnrwXeDl2TQBkCvGtJTOCdvqG+sZ234jdrwM4hydyc+DewmOvFRycB29v+DEC/5BBx0UCCz3nzYcXBNqlvmYl35JZCkb1jw3jz/+eLV5TyZH7XRjQUogUawZjSE+Ezy/PHMQMvwfzOwNosLz1blz5xrDnXvuuWGMfF+KwYIPHIx/2GGHua9+9as1xlWmNgLcE8gymPHc8TvDtCP2+4b7xLNFG+5flFgzInmeb9q98847tSdJU2L9eGb5XQMRyZbs2UEennl+j3HfM62DOnvumIfnsS7Pdi7/R7PJr3ohIASyI4DZF74v0QN/GKXsCMixPztGZdnCHFV5sbav0vYiZ07K9sWQBVh7Xrrsa6PV84eSF8MkggGBInHmj3Y6Uwv7io3jrM2Pk7Ql5ueFga+P3f3XTEu5ym/tcz3buMiCTPzhh3hYSueMbfVJZzNFsZdtXrJ5EWZNe+65Z+gS1QrUx2Qqaf5yLOOZS3puorLGsbc6cDQsrSx63muvvYIZTLSMa8hREkGKzxNvZ9HEol+kBw0a5H7/+9/Hpwj5eH9zCo82zrb+uEzW15z8yTNuFEOTk7pM7fh/zwuxvdjyMSD6/NG/KaUkrJPK4s/dyJEjq2GCAETxt4r4ONFnI3qPMrXj44lF1qM/mh60KZCpeEonR7RdpnXE5bB+Ubkpi///iz6HVh9vQ3l8/Pi4tFESAkIgNwQgMQMvrenAj3Zm+Yq1IQpZNgf+3GZpnK1EYir8vkIq6uskbeZaRmb4g2QpSjisrC7ntm3buosuuig4ovL12FJ95Lcxks42blIdL3981YSA0A6ztFwSXzTTvXRYf/Di66dFArJynYVAoREwEs2zbAlCYx8zrEzn8kAgqj3hdy2Jj0eUKwkBISAEoghAbO55aLo75LhHQjF5Dhz3P5yTijq2zJMcnP+bchKJqYC7H3WS5qU7mviKV58v/vY1z17s+VJoNtXReQpxbX/E+Xpsqb7y2zjxc6ZxMzljx8eJ5iEoZnqiF48oMoW9jn/lLezoKc1H9Ot5occv1nimGWoMaykWZqWex37flloOzS8EhEDpEcDvhX1ektIuO6W0MxAWO9DOcFi6+8Hp4RJiYySHgAAdO7TMGn7Zxqj0s0hMmd9Bc5LGBjvpCytlvPRBQjChImHeZE7SRnoo48st5gL4pvDH1IiLmaOgIaEMAmD9coUHh2ZMt/ANYC4zL4ualDEWJmyYpUEGSNnkZ/11SfFxWQ9+OeAYNY2jHNnRymRLUcdfMDdHW/DjhVJJCAgBISAEhIAQEAK5IBAnJbn0SWoTJTZJ9Y25TI79ZXh30VQ0VidpNBgQiWiCUEEKIE8cXFNGYjNCCBHmF0T+Wrt2bbRrxmt250Z7wpgQEIgdpnKZnLEzzQcxwo4dohd3tM0oiCqFgBAQAkJACAgBISAECorAFt7ZebO3c0GHrrzBJk+e7M4666w67WdSrquNa1sKLSdO0vi6kG655RZpJAoNcD3Ga4zPM87rUXNE4EGLpmcv/YNSquegVPOmR0I1QqD8EWjfvn3YD6hdu3blL6wkrEZg4E3j05qGVTeqgIt/jzoh+N1UgKhBRGliKuVOSU4hIAQCAkTXwwyQ7y+cCbgAkY5GHRNUQkAICAEhIASKhQB+KY0h4VtTSUkkppLuVh1kxTSLlz3ODZGizsXyC2kIhDVmJgQw8cP00DaupC0mf2aOGd+sMFoX3VQVE0M2KbXNUcmzh4yNQz9L+J5RH6+DRNGfo6lveGpY6SwEhIAQaAoIQGIu/Nm+FbvUDj7K2d9vPTwECKikRcixv5LulmQVAkKgFgL4PNnu5VzbRqY0xAcKUzMOAjHgW0UgBnykqGNTVTabJP33v/8NBIgAFYQtxp+KUNm0sah9jE8/PgoQJMPMNWlL4AwSG54++OCDwTSVYBK0o4+SEBACQkAINF4Ebh3cz3EoFQ8BaWKKh7VmEgJCoIERIHAEG5lCHCAcROKzZKG1ITAWvW7u3LluzZo1oQnEhHIjRX379g0+XrbhK41sw1PbPNb2aiEin5mz2YaTjFOf8Ocmt85CQAgIASEgBIRAbQREYmpjopJNCBDeGHMcM5uxM1+flYRAOSJgkeNeeuml4C9jobMhGBAWSA3kgmeZAAH40+SzMSntc93wtBzxkUxCQAgIASEgBBoLAiIxjeVONuA62FUavxoOrjG1EZFpQMA1dF4I4NzPvkOYdJm25frrr3dt2rSpHgd/rW7durloUACeZzQ2nTt3rm6X7YI5bMPTbG1VLwSEgBAQAkJACDQcAiIxDYdtoxz5uOOOCyFtzXwmrq2JOkDbV3G+euMIbZtx0gYNz/Dhw6u1PFxHnaqtLSASVte0QLQxsx0bn76mMYrO3yhvgBZVAwGeBZ5FNC6YdmH6tWDBgqCFsc1IrQMmYGhiMAkz53yerXxSdMNT+tkc+NEosEU+SKqtEBACQkAICIH6ISASUz/8mlxv+6KNWc2SJUuCw/Qdd9wRtDSDBw8ODtAQG47zzjsvaG4w1+EL9lVXXVVNQPia3bZt22DKwwsoBy+CvGDyEnrnnXcGbHnJhKzwtd3C6eJoHU0LFy50U6ZMcczPC22UAEXb6bpxIBA1CTNti+0TA1nGDwWywfN3+OGHV5uM4fNimkRMyngm2RA1n6QNT/NBS22FgBAQAkJACDQcAopO1nDYNvqRW7Vq5YYOHRoIC5oQiAn+AqQJEyaE8wEHHBC+UOMkDcEw/wPaWZ2Z+fDiSeIllAQZgcCYwzVlEB0iRZ144olkQzLHa86jRo0KZIeXTaXGhwDhlDnSJe47JmLpElHC4pHCIObRPgQHgBRbivdJNwfj8P/BUnxcK9dZCAgBISAEhIAQqD8CIjH1x7DJjoAmhhc8NCeElIW4QDBIM2fODKTGiAllEBe0Kbkm2jK2kZR0/fiiriQEhIAQEAJCQAgIASHQdBCQOVnTudcFWalFeYI4zJkzJ/gYYE7G1+tognhAWjAPs6AAfN2Ot4v2iV8rRG0cEeWFgBAQAkJACAiB+iJgfpHmb2vnXP1qeRfC3D2T+TptbANkrkmMz1xR/17zE8YMvxDJfJVzXUsh5izVGCIxpUK+QueNOjJjBgZRwT+G/8iYi1nCVIyEdibpP7K1y3TGbAdTMkzKGN/mOP744/MiQ5nmUJ0QEAJCQAgIASHQNBHAl9Y+tLIRMhsi5/Lyj28u7yaZUtSH2EzpsVIhsSny7NmzwzVltr9YKNCPnBEQickZqqbbkP/U9pWC8Mr8R4dcoFWBUFCP1qRjx47V4WepQ0NDHc7XEB3C3vKfOp+E/wNzMT4H15l8IvIZW22FgBAQAkJACAgBIQACvF/EAwRFo6NalFVIDvuMEWTmsMMOC37Bpv2wdyUjQlilRKNiGvGxUP18nI36/tLPxsDX2LQzyMH8FsXVPu5SZu1tbLubzGGRW+kfTdF1RbVCNg9yJX2AjspneDCutTVZbP3RORviWiSmIVBtJGNCRDABs68UduY/uiUIhZWPHDkyXFs9Z6vDcdqc7fGjiZqWMYbVm9N0lKhE54iW2/g2X3xck1FnISAEhIAQEAJCQAhkQwDSYWH6IQVskowWJRo5lXcNyA77jj333HNup512ShupFasUs1hhDAjNY489Fvqyr1nU9xfCMmbMmFBGOdoZIm+aKRp9CW7EexVbChDxFdN+5CPyJhE5jfSwzhUrVrhXX3011BH0yOogKqyNOTj4yByP+pqEE/3xe2Yu+pEskiz9GYdy02jFSVXSmPUtE4mpL4LqLwSEgBAQAkJACAgBIdCoEOADKREneUEnSBGajaRkkSmxFkHzgZbGEmWQEUzGeMmH+Oy///6BfECQMCljXMgIH45HjBgRPurSD9ISTfS1YEn0wySNyK/Mbyb8Ri7oh8k/dYydTvPDh2OIUZTkROdMusbChg/PHHxYjmuTkBFZWW9DJ5GYhkZY4wsBISAEhIAQEAJCQAhUFAJmOoXQkANezJMSL/GYVp100kkhUiuaCkuY00Mipk+fHrQsXEMcIB+QkP/93/8N4/Lij+YCc6yXXnopzMf+eekS8kBMzNzfSFaUOCRFdqVfLlFfk+Y1FwLqbF4wsjEhb8hvBMz8f5LGKlSZSEyhkNQ4QkAICAEhIASEgBAQAhWLgDnZb7311oFMQCSybYpsZmJJkVrRhEBYMLfnMM0JZAYSgnkW15AdzMsgSvgP20bO6YCEKGCmBmEys33OmLplSlHNUKZ26erMvB+TMRLyL1u2LGibokESkCVq/p9uvPqWi8TUF0H1FwJCQAgIASEgBISAEKhoBPD5wKwK8ypMsTjQbOBzgulU3LzLFmuEgrZoZaKRWmkDSbFk12ZyRbmZfUX9cSwSrPWLn/HD6d27dyBa+MygEYkGAoi3tzxaIMzk0Pogq8lrUV+jMpjJmvU1TRFnxoC0YCr3pS99qcaY0XbWt6HOIjENhazGFQJCQAgIASEgBISAEChbBMwECjMoiMWAAQOqtRknnnhiML2CpKBxOPzww4OjP6Th0EMPDaSGOsyp0kVqZeFGcqI+LWZmRj1jkTBJgxQgB076zGckKjSI/EDDg8aGesbCvCtJExTpUn2JhgQSglwcXJvWJCrDwIED3Z577lndj3ZofohSC15gRz+IEdoqCBrjUU872jd02sKrfDY29CSVMv7kyZPdWWed5WDASkKg0hHQ81zpd7Aw8pfqOSjVvIVBTaMIgdIg0L59+/Ci3K5du9IIoFmFQAUhIE1MBd0siSoEhIAQEAJCQAgIASEgBISAc02exGAP+Jvf/KbWs0A5qkQlIVBJCOh5rqS71XCyluo5KNW8DYekRhYCDY/A+vXrG34SzSAEGiECTZ7EXHbZZcGuEBtEHLc+//xzd8kllwS7xIcffti98sorjfC2a0mNFQE9z431zua3rlI9B6WaNz901FoIlA8Cw4cPDz4N+FxEyQybCBIha9CgQeUjrCQRAmWGgHxi/A3p3LmzW7p0qcMGdd26deEW4Sr0s5/9zN1+++1ldsskjhDIjICe58z4NJXaUj0HpZq3qdxXrbNxIcC7RocOHcIH1BYtWriVK1e6Tp06uU8//dStWbMm+Md06dKlcS1aqxECBUKgyWtiwPHXv/61a9u2rauqqnJr164NB2TmyiuvLBDMGkYIFA8BPc/Fw7qcZyrVc1Cqecv5Xkg2IZAOAYvy1KxZM7d8+fJAZhYtWuQ2bNjgzj//fCcCkw658i6/7rrrQgQv7q8d55xzjiOymVLhEBCJ8VhefPHFji8gllq2bBnC2xG7W0kIVBoCep4r7Y41jLyleg5KNW/DoKhRhUDDI8D/ma222qrGRPqQWgOOiswQUpnwy2jbOBMO+aKLLhKRKeDdFInZBKZ9PSSLNkZamAI+ZRqq6AjoeS465GU5Yameg1LNW5Y3QUIJgSwIoIW56qqrgkUITfmQKi1MFtAqrJq9VNhTZdiwYdXbeES1NezPQmAUEtoatDamwWEjSxL1tMP30OrJP/7447Xa0p7NO9kA08ZhE0qSjc8YjEV9dP7QqEJ+iMRsulH29ZCvIWwyJC1MhTzBEjMRAT3PibA0ucJSPQelmrfJ3WAtuNEgwP8Z08ZIC9NobmuNhdiml2hkIBRz5851q1atcjNmzAibahLMgXTTTTcFrQ3am3HjxoWNLI2AUP/f//43BKSi7umnn3ZPPfVUGGfw4MFhU07IC8dJJ50UNu9EE8Tmk7zbUm5p/PjxYW9Em5/gVpWWRGIid+yCCy4Iaj9pYSKg6LJiEdDzXLG3rqCCl+o5KNW8BQVPgwmBIiFg2hhpYYoEeImnYTf7oUOHBsJCdNypU6cGidC2QFioR3tDHWZpEB9LVmekqG/fvq5169Zu1113tSZuwoQJ4fqAAw4IZzQtO+ywg3vooYeq25BnDA6uZ86cWV1XKRfNCyVoYwgDiErtiiuucHfddVehYNE4QqBkCOh5Lhn0ZTVxqZ6DUs1r4F977bV2qbMQqAgE0MZMnDhR5uwVcbfqJyQmYqeffrpDe4LG5bTTTgsDcr1gwQJ3zTXXhMNmgbjkkyAkRlLS9evevXsI7402qFJTwUjMwIEDGxyDQw45xHE0ZGrevGCQNKSYGlsI5ISAnuecYGr0jUr1HJRqXv4eicQ0+se60S0QbcyIESMa3bq0oBQCEBQ0LkScQyPSv39/d+mllwZTMMPItCLHH3988KGxcs7mMxMtS3eNVmbUqFGBIKHRaaypot7Y+/Xrpz9MjfVJ1LqEgBAQAgVCoOw+LgIAAEAASURBVBgf1QokatZh1tzcwm30/9BsYdvuA7ZWXL7Vxan917IutgIaVH3rOi/lRudviD/5s78flZZv9+zVFYB04xIRZ/p//OMfgbgcdNBBwWQMszG0IPii4NtiZmKcqYO04K/Sp0+f4BuDaVmuyczIMCvbY489whxoeE488cRch6iIdhVFYioCUQkpBISAEBACQqBACGzgfRniwvuyP28IPysrXyAoymKYjRtTd8CFMyJtIjIVlS8LKBu9EBATNCuW0LzccsstwX8FMoGmhPpevXq5ww8/PDj6Q3bQzuD0b31xyofY5KOJgbg8+OCDwbkfszXmIE85czSWtIX/shN+NdZ3QXwlSpfYjZYwb7mkKVOmhA2fktpiHtCYvrAlrVFlQkAICAEhUD8ETGtRv1HKo/eqP7SsWA2MaZDaXLK2PMAsgBTLDxuUuh+mGavAc4fnri0AEhpCCJQegaJoYiAwkI8XX3wx44oxF8ulXcZBVCkEhIAQEAJCoJEgkPrAnzIhQxNjGhkIQuXkG8nN8MvYiGqM8yaNjH0HrrR8WIR+CIEKR6AoJAaMXnjhBZctgpkcMSv8aZL4QkAICAEhUFgE/DtzoCvhiz+0JXO+xf7nO9eqY14yfP7uaLdx0dRAkLKNX5f6vIQp88aQx+CbFO7Hhs2+ShWUL3OIJZ4QyBmBopEYJDrzzDPdj370o0Th7r777sRyFQoBISAEhIAQaKoImE/Mhk2W3yn9i/eNSchvudM3XIvD/pA3VFt+sZ9bNeLboV+m8WlQl/q8BSrjDhv8DYHIgX+lnssYXokmBPJCoKgk5p577nEc6ZI0MemQUbkQEAJCQAg0TQRShCUalSz1Ap0yMcP/x/KBYXiQVj3wbbd+9kvoDDZrCjBFS8i36nu1a3Hwrx1E5vPZL4b2Np61r2++cd23jR5vrxHzDKaQ52btWrktd9shjAs/3bBwmVs/f1nB50FuJSHQWBAoKolpLKBpHUJACAgBISAEioHAZp8YZov6xCTkN256Q/XnlKImcg7C1s6v/c/tbqsDfuFa9Pm1+/z+/9vcL0376nHzqg+NG8UPNDGkFA51P2/5pS4e8z1dy757uuZf7pIWm88mf+DWcYx7y33+7vx6z2typ51QFUKgghBoVkxZMSf797//nXhQV59E6LkjjzwyfEXiy5Qd7Ipq6e233w5R0qzOzn//+9/dOeecEw4LPUc/6imPlhGkgHHiY1m5zWXn6667rloWm8/GZNz4vNavrmeTK7rufMciPjmyco6mKMa2BuptTvqwXkvR9vE6axM9G+a0TcIzjmXSXNGy6NhJ19nmS+qjMiEgBIRAMRHYGCMkGfObBEu9ZqcIS8b2fPFfvdyt+89trrk3RcMcLVv7utQXE6+GnyvlE8M8Kaf+/PKtjtrXdfrbeeFo+5ND3caVa9zKvz3vPr3tX27ZL+5yyy7whz9X/fZRt+rhV4ITFO2sD6RnczAB7nR+89NeSQg0FgSKSmIwJfvmN7+ZeGQyM8sH7MGDB4f/4PwnHzdunCM+dvyFnpjb1Nvx4x//2HXr1s19+OGH1Tunzpw5M0w7fvx4N3v27HBN2Q477BBid7PzKomNiBiH0NDE305KRxxxRNg11WQaNmyYe/TRR5Oa1rsMGZDltNNOq/dYmQaI4mK70Mbb33nnna579+4BUzC/5pprahEj6wMRGjJkSLhnjAfOxFOH6BnZg1RRB46cyedDWmwuzpnmi7bTtRAQAkKglAj4X3f+vdObjPntSaoJRIZ8kDVDfdJ4aGM2rl3uWhz4Cz9HfvPl1L6UABZ4bjQxQLTB3xD+FuWab7bb9q7z38937X51vNuiXWu34vpH3MdHDHZLzvuL+/Rvz7mVI8e5tZNmurUT/eE1L6uenOCqbh0T6j8+8jpX9acnQ7/2vz3Ndbztp47x8pk/Km+BIdFwQqBkCBSVxBR7lWwOBKlhl9RsmwTtuuuuYcdUSAltTQsxderU8MJsZbajKoTHCE0+69pvv/3Cjq0vvfRStYZn+fLl7ic/+UnQfqBNYi4OrqMv6VxbfVT7EdWaWLkRNyMAtIlrQ+qqiWBTJhJEgvT888+HjZrYTMkS87JZk5EdSBW/cMEvKTEWWDPWNttsE3aXHTp0aNgUatKkSQ7id/XVV4c6+tOGfCZilDSPlWWajzZRbKJaJ7sHlIHnz372s+p7Yv2iWqRcx+F5i7a1+2zy6iwEhEBTRQCfF7/2iEYmcz7lq5F7+y3ceq+NWfuaNyvb/RjXrEP3POfLLl9junPhVkBguCX+b1ou+dYnHOS2ufsXbssundxyT14WHXejW/WvSW5D1eqc+m9YscqtfPDl0I/+jEPKdf6NMXlDZ/0QAo0AgaKSmIY0J0t3LyAnCxYsqH7hTtfugAMOCDuaQk4gMuy0+thjjzm0KLxY89LLOIxHQitju7HyMssLaF3TW2+9FfbHYV7mGDt2bHhJ54Wfl1sjNVxT1qZNm6Cl6N27d9ByQNR4uaZdPN10002haNWqVUHLYS/9kJ0xY8aEdbG2qOYjPkY837lzZ7fnnnsGXJgTuXjpZox4gpj06NGjmhTG6+N55IuSBurBH4Jku9daH9vplntW15Q0H+tBg4cmD2wY33BkHu77GWecEf6AEG3Pni+IG+SU+7LTTjuFNec6DmtBE4XGijlJaLKUhIAQaNoIBJ8YIzCc2TA+Qz6glaE+Xf+1U+8LXVv1vSrj+On6m0Ymsb4R3cJACDxzqSYGQSOTPt/Ba17a//Jot+b/pruPIS9jJvi/HenbZxuf/h9//0a37u25gQBt0aala3Piwa7tjw91rb6zX0quLOM3otuhpTRxBIpKYophTpbL/eTF0jQT9sWbl0hewiEnvLRCXvbff3/X3ZtDoVHApIwXcvL24m6ma7x4MiYvv9mSaRX69u0btAy0N41OVAbKDz300GrtkBEryiyhnbjooovcpZdeWk18rI6zyWlzQYBMG4LZ2YgRI0I/5uXFPNfUoUOHYBLIeo14GbmzMVq3bh1kM+1Mnz59apETa8sZ2cCTxLogalE8DaPQYNOPOF7RumzXmeaDNHH/IV9ofGjLMwBJIVkd17RBtgkTJoRnBM2T4Z3POIxF4jmCxHKgaVISAkKgaSMQXnh5Kd3k1J8p///ZOw84q4rrjx+k7NIXsCIIRE0sQVBsiSio+duCiiX2XoKxxGhijxF7IUZJbBiNJfZYwN6FiC2xgNgSNdLEQl/KLnX/85235zF799637y1b3nuc4fO4d+7MnDnzm3lvz++eKSFS2eRPy3LyV8ybKhCZNv3c38fOvbKqLyyfqb5Qr0K/d1C5v6MpT4yfopUh3vmig6Ttzwe4qWHvyZzz7pXlzqOSS/m65Ev7Eul6y8meJHU86WdS9vtfSGf3qUu/Qu8D098QUASalMRopc19DdfEqNcDoxmC8sknn3gPBfcYsBikGKYvvfRS2njV6U5qZIZenLi2hR4bjHmM9XDNCnVRfzRgIGMwQ6pCgxiCgCeAoAZ/1HtBmnqPuI8GCAJEDs8B+YYNGxbNkjHep08f74EYM2aMN+LxzEQDROmtt95Ky0bXTGuBwBPvh4bQu6TeDk3jmql9Yb6k+7j6ICt8wj7DW0Mf4M2KBiU54Dhu3DifzHjQ6XTZygGrgw46yJdXkr063r2onhY3BAyBwkQgRRTwwLCOEwOaT3KcVrbd4zrpePRz0vGY51d9XLz1j/bNWH7x2Cs9SG0H/T7r+urSh/RiCr4fXIO4wkiS4u2dd6Tdz7f1BGbu5Y/Umb8ueZq+1npl0mbrH0ib/n2k44k/k9abdpfvjxkpX+9wnsy/4SlX5wBp9cPuGesrpv6wtqzZCBQ9icGzEvcWP9rtEAMIy0MPPeQ/+jYdgoEHhqk+SWQjKisah4hgcPv5q+4XXclPNF80rgYy074gV3gEeEbgHnnIRX4cQcjkqVBSdOWVV8YSqKgu0TikBVzrwgVcWduCxwavDP2RKWi7IHpKXPA+0Qe0lQC5wcDH+8HzqBcok/xoWrS+hQsX+k0eon2mZDdanjj6QXQfe+yx9FQy2s1mEbnIYVzQp0rkwJZpfxYMAUNgTUaAXcawlrmCQ3J8xdwpsnL+VGm1/lbSuvcutT4d9r9dWpSWJcqj/JKJ90tJvyP92pi66ss2vZh6j1UwqcX8nBdDrHac7ZM7n7WvVIz7WOZc9nCd+euSF6Z3+cMhsvatw/ynw2EDU5sBfMbUsiopf/B1D3Xpzluk9ErQr5j6w9qyZiNQ1CQGAxDDEq+FGv+ZuhuSokHv1RvCc4xSjFOmaTENDWOagDFN4A18QwcMZCVWOpUsrJ92KSlSnVUHJUF4XSgTLvoP1wrpFDctl80VHLQ+JXxhOa1LMdK0JMJBvnBBPPmVfOpmCOShHYcccognT3gsIAn0Ra4hU33gjAcF4hVinVSHTil78cUX01PJyJuLHPWMcYVYQeK0/Un12nNDwBAofgTczCVPYNKL+TPEV8ydKnP+tLnMuqS9zHQfrvqZd5c7gqC0syMozovvCFGSvMWvprwxpTueliJOGerzxCqb9CLqJgiFA8YTk6RrN0c0ln8zN01gkvLV5zlQLvt8hnx/ym2yyO1gVrLND9yGDBt4fToePtAjXfn+lxn185nsP0OgCBAousMumfrDRwNTx8KpW/o87ornAm8BxiOGKUGnmXGvJEKJA1PDtC7enjMlqKFDSKJUJ+ofOXKkHHrooen6MXoxfqNv7lkvw/Qo2kbQqWwY5+zahkzazI5jSVOm4toELpAXPEBKZsJ8YHHzzTdLiJHWHebTe9VT24hODz/8cJp84s2BeGg7tFz0Gu1/psmxVTOkKwyZ6gNHxg26E5BB/qSgZBHPUUhkc5ETzUtdjClkWzAEDIE1FwGmjmHsuvm//s2/22eyXvFlk8fL8m8nSemOp8riN29KlFfliNCSz56W0v5HyUIITWV5veqrqW8x9R8EBvhcfzhC4y414h323c6Riu4y85x7ZPn8xbXSo/lzjTMWVrhdzSrf+1KWuMX9JdtsLOvfd5bf6Wwtt3Uz3p+Kf3+RqB/1WTAEigWBFs5N7R3Uq9sgvtBJYdCgQTJ48GC59NJLk7L455dccomMHTs2vbYgmpn04cOHRx8XdRyyAQnDyFWPS1E3OMfGMa2MKWqGTY7AWXZDoIgR4O9RA/1pa3aUvr+4Q4PpULr1UdLpwNuk/PFTpPKD1G5kccLb9NlZyk54Tha9dpUsevWquCw5PVv38oU55c/nzJMH/NYTBD++MHs8v6weby7e40m3u5sbf9OHXOGutdPJ37JTO7eWZQNp86PuslYH94IN+8mZYhCTpf+dIVULK1PjN6b8+qNO9XK/PdntXunSKd9xv+3ctstdXdmvZeGT/86oH/X3fu/6fIbYdDMEskag6DwxWbe8ADLiecCzwJSpU091P1wWaiGQrZetVkF7YAgYAoZAQSCQMpDxwLDuQQlafeIV798n7Xe7UNrveoFUvn9/orwl/3tdln01Xtr95DTntblFVlbMc7XXv/6CgDkHJdk1zPeD98TgkUnFWWTfqntXmTn8QS+Nxfjk03S8Jt1+u78jLxtmrI3tk+fd/qIjkZNqlPeL+ylZ/eqZOGfNzLtv3KpxEdQXrV/jGSu3REOggBAwEpPHnYV3wTwMedxBppohYAgYAo2MgJ+65AgES08gEs5uTV3rGV/4ylXS+aDbpGTrIz2RSZK3wOXretKz0tYRmUXufnXqb2SImlQ8hMQxBrf7V+0rU8kIi177yBOXMB+elw1uP9WvlZk76gWpfPcLWebWzSz/2p3v5uSt1aFUSjbrIW3cVLTORw6Sda8/XqYffr0s/Wx6jfq0sZn0COuN01Nl2NUQKHQEmoTEcCL9rrvu6j91AcaWvRYMAUPAEDAEDAFDwCHgSIsnELxhd1OOmGGUS7zs4NtkZeV8WfDM+b58xXv3S4fdL5QOziOz2N0nyVvqPDF82v30VFnw8lXOLq5f/cjPFBYsWCC33367/Pa3v82ULW/SvBOkmsBUL4bRRTFSOmBjqXBTwlbMX+SJR5jOOhZCqw26+HxMRytxccgMfdxqw67ei9N22018HvIiJ1qfj7un0ecQl7C+jHGEWzAEigCBJiExEyZM8GtiigAva4IhYAgYAoaAIdBkCKRWraamlDnLuNp8zS7eeoN+0nabI72ui8bfLCvmTvPlF7x8tZQdfKuUbr6vVH7ylEuPl0e+bic/42Qc5Yzz+1L5vPkcnz9Zv9pwQV6uuuoquf7666Vly5aFQ2JSriu/hsW3qjrecch2UuKmiS161U0BcwvsmeYVpi9zHpcFT/1LOu67PTBJ11Pid9Vc/s0cX4y8y2a4e9gKTDA1EFJXF0+v+Qr0YWF/Jyd/rU5tZdnXc3x91a67VeXJb8EQKBIEmoTEFAlW1gxDwBAwBAwBQ6CJEUgRhtSaFGfPujfuGLDZxNvttGotZcfdL5K5/zjFl1/87n3Seci10m6nXzkS83SivCVfvi4r5k2TjrtfIBXvsoYmt/o1fwiYkhd2jaQdrVq1kquvvjrMktf3+EB0bQm8AgfIepceIZ3238Hr3X63vrJh99Nl+kl/kRXlFT5d888f/Y4nMVynn/AX1363A+p2m/hy7DRG/vWvONJ5yfrK99c+7hwrrKlx/MNf6fdqaNwV7LR+0tksYMO/nu6mpK1ab9N+177yzVl31CiPPAuGQLEgYCSmWHrS2mEIGAKGgCFQdAgwc4lX8div2J+pF+l1x9fqspG0G3CEmzL2AAL8fflLV8lyt4UykhY6z0zHn13gDsTcWVjInySfMl1+4bw2A470RCbb+mvKE4mSl6VLl3q92Eb+zDPP9PeF8J96QCAOdEj7XbfyBObb398v5U++40lEr0fOk67D9pKFr324qkkue6Vb34J3pcuRg6XcERnKL/7356k8Lr21m1LWab/tZfatz3ni0XbbjWuUJ7/fzcw9LXWbBBDX0MHpAYGZcsi1bovsr52cHTwhgsgsfPVDL4/8aSKkBe1qCBQwAg1KYvTLXcB4mOqGgCFgCBgChkD+IODOieHt/6o1KdnFO/3fhb4N5S/i5ajyJKajezb34V95eQvH3yrtB57miUzlqNcT5S/+9wPS6WcXus8FsujfrKHJrv5QXxQ5/vjj5cknn5Rly5Z5vfQ/jhEgbyGElPdDPSAOB0dkmEJGmD/mHe8dqfx0uix261y6HD3Yf8J2TT3+zzL7lmcduThK2m63qSz6139Tnhb4kMNgvcuPlJULK2TOva+5qX49peffzgiL17jvedeva8SJUC/1Q1TQB68O+pW/PNHLT3l0ahWzB4ZAwSLQoCSmYFEwxQ0BQ8AQMAQMgTxEIPXm3BnMzjDl1bu/cM0Qb9WlV8oL8+4DsnwOnhcM3Aek3bZHSPkLV3tvzIpF82Xh67dIp/87X0p+4LwxX45PlA8R6nLoLdJ+wFGyyE0r83pkqL92ushdd93l18DoNDL1xHTt2lUgMoUSdIqXbrJQ8ek0r3rH/bd33pW33e5iPRzOm3gSMd/F6Sc/JczlYqexSpd/3fMPct6b7R2J+U96LX6pK9POEZtZjuSsWLBYKj6dKlOPH1mjPFRv3fMPdr0v8u01j/qryu+wez/petRgV/+G7hDM6VLm7gkL3/mv+99txewyUi7l2SPFgiFQ+AisVfhNsBYYAoaAIWAIGALFiQCmJ4ZqFR4ZrlnEO+5xgQdjviMfmn/+i9f4Zx33uDAtb8E/3RkwleWOyFyQUf5C54FZ7jYFgASpvFz0oeKOHTv6tS8zZ86Us88+W0pKSqRNmzZSUVEhI0eO9LoVyn8QGQeEX7Oy4JUPZZ4jK92dd2Wzj26SPo+dL5Vufct3Vz/qCQTTxSASi//1uSybv9gRFHeuyxNvS2e3hqZF+1LfZOStc+o+fjMAvDDEWR/jywXlia8sdzLcB3lh+qybnvH1Uj96rHfeQV4v6g/1LRSMTU9DIBsEjMRkg5LlMQQMAUPAEDAEmgGBKrcmJk0YIDJ1xFuUdJa2W/7cTf16UJbNdruRVedfNnuqf9Z+28OlpfPUQIhWLC4XiEzJxgOldfe+qXoS5Gu+kj4Dc9KH+sMQJTPLly+X888/P8yS1/crXYMcdM6zser69YV/l68vutfrvcCtP5l8zA2yrDy1PXKYT8vNckSF0PWY3bycdttv6r0w39/8TMZylNdPVC71US8empk3P+v1Qa9oPuIWDIFiQcBITLH0pLXDEDAEDAFDoPgQcFYrhCM9RauOeMedfyVrte3sCMsDqXJB/nJHWAjtnUdF5S36V2rhf8edT62V39dbXR5S5L02e5yfkz7e6va11vxPyQxTya644oqaifkcAw/mZEWu8x5/2y/cZ5vj5ZwTE0kP40unzfR5IS8873r0rn7B/6y7X8lYzter2MTIp97Z97wq3/3lKUGfOD2pz4IhUCwIGIkplp60dhgChoAhYAgUHQIpIoEHBqs1NaXMX2Pia5WWScdd3LbJX74hFZ+/Xiv/0ukf+TTytCjp5NPx0Cx0BKX9docLa2mS6luxaJ4sGOd2KdtkoJRuvHNW+qT1zdArkJlCOeiSZrC2BB4Qd13oFuq3d+taOKclLj0sp4dfko+wwk01C9OTyvvM7r+k9Gyeqwy7GgKFjoCRmELvQdPfEDAEDAFDoGgRSK1BYUescE1MfBxyghdm3nNuLUxC/nnPX+PzdNwl5XlBPvkJnfd0Xha/5iZe/vyxt3pvTOc9z0uUH1e+mDrH71DmPDGpKzi5T3V87mNv+aZ23K1fbDpEVPO7G0ciU/GKT6a53ch6eGKo6XHyU0R2VblQXlL+OHnF1B/WljUbASMxa3b/W+sNAUPAEDAE8hgBljCkCQn2a0K8RWln6TToFKn8Ai/MG2oj18pf8d/xsvTrj3xeb0c7eaydWfivB6XD9m69TNlGifWtWDxfyh2RwRuTWkOTrE+1je7rz2N4c1bNkwJXKnWtJiXV8cVuR7EKtwPZemcMiU13uaufu/KUcZ8uQ3eUtY/dzS/4r5EOwQnza7y6nNbP9LVux+4u657+c2m/w6ar5Gt+f62prxNhwRAoCgSMxBRFN1ojDAFDwBAwBIoSAZ1CVr0r2aopWsHUMmcNt9tqiPewzH3uWmfIgkTNdI0z5axV156eyPh81fIpR+iyd3TNS7WcannzX7vN5+s82J034y3xmulx+vkCRfKfJw8QA9d2dv2Kxmfe9bK02bCbO1enf2y65geODtv/UHpee5wsdQdgfnHk9Rnza30KI/EWHdrKxn8/Wza86BBZ/4x93f1vpec1x1brFK8f9VswBIoFASMxxdKT1g5DwBAwBAyBokOApS+pNTCpa1K8y17nujNhpsli52nJlL/T4FNSZOdZR1ocgVF5y2ZNlQXvpLwxEB2/iVWQrvHlzhuj+VhDo+U1PTZeRL2iJKQq1eCAxDiXlvOczH7MecLcWTAbXniItHRrY5Lyk2/+yxNkynl3yWdDLpXFn0zx5ZPya31A2dJ5X9pvt4n0cOSlTY+15bN9L5MPNjlZZrqNAboe+FMp3cxNTUvQz0gMCFooFgSMxBRLT1o7DAFDwBAwBIoQgRTRYEqZJwjOI8I1jHfY4QjnXdlI5kBMYtI1v7gpZ50diWG62eL/vlFL3rxqLwtEJ5Sv5bX+VD0iG106QTb+yxz5QfWnk/POxNVfTJ2iHpFM18nn/M2Ri26y0TXHORzVI1LzOvvRN+WLX94kXFMenZrpSeWYg9Z2856y6QPnSNeDfiqsp1n08VRfz7d/e8lDXerSk8rz3IIhUCwIGIkplp60dhgChoAhYAgUHQLq4fDGJ1O//Av/YKqYi3fZO+WFKX/rwdh0neJVtmtq4f+cZ6qnnEXkLZn2kSc4ZbueIqyxCT06Yf3LZk2TWY9e5PNCiPisrCiX9lvtE19/EfWKnrOS6brYEYtpVzwkZXtsLRu56WKETPlzSf/qnDvlv0eMkP8ccZ3Me2mCIzQ9pN0WPb186iNUfDK1zvp8RvvPEChwBFoVuP6mviFgCBgChoAhULwI4HVxrWvRAuLC3l814513PFxad9tIvv/7Gf7tezQ9jJftOizthUmSB8HZ8DdPStlup8jsp6+tVZ/Km/faKJn76m3p9B5nPZXqgxh9i6pzXPtWun8t3D+ICTjGxb+78yXvMVn74J188/HOZMpflzxNXzJtllS6c2aIL5k6S7Z87lLZ/OlLZEX5Yjd9rZ2bzvamLPx4Skb9iqo/rDFrNAJGYtbo7rfGGwKGgCFgCOQzAkzhShmw1VdHacJ4592G+bUw8958MPU8ks658uTv4MgO2y/PfcUtzK+emublRPIv+g+elTcFwjP35VGyomJejfpUXlqv6vIpDFNT3UL9yF9MwRMRh4i2i7UniiPtDOP/++2dvukQGdbH/O93f3NkY1Fi/mj5pHirTu1luSMtldNnyYSdfifrHDzQr41Z7Dwwsx4dX6d8r5T9ZwgUAQI2nawIOtGaYAgYAoaAIVCsCKSIAVxA16T4q4uXbrqTlPToK3NeGeXdM9H0MN7t5+fIMrfwf+HE51JyYuRp/llPXesJT5kjSLrGJa5+ze+vTl5qvUVtfYuqZ8DNnQtDY/3i+Tri/zv7Dply6QPSZY9tpP/462Ttg3bKqbzHPaiP8v2cnB+MOMHXzyGZ39zxgkx1dcz8Bwec1q1fUfWHNWaNRsA8MQ3U/RMWrpSJC1fI5MoqmbBghcxbXuXvJ1cygbl2GFzW0j/s37GllLVqIcT7dVjL39fObU+KBQHGxUQ3VsbOS40RxgqBeFzoXbqW9C5t4ccFY4X7fh1aSn83ViysGQjYb8ua0c9JrfRrYFyis019SBGFVLzbkHP9WpT5zguTfl6dMczf+aepKWff3uOmnFX/SQrTERzGFztvzOL/vimdfnKYzHrqulS9/n+XL0Z+jfIJ8quLF/xlZTUAusuXozK+TZni39z5opS//ZlsfP3J8oPrT5INzxoq0/80Wua++L73qHj8VG6MvFZumtjaztuywUl7ONK6tpc17YbRvi+yqT9OfsF3hDXAEHAIGImp5zCAnIyZtVzGzl0ho90116BGq161PEbr0HVaeVKz/9rWPYpLIV/9OHEkZfTM5Y7YxpPapPaRf3JlKjU6zoa68TG4S0thnDBuLBQHAvbbUhz92FCtYJcwKIauYcEzQrz9jwZKux/u5EjGCFmxaH6t9DB/tyHOC+MOtJz3xoOubLy8MD/y2SRg/WP/4ojM4QJJiqZH49reeH01tfCvSlY8jhAP4PTB3WSIL/xoqkzc4/eyziE7y7qHDJSN/3SSL8XOYnNeeM9NM6uQRR9NSctrv2UvR1jceTM/2Vzab7mRzwsRmubIj/e4UHGG+urWL6W1/W8IFDICLdwXUl/ArFY7Vv2grZaYvC8M6bj0qyWJb84bsgF4aH7Ts42c2aO1eWgaEtgmkIXHZeT0ZXLjtKXeK9fYVeLJu6RPiSe/jV2XyW8cBOy3peFwLaa/R5+evE417ViFD3bzRr8bLaUb9ZUvzt9GVrqzW8I/5KRrvPNPD5Pux/9FZtx1hiMjD3khYToPkuKbXPO+z/+lq0PlJeXf6JwxPu+UEfvXkrf5X2f6tGL4780exzRIMyAmXfccIF33GiDtt0iRlDjBEJf5b37qiQ6EpyHCT6ff2xBiTIYh0OwI2Kv+LLuAt6PHf1qZSF6YCja4jDfiLUSniGWa8oORyzQRf3VTirjHiJnvnmsgbbgjTBjCw/tAZtpokl3zGIGR011/fRVPXjpXTx1kbITjBMKaFMJxwnTFsfOW+ylpYX7GztgPFnsSc9fmpeaZCcHJ83v7bcnzDmp29Vhjklqcz9QhCFqbHltKux/tJDOfdF6YxeXVL+Td7mXV6WH+dfY713th5r/xsCcilA/TM8VnPnmdJ0CdHBFKlU/VH1feC/dY1Zbf7BA2oAK89vU4O6q2Olc8Mwuc52Xq9U94Oa3dYv12jtiwSQByFzvCsqx6E4DVqUflhdcGhMNEGQLNioB5YrKA/+5vl3kCE83ay03hgVwwrSeTERotlymOwXr3N8uEOkNCQxkM39e2btdgdWXSw9JyRwDSuasjEvRhNBy7fmvvVctEbKNlMsWpi+lljJVxjsBEA0TmOFenhfxGwH5bGqd/iskT88mJ69YCqfuJf5Gynx5a63nSg28fuljmvOQW/9cjbHrd+24L5x5ZlVz8nzdl8nVDa+Xd4s7vaz0r1Afjux8VqJ7kw9Is+Zk+cMZ9qqBdDYGCRsBITB3dxxtuDNNouGGTEm+URp83VJy3s0MnVdR64860IYiMhfxDgHHCeAkDHrrRfds2qmcET91ZXywJq/X3jBPdQKJWoj1odgTst6XxuqCYSMzHJ6zngHKv/50Hxbtc3Jv60o22lE7b7JOOR9PDOJ6a2RCYoHyYnp5MlpDOlLVOW++VVfny95+Vyqkf19J3y79913id3cSSX9/gKO8pCT0bDe0paWx5O39jJKaJh41V10gIGImpA9g4w5S36ne7N92NHXjb3uX1hbWqMeO0FiTN/iDJIP3qJ+0blcBow3/z+RK3BmepRv3VCG8NOPIuYr8tjdclxURiPjoeT0w43ZQpx4UV//FdxeOJGbf+EQ59pnwp/dOpfoUTH/TtA4335TPJhkATImBbGtUBdvTNOtmn5LjDVB1VJCaz/iEujJ2b+25ocXLsWcMhkNQnSX3YcDWnJMWNybix29D1mrz6IxDXP3H9WP8akksmjcukcZwsyVIaHwFnMPOnwH1S2/AUXrzxMWrCGlw/cOAlnZG6Fl68CdGyqgyBRkXASEw94MX4YJE/npLGCtQRN42tseozuY2DwAFuSmCcsdpQtTEGGYvR7ZcbSr7JaVoE7LelafEuhNr8uS5KYNx2ywUZLwSgs9SRTQ0gk4V8zbKpls0QyHsEbHeyenYRC3IxHFnUf9wGrWVQ9eGV9RTni7EOhkXaLNZuTMN3dXS0srkhAMmAjLKgn+2yGScNcaYL40QX9jcmmc6ttZa7IRCw35aGQLF4ZOi5K6xp4UQEpjLpmpbCiRdTf6ReXqaXEFU3rdDixdMj1pI1GQEjMavR+xiPGBx8CKxB0G1zowuqMV4hKVOCKWLEmdbBqe3saEXcQnEiQP8e5zwmBEiMbrHMltwhqelVHY/uOAapZbwxVozgFucYCVtlvy0hGmv2/Vb3frtmA5Bnrd9tZuqsnTxTy9TJAwSWv32Zf7/gN9Hwq6acUnBeGG6BxFvt+Ic8QDJ7FYzEZI9VnTkxLs3ArBOmNT5DiryutClga/xIyB4A+23JHivLaQgYAoZAcyCw7I3LU4SF+Ybqmiuwq5GY5hg5VqchYAgYAoaAIWAIGAKGgCHQTAgw2TPlcHFXJtZ4AoMyBRRvJuzqW60t7K8vclbOEDAEDAFDwBAwBAwBQ8AQcAikNt2o3nzDEZeCjBdYTxqJKbAOM3UNAUPAEDAEDAFDwBAwBPINgRay0i9tZhMOdCu8eL4hWpc+tiamLoQs3RAwBAwBQ8AQMAQMAUPAEMiAAASGg3ZXrnQTy9zV7x7YTPHWfY+WNtueIWut20+qlsyTFVP/KUvGXyEy88OM+mVoXl4mmScmL7vFlDIEDAFDwBAwBAwBQ8AQKBwEVnlgqhyRwROjHpmmjLc7/CUp3ecOX/+yj+6Tld9PkpYbDZL2x/9LWv346JReCfoVDtYpTc0TU2g9ZvoaAoaAIWAIGAKGgCFgCOQVAqyB8Wv5/eZkjsA0Q7x05987wrKLLH33Jql86XdpfVqW9ZLSg/4hJbuNkOWT/ylV5VNi9csrQLNQxjwxWYBkWQwBQ8AQMAQMAUPAEDAEDIFMCOiaGO/ocBmbOt5629Pd1LHXpcIRGILWv3zeFKl8+mRpUVomrbc6RpL084UK6D8jMQXUWaaqIWAIGAKGQMMgUFFZKWdfcLn/cE/4x+hnZZP+g2o9G7T3IfLlV1NWq+J/vTfBy08SonVTP58RI0clZc3r5+AEXrRndUKIF/dgwrW5wtx58+Wgo39VQ4/6jqFQVjZ9HY6NcCwq1oxjHcP6LMQ/1/qaC+NCr1cJA2tipGrVov6mirdYp58nKcumjIutf9k3E936mPneU5OsX2H1gpGYwuov09YQMAQMAUOgARBoW1oqG6y/rkyZPkMqK5d4iZOnTPPX9yZMkhnffJd+tvba3aRrl7J614phec7vr0osD2G5adTd8sIT98oXE8bJv8c+KW+/O6EGmUosnGcJG/fpJeOee0R+MXSfemsWxWv7Af09LlybK3z+5VcycdInvvpx49/x1/qOoTvueUh69eguk95+Qa4efp6MuuuBRIIGFoyNB+4c6ccFY/Hm2+9NkxYUefK5l2XSx595neL+y6W+uPL2LFsEwjUwlGnaeFXl/GpFU1PZ4uqvXqST2v45Rr9sW5ov+YzErEZPdG7VQgaVtZRLerfxn2PXby39OtSGNMyz/9qthHJhCNO5t1B8CDAuGB86Vujn6DjoVboqz5k92sSOJS3P1ULxImC/LU3Tt7179fSGKQYqb6shDoSvHYGZPWdu+tmO2/aXLmWdfVzfxvMGPXzbTbnwjTn5kMnn3D9c42VeMPzaWh4WjNSnn39FTh92nEAACNT12N9vlT9dfbFgKBPIx1t46g29EuqluOeBx9LpkCI+5Avf3KMfcfKqHO55k09cdaY+yms86nGIq1OxUD01rrK0vtBrEOKlesbhpfWpJ4Y8Sf2get96x3212p9JF9IyBYhLv75byH57/8yPE3Qg5DqGwPKbb78XJcqQPYhrEkFjHDIeqT9uXKjO1944yo81jes11/q0nF1zR4A1MFXOA+PPh4EgNHF8xdwpztNSLq022tkpX7v+lj138Z6apZ89GZue0jv3djdnidoWd3NqU0B1Y5RO/kl7Gbt1Oxnep8R/7t68VG7cNPUHh6aQ56tIntF92/oyIdkZ7AxalcG9heJC4C43LiZs114YH9rPjJv+AeG9YZMSP540z42blvgyUbKi5blaKE4E7Lel6fp1m35byoYbrCdTps0QfdP+lxGXemMVo3HO3Hkya9Zsb6hitJ50xvkCocHo5M04pEQNawxy9abwhp037Zdf+2cpLS2R6y4739fDW/dzzhxWo4HvT/zYx9ElKUAMTjj1HE90qNvLcZ4dnmv4fuYs7wEZdvwR/s0+xjUeneibewzidu3aei8ABvnl1/1ZDjt4X+8Foq28tc82hHU+9NhTsUY0uEAO0QVPE8b708+/6nV/4eWU1ynUsy686uoHdMdjMmDrH6fb//iTz/sm0Vd4Pei7UJe62kudtIG+ByvkM14IuYyhsB76Yc8DjkmPnzAt7h69QwIY5tllpx28Ti+PfSN8XOM+1/pqFLZIVgi4jZXTBMbPKGuGOASlVa9dpPT/rpNQnxbrbSXt97vdk5ylE92OZcx4i9Evq4bmUSYjMfXsDMhIWbVHZXLlSpmw0FHuIGCIYKj2dm/XowHjlfLRN/HRfBYvfATwvhznPhrGzVsh85a7X48gQHJ+0zPeswJZwStjYc1BwH5bmq6vmSKGkc80MogMb9r79d3cExDelk/7+hv/FrxXz+5pkjNo4A5ewb5bbubfyj/0aMp4f+ud92RA/77S3ZEivCcYu3VN88m2pVGi87PBO3m91ThHjuoFeYGYYVxDCCBTYdA0nQpFmzfduI+fLgcWuQTqInCFAEH6woAXAFzUkxVONeP+jpuuFQzv7Qbv543wsGzSvZJNbW/YD9RHoI3dunZJt5++1DTSjzjxTO9py3baW1gnWIGZTinLZQxRN7if9stjvI6qSxI5IR0PDcSUwHjqu+OetYjPIEdiIKQQSTw3Yci1vrCs3eeGgHpg/NqYwCOTFG/Vc2dpt+d10uHo56XrxYtTnz8s9vEOv3hY2vQ9yilQvbYmC3lttjpaSvod5YlK6Q6nS9kZn0rHY5738jqf/La0aNtFyu/ZU1Ysdl7ERHm5tbm5c9e2sJtbowKoH4ISkpPjPq2Urf+9SLq8vlAu/So1txrjU0kORusBkyr8Rw1Yyv+mxyrjtgCabSrWA4Gh66zaxXysIzCDP1jsxwnjZUpllffWhSTn7m+Xya4uD1cNw/u0McKrYBT51X5bmraD1cj/z+f/E7wCGPxM2fnJDgO8x+C1f77pDVYMV0iOGsdRLTGQWVvDGhuMxoYOkCwIxuqsy2lonZAHucsUWGsELnFBp4hBcvDEYIRnEzL1g5ZPwkoJD/kgMkxxU0+alo276lQyxgHjA1KGZwYPTS5jSGVD4J53XiltM+QE71RSwHuH90hDdOoYnjWIEUTy2htu02zpa671pQvaTY4IOE+Mf0eJR4ab+Hjr3rtIp1++JZ2Oe0EgG5CLpZ89LRXjrpLKd252xVpI696DpMPQ26XLuTOk7aCLMsqjnvb73SYd9h8ly7+bJHNv3EwWPHSorJg/VVp26e0/SybcJ/Nu21GWf/NhSq8E/XJscLNnNxJTjy7A+AwDb06Z9sNTDFXCULf2RcNvPl8io2ct958bpy3VxzJ0HSMxaTCK9GZyxSoPHVMFX3PeOdbD4LnDgxeOE+LHO0LMGDrLjRklvJBhm2ZYpAMk0iz7bYkA0shRCAeEZez4t/2He55hnDP95v5Hxnhi4w3V6mfRN92o6Ms4AhR945+N+jqNTL0tcWWSPB1xefPpmRr4cbgoMbj4vF97IpCt3to3cf1Qlwz6iXVGOiWP/FFCEJXBlD3WLDGFDI8RxIepXcTxIuUyhkLZqgvT2iDHENVMQTc3wCsT5/WCqAzZa3eZ+NGnfuxGZeVaX7S8xetGILUGxjk5WAsDgeHqDMMw3t4RjU7HPi8ty3rLwtHDZPY13WXeLTtKuSMdi169UhY+d67M/9te7vkGUv7gYbL82w+l3eCLpPMpb0vLdbeqJU9KOkvHQx+Skv5Hy5IJ98u8W3eUlc7TssSRIuTMuWFzmfOnzWWBq2vFnCm1ykf1q7uV+ZXDSEw9+gPjMiQjGJl4Xlgjw5vUaMA41aAkh3i4JkLT7VpcCIycvixNRmgZZIRphkwhi4bJATlmjIVTFG2sRNEqzrj9tjR9v4beBL3XKUNoo94VfabTiNgNijfoTBsLvTfsaoZnhmlmvGnn7X+moMYn62l0jQtv+Fm4rtOMokQH4xlD9sD99sokerXSQuJEm1jLkmtQA18XsWu7WHwfylcss5GfqR+oL1NgfY5uIDBkr918/+B9g2wlBcglhBZPCOSHD54jppThRaKvddwgQ+9VT57pGOKePkYHMAgDeMQF8qnOmp7kaWI8QIjCkGt9YVm7zw0BXmSnCQvkJRLvfPxzUtr/KKl0ZGP2DZtJxQdubYojHJ7wxORf8tlTMs8RkXl37e1JT+fjHfmByFR7eNZyB1h2Pu55abPZvrLw+fOk/IlfZqw/qk9cPLcWN3/uVe6C5teloDQ46wvnJl9S5dYrtE5PLYPM+HUwby1KbItOMUvMYAlFhQAElulhrHlhfYwGppCFXhp9Hl5trIRorDn39tvStH3N2gkMPwxDDE+CehB4265rLyAqd/zlGr+4n7fxBAxb3VVKtxRmsTYBAnPlJef4N/Wsk2G9DBsBYPjqc5/R/cd0IYxYLRstD9H52y0j/OJ+ZKAvcZ7XxyOh9Wa6su6GNRboNHjgjmlsMpWJSwMXvAzaNnA5fdixfltrlU97+v148/R211G8Dthvz7TouvohnTHmJqqL4phEfiAo9JeuG1KROqUMDw0EL9sxRHn6bMQVF/rpbHh0CHhXdPz4B8F/YIUnS/FTndEhugYJ2exyxxjRkGt9Ws6uuSMAgWnhpoIxlcxfnZtD450OHOWmiO0iC544RSre/3t1enL+sPzS//3Tk5lORzwkZSc8L7Ou31xauWliZSc855RsIeWPD/NeGLwqWl9YPk6fpPTcW928JVpUudAQKiggDSErn2S0eG1BrDosyp9fvUCbqWThblGse2CXMn17zlQy1sQQmE6kU4P0eVh+uFtTc+nkVVPO4ioP88el27OmRyCp38Jxwjqo17Zumya9eOXw6DEdUUN/t1ZmoptqxpQzCLEG1tDgmanataM+kqSxmc7gbsL84XO7b34EkvovHDPR77r9tmTXb8X69yi71lsuQ8AQaA4Evr+4w6pqsayrT9Mo3foo6XTgbbL4rVtk4bPnpvIE6f5BFvFW3beSLo7ErKyc6zwzvaSqslzmOk+NX+eSRXnVJ1N9616+MKVfgfxvnph6dtS8nTv4xdcTFqyU3m1rTiHDCGWB/xPVxinrHj5wW+wSlNhwPzJYH0OccNwGrWVwl1Xdwlt8C4WLAJs30Kd3f8O0sprtmLBghYxxBBdyouMC4hLGKQHZCaeWqRQIsQbk3xNsBqDP7Vp4CNhvS+H1mWlsCBgChgC7kPECxS88qfbIrNW2TNrveoFb2zJJyp8+t1Z6NH+m+NKvP5QFjgRBiJA35697+Z3I/Ly1wAMU1p9JnnpowvyF1ourrOVC0zwP9PW7Sq1fUxHerDOvHS8LO0zpzlNqpGpuXcCtcb3ytr535mm9mtWuBYIAfRp66lCbMcJ6GcLxn1Z4Dx3Tx/iop440yIt68YiHIcw3dm6EIYUZ7b7gELDfloLrMlPYEDAE1ngEUov5HVNJLYhxro+2zgvTsksvmXPHPg6d2ulMQQvz1xVf/O790n63Cx3vqHIemfJUPUF9Yfm1Sh2B2u0CafODnaX1BlvJMrczWcV793uPkCc+MfoUWhcaialnj42cvtS9PW/pp/1gkOJ94W14uDUuRGXMzOX+TTzTg3SNA1OPwnzsSMT5IRaKDwH6FW+Lbp0LKZm4cIUM/2qp352MFvOsj1tHxVbKg8papb0yjCumD+m0RfImjZPorlbktVCYCNhvS2H2m2ltCBgCazYCcWtiSrYYIivmTZWl/xtf7fCIXzODxwRi4q8xa2rC9EXjb5FOQ66RVu4ASzwy6lEJy7fp3k+6nPyMrFXaWZZ+NV6WfOLuu2zkyl0rbQccKXP/+nNZUTGvVn2F1oO2JqaOHkuat15HsVrJEBim/6hHBhIDyalPiM6Tr48MK9OwCCStialPLbyF193LlMhAkusTbE1MfVBrmjL229J4OOsf/MarwSQbAoaAIVATgW8u6JSa2eUepxbZu53pri6XRW/cKvOfOi/tcGGpjKbrUpZc4q0cGVn33I/c9LTzZeEbt/ilLtHya58xXlp17S2zbt/Hr5nR9HY7nSqdHQFCp/Knz4vVt2ar8jtWczFHfuta0NphjDItiCsBQ5U1MyzitWAIhAhAcHULb8gv62T2D84dCvPavSFgvy2NNwbYnYptjtmNLPphC2S2DM7XgO5sz4uO2g7dsrkxdNatfNnGOBp4FsWPeHSb4Wi5XOJh/U3R3lx0s7xrBgKsiYEV+Cldjlq07r2zb/hydz4LU8mi6fWNL5891ctli+WwPpVXsvkQae02AZjniNOyGR+m9SEdL06l88q03+lXwhkztcp7yYXzn00na8K+Yrvdrf+92K15WUVcujgjNZwu1ITqWFV5jADb7DINzYIhkA0C9tuSDUq559EDAjkgkZPdOeX96uHnJW6Hm3sNjVfiplH3+FPlTzr2ML/NM21ozqBbA7Plb2ME5I577hEvGhJjIf8QePTRR/NPqQbS6OCDD/aSVq1JSb2w5uGyGW7KF64QF6Lp9Y2vmDtN2g04wq11+XFqTY33qVCBOA9M6jvG+hn/2K+ZWVV/xcfPSOkWP/frZJZ8+Xr1mpxUuleygP4zEtPEnYWxMdl+X5sY9cKsLjwYtTBbYFo3JQL229KUaKfqwpPw9rsThAMTOfiSc2M4M+SEU89Jn5qupAdPAc8PO2g/eXncG/7Ed84H4YwYgqZzsCIhPIMGT4ae/RElA+ig543o2TRPP/9q+tnQw0+WW2+4Uu645yEvV8+oCWVyDgpn4HD2iOqRrZ7aPi+8Hv9BOC66dIQv2bFje7n/kTH+HJzzzz5VrvnTLR7HTDhp/ao356RwkKWF/ELggw8+kJNPPll+9rOf5ZdiDaQNJAZCUnNNS0q45y9V2a95iVvjolNk0/JLO6XIBwTFh+qrv6Tua+uTWnMjbs0NIcWraq7R8QkF9J+RmALqLFPVEDAEDAFDIL8Q4EDM834zTPB0qEHOYYYcggnBuGnU3bJNvy3TSn/+5Vdy319vEIgGaZyyzuGON99+rz8Q8/kn7nXP75FrbxzliQUHGr7wcuqUeIScdMb5Pi9kBBmQKE6QJx8kiWd6qCNpkJPoifQQGOp+wdVF3ZCIy6/9sz+EUxXNpGem9mn5XK/vTZjkD/A85vCDfDvuuPdhGf3gX+XlsW94Aseho3233My3vTHqz1Vfy587An369JF//OMfuRcsmBJuypjjBy2qp46trEhNN2VqV+UX4z3BCdMhJPWNr9W2syx8/VaZ++T5rrYUIfEOF3ff7sdDpNuxbhezbY+Shc4bo/pofaVb/twjiocoWn/BQF2tqJGYQusx09cQMAQMAUMgbxAIT3PX6Wd4BQbtfYj3IuA5CcMG66/rp3f16tndp8+eM9cTCfLgzSFAUNRD40+ov+laCT0neH4qK5f40+R33La/96CQT6dTeSEJ/2m5Af37+nrR+bCD9/VT5bjiSSLE6cmULchapvYlVOvbqqfOax68TRATguqDfmuv3U20XeCkIRt8Na9dDYGmRoA1JymikPJ4LJk+yavQeoO+7sqamNTzlc4F4vPVM96qu5tC5sKyOW5tjPPwROUt+vBp6eymm3Xe72pZ8vUk4XwZra/TLr+Sto7kLHr3QVm+aH4NfdGv0IKRmELrMdPXEDAEDAFDIC8RYBE9npJZs2Z7r8L7Ez/2Ho9Q2d69eoZRf69EAhKjH50aNunjzzzBII7HBY8JAa/PlOkzPNnwD7L8T8tBEqg3KcTpmU37kuRFp8FpPvTJNqxO/dnWYfkMgfojwNQsV9q5RHSqVsVHz0rJxgPT8Wh6feIlG6c2DKj46Jla9am8WXcdIeue+oysf/brUvml297ZeYVaul3N2mzYV5bO+Ejmjj4fRWuVr3/bm6ek7U7WPLhbrYaAIWAIGAJFhgBTsJhexnSnXBewM/3siwmpaWN4dyAzTA0bN/4dIX7xeb+uMS0MAoJH5ptvv/eEJlso61sO+avTvmz1y5SvuevPpJulGQKeQFQTgyrWwDhCs3jSM26h/Ube+xGXrkRC82cT77jzrzwRWTaLXcpS9UTLL5n+kXx9WV9Z9O8HZa22Za5+N4XMkav5L1wr34wYKCsWl6cITK3yhdWPRmIKq79MW0PAEDAEDIE8RYCpWHgcpkyb4bc2fuixp7LSFA8DWzazhoZpYayxITCVCo8Inh3WvOCV0SlnrHP5yQ4DhLUkM9xmAKGMTJVGy+EJeejRpwRPj07tSipf3/Ylycv1eXPXn6u+ln/NQsBNEvNrTLhCWLgu+NcDstxN7eqy/1U+zoytMD3XeKc9z/ekCNdOC0dOMpVfUVEuMx84VWaM2Fkm/6aLv859/pqM9RdajxmJKbQeM30NAUPAEDAE8hIBvC9D9trdL0TfbvB+0rlTx/S6l0wKQ1yuu+x853l5xZ+nwlbO7MiFd+Zng3fya0RYT3LO76+Sfj/e3E8jY+0IC/ipjzTqwzNz+rBjfVUshMcrxPN3P/iwRvWUYxcvyvXdcU+fpruW1cgYidS3fYhh1zXqC8+L4dwa2pFtWJ36s63D8hkC9UXAe1ogKUwpqyYyjjHI7Mcu8MRj7cNuhsHUSo/mT4qztqbTLqfI8jnT/LSw7r/7p7Tp3rfe8mL1rW/jm6lcC7d3tYN09QOLhhpI1Oor04ASGupU7QYEkF7TAABAAElEQVRUSS7p3UaG9ylpSJEmazURGP7VErl08tLVlNLwxat27djwQk1igyBgvy0NAmOskGL9exTbWHtoCBQAAmyxfOKJJ8r7779fANrWT8WvzuzqGIozqdkmDLbiiIzG1znyZumw/eEy+/ELpHzcqFrp0fzReJsNfywbnPGUrHTela+v28WRmB/Leie5c2BcPTPvP91NW3u6Rn3R8tnG+4yc4+QUTjBPTB19NaisZR05mj55cBfbj6HpUc9cYz72ST6O3cworlmp+dg/+TiO16xRYa01BAyBQkUAz0ZqqliV4y6rppRx7sv3950mC955ULodeLWsfcRN0qK0LD3ljPRo/jDe7sf7eAIDKfr2r0fJikXzpOLzN2TGn/f1Xpn1Tvq7I0hHZi0vU32Fhr2RmDp6LN88Hhg+g/OQWNUBY9En0yf5ZpTm29gt+kGQYwPzrX/styXHDrTshoAhYAgECOB7wRGzas1LzThEZv7Y26TjDkfIRsMnSNne5/kdw5Lyt9sK8vKkrHfyfcJC/WnX7OKuk9Lyuf965L5S8cUbss6RN8k6R92Usf669CO90IJNJ8uix+7+dpkc/2n220BmIbJeWfp1WEvGbt1OylqlTmOtlxAr1GgIzFteJYM/WCwTF/oJsY1WTzaC79q8VI5bv3U2WS1PMyJgvy2NA75NJ2scXE2qIVBfBNaE6WRfnNbVn7vC0gr9DYq7lm6yk3T9+XnSdtOdPJyQEaaJLZn+obTu1svtJtbJpQ30aax/KX/7AZn77HWOoCTLXe+YWxw5Osx7aL4ZdZS0++FA6bzrMGntdkaDnFQ6z82cZ6/1nptMcja5ubCmkxmJyfIbOblypRzniMy4eSuyLNFw2To70jLcrYP5Tc82DSfUJDUaAjdOWyrD3fqY+Y7UNHXgbfrdjsD0LjUna1NjX9/67Lelvsgll1PDITmHpRgChkBTIrBmkJhu3hPil8RUg5teIhMTL+nRV9o7b0vbH+7kyMtGbvF/T08yls2eKstnT5OFHz4jCyc8m1piE1OeR6H8sl1PkbUPvtIRovmOCHVOyyIfhInn02/Y3x1+mTqEM1qe+CY3z+ZSMMFITI5dNdaRGBZxNwWZgbz8pkdrT17M+5JjRzVzdrwykJkbpy9rEjIDeWF6kk01bOaOX43q7bdlNcCLFDUSEwHEooZAMyOwJpCYz3/VzS/qV0+HMoymjK937M3SacfDZN5ro2TmIxem9Snt2Ve6n/J37+X530VbS1VleZoBhfptemthkRhbIZ7jFxsjkSldvD0dPXO5YHiMmbU8RynJ2Xu5N+hD124lg7u09NfknJaSzwhAOiEVfEa78TF27gp/neLGTUOF/RknbjwOXaeVeV4aCtRmlGO/Lc0IvlVtCBgChsBqIsDaFj93S7dXxiXjJ2SkFvl7l0ojxzv029tNKXtTvn/4Ik9gtP7KqR/Jt/ecLj3OGiOdf3KEzH3lthrpfrvl0IW0mlg0VXEjMfVEmuk6TO/6Tc+UgAluHcSEhStkcgXXlcKb+MmVVZJktOoi8P4dWro1LuJISyvp79a8mMelnh2Sx8UgpXxu3LTEjwvGx9i5y929+DGD6kmePUht79IWflwwPnq3XcuNk5Z+rORxk0211UDAfltWAzwraggYAoZAMyEAEfC8xREV7w12u441ZbxVl55+GtmCD551CECcata/6LM3/Nqb9v32cSRmVK108hdaMBLTQD2GgcnHgiGQCQFIKm/c+VgwBLJBwH5bskHJ8hgChoAh0NwItJCVnji4K4vw3b+mjLOuRkNS/UwdIySla/lCuZrVXSg9ZXoaAoaAIWAIGAKGgCFgCOQlAiv9bPEUcRF3TkxTxxdWe1qYUhZXPwdktmzXWbynJlG/vIQ2USkjMYnQWIIhYAgYAoaAIWAIGAKGgCGQHQIpR0f1GhhXpKnjc14eJe1+tJN0G3KOV1jrZ+ezHqfd66eTzX/zIX8wJhk03a+J8SUK6z+bTlZY/WXaGgKGgCFgCBgChoAhYAjkGQLpxfGOGeiaGF0U01Tx78eMcGfE7CTr7HeudOy/j1RO+0har91TSnv+2Ov09d/OkOUL5yfrl2eY1qWOkZi6ELJ0Q8AQMAQMAUPAEDAEDAFDIAMCrIIRv7ifNTFkbJ745OuGSuedDpNu/zdMytyVgzTLP3hOvh9znSybOc0TmET9MrQvH5OMxORjr5hOhoAhYAgYAoaAIWAIGAIFg0Bqd7JVi/n1/BVd3N+U8XnjH5a5rz+U8rioZ6j6mkmfggG7WlFbE1NoPWb6GgKGgCFgCBgChoAhYAjkGQJuLUy1Bya1xqTw4nkGaJ3qGImpEyLLYAgYAoaAIWAIGAKGgCFgCCQjAHGBxKQJTAHGk1uXnylGYvKzX0wrQ8AQMAQMAUPAEDAEDIECQYA1MUpgWHNSiPECgTqtZpORmPvvv9/PzWOHBj6nnHKKVFRUpBWp6+aNN94QZBC4RwbX5gpxOsyePVv22muvdDsvv/xyrx7tpL1JbY6T1Vztot7//Oc/csMNN8SqQJu0D/UatiuKgeYBF9LyKURxD3XXsaXPtC/rqz9jABmKgeKo9SCXZ1Gc6Iv+/fv7D/cE1SnEneeaN6qr5te+0Kt+n8KymqbXaB3ktZAdAop72B/a79Fn9Puzzz6b/m6FfRP+dobjRcev9lWYFmoYlte84ThTPTVNr2GeUJ7dGwKGgCFgCNRGYL39fyfrHXCOrMN16O9k3eq4v2YRj5bXuJZvinjtVuX3kyZZ2M8f7Mcee0w+++wz+dGPfuTJy1lnnSUHHHCAJybdunXLiBLG2WmnnSbnnJPa9zpj5mZMvOWWW6R3796yePFiefzxx+Woo46S3XbbTbbZZpuMWu20007OBeknUmbM1xSJGDRnnnmmoFNS2HPPPdP9Rv4jjzxS6M+Q+Fx22WVy8cUXexGaB3z0WZLspny+9tprS79+/WTy5Mm+vbNmzZJvv/3Wq/Dqq6/WePaDH/xgtVT74x//6En3qaeeWkPO3//+dz8+2rZtW+O5Rt59912ZOHGij3LP94fvC/3Dd2rq1Kn+GRk0780336zFa1zDPsHgHThwoE+n/zTcd999vj+J87079NBD/VgO82heu2ZGoF27dv734Ouvv06/sOGeAP58L8jDM343SktL0wJff/11OfDAA4Vx8b///S/9XG8oy+8q/UU+vn/EISxxv6eM84cffrjG7y99GpKlcHzk63dW229XQ8AQMATyDYH1DvxdvqlU9Po0uicGQwhjCwKCAUbgDzN/dDEYn3/+ef8Hnje++taXP6C8BeSPMvcY1RhykAKeacDQ1LeG4XMtr2n6hzrqEdF8WlbfbN5+++3+zTfltSx1cq8yqTsMyMYYefvtt71hiYEAMQnJwPz58+WEE07wMsK3nFovV32bfu6556Z1iOJCGs/QBTljxoxJ6xXqq3I1H+0l6PNoO2nDRRddJC+88IL84Q9/SPdH2M7oPQYTxGTUqFHy/vvvR5N9PM6Yi83YxA8hMeuvv75gMNJ2JQGooYYnzwjbbrutv4ZjIOxDEnU86RjRvuAKnuC6++67+z72wtx/4AbhjQvohG6HHXaY/6ie5IUc851Q/XiGsQvB3GyzzYhmDIxLjFZIlI6LaAHFJ86Ijua1eG0E+J3bcMMN078JEE5+Hwj89kGa9dnOO+8sJSUlPg3iCLHmZQh9w/eVZ2FQws2YINx2223+tzSOwITluI/+/kbTiefrdzZOV3tmCBgChoAhsGYi0OgkRg1D3jSGIVsDiT/KI0eO9G/MeesYfZMPUeA5RiJ/7PmjD4HASCNt/PjxnvyQlm347rvvZMKECTWMPMjFiBEj/LNMXhMMS4zIuPo+/fRTGT58uPdIKYFL0qm8vFzeeustr3/U0P3www/lyiuv9GkYxs8995w3eDBK0RFd+eC9AhuMIfCHoGAYa4i2k3zIxRBGFoYRBk9dIfRoxOVVQw2DLht5cTIa4xlji3GCwci4wSAcNmyYJxZKRjHgITq0ETICvngUo5hmGneMR/AE11deeSVN5nk7vsceeyQSCcVtyJAhwkd1AgvGGPKU2KixS3uyMWSRgXdJjWni0UA7GV+r64WKyl2T4ko2IR1KOEePHu0hIM5zfjPC38eNNtrI9wv486GPkBMX+G3Ao03/5xLq+v3VsZdv39lc2mh5DQFDwBAwBIobgUYnMcCHscYfzTA0xJs+/cPOG3EMOrwjanhpGlO5MEx54xwa8KEu0Xs12kIjTw2QQw45xGdX+VpW327SVgJTddSDonnUGK7LgCA/b2aRqfpjrFZWVnpRaqgih/o0r+pNJtUXDwJyyKNvd70Q95/mD9upaat7hVSqRwKDm7ZHp1Ktbh0NUV7bPmXKFI8POG255ZbesMSQ06k+tIU+2HHHHQUjE0yPPvrotAeqPuNOMYEo4JGMhrAP1ROkz5SAKbGJ1h+VlW0cb6f2G2OY7w7TlSzUDwH9jvLdgxAzfgYMGOC/D8R5Hv193GSTTXw+fs9IZ5yst956NRTAq63Taxk/1KOevxoZc4gUync2hyZZVkPAEDAEDIEiRqBJSAxvGnnjGAbeZPMHuqHf9CEzahSE9WZzH74VzSa/5sGwwHuC4UeIelCQC3lrioCBpF4hjFKM0+hb9/q2Mxv98TzgseKjXovoVKps5DR2HjAAJwxGjEHi6uVgGiTjCWJDO7hPGq+k1WfcQRTUg4bXUINOJVPSBHHiXj0v5INI63cL/SHy6L46Ac+d9hvfWdpVnzf9q6NDMZXVFxb0G95Zxk+PHj28B5B4SIy13e3bt/f5PvnkE3n66ad9XuREAx4+yCvjjqBe2Gi+bOOF8p3Ntj2WzxAwBAwBQ6C4EWh0EsMbZP7IYgyFAQMJo1q9AWHa6tyrURolTasjU8uqwajxuCtv6JmGpcYFZKI5AriCO3qoUcoUOV2X1JA6gTXYgH1cUE9QXFpzP1PCwltoJQHqJYSEKrHRZ7pWJqr36ow79e69+OKLabGsL6J+PtTNR+O69kh1x8uIQaweurSQOm4Ym+odjMuq3p64NHuWHQKKoY4l9eDy/WRs8TyOGJPvoYce8p9Mv5F8n/leQz6z+X1Srev6/c3n76y2wa6GgCFgCBgCazYCjU5i+CN70EEH1ViXwvxtFutjQDEVjD+Y/CGH6PDWXqfG1NU1OkWMqTgYBPzhV8OON9MENQaZ+tO1a9d61YMcJWMqV6+kEXRBvm4SkHq6asqWxrO96oJr1R9vQLh7UV1ywulHvNVnalt0eltdMrJJRza64n1K2oVNvQqZDOZs6mqMPEpOkA0RIR4acOpd0Wc6fSva7kzjjrKZgn5HwjyMrygJVWKsYy/JQA7lJN0zXvE08b1ATlzQdTaKS1wee1Y3AkpCdCxRQn9PuNd07jXoNDTK6HdZ07gydQwPa7j2LpQf5o27f+SRR9K/v3Hp+fydjdPXnhkChoAhYAiseQg0OokBUhbj86aQqTP84eUPNIbRE088kTageBuNZ4Y0jGLeimvQqTRMicIQX7JkiU+C+GB08hz5+iaaP/D8cacu6mSaDmmETPX4DAn/YWiyda3OG49mi6Zj1ELemPJRn0D7KavTjXKVo/qADRhBEFm0X5dBrYYx7YzuvqXtgDDST+CLbALbK4eyFSfNg/HPBg1JBrPKbuorOjOOCBBFbQPjk6DTubinD1iHQN9G2027Mo07CLbiFhqeyCWwXkjH/Jw5c/z4Desmj34PKK8LufXNvnqRyJcUwj6hDbQlOq4YL/QZH/qYkM24SarTnqfIMTiE/Qm2kPokkqJ9nUT86Temf+lvKv3G7xPf+7iAl4Y+175lDDFew+9jOD4Y3/n6nY1rnz0zBAwBQ8AQWPMQaOGmGjXIASX8cWwgUWteLwQt5g0526nGGZhBNrs1BAwBQ8AQSEDA/h4lAGOPDYFmQuCDDz6QE088MfEohmZSy6otcASaxBNT4BiZ+oaAIWAIGAKGgCFgCBgChkC9EPjH6Gdl0N6HyJdfTfHluRKPe0be1QnIvvWO+1ZHRMGUbVUwmq4hijIdhIW6FgwBQ8AQMAQMAUPAEDAECh+BXj27y9fffCez58yVjfv08lfihPcnflzjGXnrG+bOmy/n/uEa2XHb/vUVUVDlzBNTUN1lyhoChoAhYAgYAoaAIWAIFBIC3bp2kQ03WE/GjX/Hq61XIpOnTEs/69d3C9l04z4+PmLkKNmk/yD/OfuCy6Wi+qxAEvHWaNpBR/9KIC+kX37tn2XipE9k1F0PSLSMF1pk/xmJKbIOteYYAoaAIWAIGAKGgCFgCOQPAt0dgRnQv6988+33MuPb7+TtdyfIsOOP8B/ueUZarx7d3U60JQKB4fm/xz7pP1Omz5CbRt3jGwSBuWnU3fLCE/fKpLdf8GUgL4SLz/u1QISQ/aerL5a2paX+ebH+l/ckhoXu7LzElU///v3TO+yEO+00ZQex/WimLYt1Z7S4Xaiy0ZNtmrVtXKPbNtclg12HwAm8GirQlqTdyhqqjtWVw45d6Iiueh/qrM+ieOq4CjHTPgTLMBCnT5L6Nk5WWD6f7mmDtk/bm9SubPVGXmNs5Z1t/drHtEPvw+9S+H2Kfs80H2XjvuPa92H7eBaOG/TUesNxpnVFn4XjM9s2JuVDdkPKS6on1+dxWNZXho7XXMtbfkPAEDAEmhMByMQG668rkJHpX3/jDoCfLYMG7iC9e/X09zwjjTyVlUs8gWFKWJeyzv5z2EH7ytPPvyKffPa5vPXOe54QQYyQe9jB+8qTz70skz7+rDmb2Cx15z2J4TyDPn36+O1lFaHwVHHdunl1jS+V3RBXtnNmpzbd1jlbmfrHnrZwGB0yuBIPDads5TVkPrZnJXAmT74G1U11RU+2NdbnSXq/++67/qBAtqHlnoAMyDMnqtMvBK7EM21nHCfLF86z/yBbp512Wlqr+o7ZtIDqG840YWtePZAzmt7Yce3rcAyEJ9HznWLLdw30pX7XSCMvZIDzqsKzq8ivB9fqWUH6LLoNMtsT93ZbdOvBqIwb7gl8lyE5+ox8ul23z2D/xSLA1udsga7nZ8VmsoeGgCFgCOQxAkpYnnkhdY4hU8y26bel15hnSmzmzJ3n78kfDZXuiBElO8XuZYm2PS6e1yQGQ4sD+cLzO6KNOPDAA/1Bi/xx43wNjP3DDz/cf/QNqb4Z1Tet+jYPQyLMT7qW0Xr0DSppUSIxf/58OeGEE/yb+fANKIYK+bnqm/lzzz037UWKytG69GBLjCw9v4ErcU72Jj0qT2WpnuiPMR4G1Qed4vTUslxVPnm1DchCDwzdfDUi6GN0Q0fFTjEYMWJEoldKiclhhx0mfJS0aHtDgxXDlvN24uqgriRZqgdXxRpste94noR7pjQto+NZ+5krgbrob87woT4d22DFYbOME84XIV9YVuVSjvKUJY+G8Puk3zVti55vQl+AR1OGTGMgWz04eJLzqiA23EOCOWQU2YoruJGuz6LjQc8e0rEzdepUT+zQQWXrM37bGFeKc4h19PdJ+0/7irzh91nbeNFFF9Xob30e9htlddxoPdqHmk/7XOOUCcshN5qmGGmdcdekcUleTUMuAR213RBk8FOi6jPYf4aAIWAIFAgCSljuf2RM2pPStUuZO5PNnTPnnhEgNvpM18qEzSstKfHTx5h6Fq6RCfOsSfd5TWIwFAhxJ1ZrJ6nBgHGpRtOnn34qw4cP97t8cagcB8NhaPCmlYMvMdzCP7aan/p4q4rxhizycAAcZTBkMEoef/xxrVq0HGl1/XEtLy+Xt956y8uCkIRyVKCe0q6HDOpz4hyKRxs1qLzbbrvNkxv0xCtFHaRpwCDljTtpGEu93ZtfjBzFSvOBze9+9zvfdg7lI6++lVaDgoMV1QjTcvlype/QTQ9/VL322GMPf4tHLy6oMTlkyBDho4YneZEVemfoZ4zaaB0qN5Ms8mCQMabQNRxP4Aup4Gyg0BvAc/pPzw0ijX6kP3meTUDf7bff3tfJ2AYHCBoHjzKmkBd6JkKZ1MGBtOThZYLWecstt3isaQPfM74HGvSNOWOVMdSUIWkMZKsD3wlIrHpW+N3R7532/ejRo70nju+q1gfZiQYdO+RR7x5lCcR5ztji+wieRx99tO97sOa7HPf7pLsWZvo+09/IQr72N3Uylur6HSRfXEA/AjLRT18KgBe/JbSBviYt27EZNy6pA9z0N0b7Qw8JVYKsHjHy1yd88cUXwkslC4aAIWAINCUCSk6ok2ljeFKYLqY7iUFmyKPPWBPDgn0+Dz32lAzZa3fZYrNN5Sc7DJD3JkySGW53M4jMQ48+Jfvt/TPpu2VqxkxTtqm568prEhMa7bkApX/0KKPGhxqe22yzTdpzo4a85se4wwAIDVlkcCo2f8AxIsITztXY0dO3M/1xVW+S1q9v/JEfBpUZPouTr/LIh0HFtBjeyqoRqeXVgMIg07SoganYaBlI1llnneVJDW89Q8+GvoXWvPlyVaMwqg99d9BBB3kjnLEQDSE+Spb1WXRKmeIcTlUK5Wk55ERlqUGmb+11K23GE3phuGkZSIXiHsqkLvo4NE7D+uPuMcIZP9EpTnF5o8+YTsWYwUjVfscYxsDW74waltGyaohGnzdmPGkMhCfR61t91QNjGnzwMIARY189oeH3ju8M37EBAwZ4PJgeBmlVIqLy9EpZJUD8LoAXZek74sjTvqE++pUPL1iiQbHmeTge4r7PKjPa39n8DkbrDePgxFhFR34HGb9K2vW3SMcv/VBXSNKT7xYY0c6ofJWp0/Q0nu0V8sJhe5tvvrnv52zLWT5DwBAwBBoCARbss3CfwHoYDTptTNfA8PycM4d5crPd4P2ED2k8I/xi6D5y+rDjZM8DjpG+O+7pn115yTk1SBG7k+muZT5Dkf6X1yQmEynItj9CYyHbMppPCQdxjGEMnfANKcZdQ89njzP+MAp4HvfGV3VNuoIhhhbGAfpjJMXVQXmMIkgcAWOOtukUE/+w+j8wzbeQSadTTz3VG0Z4lmi7BiUWaiSqQa4EU6eUIXvatGm+75WEqAy91iWLN9VJOiY9Rzb9F0dstd66rqtTNtN4U4KTVL+SnqT0xniehGO4JkYNcK0/uiYGbwLfdbxmSgQ++eQTefrppz15YUxgtPOi46WXXkpcH6UEiLHEbwZ49ejRw3uEifOccbfOOuv47xj5ITN4fTOFur7PSf0NNkocMsmPSzvkkEN8WSV8EBnIrJJGflP4beE3hn5P6odQdpKe+p0Dn3HjxvkiSo60PPJz8fIpedliiy3kgQcekFatWsn111+v4uxqCBgChkCTIIDnhR3DvpgwTrYfsOocF0gJz5SkqDLEeR6XpmVIi+5CpuUe+/ut3quj8orx2iqfG5XJiFK9MR55M9fbEQqM8GjguRpUvD3MJSCP6Vp8MGr4Y82c7TvvvDMXMVnnxSPCW2OMg1BXNRZoS1JQYhJ6TcgLhhgvDz/8cA2ZpCE3GnTanU4/gcxgtIUeqEx6ROU1VTyTTmACOdO33HhmCLoGiXvaGQbyg4X2CfhhxGFoxoW6ZEGI0VHfIodjledJY5T+YyoXfRXt2zg9muqZtiOpvvoazEnysnmeaQxkU548GMzoTqCPGPs6biA4PNP+os+GDRsW+yJDjXG+zwQdN/SnPoNczZw50xMiZDPewpckvmDkv0zf50jWGlHVOfrbUiNTQkS9hvzW4qHlu8IUMyU3TIMMfx8SxGT9mO8c09K++uqrtMcvLExbsnl5BHm5+uqr/Vq5li1byrJly/xnvfXWk3322UdmzJgRirV7Q6DeCHTvXv/DCetdqRU0BAwByWsSk80fXjUeeYMZGobat7wd5G0rU4EwEuLy80cZo5W8LEjWN/MQF+Z/Y8DqBgLIjatH60u6Ipc3mEzroD41iML86vnhD7iSDtYhEMdYIp0pFtGghjZTMPAm8BZTg77F1DSMEALrfqJBiQs4YXTxwXCnHzQ0h3GqdWe6htN30D8awJ5xQHs0MCaiBA+8WYOi40XHD4Yn5YnHhWxkYRAznuhD9MXwQ1c8ReEYDcdd2H8Yk0wzg7BiQOrbfvVYokNjBzXOIVa0A6OY8cz4DEPSm/YwT0Pf1zUGsqmP7wnkRMe8Ximr9zomGEuZPFIQDkL4nVGSRB2kh30ISeB3IlMIxwPf9Uzf51CO6qzjOvwd7Nq1q28HBAoPh049Y2wqcUEWvxnUhxcK3UPPJb+PrPPT38vwJUyoRzb36Mr4Ad+438lMmIfy+f1iTZeSF01jQ5bttttOo3Y1BFYLAb7D2B8dO3ZcLTlW2BAwBHJHIK9JTJJRwptRfTtKk/kB0T+4UQgwujAKMRiZ8hCXHwNszJgxfhoJxuSVV17piQplMBDVcFWDtz4kBrnI4w8zb2C5jwbk4vXB26N1kof8+iY3WoY4beePPZigoy5mJw1j4uabb/ZtI44e4BHXBrBiwTdGfPi2GPkEDKDmME595XX8FxqDcVlpm5Iy0qNrO7SMGmYYdORRo51+Awfi0ZCtrOh4YtyxmQJ9EcWdMa2GIISWPtH+VYKLHuphor8YJ9kGbScyIb2QomwDpAt8GKO6q5uWxehFHgZ/Nm/LtVxDXOsaA3F10K+UC4N6RXimv0GMe/1O6jQz0nmBkBSU9OhLEfKpjtxDSBhPYR/y3eU7zJQpXlpEQy7f57As9ST9DpKP/oeYoh/jkt8JAmOT30PGrvYn6ZCWuLRw3HoB9fhPv3OQdSVtiNE1Mnh+sgkPPvig/z1l8wk2O2FsEvDK4KWJ+w3MRq7lMQRCBDp16hRG7d4QMASaEgG341GDBKdzg8iJCnGGWRWfxgjurWOV+4PsP9w3RnBvNaucUVLlDKPGEN9kMhWrfG4HutGfjdWXTQZ2nlfE99EZuVXOC+M/3Ot3lGfEnTHbLK2wMdAssDdJpYwpHXd1VRj9e3TrrbdWuWlkVY64+M8VV1xRlwhLNwSyQsB5YKocSc4q75qcyXl/q7beeus1GQJreyMgsFZTEqb61MUbQt7u6fau9ZFhZVYfAaaf8HaYaVn5GtANHdHVQuMhwHeSt+S8tedDwDtDYLobHog4L4LP0Mj/2RhoZICbSbxOtcNrFecNrUstNihhzP7pT3/yHqVLL7007Zmpq6ylGwKGwJqJwD9GPyub9B+U/px9weU5nc3yr/cm+LJc6xtCHQbtfYh8+dWU+oqKLdcQOsYKbqKHLSBGDVEXU7UaSFRDqGMyDAFDwBAwBNZQBOr6e8RUMw5qtWAIrC4CTCdjoxNbE5MZyQ8++MBvcV4oLxlHjBwlTz//ivztlhGycZ9enrxcdOkImTJ9htzxl2uy2vULgnDEiWfKA3eOrLEbWWakVqVCWE449RwZccWFsunGfeSkM873WzTrdsqrcq65d3nviVlzu8ZabggYAoaAIdAYCBiBaQxUTaYhUBwIQB4gMJzFAoEhsD3yab88xm1mM1teHvuGJzV4Zk46/Tz/US9J6DkZN/6dGoBwaCVnt6h3Rz001Ef5S676k7+qx2f2nLnytTvQEjkcgMmWyeF2ymFdWobDL6N6XXjZiBpnxlBO9Y16YlSXqI40JK6+Gg1shoiRmGYA3ao0BAwBQ8AQMAQMAUPAEMg/BN6f+LEnD7161tw6u2uXMjeFuptMnjItrfTnX34lF/z2VBn33CP+2U2j7pZhxx/hz3ZJZ3I3kIvLr/2z96RMevsFuXr4eXLO76+qMT1swYJF8vwT99YgKsjg4EolKSoT8nHB8Gu9l+ffY5/0HqKbRt2jyRLqNfTn/+fJ15y587web73zngzo31e6b7BeOj83kKxz/3CNJ2+cP0M7rr1xlH9eV301BDVhpChIDLtDMReeXb3CwG480WfMrWZ+dPic+zCuMsLnWgfTFPhQH8/CwI5Nms41KjOUF5aLylYZWj4pPe4gSspo+ejp5Ely0HtNCaytAhfGRhjALfoMXEIMFb8oXtHnyNE+4BqVq2NQ84R1oBM6ugXMsevAorKREZaPSydPVGfFQXXQsaaYxMmJG2+a3661EdBxoRjrNYq1lqRP8BBQrr4h2m/Ew7A6Yy+UY/eGgCFgCBQzAhs6A79b1y41mlhaWuJJyDfffi+VlUt8WkgGID+EA/dLrR0eNHAHH+e/Gc6j8t6ESfKTHQZ4r842/bb0aXhbNGiaxjkQEyJBePK5l6XvjnuKem/wzvTru4WfZoaXZsdt+0uSXkxFg3yhX1QPrYsrxAdPk+rGoZl6YGZSfZCz5gxFQWIUQLYIxRDIFHQ+JnNY1Vhgm1SMPI1TnnuekcY9W4yyqJR1P3y455mWwVjgPBfOWCDd7ZDl58nmYvixgYHK1/Kh8RlNR0/OZiCoccK9ytCteUMZpIdy0Be9o3nIV8yB8zi07+LaCZ5su82Wt5wdQtCtX6PnsYAhgS14GQfI5vwU+oErcTUmqfOAAw7w53JoP7EFNmWz7QO2uGV8hOU5wwOdCdF0+hvDWdtLPWzZzPhQGZSLjtWoHM7n4JwQrYcyFupGIPy+xX2vVQLbJ7NWoz4L15HRFGNPdbWrIWAIGALFjADTuEKCQVshLqyJ2WD9dQVCk0vQqWF4T5iqtecBx3hvz5RpmQ/dhUiwpkYDnhHICp+Jkz6R7Qbv5+XhrUE3JVean6uSHDww499K2TNKVMJ8SbpAVHKpL5TZ2PdFQ2K6dOniDc7QmIsDDwMUAoJBxk5KBD3/QY1Rnuk9aWqQhmcW4InRfBiHGKoYo3q2h56hUN/dsiiPjpSPC6RzeKIedKjkjHNHNOiZEuiWZHiSh3MXMuVRecVy3XzzzaW320GLU8eTgh4qesQRR8jTTz+dJgBxhFcPEMT4pD/C82R4xnjj7BT6QHfvCvtJz/mpbx+wQxgH+GEgxwXGMN8PxjE6RMcqZVQfHUdxctiBrL7jOU7emvgs/F7zwgWPGx9+T9555x3vieEFC4QyJLWQUI1DVtSrE3rhmmPsrYl9aG02BAyB4kYAAx9PTNSoZzoWnorevXomAhBHfsiMVweZTCNjqpZ+fjF0n0RZmoBHRqd3Uf9i93ccIoUnhqlkKguvSVlZ/LlFeIXwBD357EuxU8moi+lzcfqzHiipPghSc4aiITGAiMFJSDLEIBsYCBh1bBPLqdkYdXFv2JXskMbBgH369KnxtpznGKQYoBiHGIlKhrwS7r84uZpW1xVdMVowtuMCemMY66ng6AupwUgKAwbuV1995Q+KC5+H95CzTEZwmLdY7s8++2z55JNPEj13eF84dBAjcYsttqhBasFASS79hBzGEwGSw8GToVcDjx2HmNI3GJpx/UQf1NVPvoKY/9C1c+fO6cMIo1nQde7cuX47ZMgZfR0dq2pcM46Sgo7nJGKdVM6er0Ig+r3+7rvv/Hjht6SsrMxnLHV/MBgj2hfh7xa/CZBQfbFy0EEHySOPpOZiN8fYW9UyuzMEDAFDoDgQYDH/kL1292tOdPqWrhdhWtbPBqcOAI+2VsmPLujXK/lYf8LUM7wheDbCxfVRORpnhzRdgK/PqJ+1OZASPDFMAdMNA8ifFHRK2cSPPk1PaYvmJQ/ESPUOdcy1vqjsxooXFYnBEOOtdzh1JgQOYw7vhhIT0vSNOwYABAdyoIapel6QixHKtJCBAwem34Lqm1EMCozEuKAkIy4t+iyUDfmgLZAkDWE6p2fTFgzkTAE5Xbt2zZRljUxjDAwZMkTiPHeMAQiu9j9jQw3KqCHPmIJAQHQJ9Jd6ROgj3pgroUEuYywu5NJPo0aN8oRF38Zj1HKqOuOUEE1nuuDIkSPrnKaUy1iNa4M9i0cg/N5Gv9fuAMb0WTthacbeggUL/O9R+LvF+ILwMA4JYZ81xdgLdbR7Q8AQMASKFQGmceE1YYtkpn8xbatXj+5y319vSNxeGfLDdshM7aJMGPBmXHzer/2UL9a2MK2MvLr7WZhX708fdqwnPkw9Qx47pl132fm+frwzqp/qRv6koFPK8AbFTSWjHHmQTz3UF+qYa31JejT081YNLbC55fGHXP/QR3XBEOUtOR8NvG1nShVvpnlDDanRN9tqmGpe5LKGgMBUkF//+tfy5z//2RsheGLigk73ikuLPoMkUUdS0HStW9/+J+XP9nkmEpatjELMd+CBB3pvVtRzxxh48cUXZcSIEelmMeUHcovxCKmBODAFiGvUs6KkF+JLgFT/8Y9/lIsvvtgTz7TQ4IY+mDNnTvAk+Za1KpAvJS3RnGE6dRN0mmM0by5xJWGh4ZxL+TU1r35v49rPCwaITTTobw9jkd8txhyBPmBdEkRVw2WXXaa3fkww7hpr7KUrshtDwBAwBIocAaZ6JU33gpSw3XE06NQvfQ4Z0gBJYMpXNEBkdHezME3riKuHfEn6JeVHl1AfZET1TdIlU32kNVcoKk+Mgohxf++99/q36foMwx9jgreaupiZe13vwFtz3qiPGzfOG7Z4QdRIxOOixqDK0ylmGJ8YIXhikEfA2H3ppZf8lbJqgGjZ1b1ikB5zzDFy5pln+jqQRx267iKUj06hpyBM03umBzFtDQzWpED/qucu9JAwPYdpOjpOuIbEmP5m6hfjCeKr66MwMM8999xaU9ToG/XyQQDCftJxAnFmyqIarw3VD6xjYQzqxgLIZzzoWNV60B29Mo1VPEw6VrScXRsHAcYmL1ieffbZ9BRYatKNPOgLxuV9993nFcjHsdc4yJhUQ8AQMAQMAUMghUBRkhg18sM36XFGYkg+MBp4o85bbAy1cM0A9xiCfDTw9v7tt9/2BIa38xjDTNuBLBEwTpGP8ZvJu6Lycr3iRYB4MLWEsM022/grb/w1oAs6hYRM0/RKHnDKlEfzFuNV+0ffbENA44hnSD6UwA4dOtSvl9GpPWp4hlPUMC7x1jD1j3QID+Mr7Kfdd9/d9wFv2MnTkAHd8AChA21DfnSsUp/qo+MoTgc2QmDMZcoTV86e1Q8BppTdc8896SmwUSn0J/1KyMexF9XX4oaAIWAIGAKGQEMiUJQkBoAw8iEkBH3LHJ32g4GHEYshQB6MBt5+8kwNU8pzz5tsvDG6DgFywBa1Ok2HtSm6VS7kBWKAYcy2z7omAllMZVMZXKMeHvJkE9QYpR6ICHGdQqLydRvdKIkK5+hD0NA7micbHYolD94KposR1EMRklieMzYgrZBXsGYsEaKeC8YBaboehisEBiJBYCw98cQT/u06/cQWzjvuuKO/KlkmHwu+iWtfhrtQkZ5LgHRAPnQ3Nvpat99W+chj/NA2DdG1NXiTMk1j03J2bRgEIMuMjXCMKQlmXDHWfvWrX6W9fPk49hoGCZNiCBgChoAhYAjURqCFm5KQWuRROy2nJxhDDSQqp3otsyFgCBgCxYgALyeGDx8uN910U42XKsXY1oZuk/09amhETV4SAp06dfIvEjp27JiUxZ47BD744AM58cQTE3ePNZAMgfogUHQL++sDgpUxBAwBQyCfEGBKIx5T1l2FXuF80tF0MQQMAUPAEDAEmhMBIzHNib7VbQgYAoZADAJM+TPPdgww9sgQMAQMAUPAEKhGoGjXxFgPGwKGgCFgCBgChoAhYAgYAoZAcSJgJKY4+9VaZQgYAoaAIWAIGAKGgCFgCBQtAkZiirZrrWGGgCFgCBgChoAhYAgYAoZAcSJgJKY4+9VaZQgYAoaAIWAIGAKGgCFgCBQtAkZiirZrrWGGgCFgCBgChoAhYAgYAoZAcSJgJKY4+9VaZQgYAoaAIWAIGAKGgCFgCBQtAkZiirZrrWGGgCFgCBgChoAhYAgYAoZAcSJgJKY4+9VaZQgYAoaAIWAIGAKGgCFgCBQtAkZiirZrrWGGgCFgCBgChoAhYAgYAoZAcSJgJKY4+9VaZQgYAoaAIWAIGAKGgCFgCBQtAkZiirZrrWGGgCFgCBgChoAhYAgYAoZAcSJgJKY4+9VaZQgYAoaAIWAIGAKGgCFgCBQtAq2KtmXWMEPAEDAEDAFDwBAwBAwBQ6AJEKj4U2tp0aKFVFVVSQv3r8r9K7R427OXNQFSDVeFkZiGw9IkGQKGgCFgCBgChoAhYAisiQhUtZCVVeIJzErXfohMocULrdtsOlmh9ZjpawgYAoaAIWAIGAKGgCGQVwhAWMQRGeeIcSFFYAounleI1q2MeWLqxshyGAKGgCFgCBgChoAhYAgYAskIQGDcPwiMv7hrocWTG5efKUZi8rNfTCtDwBAwBAwBQ8AQWE0EzvrDOLn7kU9k3vwlqykpoXj7y6TTD+9MSFy9x2WdS+SGSwfJcYdusXqCrHSTIIAHJrUGxtOYFJ3xa2SaJ95y031lrXX7SVXlPFk57XVZ8f3EOvVrEqAasBIjMQ0IpokyBAwBQ8AQMAQMgfxAYOyb0+XGv36QH8rUQwuI1/G/eVEG/7SH9O7ZqR4SrEiTIuDXxLCoX2TVmpimj7faaBcp2ecOWatzrxrNX/75k1L5zMkiSxypcSmpNTs19atRoAAiRmIKoJNMRUPAEDAEDAFDwBDIDQFITDGEydPKjcQUQEeurN6VzBMEx2SaI95yvf7S9vCXpGrJfFn8+C+k6rsPpYUjM61+uJ+02fZ0aXtgmSx6YA/nkYnXrwBgrqGikZgacFjEEDAEDAFDwBAwBAwBQ8AQyBEBvyYmVUYX9/s1/u5RU8VLdh/hCcyiO7eXlfOnpJSZN0WWT/mnn1ZWMvD30rrv0bLsw7+7NNbspILqVx0tmEuDkphLL720YBpuihoChoAhYAgYAoaAIRAi0LlTiV+DUuauuQS8Jfe4tTcW1lwEIAJ6LoyugmnKeIvSzsJUsiX/vklWzJvqOyKsv/KfVwgkpuVGg2TpxPtc+qpzbFTfQuu9BiMxw4cPL7S2m76GgCFgCBgCRYiA/T0qwk5toiaxiP7GywbVq7Z55UtkzPNf1qusFSp8BKqC7ZVTrVm13XJTxFu6RfyEqsr5qzw/3tXi5o754LZ9dt4Z1sqo50Wvml6dsWAuDUZiLrnkkoJptClqCBgChoAhYAgYAoZAFIFcPTBh+f5brmMkJgRkDbv3npjqbZXVA8LiebZZbor4ssn/9Ii3KOnsrhAoFu2vql9KOnkCs3zK67Hp5C+0YIddFlqPmb6GgCFgCBgChoAhYAgYAvmFgPfEOCLAldX9zRCHoLTZ6mhp0alXrfrb7nKxx2vJhPsS9csvQOvWpsE8MXVXZTkMAUPAEDAEDAFDwBAwBAyB4kPAOzLY9it0aNQRb9G2TFquu5W07r1LGhA8KuwutuLbD1lkk7U81sTgheHa6eS3ZfEL58gKFvc7fUp3OF3abLavLHFrYdRj4yuMyk9rURg3RmIKo59MS0PAEDAEDAFDwBBoIgTYnnnXgx7NqrbXHjvYn+WSVWbLVLQIsCYmtdjEXT2TSY632WyIIxan1SAvCkzbQRf525VuV7GKt29yxON+v7OYX3yfYkq15Ldav6+03/92abn+VlIx7ipp7QgL8TBUvnOzLHr+HPcog35hgQK4NxJTAJ1kKhoChoAhYAgYAoZA0yHA4ZKX/HbHrCq0gyizgqnoM61ag4IDJVyTsireev1+0m6vaz15Wel2EKt8+2ZZOvl1qXIek2XfTJS1Sp1nxhGRVhv0k5J+R0n7vUZIu8G/l4VjhsmST5+sXuOySh5rXsjf6djnHb4tZMFDh8mSz56SFmOvlFa9dpaWZW5amQvL3DSzFXMnx5bHcaT6+swF9J+RmALqLFPVEDAEDAFDwBAwBBofAYjJ8N9lR2IaXxuroSAQcJ4Yf9ClUza1Rr5mnCljnQ5/2KW2kMVjr5LFr12p/prq5rWQFRXzZeVXr8sy96l48yZp1Xtnab/rRdLx0Iek9Qf3yYLRw1zpVfLbbH2UdBw6SiBE5Q8eKsvcFDRNR8ZSed3HUxXU1Ac9ovpWK1IwFyMxBdNVpqghYAgYAoaAIWAIGAKGQD4ioGtiVrobPCR+SpnzyBDHA9P5+Odl+beTpPzxX7r1LpNSTahOj+bX+LLJ42Xu3/aSTgfeLqWOsBDKn4DItJAOe18jbX9yupc5z+WpqpyHS8XXp+Vzjqe0Kpj/jcQUTFeZooaAIWAIGAKGgCFgCBgC+YhAak0MmrGtcerKTcuy3lJ2wnP+AMq5d0I25vtU8qUy1swfLU+8/LFhstJ5adr95FRPWlr3Higlm+8rlR/cLwuePbdaZvbyQv1q1FetWaFcjMQUSk+ZnoaAIWAIGAKGgCFgCBgCeYkAnhg8INFzYdrtdqHfMWzenXtLVUW55y26BiUuf7S8xhc8c65f49Jh72t9+xe9epUsevXqWvVp/lVrdLI/pyYvgc2glJ0TkwEcSzIEDAFDwBAwBAwBQ8AQMATqRIA1Mbg4uFafE8OalrZbHykLHdlYPmNSrfRo/rri5Y7IEJZ8+owsfOXqOuW1KNtIStxOaO0GX+Cvdcn3wgvoP/PEFFBnmaqGgCFgCBgChoAhYAiECAwdOlRGjx4dPrL7ZkAAgoCHJbUmRvyi+bbbpNaxLB5/sycc0fRc41Vzp0nF+/dLyRZDRNyZMLKkvEZ9obx2u18g7Xc6ze145vJVh5VuKtv8R0+RJZ88nVrUH9FX8xXK1TwxhdJTpqchYAgYAoaAIWAIGALVCAwePNgbzWPGjJH//ve/hktzI+A8MFUwGa7VHpk2fQZK5SfP+F3H/PP/b+9KAG2q1v+niGueMk+RUohXRKn08EKvZOghGSqVBuXVIyGVEFKvCVEaKCUvQxrQnzKWDCFDKmSOMl7DvVL812/t+527z77nnHvuvefee869v1XH3mv61rd+e5979m9/37eWp97bPpx84sbPLDE574LrUoyn/Qs3HyhFzOePbUvl4Bv/lAOvNJHD73axsTMlun4g+S641tHTo092Q5jW8Uli0ooY2xMBIkAEiAARIAJEIJsQAHk555xzZNGiRVaDatWqyUUXXZRN2nBYRQAxKAjutwTGxMacU7yynFuiipze+71pgnL/+vTmEzZ+aofMW76u33gq7xzjQlbYWGFAng5Nvk1ObTVLNv+6XhI2fiK/v9xEziTGS/FbxwfUR+cSK0e6k8XKlaKeRIAIEAEiQASIQFQgsH1XvOzYHS8Lv94tOMdn7cbfg+pWtVJRwd4z2i9owxAVIC+LFy+2D5/uZl988YU7y/NsQsCuTmbGNmuEWdexfGZVMqTTiIVBjIytSa7PSB7Szqt+jcDS401xtY2rmUlHZvc394r/eH+dPConjGtbkRYD7IaaIFiqr+rjlRfNeZKYaL461I0IEAEiQASIgAuB22+/XZYvX27fxLuKeRoAgUq17jal+QPUpK/o6eeXy6Jvdlvi4pVQrGh+KW4+9S49X66/upIUL5Zf6tc+33fU9pAx5IXlmg37WKhQITl58mTA9hdffHHA8mgqhJUgb968UrNmzWhSK2K6/Pzzzw5h8MWYGMtLknRsYGldyUxJcswK6tOfBzHKX/1ayd/LuIUFSX8e2hlwvMStSw2JMZTFxspoDI+jTxBRUVtMEhO1l4aKEQEiQASIABHwRwDxD8uWLRM81DKFRuCVt36ShasiFysCqwusLU/9p7GPnChZQR0+T/dtHFqpdNYOGTJEnnzySUlISEghYdKkSSnKQhXs379fypYtG6pJxOt27NghEydOlDlz5kRcdtQIdLmSWQKTxGLOKVDcEhxYOtTVzKlKfz5fhbpyysS7xH8xIsX0YYkpfO39krd4Vfnz8E5TD4KC5IwH8oN0xlhlziZZiLTeVsTQPyQxMXSxqCoRIAJEgAjkbgQQC1G9enUpUqRI7gYijNmXLHkgjFZpawLrSmYRlVCa9O3bV/B58cUXZdCgQX5k5s0335SFCxeG6p7tdWvWrJEZM2bIhRdemO26ZJYCSlCM2cVaQP7Ys94Olc/EriRs+MwQGFAFOG8l79uSnvw5cUWt3FNblkrilmUp5MECAxJTrM0IOfAOVkdLHu+cuOJS+Jr75S+zypmjn1cfKzpm/mFgf8xcKipKBIgAESACRIAI5GYEHnnkEetW9t///lfi4uIsFBrgn5txiYa5a1A/joiB+etkvLGE7JL8Na61eW99evPnJVlSThmSBF6k46m80wd3ybEl4yWuzk1S+o4pNnYGiwAUqP1PKfvIEjknrpgcmvW47eftHw04pkUHkpi0oMW2RIAIEAEiQASIABHIZgTcZKZUqVLZrA2HBwJqibFHSy7EWmDy12hil0QOVK8uXvD3Crce5AQrjJ1c/5kZNcklzdP/8MzH5ei8kYbIGOLywGdS7tElcv6d78s5BYvL72/fLgmmb+DxYutaksTE1vWitkSACBABIkAEiAARsAiAzBw4EHm3OcKbDgQQE+PZdyV+4TgrqHjbkYalpKz3tk8tn698HSnc8DbjRrY0VXlH5o6SPUMvk9/f6moJDY57nqkrJ7//3CEwAfRJx6yztQtJTLbCz8GJABEgAkSACBABIkAEYh2BM8a0oS5dJgrFLLN8VuDadXzFB5Z45K1QJ0W9t31q+RJtnUD+gnVulMLX9UpVHsY/8f1nctgQmuPff2pd3GCBUf2848XaNWBgf6xdMepLBIgAESACRIAIZAsC6zb9Ln/v8FGKsY8cPWVXLEtt+WQs0cyUQxGAZcNOzQTLW18tJ39wxkApWPefUr73p7JrSD05kxDvV2+D+13tg+XP7zJOClx4jRycOUgK1b1RSrUbKfkrGEvL+73TJc+6onn0jbUrQxITa1eM+hIBIkAEiAARIAKZigCWUn7kyUV+Y4DAYNNKLLHsTWi/dsPv0vSqSt4qv/wvO80DLFOORAA8BPvAYBWyPIhVgb3D5P86eUR+feVmKf/wJ1LxscWy742ucnrPBl+9t32gfJnbx0rhRl0kftF4OfrVOIn/6jUp3dVsWmnKzqtU18hvI38lHAk4fiB5bv3c9bF2YUhiYu2KUV8iQASIABEgAkQg0xGwL8ddoyCPDS2xmWWgBGtMsDptj71kmHIoArDEWFOMcSUzU7REISmfuHu97DVEpoIhMvgc+Wq8xC8cb6wyZiNMuJ552mselpdS7YdbonLUtD84faCv/e/vPiiJPy2T87uOkXIPzZbfp/SWP8w4oeQF00/HM51jKpHExNTlorJEgAgQASJABIhAZiOA/WAWzrjVb5jr26d0I/NrwEyuRgAx/SAuiDgxJhEbE+POJ+5aL7tGNpUyhnSUvLG/FP/7fXJi3ec2ZgUuZiA655WqapZALiIFal4jhS67UfIbKwvq9hpLy8mflqaQH7/8AxN3s1PK3fueIUezZd/r3STh56V2/PwXXi35Slax1yRhy9em3Y4U/d36IYYn1hJJTKxdMepLBIgAESACRIAIZCoCsJgEin1JzV0sU5Wi8OhGwC8mBqo6MTE4gtfgePrATtnzUhuJq9lEije7X4o0vs1+UOtNp4zL2W/v9pbjhuioxcahGcnykD9prDGQWb7Xu1Khz2w59NkoKVTPIUBumbD+HPhokCny7+/Ou9vHwjlJTCxcJepIBIgAESACRIAIZBkC1SqnjH1558NNWTY+B4o9BGDICBQT44450fqEn7625AP5AjWvlvNKVpW8pSrLn4d2yR/GYvLXwd32qO1hMdEYm0DyTu3aIDuGN5VKj86Wkv/sb603+yf3tvLQr4QhTLD8YKNLlAeTF2uok8TE2hWjvkSACBABIkAEiECmIgAS83Rf/wB+WGeOxp8SrDBGi0ymwh+bwo0lBi5ZIAhnDHGwxzDyCT8aQiPLkomFObOEBXLC6O8b72S8/HXiqCUwIDR/muWVVc7JH5dJmX89a6w/vST+m6k+1zSv/FgDniQm1q4Y9SUCRIAIEAEiQASyHAEQm0nTNonGxiCPD4L5t+9yVh07YkgOgv+Z9PAugQAAQABJREFUch8CyYTAschkR77gRU3k8JcT7P40arGxQfvG4vP7p6MsiYELG1zQAukXa1eNJCbWrhj1JQJEgAgQASJABDIFAVhZgu31ckEVxzoDwqIfWGfcK46pyxmIjZIcLBJQvFh+Wm8y5YpFkVBXTAwIBGJNNIYlK/IFL7rGggHXsrNgLp7xz56It4sA5CtVJWA92sdaIomJtStGfYkAESACRIAIEIFMQcBLStI7iJvYpFcG+8UWAuAtGsPiEAJnnxglMIjuz8z6Pw7ssoDlr1THLPUMQpJyPBCYkyYeJ1h9bCEuck6sKUx9iQARIAJEgAgQASJABIhAVCGAmBhjAQFBsIaYLM6fNiQGBKXoVZ0lb8nKRhF/fcp2etbCdWTZ1KD6RRWeYShDEhMGSGxCBIgAESACRIAIEAEiQASCIYB9YkAcLIGxQflZn9//wRNybsFiUrXfx2aZ5dYCy0vcRVdL2U7DpETze+XY2rlyYvMyoxgWDQignymKpUR3sli6WtSVCBABIkAEiAARCAsBxKUMeSGsplHdCLE1TDGAAAiMVTOZyGR1PmGnWWr5uXZSoeerUrn3ZD/QDs1/XX7/eLQf0fLq59chBjIkMTFwkagiESACRIAIEAEikDYEQGL63PM3efmNNWnrGCWti5lVzl56pqldICBKVKIaIRBwYvmxkSSogROTYoJgsjx/3Fhafup3hRS5vJXEValrl12OXzPHbrTp6INJBNEvxPyisYokJhqvCnUiAkSACBABIkAEMowASAA+TEQgsxGwwfLWtJFEEEAUsjEfv3qu4OOkJGKVmj6ZDVKE5TMmJsKAUhwRIAJEgAgQASJABIhA7kLACeZPMrwYAhOT+Ri7ZLTExNgFo7pEgAgQASJABIgAESACUYaAsXLYjSUtgbEmj5jLRxmiqapDEpMqRGxABIgAESACRIAIEAEiQASCI6AxMWfMSR64ksGXzMTExFQ++PSisoYkJiovC5UiAkSACBABIkAEiAARiBUELpu8P1ZUzTF6MiYmx1xKToQIEAEiQARyIgK33Xab/PXXXymmdvfdd6coYwERIAJEILcgQBKTW64050kEiAARIAIxh8Dbb78tM2bMkFKlSsno0WaPB5MmTpwoZcuWlXfffVeGDRsWc3OiwkSACBCBSCCQ56xJkRBEGUSACBABIkAEiEDkEWjdurXMnTtXChUqJGfOIHRYJCEhQerUqSPr16+P/ICUSAQijMCaNWukZ8+e8t1330VYMsXlZgRoicnNV59zJwJEgAgQgahHYPDgwVK4cGE5ceKEJS8gMEWLFpUhQ4ZEve6ZqeDBgwelVatWJnbahFG7PihDXWoJOA4dOjTVtj/++KPUr19fpkyZYvG/7777BB/01wQ5bh2QT0uCbIyBsZiIABEIDwGSmPBwYisiQASIABEgAtmCwNVXXy3XXHON39hVqlSR9u3b+5Xl1swzzzxj9uQ4az8HDhywMIwbNy5VOJ5//nlZtmxZqu0uvvhiWbt2rdx+++0p2oLIgNBADsaGHjgi7yU6KTqzgAgQgQwhQBKTIfjYmQgQASJABIhA5iPwxBNPWGsMRqIVJjjeBQsWlGrVqsmePXt8lhJYOdRKosQCZU8++aTMmzdPmjdvbi0ganHRtmiDpOWad48O96gJEyYIrGWIW0LCEXmUo177P/bYY9baojqo9QYWmHXr1rnFWhKkergtSyBHKNe+abX4+A3CDBGIcQRIYmL8AlJ9IkAEiAARyPkINGnSxGeNoRUm+PU+efKkbN++XSpWrChxcXGWDHTt2lWWLl1qLSSogwUGVhVYcFq2bCkLFiwQYPriiy/K2LFjrTUFdVhIITX3ri+//FLq1asnpUuX9lMKeZRjPE3x8fHyzTffyPjx4y25AYl67733bBnqNGHMBx980NZhPiBlgwYN8pEybQerD8gSExHIrQiQxOTWK895EwEiQASIQEwhAGtMvnz5cn0sjPeigQyo1QLkAYRPH+5BMkBUatWqZS0kqHNbaVQWCA/IBfrDMgKZ4aZy5coFJDEo37Ztm0/Mtddea4kVClQvWFkwNuo0rVq1yp42aNDAVwcyBEKjqVmzZnrKIxHItQiQxOTaS8+JEwEiQASIQCwhgAfwP/74g7EwnoumMTE4IlWvXt0eEa8CwgKXMZATEB2QEy8hQGNdJKBTp07y4YcfWiuIFRLGP/v27bNWHndTxMWgXHVx16V2DuID9zIQL+gMS1KgMVKTw/roQeB/sz6Xpq07ytZfdlilcEQ+UBnaZiRB9msT38uIiJjpmzdmNKWiRIAIEAEiQARyIAI/7NkgxxPj5dstX9vZrdiaHGy+Iqks0LSvvPBqW1w0rpjUqlBHLqlYR4rGFZWGNZzyQH1yctkDDzxg3cfgBgYrBgLy4VYGSwziWTRmJRAGmzdvtmQHbmfop9aQQG3dZbCIgBiBtKCfJuRBROAKFiwpMfHqBeIDVzSQKbdMyIFcpthDoGrlCrLn1/1y8NBhqXFBVXtEHum7dRv9ytA2venwkaPy2JMjpXGD+ukVEVP9Ikpi2nbuaSdvXhwYn9JkHGIlP2vqm8lK84wIEAEiQASIQIQRiE84Kiu3fiMrtiyTH/ZuMEeHuKRnGHff+evn+IkAobnSkBkcm9VpZchNMb/6nJgBGejWrZu1XEybNs26lCnJAEmBZQOxMG53M8XBHcOCdthINJx0+eWXS69evWwMi5IOjWlBOep37tyZQpTqBbKEeJwlS5b42oCAIWndI488YvOI2WGKTQRKlSwhFcuXlUVLv5Urr6hvjzqT7Tt22VPU1at7qdSscYHNj355gkx4+3173qZ1Cxn+VD+JK1DA5mGtGfD0KHuOPhNfHSkFCuSXoaNekXXrN9nPr/t+8+tjG+ewfyJKYnTfTDeBAV6xls9h15jTIQJEgAgQgWxEAMTlyw1zZf6GOeIlG1ALlhNYUEA4KpasLBVLVLHa1qpYOyT5gNzNezbatrDeIP+DyW82lh1Yd/DRBKtNizo3StuGHUPK1PaxesSy0yAPsI6AKICwIHhel6hGXd++fe30lEiAwMAC06FDB0uAUAm3MrihwfKB+mBJY2mwShjIjya4tmlcjpa5j6oXXMVgdbnhhht81bC+YIEB1VktSRiLKTYRqGAIzBX16wqIxd59+2X5qrXS684udjI4RxnqqlaqYMkICAzKVy6cbdvc/dDjMmbCJOnXp5eAwIyZ8I7MmzlZIHfQkNGWvIDkDO7/sOzYvddaYtA2p6c8hni4bCYZm+4tne60q3qIGFOMSY4FBuJjIz972ttWb/5DBIgAESACRCCjCIBUTF78hvm8bgkG5BUpUFSa121tCYtaSjI6TqD+IDCbjaUHLmoLjJXmmHFXQ4JFpl3DTtL9unstYQrUl2VEINIIrFmzRnr27GlXZYu07FiRp8Sk/797Sb8nnpXRwwbKjl17LSHB+aiXJljycXePzgLSApcwJSJKXF57cbhMnDTVTlktMytWr5UuPfvI+2++bK043r6xgk969IyoJebMGeVDzjGZHsVGPj0A5tQ+23fFy8dzt8qR+FMxN8XiRfNLj06XCo5M0Y8A77Xov0bUMO0IwOIycGofH3lpa4hDizqtpYUhMFmRYNXBp13DziK3ibUAwRI0a+WHMsmQqpnm2LtlP0Nm7skKdTgGEcj1CFSrWlk+nbtAPpv3pcUCLmb4IKHswIGD0vSaRnLo8BF7jvbelHjqlM/Soq5l3ja5KR9REuMYdUBYYHlJ/dj4ygZS5vxSsmDhUjlx4kRY/Zpf38S2W7AQ/qPhjRN+OyOSyRKXv/1jihw5GnsERi/fOx9ukjXzU+6urPU8RgcCIMm816LjWlCLyCEwc+VUGfBBHyuwuYlHGdh2WLZbPUCe8HnIEJdX5422ZObZWU9Yl7MRt70cuclTEhEgAgERuLxebVs+ZdrHghgXuIIlJp4y7oqlBGWImQGpKVmiuC3TWBm3sAL581uXM7ieJSQm+mJk3G1y03lEl1g+e/aMjX8BmYEVJlgexGXEkAHyxGMPy7133i6vjB4qjRteEbQ95NW59BJ5c9wL8kjve83nHtNnmCm7OKzxUtNH63PThQ81VxCAWCYwmNvajb/Lwq93h5om66IAAd5rUXARqEJEEdhzaJePwIAcjL1rUrYTGPcEEXMz8rZXZMyd71jXNhCuQHE67j48JwJEIOMIKDmBpPLlylgCUqJ4Md9KYiAzaKNliInBamP4TJ3+idzUqrlcWqumXNXoClm9dr3sNaubgchM/egTS4rq1k6Oycq4trEhIcIkRokLSIwSGhydfMGCBeUeE8j01mv/lepmibkpH86UF8e8bmNnnujfxxCbgXJBtcq+9iBCIDxPPNZHRj4zQAoXLmjbo0/ZsqVN2UD594N32zaBxksmUoH18dbHxiXLfC1jncBkPkIcIVII8F6LFJKUEy0IgBQgwX3MunJFi2IePWCV6d2qny2FexkTESACmYsAVg9D4D4S3MY0qdsYYmBAYJAQC4N8w+vb2I87PuZfbW+U3r3ukJbtukvdxi1te42PUQKEVc06dLvfEiDbIIf+E2F3sjMGJrh4pTy2+Pt1cl/PblKoUEH5ZsVqmfDme7L/t99s+y8WLJKunTtI25tbyZgXhsv/fblYJrz1nrS9qaW0u7m17TPlwxky85M5xu0swfQ5K8uWrzJ92ps2reTqRg1M3VxDiqYHHT+YXv7lpjsTESACRIAIEIEMIvDj3o02HiaalzZeuTX9yztnEJ4s645NLLGsMlYacyesWIZyJiKQVQgghuW/Iwbbj3tMkBJ8vAlERgP7vXXB+qBdqH5eObGejzCJARwpCczYF0fYjXy2bd8p40dMlu83/GDaacyM0/7dDz6SmbPnSC9DdP7R7Dr7gbT1G3+Q581Sc0p4tN/x48dl/MR3bZ++fe6zhOYfza6VBx8ZIMct0Umphz9hCVSPEZnSg0DTqyrJrHduTnMwPYK6r2//kQlUc1bOSc/Y7JO7EOC9lruud6zNFptOImF1sB7j2suznV+2AfbRNA+smoZFB9SNrFHSppnRpGOkdXEvebxs2TLf8sUkMpFGmvKIQNYhEGF3smTXMXUhwxG7kyKVOb+0VK9WJcnVTF28ko8XmLqyZfzXY0cfuJS55TmuY06/6hdUsXIhv2yZ8407WtWg8t39AsmDDKb0IXD91ZXSTGAwUrXKRaVt6xrpG5S9ciUCvNdy5WWPmUm7LS8gMu1eaG5jZNwbU2bXZBCvM2be89JiWEMfgYEuRXLBRphuzLFHC0gNNrSEpQYJ+7zkMftC4NOqVStfOeqR1zoQICQcUfb6669L/fr17TlkqByUYdNLTTjXduincrQcG1nqOJDBRASIQOoIRJjEGDuMWWbZiTVxjrrs8tffrpJtv+yQ++7uLpPfeEUuq3OJbYf6MuefL/95+D4ZPXywITzVBG2RHItNHlv+3LDBtp3KR0wNyp4a8B/TMo9pu8n2ccgJYnOSx/fqEyxvBfCfLEeASyFnOeS5dkDea7n20mfZxLFBJRIC6Hu37OsLnu8+rp00H9ZARswaLAvMxpewhmRFgssYiAvIFMYfY1Ymw9iI2cEmm0iXJFmPskKfaBmjevXqsm/fPruZJQjFnj175OTJk7J582ZbPm7cOElISJBBgwZJtWrVbB1c0B588EE/crJ//35Zu3atJUXYYBNysUFmuXLlBMQEMkBUsHlmv3797LNJIDloM3PmTLsx5/Tp0/3GiBbMqAcRiDYEIuxOBhcth0A4E4XLmJO2btsuk9//n9zQ/Hrp3uVWQ0yelHXrN5nPRpP/l200c/bnps1HUqN6VRvngroZH38u7W+5Udq3uVHenfiKzSPAH3JOnDgpcEODXMi4rM6lRg7Ii6OH43qWUh8QHCc5x+R8UjEPRIAIEAEiQATSgYBaYmD1cPZhudeQljkyadHrZvPJjXaPFg2kR1uQnitrNLGbUF6SRICUXIQ7PEiJE4MTb93YMDY2uoQlyJ0qlKgk7a/sbBccAMnqNradrS4SV9TdLNedwzKDDywgICJIHTp0kJ07d8ry5cst+YiLi5MGDRrYOpAUTc2aNbOnIC/16tWzbbCIEYiPplWrnBez2h8WF1iBpk2bJh07drTNKlasKBgD/datW2eJ0MUXX6wieCQCRCAAAhEmMUoOQByMfSRP8oiOZeSszJv/lSz7ZoUlJh1u+afUq3upfL18pYx9/R0T9/K77aAcA32OmdiXSVOmydz/+0p63N7R9kMjLAYwzvQ5bveXSSYq6OuM5R0/9XyytjxLLwKIcZk0zbGKpSajR8dLrTtZau1YTwQCIcB7LRAqLIsGBEBCYAEBmQBZwCpl+CC/Yusy+XbL17JiyzLZe3i3OeI8eIA9NqwMRDIgC59QqUiBooYk1bH7w1xpdIIsd9LAfm+5u01uOJ8yZYp07drVWlNAUDROBucgFKjDR9P27dst2dB8asdt27ZZy0zp0v7u8u5+IEFMaUMASw9jd3q8EHcnPFdOfHWkb6Uvd537HMsTj5kwSe7u0Tlk263Gi+iuB/rZFcFuatVMBg0ZbcXoimDIjDax21gRTNOIp/sHDNbXej1C9hcLlsj9dyffX1rnPq5YvVa69Owj77/5slx5RX13VbrO/zfrcxnw9CjbF/vTvDVutC/0I10CPZ0ira9HvC+baSQGIygZ0dHU4qHEBOWwoAwe+pw2sUdth4ye79v/m4z67xgb94JynAdKDoExTMaklOP79/DW+9cylx4E8GD59PPLw+qKAG3ExDARgfQgwHstPaixT1YioCRGx7SEpqRDaLQMBOYHYzU5ZqwpsJzEJ8Tbc1htkLzWFO3nPqrlBpYca90x7mEgJhgvtQTrTG5MSiwKFy4sS5YskV69eknfvn2t25jiAdIB6wrcwJTYaJ3GtGg+1BEEBS5iIEWlSpUK1ZR16UCgl9m6Q1fxUmIzcdJUX1kwkSAw2IsFJCZUQlz3ojnTbBMQH3dCHqRmx+69snLhbEuGlPRgs0rVy91Hz6HrY0+O9O0To+WZfYR+Yya8YwlRzRoXWCI49vXJ4iZlGdUBRGvL2kUZFZNq/4iTGJAIBK1pUhKi5MJd767zb68k5KyJsTnjJ89QE9M0j4/cqLxkWc7iAm55Xn1C5bUfj+lDAEHXZ3/9d/o6sxcRSAMCvNfSABabZikCWO3LWmIO7zTjOnEnwRS40rTFJ7Wklhe4n6nLWmp9QtWr9adiySqhmuXIOsSfgFSAnMCNCx+QEsTEzJ071y7HDPeyKlWqSOPGjS3Jad++vcyYMUNGjx4tH374YZpwUTcyuJXBRQxjIB5HXcnSJIyNQyKge7G4d7R3Wx3atG5hH9Y/nfulz3LS9rZ7rCUCgmFx2WM2kURSa4qSEuzNAkuMO63fuFlmz5lvCYHu8eImPWir/d1yIWfoqFeSwio2CfQFiYBe4VhIlKypFUp19Y6H+YJgufeZOXjosJ3joqXfWqvO9Hdfc09JAuGFBiBr8ceO27Y/b/1FmlzVUH78eZvP6oV+IEew6mAMt+XIi4HbohRoPCxHHU46J5xG4bZJJhKIS3E+7r7eeq3Ttu56rcPRWw8io2Va721fyPikIpYGLmiw9uhH8zA3usfTc7ccnhMBIkAEiAARSCsCutpXau5eaZELqwrITiQIDMbVhQU0DictusRiW8S64AUmPrVq1fKzroBMgFTA8gKScsMNN9hAf8xz+PDhAvcxxLnApWzs2LGWiKQFAxAXEB/IxvhKhBjzkhYUw2ubmHjKPrSXL1dG8CAMtyaQAjw0w1KCB3pYYLDPCiw4eBac9cEbUsG4VMEaMXrYQGtBQB0eyPHwHSqBCEAGLBqBEiw1geTuNURpcP+HbV+Mhf1jUDZv/iKrJ3QtXbqU7eu1/iiBATGBtQNzwxwxVx0PfSGj8603p3C3Uz3h/vbogKG2j5YFw0vrQV4G/OcBa5lq+89/GOviQTl0+IiV8c23q+WK+nUtltoeR7U4gQRCX8x31EsTbHlq47nlBDrPNEsMSAG+rDgiAB/kAcsnvzr+LZtHuRIHPUf7li2ul4fu62l1RcwMLDHTP/5Mjhn258hzYlvUQoPNM//V7mZBW4yDmwDyIKd3r7sCzdmWvfPeh7Jm3QbbVvUM2pgVRIAIEAEiQATCREBX+wrHFSxMkRFvhsB/pEiRoogrGCGBcN+C5SNUApnACmOBEoLtA/WHpUafYdAP7mZul7Px48f7iQs2hrfcK9dPCDMBEcDDuDseBQ/J6sblJhm6m71aadzCdCNKkJamrTtaSwViRTKa0iIXFpyJY0b5WUKqVqqQQgUQCVhg+v+7l62rW7uWwOIy9aNP7Obwq9euNxaj5ta1DeQKJMud4OoFjIAZrEhqSUJ5MLxADpHcJAWyQZa+W+e4vmJcEBWvFQX6guxcXs9ZuVGvDeQFGw9kzCsH7b0pwiQGq4K5Xb2cfMfu91pi0uofzeSaqxrJ/2Z+IiARjmuYY2mpf1kdGdD3ISlXtoxsMSuZvfPCq3KrISd3dussrW9oJm+/O9UE939p9TccxSYQFdSjz9rvN8qI51+WffudxQHq16tjSc3Ap0c4jZ2e5l/H1Q0xNs4qZsn6uhrylAgQASJABIhAuhDQQHzEt0QiwaKDZZKRul93T4oA/fSMsTtpUQDdnDM9MtiHCEQDAkpaNLi+WlUnFgwPwiAseOBveH0bn6p4qNeHci1U6wYetuEOhQdzWGIymtIiF1YJuGCBkMCKAnezQGnHrr0CglWqZIlA1bZMMQjWAESi6TWN7HhoA8vImNFDwsYLfZQUwgJz8mQCinxExWaS/oG+gVJq1ycbSAwIiRPDgjcUjoXjjLWiDH/uJfnfjNny0P09fcQENxfSS88Nlb8lkY5nR79iyQr6L162XOpfVlsG9vu3ITgPC0hQubLn+/UBGenT7wn5zjBAtajgeGH1agL2993a7/3Kk/VK1k/7WcH8hwgQASJABIhABhDQ1b6w7HG4CTE0GqDv7YM9ZtQ1Dcs1z39iZYYtKCovp1tivFgyn3MRQIA+AvVBPvDWH5YNuJWBtKS2WplaN+CahX5qXUgNLRABWDTQP9CqYWmRq1YJuJkhtidYqlq5grUUIe4EugZKWFQgtaTB9yB/n85dICfNnkbB8ALhCJQw/35PPCs7du3xs9K42wbTFyQl2Hju/qHOIxwTA8sLNrx0jo6lIzn/05at8tB/BsmAp5617UBckGpeWN1aWm7t2lPmfLHArz9cvm69vae8+tqbcpFpB6sLPjh/9bWJ8q+u98jqNd9bOTpewYJxts2adU55MH20vdZbIfyHCBABIkAEiEAGEcCqXxp3kpqoZ2c9Yfds0f1j3O1BNvBBTAw+kDl58RvuJuk633vYecgJZ1GBdA3ATkQgixGAZaBzh5vtA/6M2Y4LIR6yYYkBmYBVpEO3++1yyF7VYNWAdQNWA7SbOv0Tb5OAeXXl0hgPNFKXNJCDtMiF9URjTHTBgECDqosYSA+StkX8S/VqVSyZAJnDPOYvXJYiJgZ6wWXOHe8Dt7CSJYpb60w4eKle6lK2bsMPclWjKwK6gHn1RSC/jh/u9dHxvMcIk5hkwgJiALcvJQju/BJjYenQpacs+dq5AIVNXAuIR7D2UNqpd/zItpibsX2Xu+TD6bMDyq9Zo7qd509bfglYj0q3Ppq3nYL888EHH0iLFi2C1LKYCBABLwJY6eeiiy6SBQsWeKuYJwIxi0CjRo3k448/TlV/XfVLVwEL1gFxM0pKxhqXMS/xAXEBIVIyAzlj5o2W5sMaWBczb/tg43jL1RLjLWeeCMQyAlj1C+5YsI7APQvWBqzcBTctuJQhxqR3rx52ivoAjXJYNRBHggB55IsVLeKzdoTCA9YEBOUjyB79LqzfVFq2625lwWULlpJgctUdC7qCXDX4W10bY4L+sG7Uq3OJXYjA6/qGfrAsgahgPPcqYNDnwXu7WzIEfeDq5Y2JwfwR24Jx0B9WmOeeedy6h4XCKxAOOgcQQI158bZDG8jHOBgPGGMBBWCT1vG8svMY9yqHGXhr0pFv0vymNPXq2aOL3NW9i7W+tL6huRw/fkLenDRFphm3M03XNWksDz9wjzE5lbWB+EUKFzIbYJ6Q3o8+rk1SHFUuLDi/7nOWykvRKEDBsgWfpigFeRkyZIjdubdChQqyZcuWFG1yWgH2eRnyQnh7vejcn/pPY3m6b2PNpumYnvHCGeCr6bcKluFlyh4E/vrrLylSpIice+650rBhQxk0aJA0b97cT5n0XHvea34QMpPFCJQvX16OHj0qNWvWtJsj3nLLLQE1ePyDh2XWyg9l8gMzQy6hDFcxEB1sTHksMV7aNuwkI2/z94UH0QFxQWpRt7XMWPGhXcIZebiDdb/uXrOZZqew9oVBH8hr90Jz67727oMzUcREBDIVgTVr1kjPnj3lu+++y9RxcrtwuH25N+PEYle6USdWZMtpKRMsMVh1DJaOs9Kx/S0CYlCoUCGb13L3EYAOHfmiPPjI49bc1+fBe+WdCa/YBQBefWGEjHjmCRvT0n/wMNsGG2UiQb5bjjsPS8zxEyfsSmXu8mDttdwKTvoH5AXLMN5///3yo1lTHg9ir776qrsJzzOIADYrXPTNblm30VmMIYPi2D3KEMB3Bi8A8J7kq6++kg4dOkizZs2yxTLDey3Kbo4YVgfL4+bPn1++//576datm90MMZBlppKxoCCt2Los6GxnrpxqCQwsLQsGr7JEBsTHa71BjM3YuybZT7uGnQXEA+QIhAeWGLXMDPigT1ibYx5LWnAALmXesYIqywoiQASiHgFYYuBWhhXH6jZuaa0tsLp497eJ+omEqWAmrE7mEAwTWy+IgUG6sPoFxoryvX2YQR7EAvW6OhlcuxCA/8C/H5N/tvqH/Lv3vTJq2GBLRGCZmfq/WfYcPZwE41HyEs0qT41KF5pl337ess2MpzE6znha722vecieMGGCvPjii7J//345cuSIM5z5t0SJEma1sxPy0Ucf+coy42TlypX2rXVmyA5X5qZN8eE2DasdHiB37I6XhV/vFpzjg/NAqVjR/FK/9vlSvJhzrFa5qODzzoebZNK0TYG6BC1btGiRHNgbPDguaMcorThuCDx2l46lVLVqVfN9d76HeHsNMoM3cXXq1LEER6RQRKfDey2icKZZGKxvIK85ORUwDwn58uWzUzx27JiPzOBef/rppy1ZR6Wu+hXM3QvlI2Y9aeWMvO1Va1Hp3aqfKRssIz4eLDP/E9oNUzfJfKhlP3nVWGkWrJ8jIEX4oK69ITsgOYHSD0nLK8OlDJagHsaS82DLvhleLCDQWCwjAkQgaxHQgP2sHTV7RoswiXGsIyAoeG756WfH9epywwJXr1lniQusHlqPcyedte1R/snnXxgLyj4Z99IoS17eePs9v37J/ZWYJMtD/8LG6gPXs8/mzrekKbm90y5UHrr83//9n/zyyy/yxx9/JOnmHJBP6y69fgLCzOzdu1e2bdsWZuvMaXYgsYERHLmH/zv6fGEtLtBWScotrWpYsnIk/pQcOXpK7uh0aUjXr2CkJxQC2KBsw3eB1/4P1S9a63APnnfeedGqXth6JRpz99dffy2bN282fa4Iu184DXmvhYNS5rUBYT3nnIga+DNP2QxIPn36tF9vkBncz4j/gsURSVf9+mFP4BXKYD0BkWlep5XP3QxkYuaKqdaagiB/5FNLiJmB+1l8WwT8v25czRzrDiwszxpCBDczkBldMQ3yjplxkTA22mGsFWZ1tEkPzPDpbRvwHyJABIhAFCMQURKjFg0lJ0fjj5t9W36zK4nBcgJiA6Kh9WoZ0WNyvcNunHKHGAFD1CM5/VPKQz1WOkOCFcirT7J82ySFPiiFpWXVqlUydOhQS2gSzJJzSAcPHpSRI0dKjRo1bD4n/4M4hYWr0hYTkxoe9Yx1Ze3821M0AznBJzNiV3r06GHkDkoxJguyDoHZs2fLvHnz7IBwwcHD35133ikDBgyQKlWqCO61SCfea5FGlPLcCMBa/vnnn/uK8GKhbdu2gh3ha9eu7SuvVdE5P27iXLxJg/kRBzOw7TC/auRhHUGQPwiIkiG/RgEyaNfbWGXwgTVG42ZAUPAB2WlRp7WNqfnWEBekHtf1suM/+FYPS5x6jGtPIhMAWxYRASIQnQhE+JUZiAVWJcPRcfn60VhjQCw071/vgOJu77ie+Ew0KeSBDDmESI/+48Hqg7T5R1iBUurjP7633naVBg0a2NVnFi9eLG3atBHs2Is0YsQIpwH/TTMCxY2bGFPuQ2DgwIFmU7FE+3b+jjvusFbG1157zRKYzEKD91pmIUu5QAAuY1h5D+SlY8eO1j0SVno3gUE7JR8gLN4EdzGkHk3vTRGMD1cwjXWBJSU9SeNmFjyxSga0HWpc22rb1c1AZrqNbedbFADWF1iDJpsYG7SBrjNNTA4TESACRCAWEIgoiUm2qDgEA/mfft5q3buwqpi33iEkIq+9/JxcVLO6q16hc8gMCBA2xHlu+FNyef3L7OaZ6OuVh/xFNWvYFcl+3bcvYD0kK6Hy9tdR9egmM1heedasWbJ1qxPno214JAJEIDACsML8/PPPdkUauEiOHz9eEDfARARiFQFYYRBrF4q8uOemm1e6lzPWYH60G2OsLbUeLZvig+B+JBwDkSBbGcY/sL7AJW1W3y/FTWi0K1zasErZlYMuks1JG3Oqq5m24ZEIEAEiEK0IRNSdDKQAnzzGZwxEAceVZp3ue+7sJgi2R/C+u37Cm5NtvkvHDjLlrddsPMwLL48zWDnkxYiSQgULSpdO7eXeu7pbDF9/a7J8MG2mtdBAvlse8liZDMQJFpdA9d727nywiwQyM2fOHOtmlhvcyYLhwHIikBYEYMX86aefSFzSAhrbRjUCWCr822+/TWF1SU1pkBgQCqQiBYql1jxN9YhpmbzkdWtpQUcsKAA3NO8mlkpobJ0hLVgR7coLm9h+K41FBgmkC8s1MxEBIkAEYgGBiJIYh7gkrz6GPAgFUoPL68mq75zgfnc7EJkpU2dIv0cekJtvvEGuv+5q+WqRsyQlrC43tf6HVChfziwM8L08New5Y2WBhUWD+Z3gfpVXqGAh2xaLAyBpebhH2ynEPyAzTESACISPAC0v4WPFlrGBgNdtLJTWjYxrGAgCVgNTUoF9Xjb/N/z9y0LJx5LKsOy4k+MSNtVaYOBK5k2bkxYawGac3v1ovG2ZJwJEgAhEMwIRJTFODIq/JeZofLx177roQgTEO7EysJA4xMI5Hjt+TAY/M1JmfzZXevXsIW3+2dJiBuKDzSr/8/iT8uWipQEtK245F1/kBPWvXrPWZ4lx13vH9eaj+ULFum5HzSpk2BPGm7hHjBcR5jOKAO+1jCLI/pFCoIgJtkfKDBetZ2c9YQmMXRyg3VC5skYTO9b8DXNkzNzRNpi/SFxRG+hvK5L+2XN4pz0DwWIiAkSACMQyAhElMerC5T3++NMWG6viLffmV6xaY93Pbr6xpXTtfKslLhPenORyGXNcxLz9NH95/Xr2Wvzw48/2qOXhHmP5QkaL7lgy2UtM8FD5i9kb5qnRKVei0iWWU1tCGft/MBEBNwK819xo8DwaEbjEuHYhZSSuJdC84J42efEbtgpB+e7lkxEDg3GxwhnawD1MFxlAB3d8TiDZLCMCRIAIxAoCESUxmHQgwrDZkJjrr2siRYoUlvj4Y0kxM8EJCSwyH386x2N5Cd7esaickYZX1LeWm2PHjodNfNz6xspFi2Y91274Xf7eIeWGoE2vqiQLZ9yaQnVdYvnpvo1T1LkLsBTvkBdSkiB3G57nLgR4r+Wu6x2Ls4UlBCk+IbIvYVZsdVyuvfu/KEZwXUN8C1zZ4D6mrmyoV0KllhvtwyMRIAJEINYQiCiJcRMC4zHmcxnbnGQZeWPsi4JdxzWmJdJHuKytMptqOnokjx9uPtYuXjTqW7/O+fLVdH+y8u8nF0WjqtQpxhHgvRbjFzAXqK8WEg2c904ZQfm9377DLnPsrdM8rChj7nzHj4ioNaVS0mIB2tZ91HgcEB43iVFCpQTL3YfnRIAIEIFYQiCiJAYTTyYyGhtzRlZ+t8YE6y+1lhi0AcGJ1BFB//hgPxp8Zn3ibEKWHAujFpxkffxjYZLrHa34b0YQOHI0ZewL3Mm4d0dGUGXfQAjwXguECsuiDQGsArb38O6AaoFgYJ+WUAn1XiKisTah+qrFBauVudOPSUspK8Fy1/GcCBABIhBLCESUxIDAIDnLFjuWEOSPHo2Xh/sOsBYY5JFAZGCJ0ZTe/LzZ/5O9v+6TW7vcmUIeiAySV59gedWFx/QjgNiVQLuwV63kuFWkXzJ7EgF/BHiv+ePBXHQigFXAQGJgdXFbRNza9m7ZN0UAPuqxjwv2kvGmFnVaywizEeasldPMKmS9fMs3aztYalZu/cZmvWOC+IBYMREBIkAEYh2BiJIYrD7muIjp6mMOUUm2fDj5ShXLmxXIWkutiy+UlSaY/2MTA+PEygRuH6x/879fKxUrlJMnhjyb5LoWXn+vPM3H+sWMBv2vv7qSnP31336qXN8+ZYyMXwNmiEA6EOC9lg7Q2CXLEcD+LCvNTgOhrCZpVQoyEQ+DzTDhjjbgFrM6WdJqYyBLA6Y+bMfrft09fkH9qEMCsWIiAkSACMQ6AhElMY4LV7IFRmNeki0iIlc2+Ju8+sJIn2tZ8+uvk25dOkr72+4QBORrLA2ADdS/xd+vk+FPD/L1R7v777lT/u/LRWH1DyUfspgyB4F1m5yAfzx4Vqtc1H4Q7M9EBCKNAO+1SCNKeRlBQONWNpu9YrBHTKTSQLMHzOY9G2ygPlYi8yYE9g9sO8yvWImUbrzpV8kMESACRCDGEIgoiTG0wxfM7yYgsHRoHgTkmAnub9e5h3ED+9WsKPY3mfTGWBnQt48MfGpYWP3hPvZg5/7p6q+xMqqPOx9j1y5m1MXKY1iFDO4/Xy1zjjt2J6/WA1Jj42aK5ReQHLieoYyJCKQVAd5raUWM7TMbAY1JUQIRqfEQ8D+r75fW5WzGiqm+uJtaFWpLj6b3SruGnVMMBSKFpMQqRQMWEAEiQARiCIGIkphkiwuC6GGRcZDQGJSLa9Y07l/lZcCTw2TP3r2W2Hy78jsbjA+LTGr9G1x+ubXAvDN6ql//BQsXSzj9vfp48zF03aJOVSx/nN4lkEFuXnpjTYo51a99vhRPIjaBNspM0YEFuQIB3mu54jLnmEnqHi0/mKWOMyP1btkvYDxNoLGUSCmxCtSGZUSACBCBWEEgoiQGlhiHsGhMDCwwuipYchR/UbNfjK5ihnrsHyN2xbLQ/Y8dO5aEKyw+zqpi6I8E605q4zsWoWR9vHkriP9EDQJrN/5udUltI8yoUZiKxCwCvNdi9tJFveIaq7L38K5s11WJlBKrbFeIChABIkAEMoBAREmM25ICnZRg6HHjDz8aC8o+6X57J1m+crX8sPknadGsqbWizJz9mZ8lJlT/3vfdLZtMX/Rvf8tNtv+kKVNT7a96BDtmAEd2JQJEgAgQASIQFAHd2yVQg5kmQH+F2ZjSm0L18bYNJ69EqlbF2uE0ZxsiQASIQFQjEFES47aEgCi4LR2av7/Pf2TK2xPk42nv+oDBZpjDRr5g8smWGG3vPQbr/8rY18Pq75XnzvsUyuUncOFiIgJZgQDvtaxAmWNkNwIIsseGlyAl7qB6PUd5KMISKfcvHYOWmOy+Izg+ESACkUAgoiQm2RKDYBjHlQxKnj2bnN/0w0/S9B83S4e2Nxs3siI2tmX6rE9se7RFcrf35jPa3yvPncc5k8gdnS61e70g2D5WUz0TT4NFApiiGwHea9F9fahdZBAoGucsVIJNK9uVTA64R/B9oAD8yIzqL0U3vwShYiICRIAI5AQEIkpi/C0pyTErjkUmOR9vYlvemjzFY6lJrve29+Yz2t8rT/M54YJGYg7Fi+aXtfNvl3c+3BQJcVkuA2/38XDMFP0I8F6L/mtEDTOOAIjKgg1zZcAHfeRYwjHB/i1ZmSYvfsOuYoYxGyXtJ5OV43MsIkAEiEBmIJDHuFMlR9xncITql15uJCBC3y0ydvLbNn2XQQTYnQgQASJABIhASgQmLX5dRswabCvgztXObFaJfWMyyzIC97X56+cI4m10VTJskDnytldSKscSIpDJCKxZs0Z69uwp332Xs5+zEv6bzyCpz72xeYx79HQm3w2REx9hS0yyKxiITLKFw7mQ0Z6PHKyURASIABEgAkQgGYEe190rl1SoI5MWT7BWGZAafJCwglnFElVsvIxaSi42+72kFrsCF7HjifGGpMTbTS9tbM3hnbJii/8iAdg7Bhtf6kppyVrxjAgQgYgicNaEUhiBzvOueQ5GaEWM5SOKRyYLiyiJwbLHTnIsMclGntjIZzLWFE8EiAARIAK5GAGQCHxANuZvmGMtJbCYOKTDIR5j5kUGIFh4QIia12ktl1SsExmhlEIEiEBIBNS3yTk6BAYdYi0fcpJRVBlRErN989oomhpVIQJEgAgQASIQfQhgVTJYZvBBgkUFxGbz3g2y27VSGQhOsATrShHjloZ0iVkyGVYbrGIG2SQtwVBjORHIXARge3EYS5IrGXZ+twwmhvKZC1FEpUeUxERUMwojAkSACBABIpALEADpwAcxMkxEgAjELgJ2MV4bE4M5gMAkHe2Usj6f98Kb5Zwy9eRs4hH5a9cSOfPbOkevkPrYypj4hyQmJi4TlSQCRIAIEAEiQASIABGIagRsTIzGhGtMTNbn81ZtKvlbvyHnFKvqB9efP8+WxM/M6oh/HDUGosD6+XWI8gxJTJRfIKpHBIgAESACRIAIEAEiEP0InDGWFxvMn2SBcXZJxL6J0D2PZEX+3LL1Ja7zF3L21FE5OaOjnN2/TvIYMpP3ojZyXoPeEte+uJx8/4ag+kQ/yskaksQkY8EzIkAEiAARIAJEgAgQASKQTgQMUUmycFhfMhMTk9X5/M1HWwJz4s0r5Uz8TsficmSn/LljsXErOyr5rxkkeet2l9PfT8Yyain0S+fEs6XbOdkyKgf1IbBs2TK7FB+W45syZYqvHOcowwdt0pISEhLkvvvusx+cpyVhLLcewfr++OOPUr9+/bDaBpMRqnzo0KHSqlUrOXjwYIpmilk4uASaD2Qrtjgin5YEfDB3YJAdSecP3d3XKjffM4Hu+UDXPiPXC/ci7kn3veO9BhmRH05fvfY4RiplhsxI6UY5RIAIEIFYQuAsTDFwKTNE5iyOWZyX84pJ3irXyR/fvyt/GeLiHT9xsfO8c65pE1S/GAKcJCaKLtaSJUtESce2bduyXDM8lD/44INZPm5aB2zSpIn9A4FjqOSdjz7o4qHtwIEDVgaOyIP0KfahZEZbHe+ZwFfEe+0Dt0pf6TPPPGPvHfxILV26VLp27epHJtMnlb2IABEgAkQg5hGwBAazcIiMQ2iyLn+uCeK3yVhc7DYnAfQ5c3SHjZUJVu8IiI1/SWKi5Dp16tRJtm/fLidPnrTWBzxYo8yd3G/a3ZYAfZOqFoYRI0a4u1lLA94Yox2StkeZWjvwlrlPnz6ybt06+1AGWdpO5aJ9MKsFHhqhE9rg47YQeOtUD+jinlO4REL1UjluGaHmg52CJ0yYIIMHD5ZSpUpheHtEHuWoV10fe+wxOx/VSTHAHIGRO6k+bjxRr+XaNxh2bllpOec9kycg+Tx06FCKexm4uu8Tva5qXcH1Rplew48//jjgvey9PiDSIDXvvvuuz2qo95B+F3AfKIHWcbWNN//2229bPVAOnVSfQBZJ6KL661ihvnfuOjcWX375pXdazBMBIkAEiEA6EIDhxRIXBL8YApHV+T+2L3a0zm+WXw8w/llTjmD/M0d2BKy3+qZj3tnVhSQmu5D3jFulShXZt2+fbN682X5w3qxZM18rPPR8+umn1oIA60G5cuXkxRdfTGE9ALMeMGCArx/eFD/55JPy3nvvCR64IAfWFuRBmKpVqyaDBg2SggULyssvvyz16tWzdXiwdyfIRR/IUvKg9XhAgy5jx461zB8PdaNHj7ZjKTnq16+frw4P8yiHHLzFho6YE0jc888/r2LDOmI+GAu6QQbSuHHjLDnxzgcPa5hf6dKl/WQjj3KMryk+Pl6++eYbGT9+vCU3iiHKUKcpGJ5eqw7w82KqMtJ75D0T+J4pWbJkins5tXvt+++/l+HDh9t7cd68eTJnzhz7/XDfy8GuU/Xq1e13F/cf7geQS73fcV/i+7Zz50659tprZfny5fYcbUGGcc/he6j37uWXX26HQbuePXv6/hbMnTs3xfD4Dt1+++32e437S61CSpqCfSf1O6MWpRSCWUAEiAARIALpRMCJMYGrlkMIsj7/544lct5l3UTsymT+48dd5zzbnVr7XlD90jnxbOmWgsQcPnJUOnS7Xy6s31RWrI69zSuhM3TH53+zPveBinMtX/LNCnl0wFD7SUhMtG20HuXusqatO8rWXwxjNcmNDWSNfnmCLY/EPxdeeKE0btxY8KCNBxuQlLJly/pEX3zxxfLBBx8IHmbw0I0HLW9ykx7Uwbpwww032DfFeNhBWrVqlT02aNBA4uLi7IOVPkjZigD/qFxYOVq2bGl1dDeDHDzsQy9YKvDArwmkDIQM4yHhQR5zgCUEc4W8WrVq2TxI1p49e1IQM5UV6ggyBLn4hCILwDUQiUG524UPD5yYF5LqifkrZqpLOHgqftonUkfeM6XsA3w494xeQ++9lpj0/ce9h3tSCa1efxCUtCT3/YB+uGdwb02bNs33HQBhwXcOCd9jfEegH77/lStXtuV6n0If771pG5h/0A/99f4CAerVq5e1CqFNsO+k6tixY0crSvvbDP8hAkSACBCBdCNg94lRFy4ckywy5j2Tn4XGnc+Tv7icW8U8c1z3hBS4dpA9In9uWbO/Sxj9fS5rZjzExOQx1pY8BYpJsXu+lfPqdrUxMpBX+F/TJP+VD8qpde/JaVhsgumX7tlnfccUJObnrb/IuvWbrCaLln6b9RpFcMRvvl3tIyTbd+zySc5/3nlSvlwZ2bF7ryQmnrLlWr967XrZ++t+X1np0qWkZIniNj9x0lSpWqmCrF8+T0Y83V8mvP1+xIheoUKFpGLFirJp0yZrccFDlfthG29X4TKCGAg8BOFhJdw0ffp0+4YY7fGgjjfAeJiDPDz8g2Tom+BwZbrbqUsL3kB/+OGH1iqi9fqwpnk9wlKBh088hGGe0AXkB+3xZjrcBHLXoUMH2xxzgRy324xXTqC5Yu4oT+sDK2RnBp5enYPlec8k3zNey5cbs0jda26Zwc5xPygB8bZRQgJXNXyPYa3B93jFihXWKonvvxLnasZCCutoqITvSiDLIvrApQ4EKtB3MpTMaK3Di6X0vHhK73zwMkxfgukLLry4cr/Yw0sslLlfdIU7Hl6MoZ+OEW4/tHtt4nu+F2uh+ukLPbfOodqnp07noS8I04qFvhiM5AvB9MyDfYhApBCwwfJJyymDqITK57v4ZinSfa6UeOxXKdpjnsQ1NQQm6YN8sXuXS/GHf7DEI0+B4kZWaHnnlr3MyJsn55a7TBIWPSt/Hd0phW553cqGvPNq3SyJ346V47PuNdNFzE5geZHCIivkpCAxIC716l4qbVq3kOWr1lrrgyqCP7j4IzXp/ek+qwbO8eOCP2Kw4OCPEpL3j5v+sdY/rPpHD0et0z9oWqfl7h+wp579b4qxVD/38bomjXwkBXIxF5Rpqla1siVrIG1aj7o9hsAcPHTYV9a4QX0pUbyYJUO/7vtNlOT8q+2NsmXtIrnyivoqMsNHvBGdOnWq/XgfqPVNMlxeUnu4UUVg5YCLCRLeBCNBLh588BYXLij4rF27VkAG0pv0jTDcybxy8DAG0uQlSXhYw0MbdESd6qJWmrToAsuLutOgn7qyeWUA30C6YHyUQ9dgKRD5QdvMwDOYDoHKec+ctdY3uJAFS6HutVD9gsnzlruJC+6HYPcKLD14OYF7De5it9xyi/0OPProo34WFa/8YPlg3y20h8sYXhAE+k6iPtD3AOXRmuIKFEjXi6f0zAe/Xf2eeDZgV32xh98k/B5kdcJv4tTps7N62IDj4be8Zbvu0rvXHfa3EL+HOEdZZhKngMqwkAhECQIgBjYWxVhQfATGWDzOuPJ5jYWlSPc5UqTTh3Ju8WqSuHysxE/tLEfGXyUHni4kh0ZWkKPvtJITc/vLmcR4KdRqtCUz+S5uY2QGln9OmcssWYG8Y0bWia+Gy5HXGls5x2f1MsSllxx+6VI5PuexVPWLEijDUsOPxOjDPB7cO996s+8h3y0JD/kFC8ZZawSIztDnXrFt582cbB5GDwqsFfgDP/b1yTJ62ED7x63XnV1kzIR3LLHBQz/+2K1cONuSpYrly8rl9Wpb0nD3Q48Lxkb9+2++LAOeHuX3xxAEovttHUTHmr8w+DKjlSuWs/qApOAD3Zq6SAzGxNg7du219bA+vTp6iNUJP1SHDh+xfUB23Anzz6w/0nhTC4KBj7pf6djuhyMNUNe6YEc85MDFBJYKtcaoXLiU4A01Aog1uDiYHAQtoy0Ihtt9Rdur3ngzDKsM2muCxcftggYriS5KgAdwyAMJUmtOWoPf1UKFIx4Q4ecf7E24utsgRgEPeUg4Io834hqPoLrrUcmPYoa36JrSg6f2jcRRsec9ExrNSNxrgUbA/YPvVrdu3aw7mvt+QHt8Z0Bq3K5bX3zxhRWFawe9kNSt0mbC/Mf73dK/C9AFLwhwTwT6TkJH1OHFCJIewxw225ql9cVTsJdiOgEQAn1hpi/g0OexJ0fal1n4/XFbCPASDMQFv2+w1uP3yP1iDHLVOgO5KlPLkdcXft9v3Kxq2N8+1Lnbu3VTF2cQA+jk/g3CeG65GDcYgXDL9FpM0EexcNfpC0StgwwklE/96BP7svOmVs49jHKc47kAdWjj1Q/juF9wDh31Crr5UqjxgMPdvfvbj1tHX2eeEIGoQCApFgauWiAc2OAyiXggn6/adVL0jrmSt1x9ObnwWTlkiMUxQyz++OFTOf3r97b9XwlH5fQvS+XkN2MssTnydiv5c996Kdp5qhRuO8FPHuSfV7+rFL/vG0N4jlrSkvjDJ5aoYLzT25dKwpr3JHHNFPnz8I4U+nj1Qz6Wkh+JUVeyptc0kpo1LvA90LsnpKRD34zBaoO2cLmC6xUS6v47wqwAVbKEtdzA7cqbQEBAHG5q1VxqXFDVRyQwNlLd2rV8fwwTEx2XL3Xt0rHUBcwrG/nq1arKFfXrCggJiAr6ljnf0Q/1bhmoxzzq1b3Euovhh2rXnl/tj0XVyhXQ3M7pwXu7W+KDfJeeffxialCW0YRAbfjFB3oIV996PLjgoRuxLnhACcf16oEHHrAyYY2BpQRvZ+F6BYsOZMC6g7fVOj7qQGxOnXJwx8P9VVddZfsgUBlkwZ3UpQv98GBWvHhx35tevH1GgD0e9NR9Td8OQw7kXXPNNbYfSFffvn19ot2uZuir5MfXwJy4ZahLGiwzGNc7H/RDnABInbrT4Yg8ytWVxy0f5zoG5gccihYt6msSCk9fo0w80TnynvEHWXHRexn3cKh7zb936BzcHnGv4YP7B25hGnOG+wEulbAGoh5H5FGOhPYgLPieQ0clodXMvR+uhVW1wz2OlwJK5PE9guUV92uo76TeszoPlRftx7S8eAIZCfVSDA/jeLGGF2JwD4abMB6oCxTIL88987j9Ow+X4X59evlgueSiGj5L/HfrNtrflIZ/u8xXjwd0/HZAnr5ow0s9Tfi9w8tBvKS7zPy+aUIbvGTDuLD6Qw7ICl7k4d9B4soAAB7qSURBVGUf3J7HTJhkrf7QCb/BkK9eACoX44JAjHppgiVGKh9HEId5852Xh5CJ30O8aARpUMsTxoMM/G5qHcbF+OjjfrGoJA5u2fi916TPBW5XbdUP88bvOmRjfMjUl6XaP9h4Wo9nlAH/eUAWzZlmnxu0nEciEC0IuPdlcWJODJOwhOaswAJT7I45dv+WI2+1lBNfPuu3j4u3veZBaNA+ce0UKWAISxFDZOB9gvpCLUfaPEjO4XFXyem9ZvXUpPG0f5rz0QJmGHrkdbdRVzKQEvwxhVVEXcqQDzfpDwj+ML81brTgDz5+MDThjyby+GPcvk0rWwwigTyIT7CEHxr8yCipCdYO5bAW4Q/sjz9vsx/MpVRJJ7YF9ZADeVqPc8zxqkZXWN2KFClkiQ2w0ASyNdf8eAwaMlpmz5lvP2gP17L0Jjxw2JsxSQAepjV56/BWN1DytsPDuFsO8u6+3vYqU/tpXzwcIdWuXdu6nGk7HPEgBDc0TSAO7oB6uMVp8rbVchzx8KcPgO5yrzx3HeS5MQsmwzsflZGabPe8tI93jOeee06r7EOjWx+tCIaz1qf36JWr1wvyvHXu6+4ez9tOsdI2sXjPuHHAPJB3l3mvIdp45+m9V719guEJWZq8MrQcRxAPt4xAbd06e/XzXjevPPdY3vvc/Z30ynF/d90younc/eIJeoV68aQv5Pr/2yEh7pdi+JuOeEk8rFcwvzl48MbDNF5M4RjsN6jOpRfb30P8nuEFGn4z8DujCaQCH1gfAr240xd+2h5HkBUkEAT8viAF+h1WC5Bt4PlH5brngfm7E2RPHDPKum7rmNAfSQkZcIEMvIBEwu84fv/x24nfRtRjLPxWK0ZeTwX0Q9mncxdYbwbkVT+cK/mB25lbJupCjYfrh6TXzGb4DxGIQgTgQoaEl1jOc4GTz1uimhS/yyEwh980z72nkvZxSbJ8eNsHysdPv1fOGCtNwasesJaZfNWukfyXmDgXY2WBm9iZhCMYOeD4geS59fPWWyEx8I/PEgNigT88eGvS8Po21rSMP8TIh3LbCjRH/QGBO5n+YXa3mzF7rrVy4A+Z1sPiofEo7rYZOYdVZ+HS5fbj/WOLP9YgIFqPc5SpHlOmfWx/pEB23En/yONNGEhXKGuQux/PiQARIAJEIP0IuF88wargfvEE166vFn/te2AO9VIM1gdYCrxWhNQ0i4szvw/mwR8ECA/3+M1wkxh114IcWBnw8B5uUvcr6AbC4v0ddls2wpXpbqfuYtAdusFioynYb5i6VOM5AO5keC6AXu727nO3PPWa0LJwjuGMF44ctiEC2YmAdSEzRMYdAwNLSNzfB9oVw45M6SxnE+JT1HvbB8sf++wxOfXDZ1K49ShLYGDNiZ9+n/x1EqQoyYUtwPjB5AXUNzsBTOPYPhKDtzEgEXgjBLMvPvqH2L3KVzjy8ZYGD/j4IcHblanTjX9eUlKyhD/wLa5PdkvStzx4C4W03vgMw9qBN2NeIpEkKtWD6gFd4IrgTeoqhnI9Vz1Q5v6Rg97ww8VbNnfykiN3Xayf69taHJmIQDgI8J4JByW2SQ8CaXnxpC+jsEiLN9mXVYaMhLJuePsgX9CQGBAX/C7hYV5/M1B36tQfltyAHPTu1QNFYSXEi8JFDDLxmwfd8LuD30f8/upv8fR3X7OWi7CEBmik1p3B/R9O8XuK3zB4TYBEuJNavqCj6oEjXOxgwYJVxIuhkjCQvVC/24HIT6jx3HrxnAhENwKIgXFcvSxBMJaRvMZiEve32+W4IRx//ro+Rb23fWr5eENkkE6ZOJrjX45IVV6e4lUkf62bpJAhUvkvuSnV9tGNr792lsTgDw+Iitvsi2Yw98KUrCty+XcNnoN1BbEuMFvj7U2xokV8VhYlS+43TQjYwx+8ia+OtG+48NYHpn0QKvX7DT5a8Br9QxvsrZCSHPe89W0fpGp8Ds4xJ1iW9K0Ugvsxx4y4kkEuExEgAkSACISHgJs46HmgF09aFuilmLoN6+8afv80SF3dloJpo2O6fzPQNn9+/2X7NeYzmBwtB4HAyzzIU2sMfnfw+wiPBrwEROC+9+WZ9scRbTGezsOrG9q4iYq+IEQ5kr7gw28zkgbj49ztUq7WHBxBtvCCEeQLcSyacK4vH9HGm/Q3Wd3U1WsD7fR5Q+vc43nlME8EohWBQPu6xF3e1ap7cum4NO/7EkjeX4d2SsJ3UyTfBddKHrMvjBPzYoaAJcazr0yhvw+QUr2/luJdzaIAzQdK8dunSpnBeyyZCdTe9o9WcAPoZWNi8MdG/WC9bfDWRYMb8SDvfmjXcu2Dt0Wa3P20DEeQErcMdx30cMvQOq9+wdqpfLwt0uSeF8Z212E+CBB0Jx3L3U/rvf21nEciQASIABHIfAT0xRNeTIGoIOmLJzzM64snPBDjpRiC+/FSDMn9Ukx/g/AyCgkWlOFP9bMP5/qgjZdweLnX4PLk4H0lR4EsDYjvhEs2XtzB+l+vziUpLBV2MM8/0BWxOxqTg98ZWGeQR3Jbd5RwQG+0QQJpOXDgkNRt3NKOizhUyHQnECV4RKCf6qYuavqCDuNhzqhXGbAqwdqCOSFhTOiHhCPcqu96oJ8vBgh9UQaZgRJ+X2ENwnWBTMwN+msKNh4IGhMRiAUEnJgYY4lJiokxS8DIeYZsJG76TP408SzIG7bhV5+ePOTFXX67ITLXGdnG28k1nsor3HyAIS4D7Ngnvh4nZ04ekbwlqkrRm0caUvOBHHzjRvlj29IA+sQC0o6OeUxgj0GTiQj4I4AljxHUjBXC3AkrPKGciQhECgHea5FCknJyGwKwmsByAcLmJS65DQvON7oRWLNmjfTs2VOwFHxOTnsfL+o3vXNLVJGy/TfIsfkj7MevMoOZCiPjg8rVcUF2Dk2+zW+kc+KKSZn+G01szhHZP6qOXx0ykBsryVpiYkVZ6pn1CGDfFV25CKuVYRlXJBKZrL8WOX1E3ms5/QpzfkSACORmBE6fPi179+7NsRBUqIAV/5xVyWBxMduJW8sHJnx67wYTeA+DiX99RvKQe171a42lB3vXJVt4MFBc7ZtQLUc/edwZN0kfjIdFAE4Y17YiLR6XfBUukz/2fG9qHX1RH0uJJCaWrlY264qgbTxoYjNL7FuD5V2xOSX2m0DC/hfYtwLl3rfrun+FEqEJEybIuHHj7H4ykIkEOdiEz72vBjYT7NSpk22HNipHy3v06GGtRbAYuR+C0ZYpdhHgvRa7146aZx0CXpfurBuZIxGBtCOQN29eadiwYdo7xkiPPXv2ODEphhCcMQTGEoMkX6e/sPyxrh6Wot7bPrz86b3rJX91s8xyL2cT2kAw/XlwpylOKS9x6xJLYvLkd2JqvPoGkhWNZSQx0XhVolin6tWr240rDxw4IJs3bxZ8abHh5s6dOy3ZADHBhpWDBg2SatWq2boZM2bYDTpBTjTt37/f7jOjJAhuapAJC8+LL75oPypTNxMEQcJGn245IDMzZ84UjIGNBbEzOvbeYIp9BHivxf415AyIABEgAkDgb3/7m8ClLKcnX4CGsWicMQRG8+cUKG7zPjtHUn1G8vkq1JVTJqYl/osR1hBjLT1JAMfVuUkKX3O/nGtWJvvzsCEynvHyGwsOkrM0sznx1NvKGPjHrk4WA3pSxShEAG/LsTHf888/b3ciX7fO7BRrEsjH8uXL5dprr7WbCTZo0MCWg6RoatasmT3FgyqsL2iDHcurGeKjadWqVfZU+8P6g53pp01LXoyhYsWKdgz0w/juMVQOj7GPAO+12L+GnAERIAJEIKcjACJh92uxq4SJcdVab6ecr3xdG2/vrU9v3lpQjORTW5ZK4pZlkvjz0qRzJ39s8Tg7brE2I/z0sUTHECoQnD8P77L6ufVFfSwlkphYulpRpissI+o/CfIAdzIknINQdO3a1dbXqlXL5rdv327rw/1n27ZtlrSULl06aBeQIKacjwDvtZx/jWN5hrocMFZCwwd5TboJJsqxXDKWTfYmXUpZ++sxWHtv/1B5XTI50Lih+mFvtNcmvheqCeuIABFIgYAT86KuY2fMxpYgC/lrXJtklfGvhwnFrq/lcjULJ6+WlD+MS1mg9n8e3CXHlrwmsMiUvuM963YGy01c7X9K2UeWCIL7D8963GifcvwUU4riApKYKL440aiaEovChQvLkiVLpFevXtZ9zK0rSAesK3ARw5dLP2ldDAAEZd++fbSuuMHNRee813LRxY7hqYIcjHppgl1+eP3yeXbZYORRDiIwZsI7tg6bVyJNnDQ16GzdG0uG0z6ooAxWQPfHnhwpx0+cyKAkdicCuQuBM0n7tMCVDEQG+YT1nxkS00SsS1mAetvO1T6cfAFDTs4kxsuJ7z9zxgnQ//DMAXJ03khLZMo88JmUe3SplL7zfTmnYHH5/e3brV6B9I2lK0YSE0tXK5t1RfzJ9OnTpVu3bgI3LnxgXUFMzNy5c33LMVepUkUaN25sSU5CQoIN9q9fv76gf1qSupGpWxnGAKlB3AtTzkaA91rOvr45aXbY6R473mNPGSTsMYb9zrDkse5FpvvSpGXeuv8N9mnBPiluiwry2CQaH91DBYSpaeuO1hLktQbpuGoVwhEJZAXWHrX8wIIEeUNHvWI30cTmzu4xVA6PRIAIBEEAxMW6ZCUdTf7oIse1q3jbkcmEA8H2Sjw87b39vfm8xqJSuOFtxo1saaryjswdJbuHXmZIS1c5YgjN7291ld3P1JWT6z8POn6QmUVlMUlMVF6W6FEKK4bBZQwfuIVpkD00BJkAqYDlBUH1N9xwgw30R93w4cMtwUGcC9zKxo4dm+aAewToI4gfsjE+ju6VyzAOU85BgPdazrmWuXEm2Km+6z2PBHQXA8Foe9s90rnDzb7No1PDaO+v+2X12vVSvlwZuwlnqPZqOend6w67oTMsOmoN0n4/b/3FWoVQB1KlZAUbd8KChI0s+z3xrGBcbEiJTSjRFqQMm1QyEQEikDoCNqYErmFJFhfk4dp1fMUHlnjApcu6mrnq05ov2dYE8ptUsM6NUuS6+1KVh/FPrPtMjswZZS03Z07G++mXYvzUpxk1LbjZZdRcCipCBIgAESACsYgALBvY7V4TCIHX+gLSMGjIaNtk+FP9/IgBSAh2sV+3fpOKsEcQCd3I0r2xJaw0blnrN262BOStcaOt9cctBP1gUUFq07qF6NggVnc90E9AfKCr5kcPGyg1a1xg9WncoH7YpMs9Js+JQG5FYPu/S1oXeve+K3CpPzeuuFR6CosfnZVdQ+qZjSYNkcAyzOYFLeq97YPlz799rBS+soscmjlICta9UQpc2ESOf/u+HHi/d7rkBRq/2kuHYuby0RITM5eKihIBIkAEiEA0IgASMG/mZKlYvqxVD3EwIAXuBGvGVY2usNYVWDsCJXdMDKwjsJLAguOV5e27Y1d4GwjCWgTCg3Tw0GHZY/QA+YI7Wct23W0+XFleHZgnAkRAbAwMVvvyuYoZiwvyf5oNJn995WYDUR6p+NhigUuYjX1Jqve2D5Q/v4tDYI4uHC9HvnrNyjsGC0+jLlLhsUW+mJtA4weSF2z8WLqOJDGxdLWoKxEgAkSACEQlAhr/AisMyAFIgjdt37HLuN+WkpIlinurUuSV9KSoCFBQtXKFoGOiOcjV+2++bF3Epn70iXUlK1WyhC2HvlvWLvJ9vBakAMOxiAgQgWAIGPcx61Lmi3lJzifuXi97DZE5x1hlKjw8W4q16m+IR7Gg7R3iIcbaco1U6r/IkhUQmAPTB5rRHaL0+7sPym/v9ZbzKtaVcg/Ntsdg46u81OqDTS0ay0liovGqUCciQASIABGICQQ0WN69rDJIA0iCLr2MI1zGlq9aK3DRQtB/agnuZ1gsQElPtaqV7QICWEhA42VUBty/4Hq2aOm3tgg6IchfLTiQgTaIyVFrTAWj4xX169oxMJa3j8rmkQgQgfARsATBxsSAzSQRGFf+1K71smtkUzm1e4OUvLG/VBmyVsoYF7GCdVpLnHENy2NITf6Kl0mBGldLidb9paIhLyA8eUtWlb0vt5EDHxkC45KH8Y4t/8DW5StV1baNM6TnLBiL+R/uZkWuvM3E43Q2Mqo4hMnT3ysv/Nlmf0vGxGT/NaAGRIAIEAEiEMMIuONOMA1YPa68or6dkbvOHZPinm6wmBiQIY1zcbe5/prGtnvRIoVTxLjACoSkOoSKpUlMPOUXi6N90F/1dsfloJyJCBCB4Ahs6V0qibnkMY0MizAxLw5zSJmPq9lEije7Xwpd1jqowFN7NsjRL8fL8XVmNbGEIyHl5a9UR8r3es+Qlcpy6LNRUqjejZK/knFbc6UjXxlLDoiQseQE0+/CMQddPaL7lCQmuq8PtSMCRIAIEAEiQASIABGIAQR+fsCQmHSkuIuaSD5jKclXqoqcPrhTTh/aaVc1w3laEjaxrPTIbENe6hjSEy+//2+glQUZJZIIU7yx3Oyf3Duo2JrjYofE5A06C1YQASJABIgAESACRIAIEAEiEB4CcNUy/wVa9SvUKmQJP30tJ88uM/aR9PXX8bB88l9mEQEQmB3Dm1oipPqc/HGZlPnXs8b600vil0+Vkz8uDTheeBONjlaMiYmO60AtiAARIAJEgAgQASJABGIYAV0FTPeJyY58QWPVOfrNB3L6wC7fKmmqz++fPmfRLdroNuNNlryKmtZbfWMIf1piYuhiUVUiQASIABEgAkSACBCBaEXA2ffFHXMCC0xW5QtefI0F5tSuDUmhOP76nDWWGrio5TVua45a/vU2hidaoQ2gFy0xAUBhEREgAkSACBABIkAEiAARSAsCsGhgnxYQBHvM4vwfvzsxNAjoDza+xt0Eq0/LfLO7LUlMdl8Bjk8EiAARIAJEgAgQASIQ+whY8oJpOEQGC5RZi0cW5eFCdtLE1xS9qpNdpcw7ftlOwy3GR7/+0NErgH6xdBFIYmLpalFXIkAEiAARIAJEgAgQgahEIDkGBuxAXDEpWZff/8ETcm7BYlK178dmmeXWdsWzuJpXSdmOw6RE83vl2Nq5cuKHpcH1i0pkAyvFJZYD48JSIkAEiAARIAJEgAgQASIQNgKb7i5jLBxmdTJYXkwvZ5uYrM8XNrExFXq+aghMJT/dD81/XX77+DnBKmbB9Lt04m9+faI5QxITzVeHuhEBIkAEiAARIAJEgAjEBAIb7yoTVXoWuby1xFWuY5Zdjpf4NZ/bFctSU7D2W7FDYrg6WWpXk/VEgAgQASJABIgAESACRCA1BNK5T4zu85LRfWK8/Y+tnivxq+ekad+a1KYYTfUkMdF0NagLESACRIAIEAEiQASIQEwigJgYEAlnv5Ukl7IYy8cS8Azsj6WrRV2JABEgAkSACBABIkAEohQB1waSCDpRApO07HIs5KMU2IBq0RITEBYWEgEiQASIABEgAkSACBCB8BHAPjEgKpa/4JhEZGIrH/58s7slA/uz+wpwfCJABIgAESACRIAIEAEiQATShADdydIEFxsTASJABIgAESACRIAIEAEikN0IkMRk9xXg+ESACBABIkAEiAARIAJEgAikCQGSmDTBxcZEgAgQASJABIgAESACRIAIZDcCJDHZfQU4PhEgAkSACBABIkAEiAARIAJpQoAkJk1wsTERIAJEgAgQASJABIgAESAC2Y0ASUx2XwGOTwSIABEgAkSACBABIkAEiECaECCJSRNcbEwEiAARIAJEgAgQASJABIhAdiNAEpPdV4DjEwEiQASIABEgAkSACBABIpAmBEhi0gQXGxMBIkAEiAARIAJEgAgQgbQhcPjIUenQ7X4Z/fIEX0ecX1i/aYoytEP7jKTXJr4nW3/ZkRERUd+XJCbqLxEVJAJEgAgQASJABIgAEYhlBAoUyC9VK1WQX/f9JgmJifaDc6Tlq9Za0oJylKEd2qc3/W/W5zJ1+uz0do+ZfiQxMXOpqCgRIAJEgAgQASJABIhALCIQV6CAlC9XRlavXS97f91vPzhHOnDgoBw6fMRXdlWjKwTt1XoDaw0+ICfupJYc1D06YKglRitWr5UBT4+SPWaMlu26C/I5NZHE5NQry3kRASJABIgAESACRIAIRA0CTa9pZMnFwUOH5bt1G61er44eYo/Ioxzko2rlCpbA3P3Q49K4QX3ZsnaRvP/my5acKCkBgYEFZ+XC2fazY/deGTNhklx5RX0Z8XR/qVi+rMybOdnmowaACCtCEhNhQCmOCBABIkAEiAARIAJEgAh4EShVsoQlFzt27ZXtO3bJFfXrSr26l0jp0qVsHuUgH2j389ZfZN36TQLig1S3di1p07qFTP3oE9m7b78lMCA4JYoXs5/OHW6WT+cuyPFxMG5M87ozPCcCRIAIEAEiQASIABEgAkQg8giULFHcEpZvvl0tsJyAhFQoV9YeYVVBPAyITQVDZGCZUULj1QRuZnBBq1a1srcqV+VpiclVl5uTJQJEgAgQASJABIgAEcgOBGA1AXGZPWe+n5UFZARWF5QjbgbxMHApg2sZXMy8CXLUeuOty015kpjcdLU5VyJABIgAESACRIAIEIFsQ0CtJ24ry+X1alurC5TS+po1LjCuZpfKoqXfWl3Xb9xsSU7nW2/2s97AKoPP1OmfyE2tmkuNC6pm29yyemCSmKxGnOMRASJABIgAESACRIAI5EoEYGFBUrcxnKubGYgNCA0SrC0TXx1pY1+w+liXnn1scD8C95H69ellrToNr28j+MDCgzIklYHVybwrmtkGOeSfPGdNyiFz4TSIABEgAkSACBABIkAEiAARyAUI0BKTCy4yp0gEiAARIAJEgAgQASJABHISAiQxOelqci5EgAgQASJABIgAESACRCAXIEASkwsuMqdIBIgAESACRIAIEAEiQARyEgIkMTnpanIuRIAIEAEiQASIABEgAkQgFyBAEpMLLjKnSASIABEgAkSACBABIpASASxP3KHb/YIVwFasXpuyQRSVbP1lh7w28T0/jaAzdNdPpOeAMZu27hiVq5yRxPjdCswQASJABIgAESACRIAI5BYEft76i91oEvPVPVmice4gW489OVKOnzjhUw9lo16aICOe7i/rl8+TNq1b2DzKI5Ww78yiOdPkX21vjJTIiMkhiYkYlBREBIgAESACRIAIEAEiEEsIgLhgU0kQgOWr1tqNI936uy0dsEjAMoGUkJgojw4Y6rOAjH55gq+b27oDC4nu1aJ90A/n2k776liT3p9urR/aF22HjnrFkq0Jb79vx0XZocNH5MCBg/LNt6vt2P8dMVimv/ua3WMGBSoPcmBtUnKj5RgXdToPlCO5rS/uc9TpHNAPH9UddSrXOx7qMiORxGQGqpRJBIgAESACRIAIEAEiENUI4KEexAUbRXa+9WZLEmCZ0YQH+H5PPGs3mYSlAxtUjn19sn2QHzNhkm2G8vfffFlALvAQD5l3P/S4lbll7SJbN+DpUWlyVfvt9wPW+tHrzi4ydfonkph4Sgb3f9iSLZSBrMQVKKBqyuw586XrPY/4SAoqVHe10lStVMESIZAQd4KOKnvHrr226rt1G+1RN810tw8273DHc8vK6DlJTEYRZH8iQASIABEgAkSACBCBmENAXcmaXtNIata4wJIEt0sZHuZLly5l60AaQB7wAakA+bmq0RWWTFx5RX0BGcDRLROA1K1dy1p5pn7kkJFwQKpWtbJthiMsLbC4BEpw9erd6w5btW79Jml4fRuf1cdNRKA7dN2xe6/VXWVh3kglihezpAsWHZAwHEHYKpQvq03tUUlfoHmHM56fsAhk8kZABkUQASJABIgAESACRIAIEIGYQkBdyUBg9EFeXcqQ375jV8D5qBtXoEpYMyqah/9SJUsEqg6rrGrlCmG1QyPEqsBictcD/WTPr/tlzIR3bB66I9+yXXefLOgVjBCB0MDqtHzlGlm9dr0lR25rD4SEmneo8YBlZiSSmMxAlTKJABEgAkSACBABIkAEohYBuD99OneBfdCHBcOd5i9cZskBLCFog4d394N4yRLFrYUmEMkBAQF5OHjosMBSkhVJg+8RewPXNYwN3UFa3ho3OoUeqPcmEDlYnTR+J5ArWah5hxrPO1ak8nQnixSSlEMEiAARIAJEgAgQASIQEwjA/QlkA/EscAXDZ+XC2dalDO5UiB3RB3l1lUIQOwLkkRBHo1YbECJdhtjrlrZ+42Ybs4KYGxCh8uXK+Ny61PUsvYCBcCCIXgPyIUetQG7dNRhfFxQINB50w5wWL/s2oCsZ+mibQPNO63iBdEhrGS0xaUWM7YkAESACRIAIEAEiQARiFgE81IOoYFUykA5N+pAO68teQ3Bg4Rg9bKB06dnHWjjUsoF2vXv1kF/3/WbjUNAfAfe6DPHEV0fa4H4QDCQQJcTLILVv08pad2D9wYpo0CGcpLphAQGQCIyB8WANgn6aMJZagNy6Yxz08bqIaT8c4VIG+Rrz4q7T81DzTut4KjO9xzxnTUpvZ/YjAkSACBABIkAEiAARIAJEgAhkNQJ0J8tqxDkeESACRIAIEAEiQASIABEgAhlC4P8BsJL3ADjj0gAAAAAASUVORK5CYII=;" vertex="1" parent="1">
          <mxGeometry x="460" y="130" width="817" height="850" as="geometry" />
        </mxCell>
        <mxCell id="f-IwnxBNQnKeJ6FMDn0c-4" style="edgeStyle=orthogonalEdgeStyle;rounded=0;orthogonalLoop=1;jettySize=auto;html=1;exitX=0.5;exitY=1;exitDx=0;exitDy=0;entryX=0.5;entryY=0;entryDx=0;entryDy=0;" edge="1" parent="1" source="f-IwnxBNQnKeJ6FMDn0c-3" target="f-IwnxBNQnKeJ6FMDn0c-1">
          <mxGeometry relative="1" as="geometry" />
        </mxCell>
        <mxCell id="f-IwnxBNQnKeJ6FMDn0c-3" value="&lt;div&gt;It is running on multiple EC2 machines behind a load balancer.All the APIs are handled by this web service.有好多db连着它，比如shipment db, waffle db...&lt;br&gt;&lt;/div&gt;" style="text;html=1;spacing=5;spacingTop=-20;whiteSpace=wrap;overflow=hidden;rounded=0;" vertex="1" parent="1">
          <mxGeometry x="710" y="-30" width="190" height="110" as="geometry" />
        </mxCell>
        <mxCell id="f-IwnxBNQnKeJ6FMDn0c-5" value="&lt;div align=&quot;left&quot;&gt;1. in Texas.&lt;/div&gt;&lt;div align=&quot;left&quot;&gt;2. listening for order messages where the order is been captured or whether replacement was created.&lt;/div&gt;&lt;div align=&quot;left&quot;&gt;in AWS RDS,不是microsoft是postgreSQL&lt;br&gt;&lt;/div&gt;&lt;div align=&quot;left&quot;&gt;&lt;br&gt;&lt;/div&gt;" style="rounded=0;whiteSpace=wrap;html=1;align=left;" vertex="1" parent="1">
          <mxGeometry x="110" y="230" width="190" height="90" as="geometry" />
        </mxCell>
        <mxCell id="f-IwnxBNQnKeJ6FMDn0c-7" value="" style="endArrow=classic;html=1;rounded=0;exitX=1;exitY=0.5;exitDx=0;exitDy=0;entryX=0;entryY=0.25;entryDx=0;entryDy=0;strokeColor=#FFB570;" edge="1" parent="1" source="f-IwnxBNQnKeJ6FMDn0c-5" target="f-IwnxBNQnKeJ6FMDn0c-8">
          <mxGeometry width="50" height="50" relative="1" as="geometry">
            <mxPoint x="420" y="410" as="sourcePoint" />
            <mxPoint x="470" y="360" as="targetPoint" />
            <Array as="points">
              <mxPoint x="460" y="275" />
              <mxPoint x="460" y="308" />
            </Array>
          </mxGeometry>
        </mxCell>
        <mxCell id="f-IwnxBNQnKeJ6FMDn0c-8" value="" style="rounded=0;whiteSpace=wrap;html=1;fillColor=none;" vertex="1" parent="1">
          <mxGeometry x="790" y="290" width="70" height="70" as="geometry" />
        </mxCell>
        <mxCell id="f-IwnxBNQnKeJ6FMDn0c-21" style="edgeStyle=orthogonalEdgeStyle;rounded=0;orthogonalLoop=1;jettySize=auto;html=1;entryX=1.003;entryY=0.033;entryDx=0;entryDy=0;entryPerimeter=0;" edge="1" parent="1" source="f-IwnxBNQnKeJ6FMDn0c-11" target="f-IwnxBNQnKeJ6FMDn0c-1">
          <mxGeometry relative="1" as="geometry" />
        </mxCell>
        <mxCell id="f-IwnxBNQnKeJ6FMDn0c-11" value="&lt;div align=&quot;left&quot;&gt;generating reports and emails that get sent on the status of how waffle fulfillments going. &lt;br&gt;&lt;/div&gt;" style="rounded=0;whiteSpace=wrap;html=1;fillColor=none;align=left;" vertex="1" parent="1">
          <mxGeometry x="1400" y="60" width="170" height="150" as="geometry" />
        </mxCell>
        <mxCell id="f-IwnxBNQnKeJ6FMDn0c-14" style="edgeStyle=orthogonalEdgeStyle;rounded=0;orthogonalLoop=1;jettySize=auto;html=1;exitX=1;exitY=0.5;exitDx=0;exitDy=0;entryX=-0.002;entryY=0.037;entryDx=0;entryDy=0;entryPerimeter=0;strokeColor=#FFB570;" edge="1" parent="1" source="f-IwnxBNQnKeJ6FMDn0c-12" target="f-IwnxBNQnKeJ6FMDn0c-1">
          <mxGeometry relative="1" as="geometry" />
        </mxCell>
        <mxCell id="f-IwnxBNQnKeJ6FMDn0c-12" value="&lt;div&gt;IIS Website允许vendors login.&lt;/div&gt;&lt;div&gt;Talks to the fulfillment service web download any pending orders they have from outbound shipment database.&lt;br&gt;&lt;/div&gt;" style="rounded=0;whiteSpace=wrap;html=1;align=left;" vertex="1" parent="1">
          <mxGeometry x="110" y="95" width="190" height="80" as="geometry" />
        </mxCell>
        <mxCell id="f-IwnxBNQnKeJ6FMDn0c-18" style="edgeStyle=orthogonalEdgeStyle;rounded=0;orthogonalLoop=1;jettySize=auto;html=1;entryX=0.72;entryY=0.001;entryDx=0;entryDy=0;entryPerimeter=0;" edge="1" parent="1" source="f-IwnxBNQnKeJ6FMDn0c-17" target="f-IwnxBNQnKeJ6FMDn0c-1">
          <mxGeometry relative="1" as="geometry" />
        </mxCell>
        <mxCell id="f-IwnxBNQnKeJ6FMDn0c-17" value="&lt;div align=&quot;center&quot;&gt;Waffle orders/fbw 存在这，是microsoft server on AWS RDS&lt;br&gt;&lt;/div&gt;" style="text;html=1;spacing=5;spacingTop=-20;whiteSpace=wrap;overflow=hidden;rounded=0;" vertex="1" parent="1">
          <mxGeometry x="930" y="30" width="190" height="30" as="geometry" />
        </mxCell>
        <mxCell id="f-IwnxBNQnKeJ6FMDn0c-20" style="edgeStyle=orthogonalEdgeStyle;rounded=0;orthogonalLoop=1;jettySize=auto;html=1;entryX=-0.004;entryY=0.675;entryDx=0;entryDy=0;entryPerimeter=0;strokeColor=#FFB570;" edge="1" parent="1" source="f-IwnxBNQnKeJ6FMDn0c-19" target="f-IwnxBNQnKeJ6FMDn0c-1">
          <mxGeometry relative="1" as="geometry" />
        </mxCell>
        <mxCell id="f-IwnxBNQnKeJ6FMDn0c-19" value="dropship order存在这" style="rounded=0;whiteSpace=wrap;html=1;align=left;" vertex="1" parent="1">
          <mxGeometry x="180" y="640" width="120" height="70" as="geometry" />
        </mxCell>
        <mxCell id="f-IwnxBNQnKeJ6FMDn0c-23" style="edgeStyle=orthogonalEdgeStyle;rounded=0;orthogonalLoop=1;jettySize=auto;html=1;entryX=0.184;entryY=0.506;entryDx=0;entryDy=0;entryPerimeter=0;strokeColor=#FFB570;" edge="1" parent="1" source="f-IwnxBNQnKeJ6FMDn0c-22" target="f-IwnxBNQnKeJ6FMDn0c-1">
          <mxGeometry relative="1" as="geometry" />
        </mxCell>
        <mxCell id="f-IwnxBNQnKeJ6FMDn0c-22" value="&lt;div align=&quot;left&quot;&gt;notifying vendors. &lt;br&gt;&lt;/div&gt;" style="rounded=0;whiteSpace=wrap;html=1;fillColor=none;align=left;" vertex="1" parent="1">
          <mxGeometry x="180" y="500" width="120" height="40" as="geometry" />
        </mxCell>
        <mxCell id="f-IwnxBNQnKeJ6FMDn0c-25" style="edgeStyle=orthogonalEdgeStyle;rounded=0;orthogonalLoop=1;jettySize=auto;html=1;entryX=0.379;entryY=0.529;entryDx=0;entryDy=0;entryPerimeter=0;strokeColor=#FFB570;" edge="1" parent="1" source="f-IwnxBNQnKeJ6FMDn0c-24" target="f-IwnxBNQnKeJ6FMDn0c-1">
          <mxGeometry relative="1" as="geometry" />
        </mxCell>
        <mxCell id="f-IwnxBNQnKeJ6FMDn0c-24" value="shipment workflow, package workflow" style="rounded=0;whiteSpace=wrap;html=1;fillColor=none;" vertex="1" parent="1">
          <mxGeometry x="180" y="570" width="120" height="60" as="geometry" />
        </mxCell>
        <mxCell id="f-IwnxBNQnKeJ6FMDn0c-27" style="edgeStyle=orthogonalEdgeStyle;rounded=0;orthogonalLoop=1;jettySize=auto;html=1;exitX=1;exitY=0.5;exitDx=0;exitDy=0;entryX=0.049;entryY=0.318;entryDx=0;entryDy=0;entryPerimeter=0;strokeColor=#FFB570;" edge="1" parent="1" source="f-IwnxBNQnKeJ6FMDn0c-26" target="f-IwnxBNQnKeJ6FMDn0c-1">
          <mxGeometry relative="1" as="geometry" />
        </mxCell>
        <mxCell id="f-IwnxBNQnKeJ6FMDn0c-26" value="generate tracking number然后send back to Waffle DB." style="rounded=0;whiteSpace=wrap;html=1;fillColor=none;align=left;" vertex="1" parent="1">
          <mxGeometry x="110" y="350" width="190" height="60" as="geometry" />
        </mxCell>
        <mxCell id="f-IwnxBNQnKeJ6FMDn0c-29" style="edgeStyle=orthogonalEdgeStyle;rounded=0;orthogonalLoop=1;jettySize=auto;html=1;strokeColor=#FFB570;entryX=0.612;entryY=0.494;entryDx=0;entryDy=0;entryPerimeter=0;" edge="1" parent="1" source="f-IwnxBNQnKeJ6FMDn0c-28" target="f-IwnxBNQnKeJ6FMDn0c-1">
          <mxGeometry relative="1" as="geometry">
            <mxPoint x="981.3300000000004" y="558.3499999999999" as="targetPoint" />
          </mxGeometry>
        </mxCell>
        <mxCell id="f-IwnxBNQnKeJ6FMDn0c-28" value="&lt;div align=&quot;left&quot;&gt;any package that gets created, (from waffle/dropship/FPS). they are all sending messages to the tracking demon. 这些packages要么直接creating packages 要么 sending a message to the tracking demon asking it to create one on their behalf。&lt;/div&gt;" style="rounded=0;whiteSpace=wrap;html=1;fillColor=none;align=left;" vertex="1" parent="1">
          <mxGeometry x="1390" y="420" width="230" height="100" as="geometry" />
        </mxCell>
        <mxCell id="f-IwnxBNQnKeJ6FMDn0c-32" style="edgeStyle=orthogonalEdgeStyle;rounded=0;orthogonalLoop=1;jettySize=auto;html=1;entryX=0.649;entryY=0.635;entryDx=0;entryDy=0;entryPerimeter=0;strokeColor=#FFB570;" edge="1" parent="1" source="f-IwnxBNQnKeJ6FMDn0c-31" target="f-IwnxBNQnKeJ6FMDn0c-1">
          <mxGeometry relative="1" as="geometry" />
        </mxCell>
        <mxCell id="f-IwnxBNQnKeJ6FMDn0c-31" value="通知买家你的包裹shipped / delivered..." style="rounded=0;whiteSpace=wrap;html=1;fillColor=none;" vertex="1" parent="1">
          <mxGeometry x="1390" y="640" width="230" height="40" as="geometry" />
        </mxCell>
        <mxCell id="f-IwnxBNQnKeJ6FMDn0c-34" style="edgeStyle=orthogonalEdgeStyle;rounded=0;orthogonalLoop=1;jettySize=auto;html=1;entryX=0.942;entryY=0.553;entryDx=0;entryDy=0;entryPerimeter=0;strokeColor=#FFB570;" edge="1" parent="1" source="f-IwnxBNQnKeJ6FMDn0c-33" target="f-IwnxBNQnKeJ6FMDn0c-1">
          <mxGeometry relative="1" as="geometry" />
        </mxCell>
        <mxCell id="f-IwnxBNQnKeJ6FMDn0c-33" value="监听包裹status是不是变了，然后把信息写入dataWarehouse Kinesis FireHose" style="rounded=0;whiteSpace=wrap;html=1;fillColor=none;" vertex="1" parent="1">
          <mxGeometry x="1390" y="550" width="230" height="60" as="geometry" />
        </mxCell>
        <mxCell id="f-IwnxBNQnKeJ6FMDn0c-36" style="edgeStyle=orthogonalEdgeStyle;rounded=0;orthogonalLoop=1;jettySize=auto;html=1;entryX=0.734;entryY=0.859;entryDx=0;entryDy=0;entryPerimeter=0;strokeColor=#FFB570;" edge="1" parent="1" source="f-IwnxBNQnKeJ6FMDn0c-35" target="f-IwnxBNQnKeJ6FMDn0c-1">
          <mxGeometry relative="1" as="geometry" />
        </mxCell>
        <mxCell id="f-IwnxBNQnKeJ6FMDn0c-35" value="&lt;div align=&quot;left&quot;&gt;Kyle&#39;s team, runs on Windows web serrver. Some code is mixed in fulfillment&#39;s code&lt;/div&gt;" style="rounded=0;whiteSpace=wrap;html=1;fillColor=none;align=left;" vertex="1" parent="1">
          <mxGeometry x="1000" y="1090" width="160" height="60" as="geometry" />
        </mxCell>
        <mxCell id="f-IwnxBNQnKeJ6FMDn0c-38" style="edgeStyle=orthogonalEdgeStyle;rounded=0;orthogonalLoop=1;jettySize=auto;html=1;entryX=0;entryY=0.877;entryDx=0;entryDy=0;entryPerimeter=0;strokeColor=#FFB570;" edge="1" parent="1" source="f-IwnxBNQnKeJ6FMDn0c-37" target="f-IwnxBNQnKeJ6FMDn0c-1">
          <mxGeometry relative="1" as="geometry">
            <Array as="points">
              <mxPoint x="380" y="870" />
              <mxPoint x="380" y="876" />
            </Array>
          </mxGeometry>
        </mxCell>
        <mxCell id="f-IwnxBNQnKeJ6FMDn0c-37" value="&lt;div align=&quot;left&quot;&gt;Amazon Marketplace Web services &lt;br&gt;&lt;/div&gt;&lt;div align=&quot;left&quot;&gt;是个API that Amazon has made publicly available for sellers.Third party sellers to access their data in Amazon.&lt;br&gt;&lt;/div&gt;" style="rounded=0;whiteSpace=wrap;html=1;fillColor=none;" vertex="1" parent="1">
          <mxGeometry x="190" y="800" width="120" height="110" as="geometry" />
        </mxCell>
        <mxCell id="f-IwnxBNQnKeJ6FMDn0c-40" style="edgeStyle=orthogonalEdgeStyle;rounded=0;orthogonalLoop=1;jettySize=auto;html=1;entryX=0.379;entryY=0.918;entryDx=0;entryDy=0;entryPerimeter=0;strokeColor=#FFB570;" edge="1" parent="1" source="f-IwnxBNQnKeJ6FMDn0c-39" target="f-IwnxBNQnKeJ6FMDn0c-1">
          <mxGeometry relative="1" as="geometry" />
        </mxCell>
        <mxCell id="f-IwnxBNQnKeJ6FMDn0c-39" value="&lt;div align=&quot;left&quot;&gt;download info of market place order and upload to S3&lt;/div&gt;" style="rounded=0;whiteSpace=wrap;html=1;fillColor=none;align=left;" vertex="1" parent="1">
          <mxGeometry x="710" y="1100" width="120" height="50" as="geometry" />
        </mxCell>
      </root>
    </mxGraphModel>
  </diagram>
</mxfile>
